<svg xmlns="http://www.w3.org/2000/svg" xmlns:xlink="http://www.w3.org/1999/xlink" width="108" height="108" viewBox="0 0 108 108">
  <defs>
    <filter id="Path_904820" x="0" y="0" width="108" height="108" filterUnits="userSpaceOnUse">
      <feOffset dy="3" input="SourceAlpha"/>
      <feGaussianBlur stdDeviation="3" result="blur"/>
      <feFlood flood-opacity="0.161"/>
      <feComposite operator="in" in2="blur"/>
      <feComposite in="SourceGraphic"/>
    </filter>
  </defs>
  <g id="Group_1228573" data-name="Group 1228573" transform="translate(-619.97 -479.615)">
    <g id="Group_1228395" data-name="Group 1228395">
      <g id="Group_1228133" data-name="Group 1228133" transform="translate(628.97 485.615)">
        <g id="Group_1203794" data-name="Group 1203794">
          <g id="Group_1203639" data-name="Group 1203639">
            <g id="Group_1202437" data-name="Group 1202437">
              <g id="Group_1177315" data-name="Group 1177315">
                <g id="Group_1173585" data-name="Group 1173585">
                  <g id="Group_1173428" data-name="Group 1173428" transform="translate(0 0)">
                    <g id="Group_1171958" data-name="Group 1171958">
                      <g id="Group_1167341" data-name="Group 1167341">
                        <g id="Group_1166792" data-name="Group 1166792">
                          <g transform="matrix(1, 0, 0, 1, -9, -6)" filter="url(#Path_904820)">
                            <g id="Path_904820-2" data-name="Path 904820" transform="translate(9 6)" fill="#f6f3ef">
                              <path d="M 44.99999618530273 88.49999237060547 C 39.12687301635742 88.49999237060547 33.43022155761719 87.35006713867188 28.06829643249512 85.08216857910156 C 22.88852119445801 82.89130401611328 18.23629570007324 79.75457763671875 14.24084663391113 75.75914001464844 C 10.24540901184082 71.76369476318359 7.108683586120605 67.11146545410156 4.917821407318115 61.93169403076172 C 2.649921178817749 56.56976699829102 1.499996185302734 50.87311553955078 1.499996185302734 44.99999237060547 C 1.499996185302734 39.12686920166016 2.649921178817749 33.43021774291992 4.917821407318115 28.06829261779785 C 7.108683586120605 22.88851737976074 10.24540901184082 18.23630523681641 14.24084663391113 14.24085521697998 C 18.23629570007324 10.24540519714355 22.88852119445801 7.108692169189453 28.06829643249512 4.917829990386963 C 33.43022155761719 2.649929761886597 39.12687301635742 1.500004887580872 44.99999618530273 1.500004887580872 C 50.87311935424805 1.500004887580872 56.56977081298828 2.649929761886597 61.93169784545898 4.917829990386963 C 67.11147308349609 7.108692169189453 71.76369476318359 10.24540519714355 75.75914764404297 14.24085521697998 C 79.75458526611328 18.23630523681641 82.89131164550781 22.88851737976074 85.08216857910156 28.06829261779785 C 87.35007476806641 33.43021774291992 88.5 39.12686920166016 88.5 44.99999237060547 C 88.5 50.87311553955078 87.35007476806641 56.56976699829102 85.08216857910156 61.93169403076172 C 82.89131164550781 67.11146545410156 79.75458526611328 71.76369476318359 75.75914764404297 75.75914001464844 C 71.76369476318359 79.75457763671875 67.11147308349609 82.89130401611328 61.93169784545898 85.08216857910156 C 56.56977081298828 87.35006713867188 50.87311935424805 88.49999237060547 44.99999618530273 88.49999237060547 Z" stroke="none"/>
                              <path d="M 44.99999618530273 2.999992370605469 C 39.32870864868164 2.999992370605469 33.82865142822266 4.11004638671875 28.65262603759766 6.299331665039062 C 23.65165710449219 8.414566040039062 19.15968322753906 11.44333648681641 15.301513671875 15.30150604248047 C 11.44333648681641 19.15967559814453 8.414566040039062 23.65164947509766 6.299339294433594 28.65262222290039 C 4.110054016113281 33.82864761352539 2.999992370605469 39.32870483398438 2.999992370605469 44.99999237060547 C 2.999992370605469 50.67127990722656 4.110054016113281 56.17132186889648 6.299339294433594 61.34736633300781 C 8.414566040039062 66.34833526611328 11.44333648681641 70.84029388427734 15.301513671875 74.69846343994141 C 19.15968322753906 78.55663299560547 23.65165710449219 81.58540344238281 28.65262603759766 83.70063781738281 C 33.82865142822266 85.88992309570312 39.32870864868164 86.99997711181641 44.99999618530273 86.99997711181641 C 50.67128372192383 86.99997711181641 56.17134094238281 85.88992309570312 61.34736633300781 83.70063781738281 C 66.34834289550781 81.58540344238281 70.84030914306641 78.55663299560547 74.69847869873047 74.69846343994141 C 78.55665588378906 70.84029388427734 81.58542633056641 66.34833526611328 83.70065307617188 61.34736633300781 C 85.88993835449219 56.17132186889648 87 50.67127990722656 87 44.99999237060547 C 87 39.32870483398438 85.88993835449219 33.82864761352539 83.70065307617188 28.65262222290039 C 81.58542633056641 23.65164947509766 78.55665588378906 19.15967559814453 74.69847869873047 15.30150604248047 C 70.84030914306641 11.44333648681641 66.34834289550781 8.414566040039062 61.34736633300781 6.299331665039062 C 56.17134094238281 4.11004638671875 50.67128372192383 2.999992370605469 44.99999618530273 2.999992370605469 M 44.99999618530273 -7.62939453125e-06 C 69.85281372070312 -7.62939453125e-06 90 20.14717864990234 90 44.99999237060547 C 90 69.85279083251953 69.85281372070312 89.99997711181641 44.99999618530273 89.99997711181641 C 20.14717864990234 89.99997711181641 -7.62939453125e-06 69.85279083251953 -7.62939453125e-06 44.99999237060547 C -7.62939453125e-06 20.14717864990234 20.14717864990234 -7.62939453125e-06 44.99999618530273 -7.62939453125e-06 Z" stroke="none" fill="#7b776f"/>
                            </g>
                          </g>
                        </g>
                      </g>
                    </g>
                  </g>
                </g>
              </g>
            </g>
          </g>
        </g>
      </g>
      <g id="colaboracion" transform="translate(641.969 498.613)">
        <g id="Group_1228393" data-name="Group 1228393" transform="translate(0.938 0.938)">
          <path id="Path_1210800" data-name="Path 1210800" d="M166.585,443.928l-8.426-4.462-5.63,5.629,14.139,2.5Z" transform="translate(-134.4 -385.469)" fill="#e592b8"/>
          <path id="Path_1210801" data-name="Path 1210801" d="M147.918,476.33H135.029l-2.5,2.5h16.639l2.369-2.369-2.452-1.3Z" transform="translate(-116.9 -416.703)" fill="#de5ca3"/>
          <path id="Path_1210802" data-name="Path 1210802" d="M463.449,271.785l2.631,2.631,1.25-12.151Z" transform="translate(-406.454 -230.418)" fill="#ffd064"/>
          <path id="Path_1210803" data-name="Path 1210803" d="M447.6,229.783l-2.369-2.369-5.761,10.878,3,3a22.562,22.562,0,0,0,2.632-4.52v7.151l2.5,2.5V229.783Z" transform="translate(-385.469 -199.924)" fill="#ebb044"/>
          <path id="Path_1210804" data-name="Path 1210804" d="M12.631,137.66,7.5,132.529v14.92H10Z" transform="translate(-7.5 -116.9)" fill="#fff0af"/>
          <path id="Path_1210805" data-name="Path 1210805" d="M7.823,182.806l-.323.559v1.719l2.369,2.369,5.761-10.878-3-3c-2.412,3.093-3.455,6.886-4.808,9.23Z" transform="translate(-7.5 -152.816)" fill="#ffd064"/>
          <path id="Path_1210806" data-name="Path 1210806" d="M291.319,137.406c-.979.772-5.616,1.866-6.635.847-1.8,3.113-1.449,4.855,4.558,12.881l-3.151,3.151,5.164,6.106,6.345-4.857a14.212,14.212,0,0,0,5.063-3.194c2.889-2.889,6.334-13.538,7.557-15.655a1.957,1.957,0,0,0-2.9.827,3.874,3.874,0,0,1-.172-3.9,1.957,1.957,0,0,0-2.9.827,3.768,3.768,0,0,1-.172-3.9,1.957,1.957,0,0,0-2.9.827,3.532,3.532,0,0,1-.172-3.9,1.957,1.957,0,0,0-2.9.827c-.093.161-.339.544-.684,1.069-.858,1.306-5.117,7.282-6.09,8.049Z" transform="translate(-249.202 -112.168)" fill="#ebae9d"/>
          <g id="Group_1228392" data-name="Group 1228392" transform="translate(15.67 15.293)">
            <path id="Path_1210807" data-name="Path 1210807" d="M294.719,180.405a12.255,12.255,0,0,0,3.262-1.841l-3.15-4.4c-.73.546-1.408,2.3-2.04,2.751l-1.444,2.5C292.366,180.435,293.085,181.022,294.719,180.405Z" transform="translate(-271.535 -168.623)" fill="#c38778"/>
            <path id="Path_1210808" data-name="Path 1210808" d="M412.875,163.005a1.05,1.05,0,0,0,1.434-.384l2.474-4.285.563-.975a1.956,1.956,0,0,0-.735-2.927l-4.12,7.137A1.05,1.05,0,0,0,412.875,163.005Z" transform="translate(-377.412 -151.359)" fill="#c38778"/>
            <path id="Path_1210809" data-name="Path 1210809" d="M437.079,187.688a1.05,1.05,0,0,0,1.434-.384l2.523-4.37.563-.975a1.957,1.957,0,0,0-.735-2.927l-4.169,7.222A1.05,1.05,0,0,0,437.079,187.688Z" transform="translate(-398.59 -172.883)" fill="#c38778"/>
            <path id="Path_1210810" data-name="Path 1210810" d="M389.563,138.131a1.05,1.05,0,0,0,1.434-.384l2.313-4.006.563-.975a1.956,1.956,0,0,0-.735-2.927l-3.96,6.858A1.05,1.05,0,0,0,389.563,138.131Z" transform="translate(-357.014 -129.838)" fill="#c38778"/>
            <path id="Path_1210811" data-name="Path 1210811" d="M362.879,203.629l-2.783,4.82c-1.549,2.683-2.635,7.2-5.524,10.085a15.532,15.532,0,0,1-5.063,3.194l-5.6,5.607,2.883-.014,3.835-3.835a16.168,16.168,0,0,0,5.335-3.463c3.257-3.257,4.4-7.841,5.948-10.524l1.7-2.943A1.957,1.957,0,0,0,362.879,203.629Z" transform="translate(-317.53 -194.405)" fill="#c38778"/>
            <path id="Path_1210812" data-name="Path 1210812" d="M156.8,293.847a12.06,12.06,0,0,1-2.727-2.528c-.772-.979-1.866-5.616-.847-6.635-3.113-1.8-4.855-1.449-12.881,4.558l-1.4-1.4s-2.658.559-3.781,2.224a14.542,14.542,0,0,0-2.312,5.822l2.084,2.084a16.168,16.168,0,0,0,3.463,5.335,17.54,17.54,0,0,0,4.546,3.16c2.793,1.076,5.409.745,7.277-1.044,2.19-2.1,5.895-5.847,7.39-7.387,1.015-1.046.434-3.352-.813-4.189Z" transform="translate(-132.854 -264.494)" fill="#c38778"/>
          </g>
          <path id="Path_1210813" data-name="Path 1210813" d="M227.443,364.681a2.292,2.292,0,0,1,.188,3.56c-1.5,1.541-5.2,5.291-7.39,7.387-1.868,1.789-3.859,2.745-6.652,1.669,2.212,1.123,4.417,1.887,5.978,2.788l2.943,1.7a2.1,2.1,0,1,0,2.1-3.637l.975.563a2.1,2.1,0,1,0,2.1-3.637l.975.563a2.1,2.1,0,1,0,2.1-3.638l.975.563a2.1,2.1,0,1,0,2.1-3.637c-.562-.324-3.823-2.51-6.391-4.243Z" transform="translate(-187.827 -320.032)" fill="#9d6c6c"/>
          <path id="Path_1210814" data-name="Path 1210814" d="M286.146,294.72a12.255,12.255,0,0,0,1.841,3.262l3.15-3.15q-.82-1.1-1.5-2.04l-2.5-1.443C286.117,292.367,285.529,293.086,286.146,294.72Z" transform="translate(-251.094 -255.866)" fill="#9d6c6c"/>
          <path id="Path_1210815" data-name="Path 1210815" d="M117.936,295.6l-3-3-6.092,8.047,3,3c.858-1.306,2.326-3.49,3.562-5.322A12.046,12.046,0,0,1,117.936,295.6Z" transform="translate(-96.173 -256.963)" fill="#9d6c6c"/>
          <path id="Path_1210816" data-name="Path 1210816" d="M33.232,137c0-1.792-1.639-4.048-4.576-8.046a1.7,1.7,0,0,1,.169-2.208l3.267-4.517-7.376-3.387-3.835,3.835a16.168,16.168,0,0,0-5.335,3.463c-3.257,3.257-4.4,7.841-5.948,10.524L7.9,139.6a1.956,1.956,0,0,0,.735,2.927c1.309-2.268,2.9-.827,2.9-.827l-.563.975a1.956,1.956,0,0,0,.735,2.927c1.312-2.273,2.9-.827,2.9-.827l-.563.975a1.956,1.956,0,0,0,.735,2.927c1.312-2.273,2.9-.827,2.9-.827l-.563.975a1.956,1.956,0,0,0,.735,2.927s5.121-6.87,7.188-9.178C29.42,137.7,33.232,138.623,33.232,137Z" transform="translate(-7.525 -104.922)" fill="#ebae9d"/>
          <path id="Path_1210817" data-name="Path 1210817" d="M45.957,279.613a1.05,1.05,0,0,0-1.434.384l-3.558,6.162a1.957,1.957,0,0,0,2.9-.827l2.474-4.285A1.05,1.05,0,0,0,45.957,279.613Z" transform="translate(-36.782 -245.474)" fill="#c38778"/>
          <path id="Path_1210818" data-name="Path 1210818" d="M21.408,254.334a1.05,1.05,0,0,0-1.434.384l-3.607,6.247a1.957,1.957,0,0,0,2.9-.827l2.523-4.37A1.05,1.05,0,0,0,21.408,254.334Z" transform="translate(-15.259 -223.355)" fill="#c38778"/>
          <path id="Path_1210819" data-name="Path 1210819" d="M70.393,306.436a1.05,1.05,0,0,0-1.434.384l-3.4,5.884a1.957,1.957,0,0,0,2.9-.827l2.313-4.006A1.05,1.05,0,0,0,70.393,306.436Z" transform="translate(-58.304 -268.944)" fill="#c38778"/>
          <path id="Path_1210820" data-name="Path 1210820" d="M99.836,165.522c.979-.772,5.616-1.866,6.635-.847,1.8-3.113,1.449-4.855-4.558-12.881l3.151-3.151-.671-2.7L100,150.331a1.7,1.7,0,0,0-.169,2.208c2.936,4,4.278,6.279,4.576,8.046.226,1.343-4.874.876-8.543,5.972a93.13,93.13,0,0,0-5.707,8.911,1.957,1.957,0,0,0,2.9-.827c.324-.562,2.513-3.823,4.246-6.391A12.056,12.056,0,0,1,99.836,165.522Z" transform="translate(-79.826 -128.634)" fill="#c38778"/>
          <path id="Path_1210821" data-name="Path 1210821" d="M170.846,286.146a12.255,12.255,0,0,0-3.262,1.841l3.15,3.15q1.1-.82,2.04-1.5l1.443-2.5C173.2,286.117,172.48,285.529,170.846,286.146Z" transform="translate(-147.573 -251.094)" fill="#9d6c6c"/>
          <path id="Path_1210822" data-name="Path 1210822" d="M229.784,7.5l-2.369,2.369,10.878,5.761,4.63-8.13Z" transform="translate(-199.925 -7.5)" fill="#bfe2e6"/>
          <path id="Path_1210823" data-name="Path 1210823" d="M296.131,14.418l2.288,1.212,8.13-8.13h-3.5Z" transform="translate(-260.051 -7.5)" fill="#94ccd4"/>
          <path id="Path_1210824" data-name="Path 1210824" d="M151.134,29.612l1.4,1.4a8.1,8.1,0,0,0,3.781-2.724c2.286-3.388,2.312-5.322,2.312-5.322l-2.084-2.084a16.167,16.167,0,0,0-3.463-5.335c-3.257-3.257-7.841-4.4-10.524-5.948l-2.943-1.7a1.956,1.956,0,0,0-2.927.735,1.957,1.957,0,0,0,.827,2.9l-.975-.563a1.956,1.956,0,0,0-2.927.735,1.957,1.957,0,0,0,.827,2.9l-.975-.563a1.957,1.957,0,0,0-2.927.735,1.957,1.957,0,0,0,.827,2.9l-.975-.563a1.956,1.956,0,0,0-2.927.735,1.957,1.957,0,0,0,.827,2.9c.561.324,3.823,2.513,6.391,4.246a12.062,12.062,0,0,1,2.727,2.528c.772.979.867,3.726,1.212,4.639a2.624,2.624,0,0,0,2.79,2.022c1.663,0,9.726-4.584,9.726-4.584Z" transform="translate(-112.168 -7.525)" fill="#c38778"/>
          <path id="Path_1210825" data-name="Path 1210825" d="M228.6,176.689a1.87,1.87,0,0,0-2.417-.2c-7.077,5.133-8.191,4.04-9.022,1.839l-.989,3.373c3.113,1.8,4.855,1.449,12.881-4.558Z" transform="translate(-190.09 -155.057)" fill="#9d6c6c"/>
          <path id="Path_1210826" data-name="Path 1210826" d="M189.155,170.846a12.254,12.254,0,0,0-1.841-3.262l-3.15,3.15q.82,1.1,1.5,2.04l2.5,1.443C189.185,173.2,189.772,172.48,189.155,170.846Z" transform="translate(-162.08 -147.573)" fill="#785252"/>
          <path id="Path_1210827" data-name="Path 1210827" d="M334.686,138.082c1.236-1.832,2.7-4.016,3.562-5.322l-1.75-1.75c-.858,1.306-2.326,3.49-3.562,5.322a12.048,12.048,0,0,1-2.531,2.724l1.753,1.753A12.059,12.059,0,0,0,334.686,138.082Z" transform="translate(-290.041 -115.571)" fill="#9d6c6c"/>
        </g>
        <g id="Group_1228394" data-name="Group 1228394" transform="translate(0 0)">
          <path id="Path_1210828" data-name="Path 1210828" d="M63.728,46.774l-6.313-6.313a31.784,31.784,0,0,0,3.021-5.774A29.962,29.962,0,0,1,61.8,31.8l.341-.591.257.257a.937.937,0,0,0,1.326-1.326l-.612-.612.387-.671a2.885,2.885,0,0,0-1.078-4.208,3.3,3.3,0,0,0-1.5-.463,2.671,2.671,0,0,0-.116-.888,3.052,3.052,0,0,0-1.456-1.723,3.311,3.311,0,0,0-1.5-.467,2.676,2.676,0,0,0-.116-.884,3.052,3.052,0,0,0-1.456-1.723,3.311,3.311,0,0,0-1.5-.467A2.852,2.852,0,0,0,53.2,15.42a2.885,2.885,0,0,0-4.183,1.171l-.031.052L46.114,13.77a17.181,17.181,0,0,0-3.6-5.475,24.271,24.271,0,0,0-7.825-4.729A29.99,29.99,0,0,1,31.793,2.2l-.588-.339L31.46,1.6A.937.937,0,0,0,30.134.277l-.61.61L28.85.5A3.052,3.052,0,0,0,26.365.12a3.052,3.052,0,0,0-1.723,1.456,3.31,3.31,0,0,0-.467,1.5,2.682,2.682,0,0,0-.884.116,3.052,3.052,0,0,0-1.723,1.456,3.311,3.311,0,0,0-.467,1.5,2.851,2.851,0,0,0-2.608,1.572,3.3,3.3,0,0,0-.463,1.5A2.851,2.851,0,0,0,15.418,10.8a3.051,3.051,0,0,0-.4,2.22,3.052,3.052,0,0,0,1.57,1.963l.056.033L13.771,17.89a17.18,17.18,0,0,0-5.475,3.6q-.275.275-.539.57L1.6,15.906A.937.937,0,1,0,.275,17.232l6.31,6.31a22.48,22.48,0,0,0-1.7,2.881.938.938,0,1,0,1.677.84,16.622,16.622,0,0,1,3.057-4.444,15.371,15.371,0,0,1,4.987-3.243.938.938,0,0,0,.347-.22l3.294-3.295c.95.63,2.414,1.609,4.673,3.133a11.179,11.179,0,0,1,1.98,1.7l-2.541,2.541a.937.937,0,0,0-.088,1.225c6.109,8.163,5.943,9.345,4.5,11.851l-1.343,2.326q-.595.431-1.239.908l-1.8-1.8a11.2,11.2,0,0,1,2.148-1.079.938.938,0,1,0-.656-1.756,12.958,12.958,0,0,0-6.241,4.918c-2.571,3.81-4.011,5.979-4.281,6.447a1.273,1.273,0,0,1-.756.679,1.489,1.489,0,0,1-1.468-.848,1.273,1.273,0,0,1,.21-.994l2.876-4.981A.938.938,0,1,0,12.6,39.4l-2.316,4.011a1.035,1.035,0,0,1-1.619.48,1.038,1.038,0,0,1-.392-1.647l3.036-5.259a.938.938,0,0,0-1.624-.938L7.212,40.328c-.425.737-.926.886-1.622.484A1.036,1.036,0,0,1,5.2,39.166l3.086-5.344a.938.938,0,1,0-1.624-.938l-2.523,4.37c-.425.737-.926.886-1.622.484a1.036,1.036,0,0,1-.392-1.647l1.7-2.943A25.154,25.154,0,0,0,5,30.734a.938.938,0,1,0-1.718-.752A23.563,23.563,0,0,1,2.2,32.21l-.341.591L1.6,32.544A.937.937,0,0,0,.275,33.87l.612.612L.5,35.153a2.879,2.879,0,0,0,1.078,4.208,3.311,3.311,0,0,0,1.5.467,2.852,2.852,0,0,0,1.572,2.608,3.311,3.311,0,0,0,1.5.467,2.676,2.676,0,0,0,.116.884,3.052,3.052,0,0,0,1.456,1.723,3.311,3.311,0,0,0,1.5.467,2.676,2.676,0,0,0,.116.884A3.052,3.052,0,0,0,10.8,48.586a3.249,3.249,0,0,0,1.623.466,2.68,2.68,0,0,0,.6-.067,3.051,3.051,0,0,0,1.963-1.57l.031-.051,2.873,2.873a17.18,17.18,0,0,0,3.6,5.475c.185.185.376.362.569.535L15.9,62.4a.937.937,0,1,0,1.326,1.326l6.311-6.311a31.766,31.766,0,0,0,5.777,3.023,29.96,29.96,0,0,1,2.892,1.368l.588.339-.255.255a.937.937,0,1,0,1.326,1.326l.61-.61.674.389a3.373,3.373,0,0,0,1.7.5,2.665,2.665,0,0,0,.787-.117,3.052,3.052,0,0,0,1.723-1.456,3.3,3.3,0,0,0,.463-1.5,2.652,2.652,0,0,0,.888-.116,3.052,3.052,0,0,0,1.723-1.456,3.31,3.31,0,0,0,.467-1.5,2.7,2.7,0,0,0,.884-.116,3.052,3.052,0,0,0,1.723-1.456,3.311,3.311,0,0,0,.467-1.5,2.85,2.85,0,0,0,2.608-1.572,2.885,2.885,0,0,0-1.171-4.183c-.242-.14-1.387-.873-6.335-4.212a11.179,11.179,0,0,1-1.98-1.7l2.541-2.541a.938.938,0,0,0,.088-1.225,43.838,43.838,0,0,1-4.745-7.211.938.938,0,1,0-1.708.775,19.773,19.773,0,0,0,1.2,2.2c-2.217-1.01-4.107-.762-7.571,1.373,1.012-2.219.766-4.11-1.372-7.578a5.7,5.7,0,0,0,2.408.574c1.412,0,2.973-.6,5.163-1.945a6.547,6.547,0,0,0-.42,1.175.938.938,0,1,0,1.821.447,6.422,6.422,0,0,1,.73-1.657l1.343-2.326q.595-.431,1.239-.908l1.8,1.8a11.2,11.2,0,0,1-2.148,1.079.937.937,0,1,0,.656,1.756,12.957,12.957,0,0,0,6.241-4.918c2.571-3.81,4.011-5.979,4.281-6.447a1.038,1.038,0,0,1,1.622-.484,1.036,1.036,0,0,1,.392,1.647l-.553.957-2.323,4.024a.938.938,0,1,0,1.624.938l2.321-4.021a1.032,1.032,0,0,1,1.614-.47,1.263,1.263,0,0,1,.6.653,1.273,1.273,0,0,1-.21.994l-3.036,5.259a.938.938,0,1,0,1.624.938l2.474-4.285c.426-.737.926-.886,1.622-.484A1.038,1.038,0,0,1,58.8,24.84l-3.086,5.344a.938.938,0,1,0,1.624.938l2.523-4.37a1.173,1.173,0,1,1,2.014,1.163l-1.7,2.943a31.181,31.181,0,0,0-1.465,3.084,22.447,22.447,0,0,1-4.335,7.245,15.369,15.369,0,0,1-4.987,3.243.938.938,0,0,0-.347.22L48.03,45.667a.937.937,0,1,0,1.326,1.326l.876-.876a17.18,17.18,0,0,0,5.475-3.6c.186-.186.364-.378.537-.571L62.4,48.1a.937.937,0,1,0,1.325-1.326ZM36.512,37.237l2.322,1.341q.426.588.907,1.238l-1.8,1.8a11.2,11.2,0,0,1-1.076-2.144.938.938,0,1,0-1.756.656,12.957,12.957,0,0,0,4.918,6.241c3.81,2.571,5.979,4.011,6.447,4.281a1.038,1.038,0,0,1,.484,1.622,1.036,1.036,0,0,1-1.647.392l-4.981-2.876a.938.938,0,0,0-.938,1.624l4.021,2.322a1.032,1.032,0,0,1,.469,1.613,1.038,1.038,0,0,1-1.647.392L36.98,52.7a.938.938,0,0,0-.938,1.624L40.328,56.8c.737.426.886.926.484,1.622a1.038,1.038,0,0,1-1.647.392l-5.344-3.086a.938.938,0,0,0-.938,1.624l4.37,2.523a1.173,1.173,0,1,1-1.163,2.014l-2.943-1.7a31.18,31.18,0,0,0-3.084-1.465,22.446,22.446,0,0,1-7.245-4.335A15.369,15.369,0,0,1,19.575,49.4a.938.938,0,0,0-.22-.347l-3.295-3.295c.629-.95,1.61-2.415,3.136-4.677a11.19,11.19,0,0,1,1.7-1.976l2.542,2.542a.937.937,0,0,0,1.225.088c8.163-6.109,9.345-5.943,11.851-4.5Zm8.294-14.311a11.186,11.186,0,0,1-1.7,1.976L40.566,22.36a.937.937,0,0,0-1.225-.088c-8.163,6.109-9.345,5.943-11.851,4.5l-2.321-1.34q-.431-.595-.908-1.239l1.8-1.8a11.2,11.2,0,0,1,1.076,2.144.938.938,0,1,0,1.756-.656,12.957,12.957,0,0,0-4.918-6.241c-3.81-2.571-5.979-4.011-6.447-4.281a1.274,1.274,0,0,1-.679-.755,1.261,1.261,0,0,1,.195-.867,1.036,1.036,0,0,1,1.647-.392l.964.557,4.017,2.319a.938.938,0,0,0,.938-1.624l-4.016-2.318a1.265,1.265,0,0,1-.669-.75,1.262,1.262,0,0,1,.195-.867,1.036,1.036,0,0,1,1.647-.392l5.259,3.036a.938.938,0,0,0,.938-1.624L23.675,7.21c-.736-.425-.886-.926-.484-1.622a1.263,1.263,0,0,1,.653-.6,1.273,1.273,0,0,1,.994.21l5.344,3.086a.938.938,0,1,0,.938-1.624L26.75,4.135c-.737-.426-.886-.926-.484-1.622a1.262,1.262,0,0,1,.653-.6,1.273,1.273,0,0,1,.994.21l2.943,1.7a31.181,31.181,0,0,0,3.084,1.465A22.444,22.444,0,0,1,41.185,9.62a15.368,15.368,0,0,1,3.243,4.987.938.938,0,0,0,.22.347l3.295,3.295C47.313,19.2,46.332,20.664,44.806,22.926Z" transform="translate(0 -0.002)"/>
          <path id="Path_1210829" data-name="Path 1210829" d="M337.869,6.255a.934.934,0,0,0,.663-.275l4.38-4.38A.937.937,0,0,0,341.586.275l-4.38,4.38a.938.938,0,0,0,.663,1.6Z" transform="translate(-294.814 0)"/>
        </g>
      </g>
    </g>
  </g>
</svg>
