<svg xmlns="http://www.w3.org/2000/svg" xmlns:xlink="http://www.w3.org/1999/xlink" width="103" height="103" viewBox="0 0 103 103">
  <defs>
    <filter id="Path_982547" x="0" y="0" width="103" height="103" filterUnits="userSpaceOnUse">
      <feOffset dy="3" input="SourceAlpha"/>
      <feGaussianBlur stdDeviation="3" result="blur"/>
      <feFlood flood-opacity="0.161"/>
      <feComposite operator="in" in2="blur"/>
      <feComposite in="SourceGraphic"/>
    </filter>
  </defs>
  <g id="Group_1228555" data-name="Group 1228555" transform="translate(-184 -1624)">
    <g id="Group_1228275" data-name="Group 1228275">
      <g id="Group_1228095" data-name="Group 1228095" transform="translate(0 312)">
        <g id="Group_1202412" data-name="Group 1202412" transform="translate(193 1318)">
          <g id="Group_1202212" data-name="Group 1202212">
            <g id="Group_1174813" data-name="Group 1174813">
              <g id="Group_1201680" data-name="Group 1201680">
                <g id="Group_1201330" data-name="Group 1201330">
                  <g id="Group_1172010" data-name="Group 1172010">
                    <g id="Group_1171046" data-name="Group 1171046">
                      <g id="Group_1148525" data-name="Group 1148525">
                        <g transform="matrix(1, 0, 0, 1, -9, -6)" filter="url(#Path_982547)">
                          <g id="Path_982547-2" data-name="Path 982547" transform="translate(9 6)" fill="#f2f7e5">
                            <path d="M 42.5 83.5 C 36.96437835693359 83.5 31.59512901306152 82.41617584228516 26.54141235351562 80.27863311767578 C 21.65934181213379 78.21369171142578 17.27447128295898 75.25723266601562 13.50862312316895 71.49137878417969 C 9.742764472961426 67.72553253173828 6.786305904388428 63.34066009521484 4.721364498138428 58.45858764648438 C 2.583823442459106 53.40486907958984 1.5 48.03562164306641 1.5 42.5 C 1.5 36.96437835693359 2.583823442459106 31.59512901306152 4.721364498138428 26.54141235351562 C 6.786305904388428 21.65934181213379 9.742764472961426 17.27448272705078 13.50862312316895 13.50862312316895 C 17.27447128295898 9.742776870727539 21.65934181213379 6.786305904388428 26.54141235351562 4.721364498138428 C 31.59512901306152 2.583823442459106 36.96437835693359 1.5 42.5 1.5 C 48.03562164306641 1.5 53.40486907958984 2.583823442459106 58.45858764648438 4.721364498138428 C 63.34066009521484 6.786305904388428 67.72553253173828 9.742776870727539 71.49137878417969 13.50862312316895 C 75.25723266601562 17.27448272705078 78.21369171142578 21.65934181213379 80.27863311767578 26.54141235351562 C 82.41617584228516 31.59512901306152 83.5 36.96437835693359 83.5 42.5 C 83.5 48.03562164306641 82.41617584228516 53.40486907958984 80.27863311767578 58.45858764648438 C 78.21369171142578 63.34066009521484 75.25723266601562 67.72553253173828 71.49137878417969 71.49137878417969 C 67.72553253173828 75.25723266601562 63.34066009521484 78.21369171142578 58.45858764648438 80.27863311767578 C 53.40486907958984 82.41617584228516 48.03562164306641 83.5 42.5 83.5 Z" stroke="none"/>
                            <path d="M 42.5 3 C 37.16621398925781 3 31.99356079101562 4.043960571289062 27.125732421875 6.102882385253906 C 22.42246627807617 8.092185974121094 18.19785308837891 10.94070434570312 14.56928253173828 14.56928253173828 C 10.94070434570312 18.19785308837891 8.092185974121094 22.42246627807617 6.102882385253906 27.125732421875 C 4.043960571289062 31.99356079101562 3 37.16621398925781 3 42.5 C 3 47.83378601074219 4.043960571289062 53.00643920898438 6.102882385253906 57.874267578125 C 8.092185974121094 62.57753372192383 10.94070434570312 66.80214691162109 14.56928253173828 70.43071746826172 C 18.19785308837891 74.05929565429688 22.42246627807617 76.90781402587891 27.125732421875 78.89711761474609 C 31.99356079101562 80.95603942871094 37.16621398925781 82 42.5 82 C 47.83378601074219 82 53.00643920898438 80.95603942871094 57.874267578125 78.89711761474609 C 62.57753372192383 76.90781402587891 66.80214691162109 74.05929565429688 70.43071746826172 70.43071746826172 C 74.05929565429688 66.80214691162109 76.90781402587891 62.57753372192383 78.89711761474609 57.874267578125 C 80.95603942871094 53.00643920898438 82 47.83378601074219 82 42.5 C 82 37.16621398925781 80.95603942871094 31.99356079101562 78.89711761474609 27.125732421875 C 76.90781402587891 22.42246627807617 74.05929565429688 18.19785308837891 70.43071746826172 14.56928253173828 C 66.80214691162109 10.94070434570312 62.57753372192383 8.092185974121094 57.874267578125 6.102882385253906 C 53.00643920898438 4.043960571289062 47.83378601074219 3 42.5 3 M 42.5 0 C 65.97210693359375 0 85 19.02789306640625 85 42.5 C 85 65.97210693359375 65.97210693359375 85 42.5 85 C 19.02789306640625 85 0 65.97210693359375 0 42.5 C 0 19.02789306640625 19.02789306640625 0 42.5 0 Z" stroke="none" fill="#1d7083"/>
                          </g>
                        </g>
                      </g>
                    </g>
                  </g>
                </g>
              </g>
            </g>
          </g>
        </g>
      </g>
      <g id="lider_1_" data-name="lider (1)" transform="translate(207.443 1634.637)">
        <g id="Group_1228273" data-name="Group 1228273" transform="translate(0.822 9.028)">
          <g id="Group_1228269" data-name="Group 1228269" transform="translate(0 11.392)">
            <g id="Group_1228263" data-name="Group 1228263" transform="translate(0 13.12)">
              <g id="Group_1228255" data-name="Group 1228255" transform="translate(36.602)">
                <g id="Group_1228254" data-name="Group 1228254">
                  <g id="Group_1228253" data-name="Group 1228253">
                    <g id="Group_1228252" data-name="Group 1228252">
                      <path id="Path_1210623" data-name="Path 1210623" d="M359.338,356.642H341.47v-7.108a6.2,6.2,0,0,1,6.2-6.2h5.459a6.2,6.2,0,0,1,6.2,6.2v7.108Z" transform="translate(-341.47 -331.935)" fill="#27d1b3"/>
                      <g id="Group_1228249" data-name="Group 1228249" transform="translate(6.146 11.395)">
                        <g id="Group_1228248" data-name="Group 1228248">
                          <path id="Path_1210624" data-name="Path 1210624" d="M402.9,351.655l-2.134,1.876a.654.654,0,0,1-.864,0l-2.134-1.876a.654.654,0,0,1-.2-.654l1.965-7.67h1.6L403.1,351A.655.655,0,0,1,402.9,351.655Z" transform="translate(-397.548 -343.331)" fill="#fb4a59"/>
                        </g>
                      </g>
                      <path id="Path_1210625" data-name="Path 1210625" d="M427.858,349.534v7.108h-3.229v-7.108a6.205,6.205,0,0,0-6.2-6.2h3.229A6.206,6.206,0,0,1,427.858,349.534Z" transform="translate(-409.99 -331.935)" fill="#20b69f"/>
                      <g id="Group_1228251" data-name="Group 1228251" transform="translate(3.876)">
                        <g id="Group_1228250" data-name="Group 1228250">
                          <path id="Path_1210626" data-name="Path 1210626" d="M381.891,251.3a5.058,5.058,0,0,1-5.058-5.058v-1.826a5.058,5.058,0,0,1,10.116,0v1.826A5.058,5.058,0,0,1,381.891,251.3Z" transform="translate(-376.833 -239.36)" fill="#ffcec0"/>
                          <path id="Path_1210627" data-name="Path 1210627" d="M415.039,244.423v1.825a5.061,5.061,0,0,1-6.659,4.8,5.061,5.061,0,0,0,3.456-4.8v-1.825a5.062,5.062,0,0,0-3.456-4.8,5.059,5.059,0,0,1,6.659,4.8Z" transform="translate(-404.923 -239.364)" fill="#fdb0a0"/>
                        </g>
                      </g>
                    </g>
                  </g>
                </g>
              </g>
              <g id="Group_1228262" data-name="Group 1228262">
                <g id="Group_1228261" data-name="Group 1228261">
                  <g id="Group_1228260" data-name="Group 1228260">
                    <path id="Path_1210628" data-name="Path 1210628" d="M25.368,356.642H7.5v-7.108a6.2,6.2,0,0,1,6.2-6.2h5.459a6.2,6.2,0,0,1,6.2,6.2v7.108Z" transform="translate(-7.5 -331.935)" fill="#fb4a59"/>
                    <g id="Group_1228257" data-name="Group 1228257" transform="translate(6.146 11.395)">
                      <g id="Group_1228256" data-name="Group 1228256">
                        <path id="Path_1210629" data-name="Path 1210629" d="M68.931,351.655,66.8,353.531a.654.654,0,0,1-.864,0L63.8,351.655a.654.654,0,0,1-.2-.654l1.965-7.67h1.6L69.133,351A.655.655,0,0,1,68.931,351.655Z" transform="translate(-63.578 -343.331)" fill="#f8f3f1"/>
                      </g>
                    </g>
                    <path id="Path_1210630" data-name="Path 1210630" d="M93.888,349.534v7.108H90.658v-7.108a6.205,6.205,0,0,0-6.2-6.2h3.229A6.206,6.206,0,0,1,93.888,349.534Z" transform="translate(-76.02 -331.935)" fill="#f82f40"/>
                    <g id="Group_1228259" data-name="Group 1228259" transform="translate(3.876)">
                      <g id="Group_1228258" data-name="Group 1228258">
                        <path id="Path_1210631" data-name="Path 1210631" d="M47.921,251.3a5.058,5.058,0,0,1-5.058-5.058v-1.826a5.058,5.058,0,1,1,10.116,0v1.826A5.058,5.058,0,0,1,47.921,251.3Z" transform="translate(-42.863 -239.36)" fill="#ffcec0"/>
                        <path id="Path_1210632" data-name="Path 1210632" d="M81.069,244.423v1.825a5.061,5.061,0,0,1-6.659,4.8,5.061,5.061,0,0,0,3.456-4.8v-1.825a5.062,5.062,0,0,0-3.456-4.8,5.059,5.059,0,0,1,6.659,4.8Z" transform="translate(-70.953 -239.364)" fill="#fdb0a0"/>
                      </g>
                    </g>
                  </g>
                </g>
              </g>
            </g>
            <g id="Group_1228268" data-name="Group 1228268" transform="translate(14.681 0)">
              <path id="Path_1210633" data-name="Path 1210633" d="M166.565,336.743H141.458v-10.92a8.718,8.718,0,0,1,8.718-8.718h7.67a8.718,8.718,0,0,1,8.718,8.718v10.92Z" transform="translate(-141.458 -295.463)" fill="#0d5f7f"/>
              <path id="Path_1210634" data-name="Path 1210634" d="M262.846,325.822v10.92h-4.538v-10.92a8.72,8.72,0,0,0-8.718-8.718h4.538A8.72,8.72,0,0,1,262.846,325.822Z" transform="translate(-237.739 -295.463)" fill="#094c66"/>
              <path id="Path_1210635" data-name="Path 1210635" d="M208.305,317.591l-6.695,12.751-6.695-12.751a8.729,8.729,0,0,1,2.86-.48h7.669A8.729,8.729,0,0,1,208.305,317.591Z" transform="translate(-189.057 -295.47)" fill="#fff"/>
              <path id="Path_1210636" data-name="Path 1210636" d="M231.659,323.833l-3.417,6.509-3.417-6.509,2.461-6.722H229.2Z" transform="translate(-215.689 -295.47)" fill="#fb4a59"/>
              <g id="Group_1228267" data-name="Group 1228267" transform="translate(1.027)">
                <g id="Group_1228264" data-name="Group 1228264" transform="translate(0 10.588)">
                  <circle id="Ellipse_13406" data-name="Ellipse 13406" cx="2.692" cy="2.692" r="2.692" fill="#fdb0a0"/>
                </g>
                <g id="Group_1228265" data-name="Group 1228265" transform="translate(17.669 10.588)">
                  <circle id="Ellipse_13407" data-name="Ellipse 13407" cx="2.692" cy="2.692" r="2.692" fill="#f69583"/>
                </g>
                <g id="Group_1228266" data-name="Group 1228266" transform="translate(4.419 5.629)">
                  <path id="Path_1210637" data-name="Path 1210637" d="M198.256,187.789a7.107,7.107,0,0,1-7.107-7.107v-2.566a7.107,7.107,0,0,1,14.215,0v2.566a7.107,7.107,0,0,1-7.107,7.107Z" transform="translate(-191.149 -171.008)" fill="#ffcec0"/>
                  <path id="Path_1210638" data-name="Path 1210638" d="M249.238,178.114v2.565a7.107,7.107,0,0,1-7.108,7.108,7.036,7.036,0,0,1-1.707-.207,7.108,7.108,0,0,0,5.4-6.9v-2.565a7.111,7.111,0,0,0-5.4-6.9,7.106,7.106,0,0,1,8.815,6.9Z" transform="translate(-235.023 -171.006)" fill="#fdb0a0"/>
                </g>
                <path id="Path_1210639" data-name="Path 1210639" d="M263.984,141.778a19.931,19.931,0,0,1-6.7-.369,3.986,3.986,0,0,1-2.917-3.856v-2.713a2.49,2.49,0,0,1,2.49-2.49h1.873a6.161,6.161,0,0,1,6.161,6.161v2.258A1.012,1.012,0,0,1,263.984,141.778Z" transform="translate(-243.024 -130.959)" fill="#7a7179"/>
                <path id="Path_1210640" data-name="Path 1210640" d="M278.574,138.509v2.258a1.012,1.012,0,0,1-.914,1.007,23.279,23.279,0,0,1-4.365.036c.144-.013.277-.024.4-.036a1.012,1.012,0,0,0,.912-1.007v-2.258a6.16,6.16,0,0,0-4.876-6.027,2.452,2.452,0,0,1,.806-.135h1.873A6.161,6.161,0,0,1,278.574,138.509Z" transform="translate(-256.701 -130.955)" fill="#685e67"/>
                <path id="Path_1210641" data-name="Path 1210641" d="M162.5,130.747a23.724,23.724,0,0,0,8.064-.417A4.7,4.7,0,0,0,174,125.785v-3.2a2.936,2.936,0,0,0-2.936-2.936h-2.208a7.262,7.262,0,0,0-7.262,7.262v2.826A1.012,1.012,0,0,0,162.5,130.747Z" transform="translate(-160.417 -119.651)" fill="#9b8f99"/>
                <path id="Path_1210642" data-name="Path 1210642" d="M189.487,122.582v3.2a4.7,4.7,0,0,1-3.437,4.546,22.382,22.382,0,0,1-7.063.505,16.859,16.859,0,0,0,3.066-.505,4.7,4.7,0,0,0,3.439-4.546v-3.2a2.937,2.937,0,0,0-2.246-2.853,7.253,7.253,0,0,1,1.1-.082h2.209A2.935,2.935,0,0,1,189.487,122.582Z" transform="translate(-175.901 -119.647)" fill="#8b8088"/>
              </g>
            </g>
          </g>
          <g id="Group_1228272" data-name="Group 1228272" transform="translate(4.503 0)">
            <g id="Group_1228270" data-name="Group 1228270">
              <circle id="Ellipse_13408" data-name="Ellipse 13408" cx="10.022" cy="10.022" r="10.022" fill="#27d1b3"/>
              <path id="Path_1210643" data-name="Path 1210643" d="M128.439,25.732A10.03,10.03,0,0,1,115.758,35.4a9.665,9.665,0,0,0,0-19.33,10.032,10.032,0,0,1,12.683,9.665Z" transform="translate(-108.394 -15.71)" fill="#20b69f"/>
            </g>
            <g id="Group_1228271" data-name="Group 1228271" transform="translate(3.595 5.063)">
              <path id="Path_1210644" data-name="Path 1210644" d="M85.133,71.764l-3.6-3.6a.516.516,0,0,1,0-.729l1.485-1.485a.516.516,0,0,1,.729,0l2.111,2.111,6.012-6.012a.516.516,0,0,1,.729,0l1.485,1.485a.516.516,0,0,1,0,.729l-7.5,7.5A1.031,1.031,0,0,1,85.133,71.764Z" transform="translate(-81.385 -61.9)" fill="#bcea73"/>
            </g>
          </g>
        </g>
        <g id="Group_1228274" data-name="Group 1228274" transform="translate(0 8.206)">
          <path id="Path_1210645" data-name="Path 1210645" d="M50.76,44.315a5.855,5.855,0,0,0,1.477-3.892V38.6a5.88,5.88,0,0,0-11.76,0v1.826a5.854,5.854,0,0,0,1.478,3.893,7.028,7.028,0,0,0-2.25.995,9.586,9.586,0,0,0-4.64-3.53.815.815,0,0,0-.089-.031,9.461,9.461,0,0,0-1.383-.36,7.918,7.918,0,0,0,2.277-4.329,3.513,3.513,0,0,0,3.207-6.111,1.837,1.837,0,0,0,.147-.719V27.973a6.991,6.991,0,0,0-6.983-6.983H30.369c-.087,0-.175,0-.262.011a3.751,3.751,0,0,0-2.926-1.4h-1c.009-.182.015-.365.015-.548a10.842,10.842,0,1,0-9.3,10.734v.723a1.845,1.845,0,0,0,.07.5,3.513,3.513,0,0,0,3.284,6.049,7.918,7.918,0,0,0,2.278,4.33,9.448,9.448,0,0,0-1.36.353.823.823,0,0,0-.136.048,9.612,9.612,0,0,0-4.614,3.524,6.994,6.994,0,0,0-2.252-1,5.854,5.854,0,0,0,1.477-3.892V38.6a5.88,5.88,0,1,0-11.76,0v1.826a5.855,5.855,0,0,0,1.477,3.892A7.038,7.038,0,0,0,0,51.139v7.108a.822.822,0,0,0,1.644,0V51.139a5.388,5.388,0,0,1,5.382-5.382h.256a5.865,5.865,0,0,0,.555.224L6.192,52.4a1.469,1.469,0,0,0,.455,1.475l2.134,1.876a1.48,1.48,0,0,0,1.949,0l2.134-1.876a1.469,1.469,0,0,0,.455-1.475l-1.645-6.42a5.865,5.865,0,0,0,.555-.224h.256a5.352,5.352,0,0,1,3.1.985,9.459,9.459,0,0,0-.9,3.973.822.822,0,0,0,.816.827H15.5a.822.822,0,0,0,.822-.816,7.916,7.916,0,0,1,4.654-7.142l6.254,11.911v6.2a.822.822,0,0,0,1.644,0v-6.2l6.255-11.913a7.906,7.906,0,0,1,4.655,7.2V61.7a.822.822,0,1,0,1.644,0V50.778a9.484,9.484,0,0,0-.9-4.042,5.386,5.386,0,0,1,3.1-.98h.256a5.847,5.847,0,0,0,.555.224L42.794,52.4a1.47,1.47,0,0,0,.455,1.475l2.134,1.876a1.48,1.48,0,0,0,1.949,0l2.134-1.876a1.469,1.469,0,0,0,.455-1.475l-.263-1.025a.822.822,0,1,0-1.592.408l.237.926-1.946,1.71-1.946-1.71L46.055,46.3q.15.008.3.008t.3-.008l.418,1.63a.822.822,0,0,0,1.593-.408l-.394-1.537a5.825,5.825,0,0,0,.559-.226l.037,0h.215a5.388,5.388,0,0,1,5.382,5.382v7.108a.822.822,0,0,0,1.644,0V51.139a7.038,7.038,0,0,0-5.353-6.823ZM5.52,38.6a4.236,4.236,0,0,1,8.472,0v1.826a4.236,4.236,0,1,1-8.472,0V38.6ZM11.7,52.709,9.756,54.42,7.81,52.709,9.453,46.3q.15.008.3.008t.3-.008Zm25.19-17.14a1.856,1.856,0,0,1-.905-.235V33.156a7.953,7.953,0,0,0-.063-.989c.639-.023,1.2-.066,1.648-.11.057-.006.113-.014.168-.025a1.87,1.87,0,0,1-.848,3.537ZM32.242,22.634a5.345,5.345,0,0,1,5.339,5.339v2.258a.19.19,0,0,1-.172.19,19.056,19.056,0,0,1-6.4-.344,3.1,3.1,0,0,1-.985-.47,5.56,5.56,0,0,0,.913-3.054v-3.2a3.764,3.764,0,0,0-.07-.722h1.374ZM21.381,28.062a.822.822,0,1,0-.916-1.365A9.2,9.2,0,1,1,23.037,24.1a.822.822,0,1,0,1.373.9,10.78,10.78,0,0,0,1.558-3.765h1.214a2.116,2.116,0,0,1,2.114,2.114v3.2A3.879,3.879,0,0,1,26.463,30.3,23.193,23.193,0,0,1,18.7,30.7a.189.189,0,0,1-.168-.19V29.418a10.783,10.783,0,0,0,2.849-1.357ZM17.352,33.7a1.867,1.867,0,0,1,.722-1.476,1.837,1.837,0,0,0,.453.108c.451.048,1.006.1,1.631.128-.021.233-.032.466-.032.7v2.179A1.869,1.869,0,0,1,17.352,33.7Zm4.419,2.022V33.156a6.234,6.234,0,0,1,.036-.656,20.1,20.1,0,0,0,5.087-.609,5.417,5.417,0,0,0,2.03-1.054,4.748,4.748,0,0,0,1.654.827,16.327,16.327,0,0,0,3.684.507,6.339,6.339,0,0,1,.079.985v2.566a6.285,6.285,0,1,1-12.571,0Zm6.285,17.8-2.52-4.8,1.868-5.1c.215.018.432.029.652.029s.437-.011.652-.029l1.868,5.1ZM24.221,42.882h.432a7.873,7.873,0,0,0,1.114.431L24.505,46.76l-1.942-3.7A7.854,7.854,0,0,1,24.221,42.882Zm7.386,3.877-1.262-3.447a7.875,7.875,0,0,0,1.115-.431h.43a7.9,7.9,0,0,1,1.659.177Zm10.514-6.336V38.6a4.236,4.236,0,0,1,8.472,0v1.826a4.236,4.236,0,0,1-8.472,0Z" transform="translate(0 -8.206)"/>
          <path id="Path_1210646" data-name="Path 1210646" d="M134.78,424.906a.822.822,0,0,0-.822.822v7a.822.822,0,0,0,1.644,0v-7A.822.822,0,0,0,134.78,424.906Z" transform="translate(-119.277 -379.237)"/>
          <path id="Path_1210647" data-name="Path 1210647" d="M277.376,445.24h-.021a.822.822,0,0,0,0,1.644h.021a.822.822,0,0,0,0-1.644Z" transform="translate(-246.226 -397.343)"/>
          <path id="Path_1210648" data-name="Path 1210648" d="M88,56.277l-1.485-1.485a1.337,1.337,0,0,0-1.892,0l-5.431,5.431-1.53-1.53a1.337,1.337,0,0,0-1.892,0l-1.485,1.485a1.339,1.339,0,0,0,0,1.892l3.6,3.6a1.855,1.855,0,0,0,2.621,0l7.5-7.5a1.339,1.339,0,0,0,0-1.892ZM79.337,64.5a.21.21,0,0,1-.3,0l-3.38-3.38,1.052-1.052,1.895,1.895a.822.822,0,0,0,1.162,0l5.8-5.8,1.052,1.052Z" transform="translate(-65.793 -49.337)"/>
        </g>
      </g>
    </g>
  </g>
</svg>
