<svg xmlns="http://www.w3.org/2000/svg" xmlns:xlink="http://www.w3.org/1999/xlink" width="103" height="103" viewBox="0 0 103 103">
  <defs>
    <filter id="Path_982547" x="0" y="0" width="103" height="103" filterUnits="userSpaceOnUse">
      <feOffset dy="3" input="SourceAlpha"/>
      <feGaussianBlur stdDeviation="3" result="blur"/>
      <feFlood flood-opacity="0.161"/>
      <feComposite operator="in" in2="blur"/>
      <feComposite in="SourceGraphic"/>
    </filter>
  </defs>
  <g id="Group_1228553" data-name="Group 1228553" transform="translate(-184 -1487)">
    <g id="Group_1228218" data-name="Group 1228218">
      <g id="Group_1228093" data-name="Group 1228093" transform="translate(0 175)">
        <g id="Group_1202412" data-name="Group 1202412" transform="translate(193 1318)">
          <g id="Group_1202212" data-name="Group 1202212">
            <g id="Group_1174813" data-name="Group 1174813">
              <g id="Group_1201680" data-name="Group 1201680">
                <g id="Group_1201330" data-name="Group 1201330">
                  <g id="Group_1172010" data-name="Group 1172010">
                    <g id="Group_1171046" data-name="Group 1171046">
                      <g id="Group_1148525" data-name="Group 1148525">
                        <g transform="matrix(1, 0, 0, 1, -9, -6)" filter="url(#Path_982547)">
                          <g id="Path_982547-2" data-name="Path 982547" transform="translate(9 6)" fill="#f2f7e5">
                            <path d="M 42.5 83.5 C 36.96437835693359 83.5 31.59512901306152 82.41617584228516 26.54141235351562 80.27863311767578 C 21.65934181213379 78.21369171142578 17.27447128295898 75.25723266601562 13.50862312316895 71.49137878417969 C 9.742764472961426 67.72553253173828 6.786305904388428 63.34066009521484 4.721364498138428 58.45858764648438 C 2.583823442459106 53.40486907958984 1.5 48.03562164306641 1.5 42.5 C 1.5 36.96437835693359 2.583823442459106 31.59512901306152 4.721364498138428 26.54141235351562 C 6.786305904388428 21.65934181213379 9.742764472961426 17.27448272705078 13.50862312316895 13.50862312316895 C 17.27447128295898 9.742776870727539 21.65934181213379 6.786305904388428 26.54141235351562 4.721364498138428 C 31.59512901306152 2.583823442459106 36.96437835693359 1.5 42.5 1.5 C 48.03562164306641 1.5 53.40486907958984 2.583823442459106 58.45858764648438 4.721364498138428 C 63.34066009521484 6.786305904388428 67.72553253173828 9.742776870727539 71.49137878417969 13.50862312316895 C 75.25723266601562 17.27448272705078 78.21369171142578 21.65934181213379 80.27863311767578 26.54141235351562 C 82.41617584228516 31.59512901306152 83.5 36.96437835693359 83.5 42.5 C 83.5 48.03562164306641 82.41617584228516 53.40486907958984 80.27863311767578 58.45858764648438 C 78.21369171142578 63.34066009521484 75.25723266601562 67.72553253173828 71.49137878417969 71.49137878417969 C 67.72553253173828 75.25723266601562 63.34066009521484 78.21369171142578 58.45858764648438 80.27863311767578 C 53.40486907958984 82.41617584228516 48.03562164306641 83.5 42.5 83.5 Z" stroke="none"/>
                            <path d="M 42.5 3 C 37.16621398925781 3 31.99356079101562 4.043960571289062 27.125732421875 6.102882385253906 C 22.42246627807617 8.092185974121094 18.19785308837891 10.94070434570312 14.56928253173828 14.56928253173828 C 10.94070434570312 18.19785308837891 8.092185974121094 22.42246627807617 6.102882385253906 27.125732421875 C 4.043960571289062 31.99356079101562 3 37.16621398925781 3 42.5 C 3 47.83378601074219 4.043960571289062 53.00643920898438 6.102882385253906 57.874267578125 C 8.092185974121094 62.57753372192383 10.94070434570312 66.80214691162109 14.56928253173828 70.43071746826172 C 18.19785308837891 74.05929565429688 22.42246627807617 76.90781402587891 27.125732421875 78.89711761474609 C 31.99356079101562 80.95603942871094 37.16621398925781 82 42.5 82 C 47.83378601074219 82 53.00643920898438 80.95603942871094 57.874267578125 78.89711761474609 C 62.57753372192383 76.90781402587891 66.80214691162109 74.05929565429688 70.43071746826172 70.43071746826172 C 74.05929565429688 66.80214691162109 76.90781402587891 62.57753372192383 78.89711761474609 57.874267578125 C 80.95603942871094 53.00643920898438 82 47.83378601074219 82 42.5 C 82 37.16621398925781 80.95603942871094 31.99356079101562 78.89711761474609 27.125732421875 C 76.90781402587891 22.42246627807617 74.05929565429688 18.19785308837891 70.43071746826172 14.56928253173828 C 66.80214691162109 10.94070434570312 62.57753372192383 8.092185974121094 57.874267578125 6.102882385253906 C 53.00643920898438 4.043960571289062 47.83378601074219 3 42.5 3 M 42.5 0 C 65.97210693359375 0 85 19.02789306640625 85 42.5 C 85 65.97210693359375 65.97210693359375 85 42.5 85 C 19.02789306640625 85 0 65.97210693359375 0 42.5 C 0 19.02789306640625 19.02789306640625 0 42.5 0 Z" stroke="none" fill="#1d7083"/>
                          </g>
                        </g>
                      </g>
                    </g>
                  </g>
                </g>
              </g>
            </g>
          </g>
        </g>
      </g>
      <g id="responsabilidad" transform="translate(164.662 1502.234)">
        <g id="Group_1228201" data-name="Group 1228201" transform="translate(77.385 12.984)">
          <path id="Path_1210573" data-name="Path 1210573" d="M318.785,113.039l1.127,2.284a.685.685,0,0,0,.516.375l2.52.366a.685.685,0,0,1,.38,1.169L321.5,119.01a.685.685,0,0,0-.2.606l.43,2.51a.685.685,0,0,1-.994.722l-2.254-1.185a.686.686,0,0,0-.638,0l-2.254,1.185a.685.685,0,0,1-.994-.722l.43-2.51a.685.685,0,0,0-.2-.606l-1.824-1.778a.685.685,0,0,1,.38-1.169l2.52-.366a.685.685,0,0,0,.516-.375l1.127-2.284A.685.685,0,0,1,318.785,113.039Z" transform="translate(-312.806 -112.657)" fill="#fed402"/>
        </g>
        <g id="Group_1228203" data-name="Group 1228203" transform="translate(77.385 16.016)">
          <g id="Group_1228202" data-name="Group 1228202">
            <path id="Path_1210574" data-name="Path 1210574" d="M317.727,144.172l.43-2.51a.685.685,0,0,0-.2-.606l-1.824-1.778a.677.677,0,0,1-.184-.315l-.04.008-2.52.366a.685.685,0,0,0-.38,1.169l1.824,1.778a.685.685,0,0,1,.2.606l-.43,2.51a.685.685,0,0,0,.994.722l2.254-1.185a.39.39,0,1,0-.124-.766Z" transform="translate(-312.805 -138.963)" fill="#fac600"/>
          </g>
        </g>
        <g id="Group_1228204" data-name="Group 1228204" transform="translate(70.977 0.864)">
          <path id="Path_1210575" data-name="Path 1210575" d="M261.691,7.787l.845,1.713a.514.514,0,0,0,.387.281l1.89.275a.514.514,0,0,1,.285.877l-1.368,1.333a.514.514,0,0,0-.148.455l.323,1.882a.514.514,0,0,1-.746.542l-1.691-.889a.514.514,0,0,0-.478,0l-1.691.889a.514.514,0,0,1-.746-.542l.323-1.882a.514.514,0,0,0-.148-.455l-1.368-1.333a.514.514,0,0,1,.285-.877l1.89-.275a.514.514,0,0,0,.387-.281l.845-1.713a.514.514,0,0,1,.922,0Z" transform="translate(-257.207 -7.5)" fill="#fed402"/>
        </g>
        <g id="Group_1228205" data-name="Group 1228205" transform="translate(64.665 27.085)">
          <path id="Path_1210576" data-name="Path 1210576" d="M205.765,251.055h6.155a2.571,2.571,0,0,1,2.377,1.593,9.049,9.049,0,1,0-8.533-1.593Z" transform="translate(-202.44 -235)" fill="#97d729"/>
          <path id="Path_1210577" data-name="Path 1210577" d="M205.765,251.055h4.679a9.045,9.045,0,0,1,3.381-15.749,9.047,9.047,0,0,0-8.06,15.749Z" transform="translate(-202.439 -235)" fill="#8bc727"/>
        </g>
        <g id="Group_1228209" data-name="Group 1228209" transform="translate(47.581 40.115)">
          <g id="Group_1228206" data-name="Group 1228206" transform="translate(28.657 1.612)">
            <path id="Path_1210578" data-name="Path 1210578" d="M306.1,370.776a2.57,2.57,0,0,0,1.818-.753l7.176-7.176c-.017-.018-.032-.037-.05-.055a2.571,2.571,0,0,0-3.635,0l-7.294,7.294a2.569,2.569,0,0,1-1.261.69H306.1Z" transform="translate(-302.853 -362.039)" fill="#ffe5c2"/>
          </g>
          <path id="Path_1210579" data-name="Path 1210579" d="M226.7,371.129a1.729,1.729,0,0,0,1.729,1.7h11.4a2.57,2.57,0,0,0,1.818-.753l7.294-7.294a2.571,2.571,0,0,1,3.244-.321,2.569,2.569,0,0,0-4.354-2.22l-7.294,7.294a2.57,2.57,0,0,1-1.818.753H226.692Z" transform="translate(-206.813 -359.943)" fill="#fed2a4"/>
          <path id="Path_1210580" data-name="Path 1210580" d="M176.864,376.118a2.571,2.571,0,0,0-3.635,0l-7.294,7.294a2.571,2.571,0,0,1-1.818.753h-11.4a1.729,1.729,0,0,1-1.729-1.7l-.018-1.266a1.729,1.729,0,0,1,1.729-1.753h4.9a2.615,2.615,0,0,0,2.637-2.483,2.571,2.571,0,0,0-2.569-2.659H141.118v12.449l3.4,1.36a16.759,16.759,0,0,0,6.221,1.2h14.443a5.135,5.135,0,0,0,3.631-1.5l8.049-8.049A2.57,2.57,0,0,0,176.864,376.118Z" transform="translate(-131.102 -371.275)" fill="#ffe5c2"/>
          <path id="Path_1210581" data-name="Path 1210581" d="M168.782,386.944H154.339a16.759,16.759,0,0,1-6.221-1.2l-2.068-.827a2.305,2.305,0,0,1-1.45-2.141V374.3h-3.482v12.449l3.4,1.36a16.759,16.759,0,0,0,6.221,1.2h14.443a5.135,5.135,0,0,0,3.631-1.5l.955-.955A5.143,5.143,0,0,1,168.782,386.944Z" transform="translate(-131.103 -371.275)" fill="#fed2a4"/>
          <g id="Group_1228207" data-name="Group 1228207" transform="translate(0)">
            <path id="Path_1210582" data-name="Path 1210582" d="M54.962,366.037h8.526a.745.745,0,0,0,.745-.745V348.8a.745.745,0,0,0-.745-.745H54.962a.745.745,0,0,0-.745.745v16.5A.745.745,0,0,0,54.962,366.037Z" transform="translate(-54.217 -348.05)" fill="#b3dafe"/>
          </g>
          <g id="Group_1228208" data-name="Group 1228208" transform="translate(0)">
            <path id="Path_1210583" data-name="Path 1210583" d="M59.045,365.292V348.8a.745.745,0,0,1,.745-.745H54.962a.745.745,0,0,0-.745.745v16.5a.745.745,0,0,0,.745.745H59.79A.745.745,0,0,1,59.045,365.292Z" transform="translate(-54.217 -348.05)" fill="#8ac9fe"/>
          </g>
        </g>
        <g id="Group_1228216" data-name="Group 1228216" transform="translate(47.838 5.186)">
          <g id="Group_1228210" data-name="Group 1228210" transform="translate(0 0)">
            <path id="Path_1210584" data-name="Path 1210584" d="M79.39,57.989V54.961a.633.633,0,0,0-.633-.633H76.552a.636.636,0,0,1-.6-.444,8.4,8.4,0,0,0-.521-1.254.636.636,0,0,1,.112-.742l1.56-1.56a.633.633,0,0,0,0-.9L74.959,47.29a.633.633,0,0,0-.9,0l-1.56,1.56a.636.636,0,0,1-.742.112,8.38,8.38,0,0,0-1.254-.521.636.636,0,0,1-.444-.6V45.633A.633.633,0,0,0,69.429,45H66.4a.633.633,0,0,0-.633.633v2.2a.636.636,0,0,1-.444.6,8.38,8.38,0,0,0-1.254.521.636.636,0,0,1-.742-.112l-1.56-1.56a.633.633,0,0,0-.9,0L58.73,49.431a.633.633,0,0,0,0,.9l1.56,1.56a.636.636,0,0,1,.112.742,8.364,8.364,0,0,0-.521,1.254.636.636,0,0,1-.6.444H57.073a.633.633,0,0,0-.633.633v3.028a.633.633,0,0,0,.633.633h2.205a.636.636,0,0,1,.6.444,8.38,8.38,0,0,0,.521,1.254.636.636,0,0,1-.112.742l-1.56,1.56a.633.633,0,0,0,0,.9l2.141,2.141a.633.633,0,0,0,.9,0l1.56-1.56a.636.636,0,0,1,.742-.112,8.38,8.38,0,0,0,1.254.521.636.636,0,0,1,.444.6v2.205a.633.633,0,0,0,.633.633h3.028a.633.633,0,0,0,.633-.633V65.112a.636.636,0,0,1,.444-.6,8.381,8.381,0,0,0,1.254-.521.636.636,0,0,1,.742.112l1.56,1.56a.633.633,0,0,0,.9,0L77.1,63.518a.633.633,0,0,0,0-.9l-1.56-1.56a.636.636,0,0,1-.112-.742,8.38,8.38,0,0,0,.521-1.254.636.636,0,0,1,.6-.444h2.205A.633.633,0,0,0,79.39,57.989Z" transform="translate(-56.44 -45)" fill="#baafb9"/>
          </g>
          <g id="Group_1228212" data-name="Group 1228212" transform="translate(0)">
            <g id="Group_1228211" data-name="Group 1228211">
              <path id="Path_1210585" data-name="Path 1210585" d="M62.844,56.475a8.646,8.646,0,0,1,7.228-8.527.63.63,0,0,1-.01-.11V45.633A.633.633,0,0,0,69.429,45H66.4a.633.633,0,0,0-.633.633v2.2a.636.636,0,0,1-.444.6,8.38,8.38,0,0,0-1.254.521.636.636,0,0,1-.742-.112l-1.56-1.56a.633.633,0,0,0-.9,0L58.73,49.431a.633.633,0,0,0,0,.9l1.56,1.56a.636.636,0,0,1,.112.742,8.364,8.364,0,0,0-.521,1.254.636.636,0,0,1-.6.444H57.073a.633.633,0,0,0-.633.633v3.028a.633.633,0,0,0,.633.633h2.205a.636.636,0,0,1,.6.444,8.38,8.38,0,0,0,.521,1.254.636.636,0,0,1-.112.742l-1.56,1.56a.633.633,0,0,0,0,.9l2.141,2.141a.633.633,0,0,0,.9,0l1.56-1.56a.636.636,0,0,1,.742-.112,8.38,8.38,0,0,0,1.254.521.636.636,0,0,1,.444.6v2.205a.633.633,0,0,0,.633.633h3.028a.633.633,0,0,0,.633-.633V65.112a.629.629,0,0,1,.01-.11A8.645,8.645,0,0,1,62.844,56.475Z" transform="translate(-56.44 -45)" fill="#aa9ea9"/>
            </g>
          </g>
          <g id="Group_1228213" data-name="Group 1228213" transform="translate(6.496 6.496)">
            <circle id="Ellipse_13404" data-name="Ellipse 13404" cx="4.979" cy="4.979" r="4.979" fill="#e5e1e5"/>
          </g>
          <g id="Group_1228214" data-name="Group 1228214" transform="translate(9.794 9.794)">
            <circle id="Ellipse_13405" data-name="Ellipse 13405" cx="1.681" cy="1.681" r="1.681" fill="#baafb9"/>
          </g>
          <g id="Group_1228215" data-name="Group 1228215" transform="translate(9.794 9.794)">
            <path id="Path_1210586" data-name="Path 1210586" d="M142.959,131.654a1.68,1.68,0,0,1,.908-1.492,1.681,1.681,0,1,0,0,2.984A1.68,1.68,0,0,1,142.959,131.654Z" transform="translate(-141.413 -129.973)" fill="#aa9ea9"/>
          </g>
        </g>
        <g id="Group_1228217" data-name="Group 1228217" transform="translate(46.717 0)">
          <path id="Path_1210587" data-name="Path 1210587" d="M305.379,109.627a1.54,1.54,0,0,0,.392,1.589l1.756,1.712-.415,2.417a1.548,1.548,0,0,0,2.249,1.634l2.171-1.141,2.171,1.141a1.55,1.55,0,0,0,2.248-1.633l-.415-2.417,1.756-1.712a1.55,1.55,0,0,0-.859-2.643l-2.427-.353-1.085-2.2a1.55,1.55,0,0,0-2.779,0l-1.085,2.2-2.427.353A1.54,1.54,0,0,0,305.379,109.627Zm4.02.29a1.549,1.549,0,0,0,1.167-.848l.966-1.958.966,1.958a1.549,1.549,0,0,0,1.167.848l2.161.314-1.563,1.524a1.549,1.549,0,0,0-.446,1.372l.369,2.152-1.933-1.016a1.55,1.55,0,0,0-1.442,0l-1.933,1.016.369-2.152a1.549,1.549,0,0,0-.446-1.372l-1.563-1.524Z" transform="translate(-275.499 -93.037)"/>
          <path id="Path_1210588" data-name="Path 1210588" d="M251.357,6.119l-.292,1.7a1.377,1.377,0,0,0,2,1.453l1.527-.8,1.527.8a1.378,1.378,0,0,0,2-1.453l-.292-1.7,1.236-1.2a1.378,1.378,0,0,0-.764-2.351l-1.708-.248L255.828.768a1.378,1.378,0,0,0-2.472,0l-.764,1.548-1.708.248a1.378,1.378,0,0,0-.764,2.351Zm2.921-4.586h0ZM253.024,4a1.378,1.378,0,0,0,1.038-.754l.531-1.076.531,1.076A1.378,1.378,0,0,0,256.161,4l1.187.173-.859.837a1.378,1.378,0,0,0-.4,1.22l.2,1.182-1.062-.558a1.378,1.378,0,0,0-1.283,0l-1.062.558.2-1.182a1.378,1.378,0,0,0-.4-1.22l-.859-.837Z" transform="translate(-226.308 0)"/>
          <path id="Path_1210589" data-name="Path 1210589" d="M244.635,286.682l-4.353,4.353-3.129-3.129a.864.864,0,0,0-1.222,1.222l3.741,3.741a.864.864,0,0,0,1.222,0l4.964-4.964a.864.864,0,0,0-1.223-1.222Z" transform="translate(-213.899 -253.417)"/>
          <path id="Path_1210590" data-name="Path 1210590" d="M93.954,245.626c-.035-.035-.071-.068-.106-.1a3.433,3.433,0,0,0-5.382-2.839,3.436,3.436,0,0,0-4.283.463l-7.294,7.294a1.7,1.7,0,0,1-.75.437H68.422a.869.869,0,0,1,.145-.2.858.858,0,0,1,.616-.257h4.9a3.436,3.436,0,0,0,3.474-3.88A9.917,9.917,0,0,0,83.281,240a.864.864,0,1,0-1.669-.45,8.188,8.188,0,0,1-4.707,5.394,3.5,3.5,0,0,0-.289-.342,3.408,3.408,0,0,0-2.469-1.047H68.314a8.181,8.181,0,1,1,13.44-7.656.864.864,0,0,0,1.7-.318,9.911,9.911,0,1,0-17.511,7.973H58.461v-1.416a1.611,1.611,0,0,0-1.61-1.61H48.326a1.611,1.611,0,0,0-1.61,1.61v16.5a1.611,1.611,0,0,0,1.61,1.61h8.526a1.611,1.611,0,0,0,1.61-1.61v-.491l2.217.886a17.549,17.549,0,0,0,6.541,1.259H81.663a5.959,5.959,0,0,0,4.242-1.757l2.811-2.811a.864.864,0,1,0-1.222-1.222l-2.811,2.811a4.242,4.242,0,0,1-3.02,1.251H67.22a15.826,15.826,0,0,1-5.9-1.135l-2.859-1.143v-11H74.146a1.706,1.706,0,0,1,1.705,1.766,1.755,1.755,0,0,1-1.773,1.647h-4.9a2.593,2.593,0,0,0-2.593,2.63l.018,1.266a2.6,2.6,0,0,0,2.593,2.557H80.6a3.413,3.413,0,0,0,2.429-1.006l7.294-7.294a1.706,1.706,0,1,1,2.413,2.413l-2.386,2.386a.864.864,0,0,0,1.222,1.222l2.386-2.386a3.439,3.439,0,0,0,0-4.858Zm-37.222,12.89H48.446V242.258h8.287Zm33.682-14.709a1.707,1.707,0,0,1,1.466.833,3.43,3.43,0,0,0-2.784.986L81.8,252.92a1.7,1.7,0,0,1-1.206.5H69.2a.868.868,0,0,1-.862-.812H79.485a3.413,3.413,0,0,0,2.429-1.006l7.294-7.294A1.7,1.7,0,0,1,90.415,243.808Zm-5.01.563a1.707,1.707,0,0,1,1.717-.422l-6.431,6.43a1.7,1.7,0,0,1-1.207.5H78.9Z" transform="translate(-46.717 -201.279)"/>
          <path id="Path_1210591" data-name="Path 1210591" d="M50.436,52.851h2.037a9.293,9.293,0,0,0,.45,1.084l-1.442,1.442a1.5,1.5,0,0,0,0,2.118l2.141,2.141a1.5,1.5,0,0,0,2.118,0l1.442-1.442a9.293,9.293,0,0,0,1.084.45v2.037a1.5,1.5,0,0,0,1.5,1.5h3.028a1.5,1.5,0,0,0,1.5-1.5V58.644a9.273,9.273,0,0,0,1.084-.45l1.442,1.442a1.5,1.5,0,0,0,2.118,0l2.141-2.141a1.5,1.5,0,0,0,0-2.118l-1.442-1.442a9.291,9.291,0,0,0,.45-1.084h2.037a1.5,1.5,0,0,0,1.5-1.5V48.326a1.5,1.5,0,0,0-1.5-1.5H70.083a9.288,9.288,0,0,0-.45-1.084L71.075,44.3a1.5,1.5,0,0,0,0-2.118l-2.141-2.141a1.5,1.5,0,0,0-2.118,0l-1.442,1.442a9.3,9.3,0,0,0-1.084-.45V39a1.5,1.5,0,0,0-1.5-1.5H59.765a1.5,1.5,0,0,0-1.5,1.5v2.037a9.3,9.3,0,0,0-1.084.45l-1.442-1.442a1.5,1.5,0,0,0-2.118,0l-2.141,2.141a1.5,1.5,0,0,0,0,2.118l1.442,1.442a9.283,9.283,0,0,0-.45,1.084H50.436a1.5,1.5,0,0,0-1.5,1.5v3.028a1.5,1.5,0,0,0,1.5,1.5Zm.231-4.294h1.974a1.5,1.5,0,0,0,1.426-1.043,7.529,7.529,0,0,1,.467-1.125,1.5,1.5,0,0,0-.27-1.748l-1.4-1.4,1.814-1.814,1.4,1.4a1.5,1.5,0,0,0,1.749.27,7.537,7.537,0,0,1,1.125-.467A1.5,1.5,0,0,0,60,41.2V39.229h2.565V41.2A1.5,1.5,0,0,0,63.6,42.629a7.552,7.552,0,0,1,1.125.467,1.5,1.5,0,0,0,1.748-.27l1.4-1.4,1.814,1.814-1.4,1.4a1.5,1.5,0,0,0-.27,1.749,7.548,7.548,0,0,1,.467,1.125,1.5,1.5,0,0,0,1.426,1.043h1.974v2.565H69.915a1.5,1.5,0,0,0-1.426,1.043,7.55,7.55,0,0,1-.467,1.125,1.5,1.5,0,0,0,.27,1.748l1.4,1.4-1.814,1.814-1.4-1.4a1.5,1.5,0,0,0-1.749-.27,7.538,7.538,0,0,1-1.125.467,1.5,1.5,0,0,0-1.043,1.426V60.45H60V58.476a1.5,1.5,0,0,0-1.043-1.426,7.536,7.536,0,0,1-1.125-.467,1.5,1.5,0,0,0-1.749.27l-1.4,1.4-1.814-1.814,1.4-1.4a1.5,1.5,0,0,0,.27-1.749,7.537,7.537,0,0,1-.467-1.125,1.5,1.5,0,0,0-1.426-1.043H50.668Z" transform="translate(-48.683 -33.178)"/>
          <path id="Path_1210592" data-name="Path 1210592" d="M111.147,105.55a5.848,5.848,0,0,0,5.346-3.484.864.864,0,0,0-1.581-.7,4.114,4.114,0,1,1-.005-3.333.864.864,0,1,0,1.579-.7,5.843,5.843,0,1,0-5.338,8.219Z" transform="translate(-98.552 -83.046)"/>
          <path id="Path_1210593" data-name="Path 1210593" d="M133.913,125.02a2.546,2.546,0,1,0,2.546-2.546A2.549,2.549,0,0,0,133.913,125.02Zm3.363,0a.817.817,0,1,1-.817-.817A.818.818,0,0,1,137.276,125.02Z" transform="translate(-123.863 -108.358)"/>
        </g>
      </g>
    </g>
  </g>
</svg>
