<svg xmlns="http://www.w3.org/2000/svg" xmlns:xlink="http://www.w3.org/1999/xlink" width="106.16" height="106.16" viewBox="0 0 106.16 106.16">
  <defs>
    <filter id="Path_982547" x="0" y="0" width="106.16" height="106.16" filterUnits="userSpaceOnUse">
      <feOffset dy="3" input="SourceAlpha"/>
      <feGaussianBlur stdDeviation="3" result="blur"/>
      <feFlood flood-opacity="0.161"/>
      <feComposite operator="in" in2="blur"/>
      <feComposite in="SourceGraphic"/>
    </filter>
  </defs>
  <g id="Group_1228588" data-name="Group 1228588" transform="translate(-609.92 -4183.162)">
    <g id="Group_1228447" data-name="Group 1228447">
      <g id="Group_1228144" data-name="Group 1228144" transform="translate(-1 2302.093)">
        <g id="Group_1206132" data-name="Group 1206132" transform="translate(0 -58.931)">
          <g id="Group_1203794" data-name="Group 1203794" transform="translate(0 -4639.878)">
            <g id="Group_1203345" data-name="Group 1203345" transform="translate(338.92 5174.875)">
              <g id="Group_1177900" data-name="Group 1177900" transform="translate(281 1411.003)">
                <g id="Group_1172010" data-name="Group 1172010" transform="translate(0)">
                  <g id="Group_1171046" data-name="Group 1171046">
                    <g id="Group_1148525" data-name="Group 1148525">
                      <g transform="matrix(1, 0, 0, 1, -9, -6)" filter="url(#Path_982547)">
                        <g id="Path_982547-2" data-name="Path 982547" transform="translate(9 6)" fill="#e9f9fd">
                          <path d="M 44.0802001953125 86.660400390625 C 38.33124923706055 86.660400390625 32.75506210327148 85.53479766845703 27.50652503967285 83.31484985351562 C 22.43628692626953 81.17032623291016 17.88242530822754 78.09992218017578 13.97144985198975 74.18894958496094 C 10.06047534942627 70.27797698974609 6.99007511138916 65.72411346435547 4.845550060272217 60.65387344360352 C 2.625600099563599 55.40533828735352 1.500000238418579 49.82915115356445 1.500000238418579 44.0802001953125 C 1.500000238418579 38.33124923706055 2.625600099563599 32.75506210327148 4.845550060272217 27.50652503967285 C 6.99007511138916 22.43628692626953 10.06047534942627 17.88242530822754 13.97144985198975 13.97144985198975 C 17.88242530822754 10.06047534942627 22.43628692626953 6.99007511138916 27.50652503967285 4.845550060272217 C 32.75506210327148 2.625600099563599 38.33124923706055 1.500000238418579 44.0802001953125 1.500000238418579 C 49.82915115356445 1.500000238418579 55.40533828735352 2.625600099563599 60.65387344360352 4.845550060272217 C 65.72411346435547 6.99007511138916 70.27797698974609 10.06047534942627 74.18894958496094 13.97144985198975 C 78.09992218017578 17.88242530822754 81.17032623291016 22.43628692626953 83.31484985351562 27.50652503967285 C 85.53479766845703 32.75506210327148 86.660400390625 38.33124923706055 86.660400390625 44.0802001953125 C 86.660400390625 49.82915115356445 85.53479766845703 55.40533828735352 83.31484985351562 60.65387344360352 C 81.17032623291016 65.72411346435547 78.09992218017578 70.27797698974609 74.18894958496094 74.18894958496094 C 70.27797698974609 78.09992218017578 65.72411346435547 81.17032623291016 60.65387344360352 83.31484985351562 C 55.40533828735352 85.53479766845703 49.82915115356445 86.660400390625 44.0802001953125 86.660400390625 Z" stroke="none"/>
                          <path d="M 44.0802001953125 3 C 38.53308486938477 3 33.15349960327148 4.085746765136719 28.09085845947266 6.227058410644531 C 23.19941711425781 8.29595947265625 18.80581665039062 11.25841522216797 15.03211212158203 15.03211212158203 C 11.25841522216797 18.80581665039062 8.29595947265625 23.19941711425781 6.227058410644531 28.09085845947266 C 4.085746765136719 33.15349960327148 3 38.53308486938477 3 44.0802001953125 C 3 49.62731552124023 4.085746765136719 55.00691604614258 6.227058410644531 60.06954193115234 C 8.29595947265625 64.96098327636719 11.25841522216797 69.35458374023438 15.03211212158203 73.12828826904297 C 18.80581665039062 76.90198516845703 23.19941711425781 79.86444091796875 28.09085845947266 81.93334197998047 C 33.15349960327148 84.07466125488281 38.53308486938477 85.160400390625 44.0802001953125 85.160400390625 C 49.62731552124023 85.160400390625 55.00691604614258 84.07466125488281 60.06954193115234 81.93334197998047 C 64.96099853515625 79.86444091796875 69.35458374023438 76.90198516845703 73.12828826904297 73.12828826904297 C 76.90198516845703 69.35458374023438 79.86444091796875 64.96099853515625 81.93334197998047 60.06954193115234 C 84.07466125488281 55.00691604614258 85.160400390625 49.62731552124023 85.160400390625 44.0802001953125 C 85.160400390625 38.53308486938477 84.07466125488281 33.15349960327148 81.93334197998047 28.09085845947266 C 79.86444091796875 23.19941711425781 76.90198516845703 18.80581665039062 73.12828826904297 15.03211212158203 C 69.35458374023438 11.25841522216797 64.96098327636719 8.29595947265625 60.06954193115234 6.227058410644531 C 55.00691604614258 4.085746765136719 49.62731552124023 3 44.0802001953125 3 M 44.0802001953125 0 C 68.42502593994141 0 88.160400390625 19.73538970947266 88.160400390625 44.0802001953125 C 88.160400390625 68.42502593994141 68.42502593994141 88.160400390625 44.0802001953125 88.160400390625 C 19.73538970947266 88.160400390625 0 68.42502593994141 0 44.0802001953125 C 0 19.73538970947266 19.73538970947266 0 44.0802001953125 0 Z" stroke="none" fill="#1d7083"/>
                        </g>
                      </g>
                    </g>
                  </g>
                </g>
              </g>
            </g>
          </g>
        </g>
      </g>
      <g id="apoyo-de-equipo" transform="translate(630.958 4208.778)">
        <path id="Path_1210999" data-name="Path 1210999" d="M270.751,137.632l-.04-.05a1.757,1.757,0,0,0-1.888-.588l-14.019,8.39a2.3,2.3,0,0,0,3.258,1.571l5.909-2.89-.948,4.735,5.8.67,2.691-7.269A4.78,4.78,0,0,0,270.751,137.632Zm0,0" transform="translate(-222.912 -119.342)" fill="#fdb659"/>
        <path id="Path_1211000" data-name="Path 1211000" d="M270.133,138.692a1.756,1.756,0,0,1,1.3.111,4.772,4.772,0,0,0-.683-1.171l-.039-.05a1.758,1.758,0,0,0-1.888-.588l-14.019,8.39a2.292,2.292,0,0,0,1.4,1.643Zm0,0" transform="translate(-222.913 -119.342)" fill="#fd9e28"/>
        <path id="Path_1211001" data-name="Path 1211001" d="M272.173,231.844l-1.613,7.813a1.7,1.7,0,0,1-.559.947l-4.595,3.933a.415.415,0,0,0,.005.635l1.194.985a.522.522,0,0,0,.592.05L272.8,243a3.023,3.023,0,0,0,1.413-1.213l3.762-9.273Zm0,0" transform="translate(-232.06 -202.386)" fill="#38627c"/>
        <path id="Path_1211002" data-name="Path 1211002" d="M318.808,231.844l-.09.4a6.023,6.023,0,0,0,2.874,6.549l3.365,1.934a2.171,2.171,0,0,1,1.08,2.078l-.361,3.972a.161.161,0,0,0,.16.176h2.251a.161.161,0,0,0,.157-.124l1.4-5.979a1.713,1.713,0,0,0-.158-1.451l-4.88-6.884Zm0,0" transform="translate(-278.696 -202.386)" fill="#4f7693"/>
        <path id="Path_1211003" data-name="Path 1211003" d="M387.41,118l-1.99,1.149a1.955,1.955,0,0,1-2.671-.716l-.455-.788a1.955,1.955,0,0,1,.715-2.671l1.99-1.149a1.955,1.955,0,0,1,2.671.716l.455.788A1.955,1.955,0,0,1,387.41,118Zm0,0" transform="translate(-334.215 -98.909)" fill="#fedfc5"/>
        <path id="Path_1211004" data-name="Path 1211004" d="M39.317,137.632l-.04-.05a1.757,1.757,0,0,0-1.888-.588l-14.019,8.39a2.3,2.3,0,0,0,3.258,1.571l5.91-2.89-.948,4.735,5.8.67,2.691-7.269a4.78,4.78,0,0,0-.763-4.57Zm0,0" transform="translate(-20.446 -119.342)" fill="#83d9ff"/>
        <path id="Path_1211005" data-name="Path 1211005" d="M24.68,146.809l14.019-8.39a1.757,1.757,0,0,1,1.147.043,4.8,4.8,0,0,0-.528-.83l-.04-.049a1.757,1.757,0,0,0-1.888-.588l-14.019,8.39a2.29,2.29,0,0,0,1.365,1.629c-.021-.066-.041-.134-.056-.2Zm0,0" transform="translate(-20.447 -119.342)" fill="#43a3f9"/>
        <path id="Path_1211006" data-name="Path 1211006" d="M40.738,231.844l-1.612,7.813a1.7,1.7,0,0,1-.559.947l-4.595,3.933a.415.415,0,0,0,.006.635l1.194.985a.521.521,0,0,0,.591.05l5.6-3.207a3.022,3.022,0,0,0,1.414-1.213l3.762-9.273Zm0,0" transform="translate(-29.594 -202.386)" fill="#38627c"/>
        <path id="Path_1211007" data-name="Path 1211007" d="M87.372,231.844l-.09.4a6.025,6.025,0,0,0,2.874,6.549l3.365,1.934a2.171,2.171,0,0,1,1.08,2.078l-.361,3.972a.161.161,0,0,0,.16.176h2.251a.161.161,0,0,0,.156-.124l1.4-5.979a1.71,1.71,0,0,0-.158-1.451l-4.879-6.884Zm0,0" transform="translate(-76.228 -202.386)" fill="#4f7693"/>
        <path id="Path_1211008" data-name="Path 1211008" d="M155.976,118l-1.99,1.149a1.955,1.955,0,0,1-2.671-.716l-.455-.788a1.955,1.955,0,0,1,.716-2.671l1.99-1.149a1.955,1.955,0,0,1,2.671.716l.455.788A1.955,1.955,0,0,1,155.976,118Zm0,0" transform="translate(-131.749 -98.909)" fill="#fedfc5"/>
        <path id="Path_1211009" data-name="Path 1211009" d="M8.011,33.473l24.85-14.811a.785.785,0,0,1,1.066.255l7.512,11.891L62.717,18.4a.278.278,0,0,1,.367.079l3.444,4.854a.418.418,0,0,0,.751-.166l2.407-13.042a.418.418,0,0,0-.359-.49L56.345,8a.418.418,0,0,0-.392.659l3.414,4.76a.278.278,0,0,1-.084.4l-14.99,8.9a.244.244,0,0,1-.336-.089L36,8.739a.8.8,0,0,0-1.221-.2L7.6,32.915a.348.348,0,0,0,.41.557Zm0,0" transform="translate(-6.547 -6.561)" fill="#69d998"/>
        <path id="Path_1211010" data-name="Path 1211010" d="M67.4,66.27l-3.444-4.853a.278.278,0,0,0-.367-.079l-17.662,10.3a4.337,4.337,0,0,1-5.852-1.43L34.8,61.856a.785.785,0,0,0-1.066-.255L15.476,72.482,7.6,79.543a.348.348,0,0,0,.41.557L32.863,65.29a.785.785,0,0,1,1.066.255l7.512,11.891,21.278-12.41a.279.279,0,0,1,.367.079l3.444,4.854a.418.418,0,0,0,.752-.166l.623-3.381a.413.413,0,0,1-.506-.141Zm0,0" transform="translate(-6.548 -53.189)" fill="#3dc5a1"/>
        <path id="Path_1211011" data-name="Path 1211011" d="M372.523,367.742h-3.739a.939.939,0,1,0,0,1.878h3.739a.939.939,0,0,0,0-1.878Zm0,0" transform="translate(-321.803 -321.274)"/>
        <path id="Path_1211012" data-name="Path 1211012" d="M242.852,347.367l-3.013-2.637a.939.939,0,1,0-1.237,1.414l3.013,2.636a.939.939,0,1,0,1.237-1.413Zm0,0" transform="translate(-208.458 -300.94)"/>
        <path id="Path_1211013" data-name="Path 1211013" d="M141.088,367.742h-3.739a.939.939,0,1,0,0,1.878h3.739a.939.939,0,1,0,0-1.878Zm0,0" transform="translate(-119.337 -321.274)"/>
        <path id="Path_1211014" data-name="Path 1211014" d="M11.419,347.367,8.406,344.73a.939.939,0,0,0-1.237,1.414l3.013,2.636a.939.939,0,0,0,1.237-1.413Zm0,0" transform="translate(-5.992 -300.94)"/>
        <path id="Path_1211015" data-name="Path 1211015" d="M63.823,2.684A1.362,1.362,0,0,0,62.9,2.14L49.916.511a1.357,1.357,0,0,0-1.271,2.137l2.994,4.175-13.764,8.17-7.6-13.281a1.735,1.735,0,0,0-2.663-.429L14.14,13.358a.939.939,0,1,0,1.254,1.4L28.727,2.8,36.6,16.538a1.183,1.183,0,0,0,1.63.429l14.99-8.9a1.217,1.217,0,0,0,.368-1.756L50.865,2.522,62.116,3.934,60.033,15.221,57.3,11.373a1.21,1.21,0,0,0-1.605-.347l-4.882,2.847a2.933,2.933,0,0,0-.5.229l-1.99,1.149a2.884,2.884,0,0,0-.5.368l-1.8,1.048a2.67,2.67,0,0,0-.388.088.927.927,0,0,0-.209.092L35.2,22.97,28.174,11.854a1.715,1.715,0,0,0-2.341-.56l-9.158,5.459-.006,0a.933.933,0,0,0-.208.092L6.245,22.961l6.513-5.841a.939.939,0,1,0-1.254-1.4L.428,25.655a1.286,1.286,0,0,0,1.518,2.063l.557-.332a3.245,3.245,0,0,0,4.092,1.07L10.8,26.4,8.611,37.083a.751.751,0,0,1-.247.42.939.939,0,0,0,1.216,1.43,2.632,2.632,0,0,0,.871-1.472l.542-2.626a6.955,6.955,0,0,0,2.141,2.186l-.812,2c-.119.242-.389.407-.847.675L11.3,39.8,5.953,42.864l-.491-.4,1.194-1.023A.939.939,0,0,0,5.435,40.01L3.769,41.437a1.353,1.353,0,0,0,.016,2.073l1.2.988a1.474,1.474,0,0,0,1.655.139l5.6-3.207.012-.007.174-.1a3.5,3.5,0,0,0,1.613-1.525q.01-.021.018-.041l.721-1.777,2.053,1.18a1.236,1.236,0,0,1,.613,1.179l-.361,3.972a1.1,1.1,0,0,0,1.1,1.2h2.251a1.1,1.1,0,0,0,1.071-.849l1.392-5.938a2.643,2.643,0,0,0-.262-2.2c-.011-.018-.023-.036-.035-.053L18,29.99l2.519-6.8,0-.013a5.744,5.744,0,0,0,.329-1.765,2.847,2.847,0,0,0,1.858-.358L24.7,19.9a2.9,2.9,0,0,0,1.059-3.953l-.455-.788a2.885,2.885,0,0,0-.8-.887l2.164-1.289,6.918,10.951-2.175,1.3a.938.938,0,0,0-.435,1.008,3.24,3.24,0,0,0,4.587,2.212l8.3-4.059a.939.939,0,1,0-.825-1.686l-8.3,4.059a1.365,1.365,0,0,1-1.646-.352l2.287-1.369,11.183-6.522a.814.814,0,0,1,.5.3l.04.049a2.9,2.9,0,0,0,.162.33l.455.788,0,0a3.821,3.821,0,0,1,0,2.546l-2.432,6.571L41.694,28.7l-.461-.054.023-.117a.939.939,0,0,0-1.841-.369L37.58,37.08a.758.758,0,0,1-.251.424l-4.593,3.932a1.354,1.354,0,0,0,.017,2.073l1.194.985a1.472,1.472,0,0,0,1.658.141l5.6-3.207.012-.007.174-.1A3.5,3.5,0,0,0,43,39.794c.006-.013.012-.027.018-.041l.721-1.777,2.053,1.179a1.236,1.236,0,0,1,.613,1.18l-.361,3.972a1.1,1.1,0,0,0,1.1,1.2h2.251a1.1,1.1,0,0,0,1.071-.849l1.392-5.938a2.646,2.646,0,0,0-.262-2.2c-.011-.018-.023-.036-.035-.053l-4.593-6.48,2.519-6.8,0-.013a5.732,5.732,0,0,0,.329-1.765,2.847,2.847,0,0,0,1.858-.358l1.99-1.149a2.9,2.9,0,0,0,1.059-3.953l-.455-.788a2.9,2.9,0,0,0-.635-.758l2.487-1.45,3.094,4.36a1.357,1.357,0,0,0,2.441-.539L64.062,3.732a1.363,1.363,0,0,0-.239-1.048ZM21.093,38.158a.816.816,0,0,0-.026.091l-1.261,5.379h-.782l.284-3.123a3.117,3.117,0,0,0-1.547-2.977L14.4,35.594a5.058,5.058,0,0,1-2.5-5.1l.716.083,3.812.442,4.615,6.511A.771.771,0,0,1,21.093,38.158ZM18.752,22.541l-2.433,6.57-3.761-.435-.293-.034.657-3.28,1.973-.965a.939.939,0,1,0-.825-1.686l-2.381,1.165-.015.007L5.77,26.77a1.367,1.367,0,0,1-1.645-.351l13.253-7.9a.813.813,0,0,1,.719.3l.039.049a2.938,2.938,0,0,0,.162.33l.455.788,0,0a3.821,3.821,0,0,1,0,2.546Zm5.006-4.265-1.99,1.149a1.016,1.016,0,0,1-1.326-.277,5.746,5.746,0,0,0-.627-1.161,1.017,1.017,0,0,1,.482-1.109l1.99-1.149a1.012,1.012,0,0,1,.507-.137,1.025,1.025,0,0,1,.265.035,1.012,1.012,0,0,1,.617.473l.455.788a1.018,1.018,0,0,1-.372,1.389ZM41.29,39.023c-.12.242-.389.407-.848.675l-.178.1-5.343,3.061-.491-.4,4.118-3.526a2.646,2.646,0,0,0,.871-1.472l.541-2.625A6.955,6.955,0,0,0,42.1,37.021Zm8.772-.865a.935.935,0,0,0-.026.091l-1.261,5.379h-.782l.284-3.123a3.118,3.118,0,0,0-1.547-2.977l-3.365-1.934a5.058,5.058,0,0,1-2.5-5.1l.9.1,3.625.42L50,37.525a.773.773,0,0,1,.059.634Zm1.7-22.567a1.023,1.023,0,0,1,.265.035,1.012,1.012,0,0,1,.617.473l.455.788a1.018,1.018,0,0,1-.372,1.389l-1.99,1.149a1.016,1.016,0,0,1-1.326-.277,5.751,5.751,0,0,0-.627-1.161,1.02,1.02,0,0,1,.2-.874l2.571-1.5a1.007,1.007,0,0,1,.2-.023Zm0,0" transform="translate(0)"/>
      </g>
    </g>
  </g>
</svg>
