<svg xmlns="http://www.w3.org/2000/svg" xmlns:xlink="http://www.w3.org/1999/xlink" width="106.16" height="106.161" viewBox="0 0 106.16 106.161">
  <defs>
    <filter id="Path_982547" x="0" y="0" width="106.16" height="106.161" filterUnits="userSpaceOnUse">
      <feOffset dy="3" input="SourceAlpha"/>
      <feGaussianBlur stdDeviation="3" result="blur"/>
      <feFlood flood-opacity="0.161"/>
      <feComposite operator="in" in2="blur"/>
      <feComposite in="SourceGraphic"/>
    </filter>
  </defs>
  <g id="Group_1228584" data-name="Group 1228584" transform="translate(-190 -4014.625)">
    <g id="Group_1228419" data-name="Group 1228419">
      <g id="Group_1228141" data-name="Group 1228141" transform="translate(-1 2291.625)">
        <g id="Group_1206130" data-name="Group 1206130" transform="translate(0 -59)">
          <g id="Group_1203672" data-name="Group 1203672" transform="translate(0.08 -4797.878)">
            <g id="Group_1203344" data-name="Group 1203344" transform="translate(-81.08 5174.875)">
              <g id="Group_1177900" data-name="Group 1177900" transform="translate(281 1411.003)">
                <g id="Group_1172010" data-name="Group 1172010" transform="translate(0)">
                  <g id="Group_1171046" data-name="Group 1171046">
                    <g id="Group_1148525" data-name="Group 1148525">
                      <g transform="matrix(1, 0, 0, 1, -9, -6)" filter="url(#Path_982547)">
                        <g id="Path_982547-2" data-name="Path 982547" transform="translate(9 6)" fill="#e9f9fd">
                          <path d="M 44.0802001953125 86.660400390625 C 38.33124923706055 86.660400390625 32.75506210327148 85.53479766845703 27.50652503967285 83.31484985351562 C 22.43628692626953 81.17032623291016 17.88242530822754 78.09992218017578 13.97144985198975 74.18894958496094 C 10.06047534942627 70.27797698974609 6.99007511138916 65.72411346435547 4.845550060272217 60.65387344360352 C 2.625600099563599 55.40533828735352 1.500000238418579 49.82915115356445 1.500000238418579 44.0802001953125 C 1.500000238418579 38.33124923706055 2.625600099563599 32.75506210327148 4.845550060272217 27.50652503967285 C 6.99007511138916 22.43628692626953 10.06047534942627 17.88242530822754 13.97144985198975 13.97144985198975 C 17.88242530822754 10.06047534942627 22.43628692626953 6.99007511138916 27.50652503967285 4.845550060272217 C 32.75506210327148 2.625600099563599 38.33124923706055 1.500000238418579 44.0802001953125 1.500000238418579 C 49.82915115356445 1.500000238418579 55.40533828735352 2.625600099563599 60.65387344360352 4.845550060272217 C 65.72411346435547 6.99007511138916 70.27797698974609 10.06047534942627 74.18894958496094 13.97144985198975 C 78.09992218017578 17.88242530822754 81.17032623291016 22.43628692626953 83.31484985351562 27.50652503967285 C 85.53479766845703 32.75506210327148 86.660400390625 38.33124923706055 86.660400390625 44.0802001953125 C 86.660400390625 49.82915115356445 85.53479766845703 55.40533828735352 83.31484985351562 60.65387344360352 C 81.17032623291016 65.72411346435547 78.09992218017578 70.27797698974609 74.18894958496094 74.18894958496094 C 70.27797698974609 78.09992218017578 65.72411346435547 81.17032623291016 60.65387344360352 83.31484985351562 C 55.40533828735352 85.53479766845703 49.82915115356445 86.660400390625 44.0802001953125 86.660400390625 Z" stroke="none"/>
                          <path d="M 44.0802001953125 3 C 38.53308486938477 3 33.15349960327148 4.085746765136719 28.09085845947266 6.227058410644531 C 23.19941711425781 8.29595947265625 18.80581665039062 11.25841522216797 15.03211212158203 15.03211212158203 C 11.25841522216797 18.80581665039062 8.29595947265625 23.19941711425781 6.227058410644531 28.09085845947266 C 4.085746765136719 33.15349960327148 3 38.53308486938477 3 44.0802001953125 C 3 49.62731552124023 4.085746765136719 55.00691604614258 6.227058410644531 60.06954193115234 C 8.29595947265625 64.96098327636719 11.25841522216797 69.35458374023438 15.03211212158203 73.12828826904297 C 18.80581665039062 76.90198516845703 23.19941711425781 79.86444091796875 28.09085845947266 81.93334197998047 C 33.15349960327148 84.07466125488281 38.53308486938477 85.160400390625 44.0802001953125 85.160400390625 C 49.62731552124023 85.160400390625 55.00691604614258 84.07466125488281 60.06954193115234 81.93334197998047 C 64.96099853515625 79.86444091796875 69.35458374023438 76.90198516845703 73.12828826904297 73.12828826904297 C 76.90198516845703 69.35458374023438 79.86444091796875 64.96099853515625 81.93334197998047 60.06954193115234 C 84.07466125488281 55.00691604614258 85.160400390625 49.62731552124023 85.160400390625 44.0802001953125 C 85.160400390625 38.53308486938477 84.07466125488281 33.15349960327148 81.93334197998047 28.09085845947266 C 79.86444091796875 23.19941711425781 76.90198516845703 18.80581665039062 73.12828826904297 15.03211212158203 C 69.35458374023438 11.25841522216797 64.96098327636719 8.29595947265625 60.06954193115234 6.227058410644531 C 55.00691604614258 4.085746765136719 49.62731552124023 3 44.0802001953125 3 M 44.0802001953125 0 C 68.42502593994141 0 88.160400390625 19.73538970947266 88.160400390625 44.0802001953125 C 88.160400390625 68.42502593994141 68.42502593994141 88.160400390625 44.0802001953125 88.160400390625 C 19.73538970947266 88.160400390625 0 68.42502593994141 0 44.0802001953125 C 0 19.73538970947266 19.73538970947266 0 44.0802001953125 0 Z" stroke="none" fill="#1d7083"/>
                        </g>
                      </g>
                    </g>
                  </g>
                </g>
              </g>
            </g>
          </g>
        </g>
      </g>
      <g id="inteligencia-emocional_2_" data-name="inteligencia-emocional (2)" transform="translate(205.999 4039.804)">
        <g id="Group_1228418" data-name="Group 1228418" transform="translate(9.767 -3.315)">
          <g id="Group_1228414" data-name="Group 1228414" transform="translate(0 2.137)">
            <path id="Path_1210955" data-name="Path 1210955" d="M31.407,61.371v7.737h18.58V60.83c-.08-7.534,10.849-10.5,10.051-27.856-.447-9.716-6.469-17.658-20.172-16.926-10.652.569-17.612,8.4-17.612,18.636L16.2,45.81a1.558,1.558,0,0,0,1.343,2.317h4.715v2.651c0,5.031,2.66,9.776,8.624,10.04a.553.553,0,0,1,.529.552Z" transform="translate(-16 -16.001)" fill="#efc7a4" fill-rule="evenodd"/>
            <path id="Path_1210956" data-name="Path 1210956" d="M139.814,118.754c-1.161-.929-1.385,0-2.871,0a3.742,3.742,0,0,1-.165-7.48,3.743,3.743,0,0,1,5.526-3.18,4.211,4.211,0,0,1,7.137-.817,5.081,5.081,0,0,1,5.8,8.217,3.258,3.258,0,0,1-1.743,4.694c-2.993,1.393-.8,4.443-.8,4.443h-4.137a4.67,4.67,0,0,0-2.681-4.5A5.869,5.869,0,0,1,139.814,118.754Z" transform="translate(-120.234 -95.738)" fill="#f76c82" fill-rule="evenodd"/>
          </g>
          <g id="Group_1228415" data-name="Group 1228415" transform="translate(38.091 40.239)">
            <circle id="Ellipse_13430" data-name="Ellipse 13430" cx="6.915" cy="6.915" r="6.915" transform="translate(0 2.614) rotate(-10.894)" fill="#fdcd56"/>
          </g>
          <g id="Group_1228416" data-name="Group 1228416" transform="translate(37.162 0)">
            <circle id="Ellipse_13431" data-name="Ellipse 13431" cx="6.915" cy="6.915" r="6.915" transform="translate(0 5.297) rotate(-22.514)" fill="#fdcd56"/>
          </g>
          <g id="Group_1228417" data-name="Group 1228417" transform="translate(37.169 19.641)">
            <circle id="Ellipse_13432" data-name="Ellipse 13432" cx="6.915" cy="6.915" r="6.915" transform="translate(0 5.297) rotate(-22.514)" fill="#fdcd56"/>
          </g>
        </g>
        <path id="Path_1210957" data-name="Path 1210957" d="M58.937,39.261a.772.772,0,0,1-.776.775h-4.41a.774.774,0,1,1,0-1.549h4.41A.772.772,0,0,1,58.937,39.261Zm1.328-5.091a.776.776,0,0,1,.776.774,1.986,1.986,0,1,1-3.972,0,.776.776,0,0,1,1.551,0,.435.435,0,1,0,.87,0,.776.776,0,0,1,.776-.774Zm-7.4,2.76a1.987,1.987,0,0,1-1.984-1.986.773.773,0,1,1,1.546,0,.437.437,0,1,0,.875,0,.776.776,0,0,1,1.551,0,1.992,1.992,0,0,1-1.989,1.986Zm3.1,5.538a6.14,6.14,0,1,0-6.143-6.14A6.146,6.146,0,0,0,55.959,42.468Zm-9.225,3.79a41.908,41.908,0,0,0,3.316-5.011,7.686,7.686,0,0,1,3.014-12.041c.01-.787.005-1.6-.036-2.423a22.585,22.585,0,0,0-.359-3.146,7.7,7.7,0,0,1-4.4-6.948,7.957,7.957,0,0,1,.146-1.5C45.037,11.8,40.081,10.252,33.672,10.6c-9.939.531-16.878,7.876-16.878,17.862a.772.772,0,0,1-.094.371L10.64,39.954a.816.816,0,0,0,.016.8.745.745,0,0,0,.651.371h4.712a.772.772,0,0,1,.776.774v2.651c0,4.281,2.2,9.278,8.377,9.278a.772.772,0,0,1,.776.774v7.5H42.98V54.6C42.944,51.4,44.7,49.018,46.734,46.258Zm9.225-35.709a6.141,6.141,0,1,1-6.143,6.141A6.147,6.147,0,0,1,55.959,10.549Zm0,18.09a7.785,7.785,0,0,0-1.343.12c.005-.671-.005-1.355-.042-2.046a24.445,24.445,0,0,0-.24-2.507,7.689,7.689,0,1,0-5.394-10.656,16.548,16.548,0,0,0-5.737-3.34,25.294,25.294,0,0,0-9.616-1.159,19.1,19.1,0,0,0-13.322,5.939,19.581,19.581,0,0,0-5.019,13.271L9.281,39.213a2.348,2.348,0,0,0,.042,2.333,2.288,2.288,0,0,0,1.984,1.129h3.941v1.876A11.891,11.891,0,0,0,17.616,52a9.117,9.117,0,0,0,6.784,3.35v7.527a.771.771,0,0,0,.77.774H43.751a.776.776,0,0,0,.776-.774V54.6c-.026-2.691,1.51-4.778,3.457-7.42a46.223,46.223,0,0,0,3.223-4.81,7.687,7.687,0,1,0,4.753-13.727Zm0-9a1.764,1.764,0,0,0,1.531-.9.773.773,0,1,1,1.348.757,3.3,3.3,0,0,1-5.763,0,.775.775,0,1,1,1.354-.757A1.752,1.752,0,0,0,55.959,19.64Zm1.109-4.335a1.986,1.986,0,0,0,3.972,0,.776.776,0,0,0-1.551,0,.435.435,0,1,1-.87,0,.776.776,0,0,0-1.551,0Zm-6.19,0a.773.773,0,1,1,1.546,0,.437.437,0,0,0,.875,0,.776.776,0,0,1,1.551,0,1.986,1.986,0,0,1-3.972,0Zm7.96,44.007a.773.773,0,0,1-.3,1.054.761.761,0,0,1-.375.1.774.774,0,0,1-.677-.4,1.753,1.753,0,0,0-3.061,0,.775.775,0,0,1-1.354-.757,3.3,3.3,0,0,1,5.763,0Zm-5.977-2.745a1.987,1.987,0,0,1-1.984-1.986.773.773,0,1,1,1.546,0,.437.437,0,0,0,.875,0,.776.776,0,0,1,1.551,0,1.992,1.992,0,0,1-1.989,1.986Zm7.4-2.761a.776.776,0,0,1,.776.775,1.986,1.986,0,1,1-3.972,0,.776.776,0,0,1,1.551,0,.435.435,0,1,0,.87,0,.776.776,0,0,1,.776-.775Zm-4.306,8.3A6.14,6.14,0,1,1,62.1,55.966,6.147,6.147,0,0,1,55.959,62.107Zm0-13.83a7.689,7.689,0,1,1-7.689,7.69A7.7,7.7,0,0,1,55.959,48.277ZM44.235,28.969a.773.773,0,0,0-.151.92,2.543,2.543,0,0,1,.234,2A2.946,2.946,0,0,1,42.7,33.523a3.243,3.243,0,0,0-1.926,2.111,3.793,3.793,0,0,0,.182,2.259H38.836a5.2,5.2,0,0,0-3.124-4.432.778.778,0,0,0-.51-.038,5.027,5.027,0,0,1-5.175-1.077l-.2-.161a2.066,2.066,0,0,0-2.332-.379,2.711,2.711,0,0,1-1.02.21,2.968,2.968,0,0,1-.135-5.932.78.78,0,0,0,.744-.751,2.966,2.966,0,0,1,4.378-2.521.778.778,0,0,0,.614.054.767.767,0,0,0,.458-.408,3.437,3.437,0,0,1,5.826-.666.773.773,0,0,0,.958.213,4.308,4.308,0,0,1,4.915,6.965Zm-2.967-8.977a5.864,5.864,0,0,1,5.857,5.855,5.785,5.785,0,0,1-1.437,3.842,3.9,3.9,0,0,1,.094,2.7,4.45,4.45,0,0,1-2.431,2.537,1.768,1.768,0,0,0-1.078,1.1,3.124,3.124,0,0,0,.583,2.2.774.774,0,0,1-.63,1.223H38.087a.775.775,0,0,1-.567-.248.784.784,0,0,1-.2-.586,3.907,3.907,0,0,0-1.989-3.618,6.482,6.482,0,0,1-6.284-1.446l-.182-.149c-.375-.3-.4-.29-.838-.132a4.222,4.222,0,0,1-1.546.3,4.517,4.517,0,0,1-.875-8.949A4.5,4.5,0,0,1,30.048,20.9a4.544,4.544,0,0,1,1.458.24,5.008,5.008,0,0,1,4.149-2.224,4.941,4.941,0,0,1,3.519,1.456,5.811,5.811,0,0,1,2.093-.384Z" transform="translate(0 -10.953)" fill-rule="evenodd"/>
      </g>
    </g>
  </g>
</svg>
