<svg xmlns="http://www.w3.org/2000/svg" xmlns:xlink="http://www.w3.org/1999/xlink" width="108" height="108" viewBox="0 0 108 108">
  <defs>
    <filter id="Path_904820" x="0" y="0" width="108" height="108" filterUnits="userSpaceOnUse">
      <feOffset dy="3" input="SourceAlpha"/>
      <feGaussianBlur stdDeviation="3" result="blur"/>
      <feFlood flood-opacity="0.161"/>
      <feComposite operator="in" in2="blur"/>
      <feComposite in="SourceGraphic"/>
    </filter>
  </defs>
  <g id="Group_1228579" data-name="Group 1228579" transform="translate(-613.97 -2468)">
    <g id="Group_1228578" data-name="Group 1228578">
      <g id="Group_1228413" data-name="Group 1228413" transform="translate(420)">
        <g id="Group_1228140" data-name="Group 1228140" transform="translate(202.97 2474)">
          <g id="Group_1203794" data-name="Group 1203794">
            <g id="Group_1203639" data-name="Group 1203639">
              <g id="Group_1202437" data-name="Group 1202437">
                <g id="Group_1177315" data-name="Group 1177315">
                  <g id="Group_1173585" data-name="Group 1173585">
                    <g id="Group_1173428" data-name="Group 1173428" transform="translate(0 0)">
                      <g id="Group_1171958" data-name="Group 1171958">
                        <g id="Group_1167341" data-name="Group 1167341">
                          <g id="Group_1166792" data-name="Group 1166792">
                            <g transform="matrix(1, 0, 0, 1, -9, -6)" filter="url(#Path_904820)">
                              <g id="Path_904820-2" data-name="Path 904820" transform="translate(9 6)" fill="#e9f9fd">
                                <path d="M 44.99999618530273 88.49999237060547 C 39.12687301635742 88.49999237060547 33.43022155761719 87.35006713867188 28.06829643249512 85.08216857910156 C 22.88852119445801 82.89130401611328 18.23629570007324 79.75457763671875 14.24084663391113 75.75914001464844 C 10.24540901184082 71.76369476318359 7.108683586120605 67.11146545410156 4.917821407318115 61.93169403076172 C 2.649921178817749 56.56976699829102 1.499996185302734 50.87311553955078 1.499996185302734 44.99999237060547 C 1.499996185302734 39.12686920166016 2.649921178817749 33.43021774291992 4.917821407318115 28.06829261779785 C 7.108683586120605 22.88851737976074 10.24540901184082 18.23630523681641 14.24084663391113 14.24085521697998 C 18.23629570007324 10.24540519714355 22.88852119445801 7.108692169189453 28.06829643249512 4.917829990386963 C 33.43022155761719 2.649929761886597 39.12687301635742 1.500004887580872 44.99999618530273 1.500004887580872 C 50.87311935424805 1.500004887580872 56.56977081298828 2.649929761886597 61.93169784545898 4.917829990386963 C 67.11147308349609 7.108692169189453 71.76369476318359 10.24540519714355 75.75914764404297 14.24085521697998 C 79.75458526611328 18.23630523681641 82.89131164550781 22.88851737976074 85.08216857910156 28.06829261779785 C 87.35007476806641 33.43021774291992 88.5 39.12686920166016 88.5 44.99999237060547 C 88.5 50.87311553955078 87.35007476806641 56.56976699829102 85.08216857910156 61.93169403076172 C 82.89131164550781 67.11146545410156 79.75458526611328 71.76369476318359 75.75914764404297 75.75914001464844 C 71.76369476318359 79.75457763671875 67.11147308349609 82.89130401611328 61.93169784545898 85.08216857910156 C 56.56977081298828 87.35006713867188 50.87311935424805 88.49999237060547 44.99999618530273 88.49999237060547 Z" stroke="none"/>
                                <path d="M 44.99999618530273 2.999992370605469 C 39.32870864868164 2.999992370605469 33.82865142822266 4.11004638671875 28.65262603759766 6.299331665039062 C 23.65165710449219 8.414566040039062 19.15968322753906 11.44333648681641 15.301513671875 15.30150604248047 C 11.44333648681641 19.15967559814453 8.414566040039062 23.65164947509766 6.299339294433594 28.65262222290039 C 4.110054016113281 33.82864761352539 2.999992370605469 39.32870483398438 2.999992370605469 44.99999237060547 C 2.999992370605469 50.67127990722656 4.110054016113281 56.17132186889648 6.299339294433594 61.34736633300781 C 8.414566040039062 66.34833526611328 11.44333648681641 70.84029388427734 15.301513671875 74.69846343994141 C 19.15968322753906 78.55663299560547 23.65165710449219 81.58540344238281 28.65262603759766 83.70063781738281 C 33.82865142822266 85.88992309570312 39.32870864868164 86.99997711181641 44.99999618530273 86.99997711181641 C 50.67128372192383 86.99997711181641 56.17134094238281 85.88992309570312 61.34736633300781 83.70063781738281 C 66.34834289550781 81.58540344238281 70.84030914306641 78.55663299560547 74.69847869873047 74.69846343994141 C 78.55665588378906 70.84029388427734 81.58542633056641 66.34833526611328 83.70065307617188 61.34736633300781 C 85.88993835449219 56.17132186889648 87 50.67127990722656 87 44.99999237060547 C 87 39.32870483398438 85.88993835449219 33.82864761352539 83.70065307617188 28.65262222290039 C 81.58542633056641 23.65164947509766 78.55665588378906 19.15967559814453 74.69847869873047 15.30150604248047 C 70.84030914306641 11.44333648681641 66.34834289550781 8.414566040039062 61.34736633300781 6.299331665039062 C 56.17134094238281 4.11004638671875 50.67128372192383 2.999992370605469 44.99999618530273 2.999992370605469 M 44.99999618530273 -7.62939453125e-06 C 69.85281372070312 -7.62939453125e-06 90 20.14717864990234 90 44.99999237060547 C 90 69.85279083251953 69.85281372070312 89.99997711181641 44.99999618530273 89.99997711181641 C 20.14717864990234 89.99997711181641 -7.62939453125e-06 69.85279083251953 -7.62939453125e-06 44.99999237060547 C -7.62939453125e-06 20.14717864990234 20.14717864990234 -7.62939453125e-06 44.99999618530273 -7.62939453125e-06 Z" stroke="none" fill="#1d7083"/>
                              </g>
                            </g>
                          </g>
                        </g>
                      </g>
                    </g>
                  </g>
                </g>
              </g>
            </g>
          </g>
        </g>
        <g id="inteligencia-emocional_1_" data-name="inteligencia-emocional (1)" transform="translate(163.804 2487.292)">
          <g id="Group_1228411" data-name="Group 1228411" transform="translate(60.862 0.928)">
            <g id="Group_1228410" data-name="Group 1228410" transform="translate(0 5.118)">
              <path id="Path_1210937" data-name="Path 1210937" d="M119.136,192.827l.262-.206a3.488,3.488,0,0,1,5.4,1.427,3.451,3.451,0,0,1,.222,1.717l-.608,4.842a4.753,4.753,0,0,1-6.4,3.835l-.773-.293H89.86l-.773.293a4.753,4.753,0,0,1-6.4-3.835l-.608-4.842a3.451,3.451,0,0,1,.222-1.717,3.488,3.488,0,0,1,5.4-1.427l.262.206Z" transform="translate(-80.242 -174.202)" fill="#fcbab3"/>
              <path id="Path_1210938" data-name="Path 1210938" d="M98.918,353.585v4.57a1.024,1.024,0,0,0,.742.984l8.306,2.373a8.189,8.189,0,0,1,5.889,6.97l.164,1.479a2.047,2.047,0,0,1-2.035,2.273H69.472a2.047,2.047,0,0,1-2.035-2.273l.164-1.479a8.189,8.189,0,0,1,5.889-6.97L81.8,359.14a1.024,1.024,0,0,0,.742-.984v-4.57Z" transform="translate(-67.425 -315.934)" fill="#fdd5c8"/>
              <path id="Path_1210939" data-name="Path 1210939" d="M156.193,73.438l2.182-5.9.287-2.587a14.235,14.235,0,0,0-10.4-15.305,20.807,20.807,0,0,0-10.949,0,14.235,14.235,0,0,0-10.4,15.305l1.052,9.469a16.379,16.379,0,0,0,3.176,8.018l1.24,1.653a18.89,18.89,0,0,0,5.394,4.864,8.19,8.19,0,0,0,4.213,1.167h1.605a8.189,8.189,0,0,0,4.213-1.167c.112-.067.222-.136.333-.205l.9-2.187h1.943a18.9,18.9,0,0,0,2.221-2.472l1.24-1.653a16.377,16.377,0,0,0,2.037-3.584Z" transform="translate(-119.481 -48.916)" fill="#fdd5c8"/>
              <g id="Group_1228409" data-name="Group 1228409" transform="translate(21.884 0.001)">
                <g id="Group_1228408" data-name="Group 1228408" transform="translate(6.769 37.65)">
                  <path id="Path_1210940" data-name="Path 1210940" d="M300.02,358.328l2.836.81a1.023,1.023,0,0,1-.737-.982v-4.57h-2.841v3.759A1.023,1.023,0,0,0,300.02,358.328Z" transform="translate(-299.278 -353.585)" fill="#fcbab3"/>
                  <path id="Path_1210941" data-name="Path 1210941" d="M381.477,420.453l-.164-1.479a8.189,8.189,0,0,0-5.889-6.97l-2.829-.808a8.189,8.189,0,0,1,5.878,6.966l.164,2.291a2.047,2.047,0,0,1-2.035,2.273h2.841a2.048,2.048,0,0,0,2.035-2.273Z" transform="translate(-363.534 -404.076)" fill="#fcbab3"/>
                </g>
                <path id="Path_1210942" data-name="Path 1210942" d="M260.1,56.474a14.235,14.235,0,0,0-8.7-6.82,20.8,20.8,0,0,0-6.9-.684,20.808,20.808,0,0,1,4.054.684,14.235,14.235,0,0,1,10.4,15.305l-1.052,9.469a16.378,16.378,0,0,1-3.176,8.018L253.5,84.1a18.891,18.891,0,0,1-5.394,4.864,8.189,8.189,0,0,1-3.6,1.143c.205.016.411.024.618.024h1.605a8.189,8.189,0,0,0,4.213-1.167,18.891,18.891,0,0,0,5.394-4.864l1.24-1.653a16.379,16.379,0,0,0,3.176-8.018l1.052-9.469A14.235,14.235,0,0,0,260.1,56.474Z" transform="translate(-244.506 -48.921)" fill="#fcbab3"/>
              </g>
            </g>
            <path id="Path_1210943" data-name="Path 1210943" d="M185.546,85.509a.265.265,0,0,1-.2-.243,2.042,2.042,0,0,0-3.077-1.62c.009-.094.014-.188.014-.284a3.061,3.061,0,0,0-.879-2.151l-5.263,3.175-5.263-3.175A3.061,3.061,0,0,0,170,83.361c0,.1,0,.191.014.284a2.042,2.042,0,0,0-3.058,1.45.59.59,0,0,1-.166.327.633.633,0,0,1-.231.144,2.559,2.559,0,0,0-1.674,2.512,2.593,2.593,0,0,0,2.609,2.448h6.6a2.047,2.047,0,0,0,2.047-2.047,2.047,2.047,0,0,0,2.047,2.047h6.6a2.6,2.6,0,0,0,2.616-2.511,2.558,2.558,0,0,0-1.857-2.508Z" transform="translate(-152.839 -72.101)" fill="#fea9d7"/>
            <path id="Path_1210944" data-name="Path 1210944" d="M377.917,14.008l-1.689-1.689a.512.512,0,0,1-.055-.659l2.665-3.731A1.024,1.024,0,0,1,380.4,7.8l2.041,2.041a1.024,1.024,0,0,1-.129,1.557l-3.731,2.665A.512.512,0,0,1,377.917,14.008Z" transform="translate(-337.935 -7.5)" fill="#ffe751"/>
            <path id="Path_1210945" data-name="Path 1210945" d="M86.869,14.008l1.689-1.689a.512.512,0,0,0,.055-.659L85.947,7.929A1.024,1.024,0,0,0,84.39,7.8L82.35,9.841a1.024,1.024,0,0,0,.129,1.557l3.731,2.665A.512.512,0,0,0,86.869,14.008Z" transform="translate(-80.242 -7.5)" fill="#ffe751"/>
            <path id="Path_1210946" data-name="Path 1210946" d="M218.115,92.8v5.837a2.047,2.047,0,0,1-2.047,2.047h2.887A2.047,2.047,0,0,0,221,98.641V94.546Z" transform="translate(-197.699 -82.262)" fill="#fe93cd"/>
            <path id="Path_1210947" data-name="Path 1210947" d="M306.228,100.764a.265.265,0,0,1-.2-.243,2.046,2.046,0,0,0-2.04-1.9v2.438a2.551,2.551,0,0,1,1.207,2.217,2.6,2.6,0,0,1-2.616,2.511h2.887a2.6,2.6,0,0,0,2.616-2.511A2.558,2.558,0,0,0,306.228,100.764Z" transform="translate(-273.521 -87.357)" fill="#fe93cd"/>
            <path id="Path_1210948" data-name="Path 1210948" d="M201.987,19.641a1.954,1.954,0,0,0,1.469,0c5.415-2.2,6.644-6.125,6.764-7.717a3.88,3.88,0,0,0-2.927-4.266,4.843,4.843,0,0,0-4.572,1.349,4.843,4.843,0,0,0-4.571-1.349,3.88,3.88,0,0,0-2.927,4.266C195.343,13.516,196.572,17.441,201.987,19.641Z" transform="translate(-179.418 -7.5)" fill="#f75574"/>
            <path id="Path_1210949" data-name="Path 1210949" d="M250.332,7.659a4.26,4.26,0,0,0-2.588.094,3.876,3.876,0,0,1,2.628,4.171c-.115,1.52-1.243,5.165-6.055,7.406.229.107.463.211.709.311a1.954,1.954,0,0,0,1.469,0c5.415-2.2,6.644-6.125,6.764-7.717A3.88,3.88,0,0,0,250.332,7.659Z" transform="translate(-222.457 -7.501)" fill="#f3395e"/>
          </g>
          <g id="Group_1228412" data-name="Group 1228412" transform="translate(59.936 0.002)">
            <path id="Path_1210950" data-name="Path 1210950" d="M108.378,59.972l-.164-1.479a9.084,9.084,0,0,0-6.556-7.759l-8.306-2.373a.1.1,0,0,1-.07-.093V44.1a19.834,19.834,0,0,0,2.035-2.314l1.24-1.653a17.3,17.3,0,0,0,1.787-2.959,5.678,5.678,0,0,0,7.6-4.6l.608-4.842a4.41,4.41,0,0,0-5.679-4.743l.088-.794a15.152,15.152,0,0,0-8.632-15.4,6.973,6.973,0,0,0,.257-1.368A4.8,4.8,0,0,0,88.985.2a5.506,5.506,0,0,0-4.819,1.016A5.507,5.507,0,0,0,79.347.2a4.8,4.8,0,0,0-3.6,5.228A6.98,6.98,0,0,0,76,6.789a15.167,15.167,0,0,0-2.692,1.62.927.927,0,1,0,1.116,1.48,13.3,13.3,0,0,1,2.271-1.38,10.027,10.027,0,0,0,.6,1c.13.189.268.373.41.554a3.975,3.975,0,0,0-.507,1.207q-.1-.007-.2-.007a2.979,2.979,0,0,0-2.9,2.327,3.486,3.486,0,0,0,1.368,6.692h6.653a2.963,2.963,0,0,0,2.047-.82,2.963,2.963,0,0,0,2.047.82h6.653a3.486,3.486,0,0,0,1.368-6.692,2.979,2.979,0,0,0-2.9-2.327q-.1,0-.2.007a3.978,3.978,0,0,0-.507-1.207c.142-.181.281-.365.41-.554a10.031,10.031,0,0,0,.6-1,13.3,13.3,0,0,1,7.486,13.472l-1.052,9.468a15.463,15.463,0,0,1-3,7.564l-1.24,1.653A17.875,17.875,0,0,1,88.7,45.3a7.263,7.263,0,0,1-3.736,1.035H83.363A7.263,7.263,0,0,1,79.627,45.3,17.878,17.878,0,0,1,74.5,40.67l-1.24-1.653a15.461,15.461,0,0,1-3-7.564l-1.052-9.468a13.309,13.309,0,0,1,2.391-9.2.927.927,0,1,0-1.509-1.076,15.162,15.162,0,0,0-2.724,10.476l.088.794a4.4,4.4,0,0,0-5.68,4.743l.608,4.842a5.685,5.685,0,0,0,7.6,4.6,17.293,17.293,0,0,0,1.787,2.959l1.24,1.653A19.855,19.855,0,0,0,75.05,44.1v4.172a.1.1,0,0,1-.07.093l-8.306,2.373a9.084,9.084,0,0,0-6.556,7.758l-.164,1.479a2.974,2.974,0,0,0,2.956,3.3h5.407a.927.927,0,1,0,0-1.854H62.91A1.12,1.12,0,0,1,61.8,60.177l.164-1.479a7.237,7.237,0,0,1,5.223-6.181l8.306-2.373A1.959,1.959,0,0,0,76.9,48.269v-2.58a19.915,19.915,0,0,0,1.769,1.2,9.117,9.117,0,0,0,4.69,1.3h1.605a9.118,9.118,0,0,0,4.69-1.3,19.916,19.916,0,0,0,1.769-1.2v2.58a1.958,1.958,0,0,0,1.415,1.875l8.306,2.373a7.237,7.237,0,0,1,5.223,6.181l.164,1.479a1.12,1.12,0,0,1-1.114,1.244H72.642a.927.927,0,1,0,0,1.854h32.779a2.974,2.974,0,0,0,2.956-3.3ZM79.842,1.981a3.88,3.88,0,0,1,3.641,1.082.927.927,0,0,0,1.365,0,3.89,3.89,0,0,1,3.641-1.082,2.976,2.976,0,0,1,2.251,3.3,7.437,7.437,0,0,1-2.029,4.168,11.386,11.386,0,0,1-4.16,2.76,1.034,1.034,0,0,1-.772,0,11.385,11.385,0,0,1-4.16-2.76,7.44,7.44,0,0,1-2.029-4.168,2.976,2.976,0,0,1,2.251-3.3Zm2.276,16.448H75.465a1.632,1.632,0,0,1-.326-3.232.927.927,0,0,0,.743-.932c0-.015,0-.031,0-.047a1.122,1.122,0,0,1,1.12-1.1,1.1,1.1,0,0,1,.213.023,4,4,0,0,0,1.216,2.03.927.927,0,0,0,1.236-1.381,2.137,2.137,0,0,1-.6-2.289,13.879,13.879,0,0,0,4.016,2.43h0c.052.021.1.037.156.055v3.324A1.122,1.122,0,0,1,82.119,18.429Zm10.333-4.21c0,.016,0,.031,0,.047a.927.927,0,0,0,.743.932,1.632,1.632,0,0,1-.326,3.232H86.213a1.122,1.122,0,0,1-1.121-1.12V13.984c.052-.018.1-.034.156-.055a13.881,13.881,0,0,0,4.016-2.43,2.137,2.137,0,0,1-.6,2.289A.927.927,0,1,0,89.9,15.17a4,4,0,0,0,1.216-2.03,1.1,1.1,0,0,1,.213-.023,1.122,1.122,0,0,1,1.12,1.1Zm10.39,10.51a2.537,2.537,0,0,1,1.874,2.766l-.608,4.842a3.8,3.8,0,0,1-2.083,2.93,3.853,3.853,0,0,1-2.977.187,17.3,17.3,0,0,0,.791-3.221l1.73-2.7a.237.237,0,0,1,.368-.04.927.927,0,0,0,1.311-1.311,2.092,2.092,0,0,0-2.947-.01l.334-3a2.542,2.542,0,0,1,2.208-.435ZM66.307,35.266a3.8,3.8,0,0,1-2.083-2.93l-.608-4.842A2.553,2.553,0,0,1,67.7,25.163l.334,3a2.092,2.092,0,0,0-2.947.01A.927.927,0,0,0,66.4,29.488a.237.237,0,0,1,.368.04l1.73,2.7a17.311,17.311,0,0,0,.791,3.221A3.854,3.854,0,0,1,66.307,35.266Z" transform="translate(-59.936 -0.002)"/>
            <path id="Path_1210951" data-name="Path 1210951" d="M163.224,184.81a3.168,3.168,0,0,1,2.385,1.719l.064.128a.927.927,0,0,0,1.658-.829l-.064-.128a5.022,5.022,0,0,0-3.781-2.725l-5.042-.72a.927.927,0,1,0-.262,1.835Z" transform="translate(-145.344 -159.724)"/>
            <path id="Path_1210952" data-name="Path 1210952" d="M274.275,187.169a.927.927,0,0,0,.83-.512l.064-.128a3.169,3.169,0,0,1,2.385-1.719l5.042-.72a.927.927,0,1,0-.262-1.835l-5.042.72a5.023,5.023,0,0,0-3.781,2.725l-.064.128a.927.927,0,0,0,.828,1.342Z" transform="translate(-246.975 -159.723)"/>
            <path id="Path_1210953" data-name="Path 1210953" d="M370.675,8.107h0a1.434,1.434,0,0,0,1.853.153L376.259,5.6a1.951,1.951,0,0,0,.246-2.967L374.464.589A1.95,1.95,0,0,0,371.5.834l-2.665,3.731a1.434,1.434,0,0,0,.153,1.853Zm2.331-6.2a.091.091,0,0,1,.071-.04.094.094,0,0,1,.077.028l2.041,2.041a.1.1,0,0,1-.012.147l-3.445,2.46-1.192-1.191Z" transform="translate(-330.423 -0.016)"/>
            <path id="Path_1210954" data-name="Path 1210954" d="M75.373,5.6,79.1,8.26a1.434,1.434,0,0,0,1.853-.153h0l1.689-1.689A1.434,1.434,0,0,0,82.8,4.565L80.134.834A1.95,1.95,0,0,0,77.168.589L75.127,2.629A1.95,1.95,0,0,0,75.373,5.6ZM76.438,3.94,78.479,1.9a.091.091,0,0,1,.067-.028h.009a.091.091,0,0,1,.071.04l2.46,3.445L79.895,6.548,76.45,4.087a.1.1,0,0,1-.012-.147Z" transform="translate(-72.749 -0.016)"/>
          </g>
        </g>
      </g>
    </g>
  </g>
</svg>
