<svg xmlns="http://www.w3.org/2000/svg" xmlns:xlink="http://www.w3.org/1999/xlink" width="113" height="113" viewBox="0 0 113 113">
  <defs>
    <filter id="Path_982547" x="0" y="0" width="113" height="113" filterUnits="userSpaceOnUse">
      <feOffset dy="3" input="SourceAlpha"/>
      <feGaussianBlur stdDeviation="3" result="blur"/>
      <feFlood flood-opacity="0.161"/>
      <feComposite operator="in" in2="blur"/>
      <feComposite in="SourceGraphic"/>
    </filter>
  </defs>
  <g id="Group_1228601" data-name="Group 1228601" transform="translate(-7001 -4687.5)">
    <g id="Group_1228528" data-name="Group 1228528">
      <g id="Group_1228180" data-name="Group 1228180" transform="translate(6625 2878)">
        <g id="Group_1223802" data-name="Group 1223802" transform="translate(385 1815.5)">
          <g id="Group_1208028" data-name="Group 1208028" transform="translate(0 0)">
            <g id="Group_1177675" data-name="Group 1177675" transform="translate(0 0)">
              <g id="Group_1176928" data-name="Group 1176928" transform="translate(0 0)">
                <g id="Group_1172322" data-name="Group 1172322" transform="translate(0 0)">
                  <g id="Group_1164700" data-name="Group 1164700">
                    <g id="Group_1160931" data-name="Group 1160931">
                      <g id="Group_1160749" data-name="Group 1160749">
                        <g id="Group_1158891" data-name="Group 1158891">
                          <g id="Group_1157406" data-name="Group 1157406">
                            <g id="Group_1155793" data-name="Group 1155793">
                              <g id="Group_1154704" data-name="Group 1154704">
                                <g id="Group_1150790" data-name="Group 1150790">
                                  <g id="Group_1154214" data-name="Group 1154214" transform="translate(0)">
                                    <g id="Group_1152583" data-name="Group 1152583">
                                      <g id="Group_1146973" data-name="Group 1146973">
                                        <g id="Group_1146954" data-name="Group 1146954">
                                          <g transform="matrix(1, 0, 0, 1, -9, -6)" filter="url(#Path_982547)">
                                            <g id="Path_982547-2" data-name="Path 982547" transform="translate(9 6)" fill="#ffe1b9">
                                              <path d="M 47.50000762939453 93.49986267089844 C 41.28937911987305 93.49986267089844 35.26534271240234 92.28383636474609 29.59519386291504 89.88558197021484 C 24.11772727966309 87.56880950927734 19.19814109802246 84.25183868408203 14.97310066223145 80.02679443359375 C 10.74804782867432 75.8017578125 7.431074142456055 70.88218688964844 5.114300727844238 65.40471649169922 C 2.716034412384033 59.73458480834961 1.500007629394531 53.71054458618164 1.500007629394531 47.49993133544922 C 1.500007629394531 41.2893180847168 2.716034412384033 35.26527786254883 5.114300727844238 29.59514427185059 C 7.431074142456055 24.11767768859863 10.74804782867432 19.19810485839844 14.97310066223145 14.97306442260742 C 19.19814109802246 10.74802494049072 24.11772727966309 7.431051254272461 29.59519386291504 5.114277839660645 C 35.26534271240234 2.71602463722229 41.28937911987305 1.499997973442078 47.50000762939453 1.499997973442078 C 53.71063613891602 1.499997973442078 59.73467254638672 2.71602463722229 65.40482330322266 5.114277839660645 C 70.88228607177734 7.431051254272461 75.80187225341797 10.74802494049072 80.02691650390625 14.97306442260742 C 84.25196838378906 19.19810485839844 87.56893920898438 24.11767768859863 89.88571166992188 29.59514427185059 C 92.28398132324219 35.26527786254883 93.50000762939453 41.2893180847168 93.50000762939453 47.49993133544922 C 93.50000762939453 53.71054458618164 92.28398132324219 59.73458480834961 89.88571166992188 65.40471649169922 C 87.56893920898438 70.88218688964844 84.25196838378906 75.8017578125 80.02691650390625 80.02679443359375 C 75.80187225341797 84.25183868408203 70.88228607177734 87.56880950927734 65.40482330322266 89.88558197021484 C 59.73467254638672 92.28383636474609 53.71063613891602 93.49986267089844 47.50000762939453 93.49986267089844 Z" stroke="none"/>
                                              <path d="M 47.50000762939453 2.999992370605469 C 41.4912223815918 2.999992370605469 35.66377639770508 4.1761474609375 30.17951202392578 6.495796203613281 C 24.88085174560547 8.736930847167969 20.12152862548828 11.94596099853516 16.03376007080078 16.03372955322266 C 11.94597625732422 20.12148284912109 8.736961364746094 24.88080596923828 6.495803833007812 30.17946624755859 C 4.176162719726562 35.66371536254883 3.000007629394531 41.49116134643555 3.000007629394531 47.49993133544922 C 3.000007629394531 53.50870132446289 4.176162719726562 59.33614730834961 6.495803833007812 64.82038879394531 C 8.736961364746094 70.11905670166016 11.94597625732422 74.87836456298828 16.03376007080078 78.96613311767578 C 20.12152862548828 83.05390167236328 24.88085174560547 86.26291656494141 30.17951202392578 88.50406646728516 C 35.66377639770508 90.82369995117188 41.4912223815918 91.99985504150391 47.50000762939453 91.99985504150391 C 53.50879287719727 91.99985504150391 59.33623886108398 90.82369995117188 64.82049560546875 88.50406646728516 C 70.11916351318359 86.26291656494141 74.87848663330078 83.05390167236328 78.96625518798828 78.96613311767578 C 83.05403900146484 74.87836456298828 86.26305389404297 70.11905670166016 88.50421142578125 64.82038879394531 C 90.8238525390625 59.33614730834961 92.00000762939453 53.50870132446289 92.00000762939453 47.49993133544922 C 92.00000762939453 41.49116134643555 90.8238525390625 35.66371536254883 88.50421142578125 30.17946624755859 C 86.26305389404297 24.88080596923828 83.05403900146484 20.12148284912109 78.96625518798828 16.03372955322266 C 74.87848663330078 11.94596099853516 70.11916351318359 8.736930847167969 64.82049560546875 6.495796203613281 C 59.33623886108398 4.1761474609375 53.50879287719727 2.999992370605469 47.50000762939453 2.999992370605469 M 47.50000762939453 -7.62939453125e-06 C 73.73352813720703 -7.62939453125e-06 95.00000762939453 21.26644134521484 95.00000762939453 47.49993133544922 C 95.00000762939453 73.73342132568359 73.73352813720703 94.99985504150391 47.50000762939453 94.99985504150391 C 21.26648712158203 94.99985504150391 7.62939453125e-06 73.73342132568359 7.62939453125e-06 47.49993133544922 C 7.62939453125e-06 21.26644134521484 21.26648712158203 -7.62939453125e-06 47.50000762939453 -7.62939453125e-06 Z" stroke="none" fill="#ff9d1c"/>
                                            </g>
                                          </g>
                                        </g>
                                      </g>
                                    </g>
                                  </g>
                                </g>
                              </g>
                            </g>
                          </g>
                        </g>
                      </g>
                    </g>
                  </g>
                </g>
              </g>
            </g>
          </g>
        </g>
      </g>
      <g id="trabajo-en-equipo_3_" data-name="trabajo-en-equipo (3)" transform="translate(7008.877 4706.749)">
        <g id="Group_1228527" data-name="Group 1228527" transform="translate(17.595 1.003)">
          <g id="Group_1228526" data-name="Group 1228526" transform="translate(19.655 48.251)">
            <g id="Group_1228525" data-name="Group 1228525">
              <path id="Path_1211167" data-name="Path 1211167" d="M196.776,368.14v1.314a7.234,7.234,0,0,1-3.687,6.3V379.3h-15.5v-3.515a13.078,13.078,0,0,1-6.589-6.52Z" transform="translate(-171 -368.14)" fill="#ffd4bd"/>
            </g>
          </g>
          <path id="Path_1211168" data-name="Path 1211168" d="M159.045,340.686l1.6,4.069s12.324-.009,12.506-.028l0-.006a5.792,5.792,0,0,0,1.8,1.329,6.02,6.02,0,0,0,4.633.268l6.844-2.688v-3.786Z" transform="translate(-140.989 -295.378)" fill="#ffbf9d"/>
          <path id="Path_1211169" data-name="Path 1211169" d="M98.658,201.984H84.868a7.228,7.228,0,0,1-6.3-3.687H74.71V182.8h3.828a13.84,13.84,0,0,1,3.513-4.688L98.658,200.1Z" transform="translate(-67.937 -155.284)" fill="#db9e82"/>
          <path id="Path_1211170" data-name="Path 1211170" d="M149.605,84.2a2.713,2.713,0,0,1-.025-.379V69.144a7.231,7.231,0,0,1,3.687-6.3V59.12h15.5v3.693c3.811,1.7,6.175,5.132,6.589,6.52Z" transform="translate(-132.79 -52.214)" fill="#fed2a4"/>
          <path id="Path_1211171" data-name="Path 1211171" d="M176.276,146.987a3.383,3.383,0,0,1-4-1.434v6.739l-16.9.463v-2.791a2.816,2.816,0,0,1-5.606.353,5.527,5.527,0,0,1,2.937-3.128,5.509,5.509,0,0,1,5.206-6.1,5.5,5.5,0,0,1,5.491-5.637H175.52l2.843,7.229A3.382,3.382,0,0,1,176.276,146.987Z" transform="translate(-132.955 -118.331)" fill="#ffbd86"/>
          <path id="Path_1211172" data-name="Path 1211172" d="M98.658,201.984H84.868a7.228,7.228,0,0,1-6.3-3.687H74.71V182.8h3.828a13.84,13.84,0,0,1,3.513-4.688L98.658,200.1Z" transform="translate(-67.937 -155.284)" fill="#db9e82"/>
          <path id="Path_1211173" data-name="Path 1211173" d="M132.518,164.11a9.2,9.2,0,0,0-2.938,1.873v8.781a7.575,7.575,0,0,0,5.637,7.3,5.508,5.508,0,0,0,5.459,6.1h5.336a5.731,5.731,0,0,0,.175,1.7h.887a2.816,2.816,0,0,0,2.816-2.816c0-.773,1.4-1.983,1.4-1.983Z" transform="translate(-115.466 -143.157)" fill="#c8866a"/>
          <path id="Path_1211174" data-name="Path 1211174" d="M149.605,84.2a2.713,2.713,0,0,1-.025-.379V69.144a7.231,7.231,0,0,1,3.687-6.3V59.12h15.5v3.693c3.811,1.7,6.175,5.132,6.589,6.52Z" transform="translate(-132.79 -52.214)" fill="#fed2a4"/>
          <path id="Path_1211175" data-name="Path 1211175" d="M152.561,152.755a2.818,2.818,0,0,1-2.791-2.438,5.527,5.527,0,0,1,2.937-3.128,5.509,5.509,0,0,1,5.206-6.1,5.5,5.5,0,0,1,5.491-5.637H175.52l1.379,3.505Z" transform="translate(-132.955 -118.331)" fill="#ffbd86"/>
          <path id="Path_1211176" data-name="Path 1211176" d="M199.527,159.136a7.23,7.23,0,0,0-6.3-3.687H178.547a2.816,2.816,0,0,0-.025,5.632h-5.214a2.816,2.816,0,1,0,0,5.633l.042.007h-3.281a2.816,2.816,0,1,0,0,5.633h3.192a2.815,2.815,0,0,0,.047,5.631h9.624a3.384,3.384,0,0,0,2.875,6.084l7.3-2.869c1.312-.381,4.793-2.807,6.451-6.562h3.527v-15.5Z" transform="translate(-148.098 -135.655)" fill="#ffddcf"/>
          <path id="Path_1211177" data-name="Path 1211177" d="M254.71,448.144v2.978a2.444,2.444,0,0,1-2.444,2.444H242a4.845,4.845,0,0,1-.463-7.867h10.726A2.444,2.444,0,0,1,254.71,448.144Z" transform="translate(-210.883 -387.072)" fill="#fd7a6e"/>
          <path id="Path_1211178" data-name="Path 1211178" d="M48.784,201.662v14.777a2.441,2.441,0,0,1-1.338,2.179c-4.975-3.984-5.491-14.815-.02-19.148A2.444,2.444,0,0,1,48.784,201.662Z" transform="translate(-40.917 -173.786)" fill="#f9ee80"/>
          <path id="Path_1211179" data-name="Path 1211179" d="M214.994,9.944v2.978a2.445,2.445,0,0,1-2.446,2.444h-9.857c-3.007-2.193-2.749-6.319.082-7.867h9.775a2.445,2.445,0,0,1,2.446,2.444Z" transform="translate(-176.934 -7.5)" fill="#9cda82"/>
          <path id="Path_1211180" data-name="Path 1211180" d="M450.654,170.411v14.777a2.446,2.446,0,0,1-1.794,2.357c-5.276-4.048-5.279-15.547-.02-19.5A2.443,2.443,0,0,1,450.654,170.411Z" transform="translate(-388.598 -146.57)" fill="#5ad6ff"/>
          <path id="Path_1211181" data-name="Path 1211181" d="M30.619,216.973a2.424,2.424,0,0,1-1.106.265H26.534a2.444,2.444,0,0,1-2.444-2.444V200.016a2.445,2.445,0,0,1,2.444-2.446h2.978a2.449,2.449,0,0,1,1.086.254C26.655,203.32,26.864,211.539,30.619,216.973Z" transform="translate(-24.09 -172.14)" fill="#f9d171"/>
          <path id="Path_1211182" data-name="Path 1211182" d="M211.639,453.567h-4.514a2.444,2.444,0,0,1-2.444-2.444v-2.978a2.444,2.444,0,0,1,2.444-2.444h4.051A6.769,6.769,0,0,0,211.639,453.567Z" transform="translate(-180.518 -387.072)" fill="#f85647"/>
          <path id="Path_1211183" data-name="Path 1211183" d="M168.925,15.367h-4.92a2.445,2.445,0,0,1-2.446-2.444V9.944A2.445,2.445,0,0,1,164.006,7.5h5A6.732,6.732,0,0,0,168.925,15.367Z" transform="translate(-143.168 -7.5)" fill="#55d47b"/>
          <path id="Path_1211184" data-name="Path 1211184" d="M435.183,187.009a2.429,2.429,0,0,1-.65.088h-2.978a2.445,2.445,0,0,1-2.444-2.446V169.874a2.444,2.444,0,0,1,2.444-2.444h2.978a2.387,2.387,0,0,1,.63.083C431.047,173.068,431.268,181.522,435.183,187.009Z" transform="translate(-374.921 -146.033)" fill="#00c5fd"/>
        </g>
        <path id="Path_1211185" data-name="Path 1211185" d="M79.651,27.908a1,1,0,0,0,1-1V24.846A3.452,3.452,0,0,0,77.206,21.4H74.228a3.453,3.453,0,0,0-3.166,2.084H69.585a8.254,8.254,0,0,0-6.865-3.687H61.9l-.824-2.1a14.176,14.176,0,0,0-6.5-6.729V9.592a3.453,3.453,0,0,0,2.084-3.166V3.448A3.452,3.452,0,0,0,53.21,0H38.433a3.452,3.452,0,0,0-3.448,3.448V6.426a3.453,3.453,0,0,0,2.084,3.166v1.477a8.255,8.255,0,0,0-3.687,6.865v3.481a14.873,14.873,0,0,0-5.821,6.1H26.184a3.453,3.453,0,0,0-3.166-2.084H20.04a3.452,3.452,0,0,0-3.448,3.448V43.656A3.452,3.452,0,0,0,20.04,47.1h2.978a3.453,3.453,0,0,0,3.166-2.084h1.477a8.254,8.254,0,0,0,6.865,3.687h.99c1.215,3.3,2.387,6.046,7.322,8.826V58.91a3.453,3.453,0,0,0-2.084,3.166v2.978A3.452,3.452,0,0,0,44.2,68.5H46.83a1,1,0,1,0,0-2.007H44.2a1.443,1.443,0,0,1-1.441-1.441V62.076A1.443,1.443,0,0,1,44.2,60.635H58.979a1.443,1.443,0,0,1,1.441,1.441v2.978A1.443,1.443,0,0,1,58.979,66.5H51.513a1,1,0,1,0,0,2.007h7.465a3.452,3.452,0,0,0,3.448-3.448V62.076a3.453,3.453,0,0,0-2.084-3.166V57.433a8.255,8.255,0,0,0,3.687-6.865v-3.58a15.153,15.153,0,0,0,5.656-6h1.376a3.453,3.453,0,0,0,3.166,2.084h2.978a3.452,3.452,0,0,0,3.448-3.448V31.587a1,1,0,1,0-2.007,0v8.036a1.443,1.443,0,0,1-1.441,1.441H74.228a1.443,1.443,0,0,1-1.441-1.441V24.846A1.443,1.443,0,0,1,74.228,23.4h2.978a1.443,1.443,0,0,1,1.441,1.441V26.9a1,1,0,0,0,1,1ZM36.991,3.448a1.443,1.443,0,0,1,1.441-1.441H53.21a1.443,1.443,0,0,1,1.441,1.441V6.426A1.443,1.443,0,0,1,53.21,7.867H38.433a1.443,1.443,0,0,1-1.441-1.441V3.448Zm-1.6,14.486a6.245,6.245,0,0,1,3.177-5.43,1,1,0,0,0,.511-.874V9.874H52.567V11.6a1,1,0,0,0,.6.918,12,12,0,0,1,6.057,5.959l.517,1.315h-11.7a3.819,3.819,0,0,0-3.362,5.632H42.8a3.8,3.8,0,0,0-1.785.444V24.279a1,1,0,0,0-2.007,0c0,.242.014,4.866-.028,4.967a3.8,3.8,0,0,0,.464,1.823,3.826,3.826,0,0,0-3.559,2.784,1.806,1.806,0,0,1-.5-1.243V17.934ZM24.459,43.656A1.443,1.443,0,0,1,23.018,45.1H20.04A1.443,1.443,0,0,1,18.6,43.656V28.879a1.443,1.443,0,0,1,1.441-1.441h2.978a1.443,1.443,0,0,1,1.441,1.441V43.656Zm4.637-.132a1,1,0,0,0-.874-.511H26.466V29.521H28.2a1,1,0,0,0,.918-.6,13.07,13.07,0,0,1,4.268-5.139V32.61a3.841,3.841,0,0,0,2.609,3.619A3.826,3.826,0,0,0,39.443,38.7,3.819,3.819,0,0,0,42.8,44.336h7.432a4.427,4.427,0,0,0-.415,2.254,1.788,1.788,0,0,1-.62.111H34.526a6.244,6.244,0,0,1-5.43-3.176ZM58.847,56a1,1,0,0,0-.511.874v1.756H44.844V56.9a1,1,0,0,0-.6-.918c-4.518-2.306-5.648-4.754-6.574-7.274H49.2a3.8,3.8,0,0,0,1.241-.206,4.387,4.387,0,0,0,5.228,1.849l6.352-2.5v2.716A6.245,6.245,0,0,1,58.847,56Zm10.2-17.017a1,1,0,0,0-.918.6,12,12,0,0,1-5.959,6.057l-7.218,2.839a2.379,2.379,0,0,1-2.216-4.138h4.623a1,1,0,0,0,0-2.007H42.8a1.812,1.812,0,0,1-.049-3.624H53.078a1,1,0,0,0,0-2.007H39.566a1.813,1.813,0,1,1,0-3.626H53.078a1,1,0,1,0,0-2.007c-.157-.006-10.124.012-10.273-.007a1.813,1.813,0,0,1,0-3.626H54.245a1,1,0,1,0,0-2.007H48.018a1.812,1.812,0,0,1,.026-3.625H62.72a6.245,6.245,0,0,1,5.43,3.177,1,1,0,0,0,.874.511H70.78V38.98H69.051Z"/>
      </g>
    </g>
  </g>
</svg>
