<svg xmlns="http://www.w3.org/2000/svg" xmlns:xlink="http://www.w3.org/1999/xlink" width="108" height="108" viewBox="0 0 108 108">
  <defs>
    <filter id="Path_904820" x="0" y="0" width="108" height="108" filterUnits="userSpaceOnUse">
      <feOffset dy="3" input="SourceAlpha"/>
      <feGaussianBlur stdDeviation="3" result="blur"/>
      <feFlood flood-opacity="0.161"/>
      <feComposite operator="in" in2="blur"/>
      <feComposite in="SourceGraphic"/>
    </filter>
  </defs>
  <g id="Group_1228561" data-name="Group 1228561" transform="translate(-617 -3823.921)">
    <g id="Group_1228307" data-name="Group 1228307">
      <g id="Group_1228100" data-name="Group 1228100" transform="translate(626 3829.921)">
        <g id="Group_1221597" data-name="Group 1221597" transform="translate(0 0)">
          <g id="Group_1219744" data-name="Group 1219744">
            <g id="Group_1202418" data-name="Group 1202418">
              <g id="Group_1177315" data-name="Group 1177315">
                <g id="Group_1173585" data-name="Group 1173585">
                  <g id="Group_1173428" data-name="Group 1173428">
                    <g id="Group_1171958" data-name="Group 1171958">
                      <g id="Group_1167341" data-name="Group 1167341">
                        <g id="Group_1166792" data-name="Group 1166792">
                          <g transform="matrix(1, 0, 0, 1, -9, -6)" filter="url(#Path_904820)">
                            <g id="Path_904820-2" data-name="Path 904820" transform="translate(9 6)" fill="#e9f9fd">
                              <path d="M 44.99999618530273 88.49995422363281 C 39.12687301635742 88.49995422363281 33.43022155761719 87.35002899169922 28.06829643249512 85.08213043212891 C 22.88852119445801 82.89126586914062 18.23629570007324 79.75455474853516 14.24084663391113 75.75910186767578 C 10.24540901184082 71.76364898681641 7.108683586120605 67.11144256591797 4.917821407318115 61.93166351318359 C 2.649921178817749 56.56974029541016 1.499996185302734 50.87310028076172 1.499996185302734 44.99997711181641 C 1.499996185302734 39.12685394287109 2.649921178817749 33.43021392822266 4.917821407318115 28.06828880310059 C 7.108683586120605 22.88851547241211 10.24540901184082 18.23630142211914 14.24084663391113 14.24085235595703 C 18.23629570007324 10.24540233612061 22.88852119445801 7.108689785003662 28.06829643249512 4.917827129364014 C 33.43022155761719 2.649927139282227 39.12687301635742 1.500002145767212 44.99999618530273 1.500002145767212 C 50.87311935424805 1.500002145767212 56.56977081298828 2.649927139282227 61.93169784545898 4.917827129364014 C 67.11147308349609 7.108689785003662 71.76369476318359 10.24540233612061 75.75914764404297 14.24085235595703 C 79.75458526611328 18.23630142211914 82.89131164550781 22.88851547241211 85.08216857910156 28.06828880310059 C 87.35007476806641 33.43021392822266 88.5 39.12685394287109 88.5 44.99997711181641 C 88.5 50.87310028076172 87.35007476806641 56.56974029541016 85.08216857910156 61.93166351318359 C 82.89131164550781 67.11144256591797 79.75458526611328 71.76364898681641 75.75914764404297 75.75910186767578 C 71.76369476318359 79.75455474853516 67.11147308349609 82.89126586914062 61.93169784545898 85.08213043212891 C 56.56977081298828 87.35002899169922 50.87311935424805 88.49995422363281 44.99999618530273 88.49995422363281 Z" stroke="none"/>
                              <path d="M 44.99999618530273 2.999992370605469 C 39.32870864868164 2.999992370605469 33.82865142822266 4.11004638671875 28.65262603759766 6.299331665039062 C 23.65165710449219 8.414566040039062 19.15968322753906 11.44333648681641 15.301513671875 15.30150604248047 C 11.44333648681641 19.15967559814453 8.414566040039062 23.65163421630859 6.299339294433594 28.65260696411133 C 4.110054016113281 33.82864761352539 2.999992370605469 39.32868957519531 2.999992370605469 44.99997711181641 C 2.999992370605469 50.6712646484375 4.110054016113281 56.17130661010742 6.299339294433594 61.34733581542969 C 8.414566040039062 66.34830474853516 11.44333648681641 70.84026336669922 15.301513671875 74.69844818115234 C 19.15968322753906 78.55661773681641 23.65165710449219 81.58537292480469 28.65262603759766 83.70062255859375 C 33.82865142822266 85.889892578125 39.32870864868164 86.99994659423828 44.99999618530273 86.99994659423828 C 50.67128372192383 86.99994659423828 56.17134094238281 85.889892578125 61.34736633300781 83.70062255859375 C 66.34834289550781 81.58537292480469 70.84030914306641 78.55661773681641 74.69847869873047 74.69844818115234 C 78.55665588378906 70.84026336669922 81.58542633056641 66.34830474853516 83.70065307617188 61.34733581542969 C 85.88993835449219 56.17130661010742 87 50.6712646484375 87 44.99997711181641 C 87 39.32868957519531 85.88993835449219 33.82864761352539 83.70065307617188 28.65260696411133 C 81.58542633056641 23.65163421630859 78.55665588378906 19.15967559814453 74.69847869873047 15.30150604248047 C 70.84030914306641 11.44333648681641 66.34834289550781 8.414566040039062 61.34736633300781 6.299331665039062 C 56.17134094238281 4.11004638671875 50.67128372192383 2.999992370605469 44.99999618530273 2.999992370605469 M 44.99999618530273 -7.62939453125e-06 C 69.85281372070312 -7.62939453125e-06 90 20.14717864990234 90 44.99997711181641 C 90 69.85277557373047 69.85281372070312 89.99994659423828 44.99999618530273 89.99994659423828 C 20.14717864990234 89.99994659423828 -7.62939453125e-06 69.85277557373047 -7.62939453125e-06 44.99997711181641 C -7.62939453125e-06 20.14717864990234 20.14717864990234 -7.62939453125e-06 44.99999618530273 -7.62939453125e-06 Z" stroke="none" fill="#1d7083"/>
                            </g>
                          </g>
                        </g>
                      </g>
                    </g>
                  </g>
                </g>
              </g>
            </g>
          </g>
        </g>
      </g>
      <g id="filled_outline" data-name="filled outline" transform="translate(626.99 3821.527)">
        <rect id="Rectangle_422174" data-name="Rectangle 422174" width="14.161" height="10.621" transform="translate(58.484 66.484) rotate(-90)" fill="#ffbfa1"/>
        <rect id="Rectangle_422175" data-name="Rectangle 422175" width="15.046" height="8.851" transform="translate(23.966 31.081)" fill="#ffbfa1"/>
        <path id="Path_1210680" data-name="Path 1210680" d="M81.935,211.986v9.964l-7.971,7.971L64,224.939v-14.8A2.134,2.134,0,0,1,66.134,208h0a2.134,2.134,0,0,1,2.113,1.833l.735,5.142,3.986-2.989Z" transform="translate(-42.022 -161.083)" fill="#ffceb6"/>
        <path id="Path_1210681" data-name="Path 1210681" d="M28.982,344l9.964,4.982-5.978,12.953H24v-10.96Z" transform="translate(-7.004 -280.144)" fill="#548aff"/>
        <path id="Path_1210682" data-name="Path 1210682" d="M160.939,55.013H144a16.946,16.946,0,0,1,11.581-16.075Z" transform="translate(-112.058 -13.078)" fill="#ef5e3b"/>
        <path id="Path_1210683" data-name="Path 1210683" d="M80,42.96h4.378a6.714,6.714,0,0,0,5.586-2.99h3.985a1.993,1.993,0,0,0,1.993-1.993h0a1.993,1.993,0,0,0-1.992-1.993h5.978a1.993,1.993,0,0,0,1.993-1.993h0A1.993,1.993,0,0,0,99.928,32H89.851a10.96,10.96,0,0,0-9.12,4.881L80,37.978Z" transform="translate(-56.029 -7.004)" fill="#ffceb6"/>
        <rect id="Rectangle_422176" data-name="Rectangle 422176" width="7.081" height="8.851" transform="translate(16.885 31.081)" fill="#548aff"/>
        <path id="Path_1210684" data-name="Path 1210684" d="M267.726,64.938A16.942,16.942,0,0,1,240.94,78.723l9.847-13.785-5.358-16.074a16.953,16.953,0,0,1,22.3,16.074Z" transform="translate(-196.924 -21.01)" fill="#ffc431"/>
        <path id="Path_1210685" data-name="Path 1210685" d="M400,213.921v-4.378a6.713,6.713,0,0,1,2.99-5.586h0v-3.985a1.993,1.993,0,0,1,1.993-1.993h0a1.993,1.993,0,0,1,1.993,1.992v-5.978A1.993,1.993,0,0,1,408.968,192h0a1.993,1.993,0,0,1,1.993,1.993v10.077a10.96,10.96,0,0,1-4.881,9.12l-1.1.732Z" transform="translate(-336.173 -147.076)" fill="#ffceb6"/>
        <rect id="Rectangle_422177" data-name="Rectangle 422177" width="11.506" height="15.046" transform="translate(58.484 66.484)" fill="#548aff"/>
        <path id="Path_1210686" data-name="Path 1210686" d="M144.939,200l-9.847,13.785A16.923,16.923,0,0,1,128,200Z" transform="translate(-98.05 -154.079)" fill="#02c26a"/>
        <path id="Path_1210687" data-name="Path 1210687" d="M17,40.939h13.98c-.018.331-.03.663-.03,1a1,1,0,0,0,1,1H48.881a1,1,0,0,0,.945-1.311L45.735,29.346A2.987,2.987,0,0,0,43.9,24H33.823a11.933,11.933,0,0,0-9.949,5.324l-.436.654H17a1,1,0,0,0-1,1v8.968a1,1,0,0,0,1,1Zm15.973,0a15.888,15.888,0,0,1,2.1-6.975h2.849a2.988,2.988,0,0,0,2.818-3.986h3.107L47.5,40.939ZM25.532,30.43a9.944,9.944,0,0,1,8.29-4.437H43.9a1,1,0,0,1,0,1.993H32.939v1.993h4.982a1,1,0,0,1,0,1.993H33.935a1,1,0,0,0-.829.444,5.706,5.706,0,0,1-4.757,2.546H26.96v1.993h1.389a7.7,7.7,0,0,0,3.583-.884,17.886,17.886,0,0,0-.734,2.877H24.968V31.276Zm-7.539,1.541h4.982v6.975H17.993Z" transform="translate(0 0)"/>
        <path id="Path_1210688" data-name="Path 1210688" d="M262.714,57.935a2.975,2.975,0,0,0-1,.172c0-.057,0-.115,0-.172a17.949,17.949,0,0,0-23.608-17.02,1,1,0,0,0-.631,1.26l5.2,15.593-9.552,13.372a1,1,0,0,0,.231,1.39,17.815,17.815,0,0,0,10.427,3.34,18.017,18.017,0,0,0,3.99-.447l0,20.375a1,1,0,0,0,1,1h9.964a1,1,0,0,0,1-1V81.385l.654-.436A11.933,11.933,0,0,0,265.7,71V60.924A2.993,2.993,0,0,0,262.714,57.935ZM235.343,71.464l9.25-12.95a1,1,0,0,0,.134-.894l-5.033-15.1a15.951,15.951,0,0,1,18.868,21.4,2.989,2.989,0,0,0-2.824,2.985v1.575a15.949,15.949,0,0,1-20.4,2.986ZM257.732,94.8h-7.971V81.849h7.971ZM263.711,71a9.944,9.944,0,0,1-4.437,8.291l-.847.564h-8.666V74.848a17.836,17.836,0,0,0,3.845-1.9,7.7,7.7,0,0,0-.856,3.53v1.389h1.993V76.474a5.706,5.706,0,0,1,2.546-4.757,1,1,0,0,0,.444-.829V66.9a1,1,0,1,1,1.993,0v4.982h1.993V67.9h0V60.924a1,1,0,0,1,1.993,0Z" transform="translate(-189.919 -14.007)"/>
        <path id="Path_1210689" data-name="Path 1210689" d="M17,229.863h8.968a1,1,0,0,0,.9-.579l5.9-12.792,7.846-7.846a1,1,0,0,0,.292-.7V203.08l6.789-9.5A1,1,0,0,0,46.888,192H29.95a1,1,0,0,0-1,1,17.854,17.854,0,0,0,.643,4.745l-1.887,1.419-.5-3.476a3.131,3.131,0,0,0-6.23.443v14.485l-4.8,6.715a1,1,0,0,0-.186.579v10.96a1,1,0,0,0,1,1Zm27.956-35.87-8.123,11.372a16.006,16.006,0,0,1-5.851-11.372Zm-20.839,1a1.144,1.144,0,0,1,1.127.977l.735,5.142a1,1,0,0,0,.389.656,9.011,9.011,0,0,1,3.587,7.174h1.993a11.021,11.021,0,0,0-3.388-7.921l1.717-1.287a17.994,17.994,0,0,0,6.19,7.862,1,1,0,0,0,1.391-.231l1.065-1.491v1.66L31.746,214.7l-8.771-4.385V196.127A1.139,1.139,0,0,1,24.113,194.989Zm-6.12,23.236,4.3-6.022,8.339,4.169-5.307,11.5H17.993Z" transform="translate(0 -147.076)"/>
      </g>
    </g>
  </g>
</svg>
