<svg xmlns="http://www.w3.org/2000/svg" xmlns:xlink="http://www.w3.org/1999/xlink" width="106.16" height="106.161" viewBox="0 0 106.16 106.161">
  <defs>
    <filter id="Path_982547" x="0" y="0" width="106.16" height="106.161" filterUnits="userSpaceOnUse">
      <feOffset dy="3" input="SourceAlpha"/>
      <feGaussianBlur stdDeviation="3" result="blur"/>
      <feFlood flood-opacity="0.161"/>
      <feComposite operator="in" in2="blur"/>
      <feComposite in="SourceGraphic"/>
    </filter>
  </defs>
  <g id="Group_1228586" data-name="Group 1228586" transform="translate(-1026.42 -4009.697)">
    <g id="Group_1228441" data-name="Group 1228441">
      <g id="Group_1228145" data-name="Group 1228145" transform="translate(-5 2286.628)">
        <g id="Group_1224861" data-name="Group 1224861">
          <g id="Group_1206133" data-name="Group 1206133" transform="translate(0 -58.931)">
            <g id="Group_1203662" data-name="Group 1203662" transform="translate(0 -4797.878)">
              <g id="Group_1203346" data-name="Group 1203346" transform="translate(759.42 5174.875)">
                <g id="Group_1177900" data-name="Group 1177900" transform="translate(281 1411.003)">
                  <g id="Group_1172010" data-name="Group 1172010" transform="translate(0)">
                    <g id="Group_1171046" data-name="Group 1171046">
                      <g id="Group_1148525" data-name="Group 1148525">
                        <g transform="matrix(1, 0, 0, 1, -9, -6)" filter="url(#Path_982547)">
                          <g id="Path_982547-2" data-name="Path 982547" transform="translate(9 6)" fill="#e9f9fd">
                            <path d="M 44.0802001953125 86.660400390625 C 38.33124923706055 86.660400390625 32.75506210327148 85.53479766845703 27.50652503967285 83.31484985351562 C 22.43628692626953 81.17032623291016 17.88242530822754 78.09992218017578 13.97144985198975 74.18894958496094 C 10.06047534942627 70.27797698974609 6.99007511138916 65.72411346435547 4.845550060272217 60.65387344360352 C 2.625600099563599 55.40533828735352 1.500000238418579 49.82915115356445 1.500000238418579 44.0802001953125 C 1.500000238418579 38.33124923706055 2.625600099563599 32.75506210327148 4.845550060272217 27.50652503967285 C 6.99007511138916 22.43628692626953 10.06047534942627 17.88242530822754 13.97144985198975 13.97144985198975 C 17.88242530822754 10.06047534942627 22.43628692626953 6.99007511138916 27.50652503967285 4.845550060272217 C 32.75506210327148 2.625600099563599 38.33124923706055 1.500000238418579 44.0802001953125 1.500000238418579 C 49.82915115356445 1.500000238418579 55.40533828735352 2.625600099563599 60.65387344360352 4.845550060272217 C 65.72411346435547 6.99007511138916 70.27797698974609 10.06047534942627 74.18894958496094 13.97144985198975 C 78.09992218017578 17.88242530822754 81.17032623291016 22.43628692626953 83.31484985351562 27.50652503967285 C 85.53479766845703 32.75506210327148 86.660400390625 38.33124923706055 86.660400390625 44.0802001953125 C 86.660400390625 49.82915115356445 85.53479766845703 55.40533828735352 83.31484985351562 60.65387344360352 C 81.17032623291016 65.72411346435547 78.09992218017578 70.27797698974609 74.18894958496094 74.18894958496094 C 70.27797698974609 78.09992218017578 65.72411346435547 81.17032623291016 60.65387344360352 83.31484985351562 C 55.40533828735352 85.53479766845703 49.82915115356445 86.660400390625 44.0802001953125 86.660400390625 Z" stroke="none"/>
                            <path d="M 44.0802001953125 3 C 38.53308486938477 3 33.15349960327148 4.085746765136719 28.09085845947266 6.227058410644531 C 23.19941711425781 8.29595947265625 18.80581665039062 11.25841522216797 15.03211212158203 15.03211212158203 C 11.25841522216797 18.80581665039062 8.29595947265625 23.19941711425781 6.227058410644531 28.09085845947266 C 4.085746765136719 33.15349960327148 3 38.53308486938477 3 44.0802001953125 C 3 49.62731552124023 4.085746765136719 55.00691604614258 6.227058410644531 60.06954193115234 C 8.29595947265625 64.96098327636719 11.25841522216797 69.35458374023438 15.03211212158203 73.12828826904297 C 18.80581665039062 76.90198516845703 23.19941711425781 79.86444091796875 28.09085845947266 81.93334197998047 C 33.15349960327148 84.07466125488281 38.53308486938477 85.160400390625 44.0802001953125 85.160400390625 C 49.62731552124023 85.160400390625 55.00691604614258 84.07466125488281 60.06954193115234 81.93334197998047 C 64.96099853515625 79.86444091796875 69.35458374023438 76.90198516845703 73.12828826904297 73.12828826904297 C 76.90198516845703 69.35458374023438 79.86444091796875 64.96099853515625 81.93334197998047 60.06954193115234 C 84.07466125488281 55.00691604614258 85.160400390625 49.62731552124023 85.160400390625 44.0802001953125 C 85.160400390625 38.53308486938477 84.07466125488281 33.15349960327148 81.93334197998047 28.09085845947266 C 79.86444091796875 23.19941711425781 76.90198516845703 18.80581665039062 73.12828826904297 15.03211212158203 C 69.35458374023438 11.25841522216797 64.96098327636719 8.29595947265625 60.06954193115234 6.227058410644531 C 55.00691604614258 4.085746765136719 49.62731552124023 3 44.0802001953125 3 M 44.0802001953125 0 C 68.42502593994141 0 88.160400390625 19.73538970947266 88.160400390625 44.0802001953125 C 88.160400390625 68.42502593994141 68.42502593994141 88.160400390625 44.0802001953125 88.160400390625 C 19.73538970947266 88.160400390625 0 68.42502593994141 0 44.0802001953125 C 0 19.73538970947266 19.73538970947266 0 44.0802001953125 0 Z" stroke="none" fill="#1d7083"/>
                          </g>
                        </g>
                      </g>
                    </g>
                  </g>
                </g>
              </g>
            </g>
          </g>
        </g>
      </g>
      <g id="empatia" transform="translate(1016.61 4030.197)">
        <g id="Group_1228439" data-name="Group 1228439" transform="translate(39.674 0.839)">
          <g id="Group_1228438" data-name="Group 1228438">
            <g id="Group_1228437" data-name="Group 1228437">
              <g id="Group_1228426" data-name="Group 1228426" transform="translate(8.305)">
                <path id="Path_1210981" data-name="Path 1210981" d="M142.876,7.574a16.6,16.6,0,0,0-16.6,16.6v2.678l-4.923,10.178v.551h4.923v5.907a5.745,5.745,0,0,0,5.745,5.745h7.526V62.607h19.932V24.176a16.6,16.6,0,0,0-16.6-16.6Z" transform="translate(-121.351 -7.574)" fill="#eb975d"/>
              </g>
              <g id="Group_1228427" data-name="Group 1228427" transform="translate(8.305 3.679)">
                <path id="Path_1210982" data-name="Path 1210982" d="M142.047,89.647V76.274h-7.526a5.745,5.745,0,0,1-5.745-5.745V64.622h-4.923v-.551l4.923-10.178V51.216A16.53,16.53,0,0,1,132.455,40.8a16.569,16.569,0,0,0-6.181,12.923V56.4l-4.923,10.178v.551h4.923v5.907a5.745,5.745,0,0,0,5.745,5.745h7.526V92.15h19.932v-2.5Z" transform="translate(-121.351 -40.795)" fill="#b25e1e"/>
              </g>
              <g id="Group_1228428" data-name="Group 1228428">
                <path id="Path_1210983" data-name="Path 1210983" d="M62.952,7.574a16.6,16.6,0,0,1,16.6,16.6v2.678l4.923,10.178v.551H79.553v5.907a5.745,5.745,0,0,1-5.745,5.745H66.282V62.607H46.35V24.176a16.6,16.6,0,0,1,16.6-16.6Z" transform="translate(-46.35 -7.574)" fill="#ffdaaa"/>
              </g>
              <g id="Group_1228430" data-name="Group 1228430" transform="translate(0 3.754)">
                <g id="Group_1228429" data-name="Group 1228429">
                  <path id="Path_1210984" data-name="Path 1210984" d="M48.684,90.424V51.993a16.533,16.533,0,0,1,3.754-10.515,16.568,16.568,0,0,0-6.087,12.847V92.757H66.283V90.425h-17.6Z" transform="translate(-46.351 -41.478)" fill="#ffb680"/>
                </g>
              </g>
              <g id="Group_1228431" data-name="Group 1228431" transform="translate(8.305 1.371)">
                <path id="Path_1210985" data-name="Path 1210985" d="M140.505,60.246A5.745,5.745,0,0,0,146.25,54.5V48.594h4.923v-.551L146.25,37.865V35.187a16.6,16.6,0,0,0-9.987-15.23,16.6,16.6,0,0,0-9.987,15.23v2.678l-4.923,10.178v.551h4.923V54.5a5.745,5.745,0,0,0,5.745,5.745h8.485Z" transform="translate(-121.352 -19.957)" fill="#fef2e2"/>
              </g>
              <g id="Group_1228434" data-name="Group 1228434" transform="translate(8.305 1.371)">
                <g id="Group_1228432" data-name="Group 1228432">
                  <path id="Path_1210986" data-name="Path 1210986" d="M144.687,57.911H132.506a3.9,3.9,0,0,1-3.9-3.9V46.259h-3.561l3.728-7.791V34.683a16.591,16.591,0,0,1,8.268-14.358c-.258-.128-.518-.253-.783-.368a16.6,16.6,0,0,0-9.987,15.23v2.678l-4.923,10.178v.551h4.923V54.5a5.745,5.745,0,0,0,5.745,5.745H140.5a5.736,5.736,0,0,0,4.643-2.363A3.921,3.921,0,0,1,144.687,57.911Z" transform="translate(-121.351 -19.957)" fill="#ffe1ba"/>
                </g>
                <g id="Group_1228433" data-name="Group 1228433" transform="translate(24.054 26.302)">
                  <path id="Path_1210987" data-name="Path 1210987" d="M338.574,257.479v2.335h5.767v-.551l-.863-1.783Z" transform="translate(-338.574 -257.479)" fill="#ffe1ba"/>
                </g>
              </g>
              <g id="Group_1228435" data-name="Group 1228435" transform="translate(17.101 10.899)">
                <path id="Path_1210988" data-name="Path 1210988" d="M206.894,107.436l-.468-.468a3.308,3.308,0,0,0-4.678,4.678l5.146,5.146,5.146-5.146a3.308,3.308,0,1,0-4.678-4.678Z" transform="translate(-200.779 -105.999)" fill="#f072ae"/>
              </g>
              <g id="Group_1228436" data-name="Group 1228436" transform="translate(17.101 11.124)">
                <path id="Path_1210989" data-name="Path 1210989" d="M202.889,108.027a3.308,3.308,0,0,0-1.141,5.423l5.146,5.146,1.886-1.886-5.146-5.146a3.308,3.308,0,0,1-.744-3.537Z" transform="translate(-200.779 -108.027)" fill="#e54696"/>
              </g>
            </g>
          </g>
        </g>
        <g id="Group_1228440" data-name="Group 1228440" transform="translate(38.843)">
          <path id="Path_1210990" data-name="Path 1210990" d="M69.5,0A17.337,17.337,0,0,0,62.89,1.3,17.43,17.43,0,0,0,38.843,17.433V56.7H50.451V55.036H40.5v-37.6A15.773,15.773,0,0,1,60.811,2.327a17.443,17.443,0,0,0-8.739,15.106V19.92L47.148,30.1v1.572h4.923v5.077a6.583,6.583,0,0,0,6.575,6.575h.129V55.036H52.112V56.7h8.326V43.323h4.906V56.7h8.326V55.036H67V43.323h.129a6.583,6.583,0,0,0,6.575-6.575V31.671h4.923V30.1L73.708,19.92V17.433A17.443,17.443,0,0,0,64.969,2.327,15.773,15.773,0,0,1,85.276,17.433v37.6H75.329V56.7H86.937V17.433A17.453,17.453,0,0,0,69.5,0Zm2.543,17.433V20.3l4.7,9.709h-4.7v4.146H70.326a2.494,2.494,0,0,1-2.492-2.492H66.173a4.157,4.157,0,0,0,4.153,4.153h1.722v.931a4.92,4.92,0,0,1-4.914,4.914H58.647a4.92,4.92,0,0,1-4.914-4.914v-.931h1.682a4.157,4.157,0,0,0,4.153-4.153H57.907a2.5,2.5,0,0,1-2.492,2.492H53.733V30.01h-4.7l4.7-9.709V17.433A15.792,15.792,0,0,1,62.89,3.117a15.792,15.792,0,0,1,9.157,14.316Z" transform="translate(-38.843)"/>
          <path id="Path_1210991" data-name="Path 1210991" d="M193.268,102.418a4.112,4.112,0,0,0,1.212,2.927l5.734,5.734,5.734-5.734a4.139,4.139,0,0,0-5.734-5.968A4.16,4.16,0,0,0,193.268,102.418Zm2.387-1.752a2.489,2.489,0,0,1,3.5,0l1.055,1.055,1.055-1.055a2.478,2.478,0,0,1,3.5,3.5l-4.559,4.559-4.559-4.559A2.489,2.489,0,0,1,195.655,100.665Z" transform="translate(-176.167 -87.379)"/>
        </g>
      </g>
    </g>
  </g>
</svg>
