<svg xmlns="http://www.w3.org/2000/svg" xmlns:xlink="http://www.w3.org/1999/xlink" width="103" height="103" viewBox="0 0 103 103">
  <defs>
    <filter id="Path_982547" x="0" y="0" width="103" height="103" filterUnits="userSpaceOnUse">
      <feOffset dy="3" input="SourceAlpha"/>
      <feGaussianBlur stdDeviation="3" result="blur"/>
      <feFlood flood-opacity="0.161"/>
      <feComposite operator="in" in2="blur"/>
      <feComposite in="SourceGraphic"/>
    </filter>
  </defs>
  <g id="Group_1228556" data-name="Group 1228556" transform="translate(-814 -1624)">
    <g id="Group_1228290" data-name="Group 1228290">
      <g id="Group_1228096" data-name="Group 1228096" transform="translate(630 312)">
        <g id="Group_1202412" data-name="Group 1202412" transform="translate(193 1318)">
          <g id="Group_1202212" data-name="Group 1202212">
            <g id="Group_1174813" data-name="Group 1174813">
              <g id="Group_1201680" data-name="Group 1201680">
                <g id="Group_1201330" data-name="Group 1201330">
                  <g id="Group_1172010" data-name="Group 1172010">
                    <g id="Group_1171046" data-name="Group 1171046">
                      <g id="Group_1148525" data-name="Group 1148525">
                        <g transform="matrix(1, 0, 0, 1, -9, -6)" filter="url(#Path_982547)">
                          <g id="Path_982547-2" data-name="Path 982547" transform="translate(9 6)" fill="#f2f7e5">
                            <path d="M 42.5 83.5 C 36.96437835693359 83.5 31.59512901306152 82.41617584228516 26.54141235351562 80.27863311767578 C 21.65934181213379 78.21369171142578 17.27447128295898 75.25723266601562 13.50862312316895 71.49137878417969 C 9.742764472961426 67.72553253173828 6.786305904388428 63.34066009521484 4.721364498138428 58.45858764648438 C 2.583823442459106 53.40486907958984 1.5 48.03562164306641 1.5 42.5 C 1.5 36.96437835693359 2.583823442459106 31.59512901306152 4.721364498138428 26.54141235351562 C 6.786305904388428 21.65934181213379 9.742764472961426 17.27448272705078 13.50862312316895 13.50862312316895 C 17.27447128295898 9.742776870727539 21.65934181213379 6.786305904388428 26.54141235351562 4.721364498138428 C 31.59512901306152 2.583823442459106 36.96437835693359 1.5 42.5 1.5 C 48.03562164306641 1.5 53.40486907958984 2.583823442459106 58.45858764648438 4.721364498138428 C 63.34066009521484 6.786305904388428 67.72553253173828 9.742776870727539 71.49137878417969 13.50862312316895 C 75.25723266601562 17.27448272705078 78.21369171142578 21.65934181213379 80.27863311767578 26.54141235351562 C 82.41617584228516 31.59512901306152 83.5 36.96437835693359 83.5 42.5 C 83.5 48.03562164306641 82.41617584228516 53.40486907958984 80.27863311767578 58.45858764648438 C 78.21369171142578 63.34066009521484 75.25723266601562 67.72553253173828 71.49137878417969 71.49137878417969 C 67.72553253173828 75.25723266601562 63.34066009521484 78.21369171142578 58.45858764648438 80.27863311767578 C 53.40486907958984 82.41617584228516 48.03562164306641 83.5 42.5 83.5 Z" stroke="none"/>
                            <path d="M 42.5 3 C 37.16621398925781 3 31.99356079101562 4.043960571289062 27.125732421875 6.102882385253906 C 22.42246627807617 8.092185974121094 18.19785308837891 10.94070434570312 14.56928253173828 14.56928253173828 C 10.94070434570312 18.19785308837891 8.092185974121094 22.42246627807617 6.102882385253906 27.125732421875 C 4.043960571289062 31.99356079101562 3 37.16621398925781 3 42.5 C 3 47.83378601074219 4.043960571289062 53.00643920898438 6.102882385253906 57.874267578125 C 8.092185974121094 62.57753372192383 10.94070434570312 66.80214691162109 14.56928253173828 70.43071746826172 C 18.19785308837891 74.05929565429688 22.42246627807617 76.90781402587891 27.125732421875 78.89711761474609 C 31.99356079101562 80.95603942871094 37.16621398925781 82 42.5 82 C 47.83378601074219 82 53.00643920898438 80.95603942871094 57.874267578125 78.89711761474609 C 62.57753372192383 76.90781402587891 66.80214691162109 74.05929565429688 70.43071746826172 70.43071746826172 C 74.05929565429688 66.80214691162109 76.90781402587891 62.57753372192383 78.89711761474609 57.874267578125 C 80.95603942871094 53.00643920898438 82 47.83378601074219 82 42.5 C 82 37.16621398925781 80.95603942871094 31.99356079101562 78.89711761474609 27.125732421875 C 76.90781402587891 22.42246627807617 74.05929565429688 18.19785308837891 70.43071746826172 14.56928253173828 C 66.80214691162109 10.94070434570312 62.57753372192383 8.092185974121094 57.874267578125 6.102882385253906 C 53.00643920898438 4.043960571289062 47.83378601074219 3 42.5 3 M 42.5 0 C 65.97210693359375 0 85 19.02789306640625 85 42.5 C 85 65.97210693359375 65.97210693359375 85 42.5 85 C 19.02789306640625 85 0 65.97210693359375 0 42.5 C 0 19.02789306640625 19.02789306640625 0 42.5 0 Z" stroke="none" fill="#1d7083"/>
                          </g>
                        </g>
                      </g>
                    </g>
                  </g>
                </g>
              </g>
            </g>
          </g>
        </g>
      </g>
      <g id="recepcionista" transform="translate(839.045 1643)">
        <g id="Group_1228288" data-name="Group 1228288" transform="translate(1.821 1.821)">
          <g id="Group_1228276" data-name="Group 1228276" transform="translate(24.633 24.633)">
            <path id="Path_1210649" data-name="Path 1210649" d="M46.78,45.253v3.169H41.853V38.569a1.647,1.647,0,0,0-1.642-1.642H32L35.284,32a13.4,13.4,0,0,1,11.5,13.253Z" transform="translate(-32 -32)" fill="#fcd770"/>
          </g>
          <g id="Group_1228277" data-name="Group 1228277" transform="translate(9.853 24.633)">
            <path id="Path_1210650" data-name="Path 1210650" d="M14,45.253A13.394,13.394,0,0,1,25.5,32l3.284,4.927H20.569a1.647,1.647,0,0,0-1.642,1.642v9.853H14Z" transform="translate(-14 -32)" fill="#fcd770"/>
          </g>
          <g id="Group_1228278" data-name="Group 1228278" transform="translate(34.487 7.387)">
            <path id="Path_1210651" data-name="Path 1210651" d="M51.39,25.779l-2.948,2.948a1.161,1.161,0,0,1-1.979-.821V23.883A7.359,7.359,0,0,1,44,18.488v-.107A7.473,7.473,0,0,1,51.177,11a7.392,7.392,0,1,1,.213,14.78Z" transform="translate(-44 -10.997)" fill="#e6e9ed"/>
          </g>
          <g id="Group_1228279" data-name="Group 1228279" transform="translate(0 9.032)">
            <path id="Path_1210652" data-name="Path 1210652" d="M20.147,22.853H12.674v1.232a1.23,1.23,0,0,1-1.232,1.232,1.267,1.267,0,0,1-.739-.246L7.748,22.853H3.642A1.647,1.647,0,0,1,2,21.211V14.642A1.647,1.647,0,0,1,3.642,13H16.788a8.615,8.615,0,0,0,1.01,3.752,2.464,2.464,0,0,0,1.445,4.459h.821v.821a3.869,3.869,0,0,0,.082.821Z" transform="translate(-2 -13)" fill="#e6e9ed"/>
          </g>
          <g id="Group_1228280" data-name="Group 1228280" transform="translate(14.78)">
            <path id="Path_1210653" data-name="Path 1210653" d="M39.707,10.72v1.133a5.857,5.857,0,0,1-.854,3.063,2.461,2.461,0,0,0-1.609-.6h-.821V12.674H33.138A8.245,8.245,0,0,1,26.569,9.39a4.338,4.338,0,0,0-3.284,4.2v.723h-.821a2.432,2.432,0,0,0-1.445.468,8.615,8.615,0,0,1-1.01-3.752C20,10.926,20,10.819,20,10.712A8.719,8.719,0,0,1,28.712,2h2.4a5.946,5.946,0,0,1,5.313,3.284l.911.682a5.946,5.946,0,0,1,2.373,4.754Z" transform="translate(-20 -2)" fill="#b27946"/>
          </g>
          <g id="Group_1228281" data-name="Group 1228281" transform="translate(0 41.056)">
            <path id="Path_1210654" data-name="Path 1210654" d="M2,52H51.267v8.211H2Z" transform="translate(-2 -52)" fill="#cf9e76"/>
          </g>
          <g id="Group_1228282" data-name="Group 1228282" transform="translate(14.78 29.56)">
            <path id="Path_1210655" data-name="Path 1210655" d="M39.707,39.642V49.5a1.647,1.647,0,0,1-1.642,1.642H32.809l-.345-3.449a1.64,1.64,0,0,0-1.634-1.478H28.876a1.64,1.64,0,0,0-1.634,1.478L26.9,51.138H21.642A1.647,1.647,0,0,1,20,49.5V39.642A1.647,1.647,0,0,1,21.642,38H38.065A1.647,1.647,0,0,1,39.707,39.642Z" transform="translate(-20 -38)" fill="#ccd1d9"/>
          </g>
          <g id="Group_1228283" data-name="Group 1228283" transform="translate(21.349 37.771)">
            <path id="Path_1210656" data-name="Path 1210656" d="M34.24,52.927l.328,3.284H28l.328-3.284.345-3.449A1.64,1.64,0,0,1,30.307,48h1.954A1.64,1.64,0,0,1,33.9,49.478Z" transform="translate(-28 -48)" fill="#aab2bd"/>
          </g>
          <g id="Group_1228284" data-name="Group 1228284" transform="translate(31.202 12.317)">
            <path id="Path_1210657" data-name="Path 1210657" d="M43.284,19.455v.008a2.46,2.46,0,0,1-2.463,2.463H40V17h.821a2.462,2.462,0,0,1,1.609.6c.049.041.09.082.131.123A2.438,2.438,0,0,1,43.284,19.455Z" transform="translate(-40 -17)" fill="#f0d0b4"/>
          </g>
          <g id="Group_1228285" data-name="Group 1228285" transform="translate(21.349 22.154)">
            <path id="Path_1210658" data-name="Path 1210658" d="M34.076,29l.493,2.463-3.284,4.927L28,31.46,28.493,29V28.98c.107.008.213.016.328.016h4.927c.115,0,.222-.008.328-.016Z" transform="translate(-28 -28.98)" fill="#f0d0b4"/>
          </g>
          <g id="Group_1228286" data-name="Group 1228286" transform="translate(18.065 7.39)">
            <path id="Path_1210659" data-name="Path 1210659" d="M33.853,14.284h3.284v7.39a4.107,4.107,0,0,1-3.777,4.089c-.107.008-.213.016-.328.016H28.106c-.115,0-.222-.008-.328-.016a4.1,4.1,0,0,1-3.7-3.268A3.869,3.869,0,0,1,24,21.674V15.2A4.338,4.338,0,0,1,27.284,11a8.245,8.245,0,0,0,6.569,3.284Z" transform="translate(-24 -11)" fill="#f0d0b4"/>
          </g>
          <g id="Group_1228287" data-name="Group 1228287" transform="translate(14.78 12.317)">
            <path id="Path_1210660" data-name="Path 1210660" d="M23.284,17v4.927h-.821a2.464,2.464,0,0,1-1.445-4.459A2.432,2.432,0,0,1,22.463,17Z" transform="translate(-20 -17)" fill="#f0d0b4"/>
          </g>
        </g>
        <g id="Group_1228289" data-name="Group 1228289" transform="translate(1 1)">
          <path id="Path_1210661" data-name="Path 1210661" d="M52,18h1.642v6.569H52Z" transform="translate(-10.123 -4.041)"/>
          <ellipse id="Ellipse_13409" data-name="Ellipse 13409" cx="1" cy="0.5" rx="1" ry="0.5" transform="translate(42 11)"/>
          <path id="Path_1210662" data-name="Path 1210662" d="M42.056,39.71A14.286,14.286,0,0,0,30.433,25.737l-.22-1.1a4.932,4.932,0,0,0,3.632-4.749,3.248,3.248,0,0,0,2.054-.742,8.252,8.252,0,0,0,2.052,3.31v3.661a1.982,1.982,0,0,0,3.384,1.4L44.045,24.8a8.211,8.211,0,0,0,5.376-14.092,8.184,8.184,0,0,0-12.295,1c0-.011,0-.022,0-.034V10.54a6.794,6.794,0,0,0-2.7-5.41l-.758-.568A6.724,6.724,0,0,0,27.709,1h-2.4a9.535,9.535,0,0,0-9.505,9.032H3.463A2.466,2.466,0,0,0,1,12.5v6.569a2.466,2.466,0,0,0,2.463,2.463H7.3l2.738,2.054a2.053,2.053,0,0,0,3.284-1.643v-.411h6.035A4.94,4.94,0,0,0,22.7,24.634l-.22,1.1A14.285,14.285,0,0,0,10.853,39.71v2.346H1v9.853H51.909V42.056H42.056Zm-1.642,0v2.346H37.129V33.023a2.466,2.466,0,0,0-2.463-2.463H27.988l2.132-3.2A12.626,12.626,0,0,1,40.413,39.71ZM29.883,40.989a2.456,2.456,0,0,0-2.451-2.218H25.477a2.456,2.456,0,0,0-2.451,2.218L22.755,43.7H18.243a.822.822,0,0,1-.821-.821V33.023a.822.822,0,0,1,.821-.821H34.666a.822.822,0,0,1,.821.821v9.853a.822.822,0,0,1-.821.821H30.154Zm-1.051,5.993H24.077l.583-5.83a.818.818,0,0,1,.817-.739h1.954a.818.818,0,0,1,.817.739Zm-.259-22.17.294,1.47L26.455,29.9l-2.412-3.619.294-1.47Zm5.272-6.569V14.959a1.642,1.642,0,0,1,0,3.284Zm9.663-8.209a6.588,6.588,0,0,1,4.769,1.856A6.569,6.569,0,0,1,43.7,23.17h-.34l-3.185,3.185a.353.353,0,0,1-.581-.241V21.732l-.273-.245a6.585,6.585,0,0,1-2.19-4.794,6.677,6.677,0,0,1,6.378-6.658ZM19.065,18.243a1.642,1.642,0,0,1,0-3.284Zm-7.39,1.642v2.053a.424.424,0,0,1-.657.328L7.842,19.886H3.463a.822.822,0,0,1-.821-.821V12.5a.822.822,0,0,1,.821-.821H15.851a9.588,9.588,0,0,0,.778,2.744,3.269,3.269,0,0,0,2.435,5.467Zm7.4-6.569h-.008a3.232,3.232,0,0,0-1.05.188,7.868,7.868,0,0,1,7.3-10.863h2.4a5.093,5.093,0,0,1,4.58,2.83l.086.173,1.063.8a5.145,5.145,0,0,1,2.049,4.1v1.137a5.11,5.11,0,0,1-.372,1.9,3.273,3.273,0,0,0-1.27-.256V11.674H29.739a7.426,7.426,0,0,1-5.912-2.956L23.5,8.282l-.529.132a5.145,5.145,0,0,0-3.9,4.9Zm1.634,6.569V13.418a3.508,3.508,0,0,1,2.178-3.251,9.081,9.081,0,0,0,6.854,3.15H32.2v6.569a3.288,3.288,0,0,1-3.284,3.284H23.991a3.288,3.288,0,0,1-3.284-3.284ZM12.5,39.71A12.624,12.624,0,0,1,22.788,27.363l2.132,3.2H18.243a2.466,2.466,0,0,0-2.463,2.463v9.032H12.5ZM50.267,50.267H2.642V43.7H15.931a2.46,2.46,0,0,0,2.312,1.642h4.348l-.164,1.642H19.065v1.642h14.78V46.982H30.482l-.164-1.642h4.348A2.46,2.46,0,0,0,36.978,43.7H50.267Z" transform="translate(-1 -1)"/>
          <circle id="Ellipse_13410" data-name="Ellipse 13410" cx="1" cy="1" r="1" transform="translate(21 14)"/>
          <circle id="Ellipse_13411" data-name="Ellipse 13411" cx="1" cy="1" r="1" transform="translate(28 14)"/>
          <path id="Path_1210663" data-name="Path 1210663" d="M35.39,22H33.748a1.644,1.644,0,0,1-1.642,1.642H28v1.642h4.106A3.288,3.288,0,0,0,35.39,22Z" transform="translate(-5.83 -4.757)"/>
          <path id="Path_1210664" data-name="Path 1210664" d="M5,16h9.853v1.642H5Z" transform="translate(-1.716 -3.683)"/>
          <path id="Path_1210665" data-name="Path 1210665" d="M5,20h6.569v1.642H5Z" transform="translate(-1.716 -4.399)"/>
          <path id="Path_1210666" data-name="Path 1210666" d="M15,20h1.642v1.642H15Z" transform="translate(-3.504 -4.399)"/>
        </g>
      </g>
    </g>
  </g>
</svg>
