<svg xmlns="http://www.w3.org/2000/svg" xmlns:xlink="http://www.w3.org/1999/xlink" width="103" height="103" viewBox="0 0 103 103">
  <defs>
    <filter id="Path_982547" x="0" y="0" width="103" height="103" filterUnits="userSpaceOnUse">
      <feOffset dy="3" input="SourceAlpha"/>
      <feGaussianBlur stdDeviation="3" result="blur"/>
      <feFlood flood-opacity="0.161"/>
      <feComposite operator="in" in2="blur"/>
      <feComposite in="SourceGraphic"/>
    </filter>
  </defs>
  <g id="Group_1228554" data-name="Group 1228554" transform="translate(-814 -1487)">
    <g id="Group_1228247" data-name="Group 1228247">
      <g id="Group_1228094" data-name="Group 1228094" transform="translate(630 175)">
        <g id="Group_1202412" data-name="Group 1202412" transform="translate(193 1318)">
          <g id="Group_1202212" data-name="Group 1202212">
            <g id="Group_1174813" data-name="Group 1174813">
              <g id="Group_1201680" data-name="Group 1201680">
                <g id="Group_1201330" data-name="Group 1201330">
                  <g id="Group_1172010" data-name="Group 1172010">
                    <g id="Group_1171046" data-name="Group 1171046">
                      <g id="Group_1148525" data-name="Group 1148525">
                        <g transform="matrix(1, 0, 0, 1, -9, -6)" filter="url(#Path_982547)">
                          <g id="Path_982547-2" data-name="Path 982547" transform="translate(9 6)" fill="#f2f7e5">
                            <path d="M 42.5 83.5 C 36.96437835693359 83.5 31.59512901306152 82.41617584228516 26.54141235351562 80.27863311767578 C 21.65934181213379 78.21369171142578 17.27447128295898 75.25723266601562 13.50862312316895 71.49137878417969 C 9.742764472961426 67.72553253173828 6.786305904388428 63.34066009521484 4.721364498138428 58.45858764648438 C 2.583823442459106 53.40486907958984 1.5 48.03562164306641 1.5 42.5 C 1.5 36.96437835693359 2.583823442459106 31.59512901306152 4.721364498138428 26.54141235351562 C 6.786305904388428 21.65934181213379 9.742764472961426 17.27448272705078 13.50862312316895 13.50862312316895 C 17.27447128295898 9.742776870727539 21.65934181213379 6.786305904388428 26.54141235351562 4.721364498138428 C 31.59512901306152 2.583823442459106 36.96437835693359 1.5 42.5 1.5 C 48.03562164306641 1.5 53.40486907958984 2.583823442459106 58.45858764648438 4.721364498138428 C 63.34066009521484 6.786305904388428 67.72553253173828 9.742776870727539 71.49137878417969 13.50862312316895 C 75.25723266601562 17.27448272705078 78.21369171142578 21.65934181213379 80.27863311767578 26.54141235351562 C 82.41617584228516 31.59512901306152 83.5 36.96437835693359 83.5 42.5 C 83.5 48.03562164306641 82.41617584228516 53.40486907958984 80.27863311767578 58.45858764648438 C 78.21369171142578 63.34066009521484 75.25723266601562 67.72553253173828 71.49137878417969 71.49137878417969 C 67.72553253173828 75.25723266601562 63.34066009521484 78.21369171142578 58.45858764648438 80.27863311767578 C 53.40486907958984 82.41617584228516 48.03562164306641 83.5 42.5 83.5 Z" stroke="none"/>
                            <path d="M 42.5 3 C 37.16621398925781 3 31.99356079101562 4.043960571289062 27.125732421875 6.102882385253906 C 22.42246627807617 8.092185974121094 18.19785308837891 10.94070434570312 14.56928253173828 14.56928253173828 C 10.94070434570312 18.19785308837891 8.092185974121094 22.42246627807617 6.102882385253906 27.125732421875 C 4.043960571289062 31.99356079101562 3 37.16621398925781 3 42.5 C 3 47.83378601074219 4.043960571289062 53.00643920898438 6.102882385253906 57.874267578125 C 8.092185974121094 62.57753372192383 10.94070434570312 66.80214691162109 14.56928253173828 70.43071746826172 C 18.19785308837891 74.05929565429688 22.42246627807617 76.90781402587891 27.125732421875 78.89711761474609 C 31.99356079101562 80.95603942871094 37.16621398925781 82 42.5 82 C 47.83378601074219 82 53.00643920898438 80.95603942871094 57.874267578125 78.89711761474609 C 62.57753372192383 76.90781402587891 66.80214691162109 74.05929565429688 70.43071746826172 70.43071746826172 C 74.05929565429688 66.80214691162109 76.90781402587891 62.57753372192383 78.89711761474609 57.874267578125 C 80.95603942871094 53.00643920898438 82 47.83378601074219 82 42.5 C 82 37.16621398925781 80.95603942871094 31.99356079101562 78.89711761474609 27.125732421875 C 76.90781402587891 22.42246627807617 74.05929565429688 18.19785308837891 70.43071746826172 14.56928253173828 C 66.80214691162109 10.94070434570312 62.57753372192383 8.092185974121094 57.874267578125 6.102882385253906 C 53.00643920898438 4.043960571289062 47.83378601074219 3 42.5 3 M 42.5 0 C 65.97210693359375 0 85 19.02789306640625 85 42.5 C 85 65.97210693359375 65.97210693359375 85 42.5 85 C 19.02789306640625 85 0 65.97210693359375 0 42.5 C 0 19.02789306640625 19.02789306640625 0 42.5 0 Z" stroke="none" fill="#1d7083"/>
                          </g>
                        </g>
                      </g>
                    </g>
                  </g>
                </g>
              </g>
            </g>
          </g>
        </g>
      </g>
      <g id="estructura-de-la-jerarquia" transform="translate(836.525 1500.734)">
        <g id="Group_1228219" data-name="Group 1228219" transform="translate(14.923 4.849)">
          <path id="Path_1210594" data-name="Path 1210594" d="M146.181,40.172a14.336,14.336,0,1,0-14.338-14.336A14.366,14.366,0,0,0,146.181,40.172Z" transform="translate(-131.843 -11.5)" fill="#80d261" fill-rule="evenodd"/>
        </g>
        <g id="Group_1228220" data-name="Group 1228220" transform="translate(20.746 25.52)">
          <path id="Path_1210595" data-name="Path 1210595" d="M183.294,198.318v1.018a14.34,14.34,0,0,0,17.026,0v-1.018c0-2.832-1.927-3.628-3.9-4.183l-3.787,2.223a1.252,1.252,0,0,1-1.653,0l-3.787-2.223C185.221,194.689,183.294,195.485,183.294,198.318Z" transform="translate(-183.294 -194.135)" fill="#22a6fe" fill-rule="evenodd"/>
        </g>
        <g id="Group_1228221" data-name="Group 1228221" transform="translate(24.645 23.651)">
          <path id="Path_1210596" data-name="Path 1210596" d="M217.746,179.492l3.787,2.223a1.252,1.252,0,0,0,1.653,0l3.787-2.223c-.351-.1-.7-.19-1.047-.284-.8-.216-1.012-1.25-1.176-1.585a6.328,6.328,0,0,1-.864.4,3.946,3.946,0,0,1-3.052,0,6.341,6.341,0,0,1-.864-.4c-.164.335-.374,1.37-1.176,1.585C218.449,179.3,218.1,179.4,217.746,179.492Z" transform="translate(-217.746 -177.623)" fill="#fed1a3" fill-rule="evenodd"/>
        </g>
        <g id="Group_1228222" data-name="Group 1228222" transform="translate(23.163 14.637)">
          <path id="Path_1210597" data-name="Path 1210597" d="M204.649,101.528c0,1.93,1.6,4.3,3.706,5.465a6.326,6.326,0,0,0,.864.4,3.946,3.946,0,0,0,3.052,0,6.339,6.339,0,0,0,.864-.4c2.1-1.166,3.706-3.535,3.706-5.465V99.662c-2.465-.171-2.1-2.056-3.8-1.618a11.117,11.117,0,0,1-2.291.512,11.131,11.131,0,0,1-2.295-.512c-1.7-.438-1.337,1.447-3.8,1.618v1.866Z" transform="translate(-204.649 -97.979)" fill="#ffe5c1" fill-rule="evenodd"/>
        </g>
        <g id="Group_1228223" data-name="Group 1228223" transform="translate(23.163 9.45)">
          <path id="Path_1210598" data-name="Path 1210598" d="M210.746,52.155c-3.049.048-6.1,2.343-6.1,6.87,2.465-.171,2.1-2.056,3.8-1.618a11.131,11.131,0,0,0,2.295.512,11.117,11.117,0,0,0,2.291-.512c1.7-.438,1.337,1.447,3.8,1.618,0-4.527-3.049-6.822-6.094-6.87Z" transform="translate(-204.649 -52.155)" fill="#6d80aa" fill-rule="evenodd"/>
        </g>
        <g id="Group_1228224" data-name="Group 1228224" transform="translate(27.391 14.638)">
          <path id="Path_1210599" data-name="Path 1210599" d="M246.726,101.344c0,2.188-2.056,4.933-4.573,5.865-.048.019-.1.039-.148.055.113.048.226.1.342.139a3.946,3.946,0,0,0,3.052,0,6.34,6.34,0,0,0,.864-.4c2.1-1.166,3.706-3.535,3.706-5.465V99.672c-2.23-.155-2.143-1.708-3.361-1.682a9.119,9.119,0,0,1,.119,1.492v1.862Z" transform="translate(-242.005 -97.989)" fill="#fed1a3" fill-rule="evenodd"/>
        </g>
        <g id="Group_1228225" data-name="Group 1228225" transform="translate(27.968 9.45)">
          <path id="Path_1210600" data-name="Path 1210600" d="M247.1,52.313a6.174,6.174,0,0,1,4.025,5.03c1.218-.026,1.131,1.527,3.361,1.682,0-4.527-3.049-6.822-6.094-6.87A6.038,6.038,0,0,0,247.1,52.313Z" transform="translate(-247.102 -52.155)" fill="#49679b" fill-rule="evenodd"/>
        </g>
        <g id="Group_1228226" data-name="Group 1228226" transform="translate(31.99 25.52)">
          <path id="Path_1210601" data-name="Path 1210601" d="M285.947,199.855v.951a14.419,14.419,0,0,0,2.472-1.469v-1.018c0-2.832-1.927-3.628-3.9-4.183l-1.882,1.105C284.068,195.62,285.947,195.988,285.947,199.855Z" transform="translate(-282.637 -194.135)" fill="#0182fc" fill-rule="evenodd"/>
        </g>
        <g id="Group_1228227" data-name="Group 1228227" transform="translate(26.192 23.651)">
          <path id="Path_1210602" data-name="Path 1210602" d="M232.091,177.622a3.822,3.822,0,0,1-.677,1.292,5.394,5.394,0,0,0,.6.261,5.292,5.292,0,0,0,3.522.377c.226-.048.316-.174.461.1a1.788,1.788,0,0,0,1.208.947l1.892-1.112c-.351-.1-.7-.19-1.047-.284-.8-.216-1.012-1.25-1.176-1.585a6.325,6.325,0,0,1-.864.4,3.946,3.946,0,0,1-3.052,0c-.116-.042-.229-.09-.342-.139a5.619,5.619,0,0,1-.522-.261Z" transform="translate(-231.414 -177.622)" fill="#ffbc85" fill-rule="evenodd"/>
        </g>
        <g id="Group_1228228" data-name="Group 1228228" transform="translate(26.55 4.849)">
          <path id="Path_1210603" data-name="Path 1210603" d="M234.574,11.755a14.343,14.343,0,0,1,9.965,21.612,3.608,3.608,0,0,1,1.257,2.987v1.018a14.343,14.343,0,0,0-11.222-25.618Z" transform="translate(-234.574 -11.501)" fill="#4fc122" fill-rule="evenodd"/>
        </g>
        <g id="Group_1228229" data-name="Group 1228229" transform="translate(0.849 43.746)">
          <path id="Path_1210604" data-name="Path 1210604" d="M15.724,371.6a8.222,8.222,0,1,0-8.224-8.22A8.24,8.24,0,0,0,15.724,371.6Z" transform="translate(-7.5 -355.161)" fill="#22a6fe" fill-rule="evenodd"/>
        </g>
        <g id="Group_1228230" data-name="Group 1228230" transform="translate(6.363 43.746)">
          <path id="Path_1210605" data-name="Path 1210605" d="M58.928,355.161a8.222,8.222,0,1,1-2.62,16.018,8.227,8.227,0,0,0-.09-15.564A8.275,8.275,0,0,1,58.928,355.161Z" transform="translate(-56.218 -355.161)" fill="#0182fc" fill-rule="evenodd"/>
        </g>
        <g id="Group_1228231" data-name="Group 1228231" transform="translate(3.769 53.419)">
          <path id="Path_1210606" data-name="Path 1210606" d="M36.423,440.628a5.319,5.319,0,0,0-3.126,4.833,8.233,8.233,0,0,0,10.609,0,5.322,5.322,0,0,0-3.129-4.833Z" transform="translate(-33.297 -440.628)" fill="#fdb440" fill-rule="evenodd"/>
        </g>
        <g id="Group_1228232" data-name="Group 1228232" transform="translate(5.602 47.245)">
          <path id="Path_1210607" data-name="Path 1210607" d="M49.5,389.549a3.471,3.471,0,1,0,3.471-3.47A3.465,3.465,0,0,0,49.5,389.549Z" transform="translate(-49.498 -386.079)" fill="#ffe5c1" fill-rule="evenodd"/>
        </g>
        <g id="Group_1228233" data-name="Group 1228233" transform="translate(8.2 47.245)">
          <path id="Path_1210608" data-name="Path 1210608" d="M72.45,386.188a3.469,3.469,0,0,1,1.3,6.061v0a3.437,3.437,0,0,1-1.305.654,3.4,3.4,0,0,0,.873.113,3.47,3.47,0,1,0,0-6.941A3.354,3.354,0,0,0,72.45,386.188Z" transform="translate(-72.447 -386.078)" fill="#fed1a3" fill-rule="evenodd"/>
        </g>
        <g id="Group_1228234" data-name="Group 1228234" transform="translate(10.005 53.419)">
          <path id="Path_1210609" data-name="Path 1210609" d="M88.392,441.266a7.455,7.455,0,0,1,2.536,5.368,8.284,8.284,0,0,0,1.837-1.173,5.322,5.322,0,0,0-3.129-4.833,3.433,3.433,0,0,1-1.244.638Z" transform="translate(-88.392 -440.628)" fill="#fe9900" fill-rule="evenodd"/>
        </g>
        <g id="Group_1228235" data-name="Group 1228235" transform="translate(21.036 43.749)">
          <path id="Path_1210610" data-name="Path 1210610" d="M194.08,371.637a8.223,8.223,0,1,0-8.224-8.223A8.237,8.237,0,0,0,194.08,371.637Z" transform="translate(-185.856 -355.19)" fill="#22a6fe" fill-rule="evenodd"/>
        </g>
        <g id="Group_1228236" data-name="Group 1228236" transform="translate(26.55 43.749)">
          <path id="Path_1210611" data-name="Path 1210611" d="M237.284,355.189a8.223,8.223,0,1,1-2.62,16.022,8.227,8.227,0,0,0-.09-15.564A8.194,8.194,0,0,1,237.284,355.189Z" transform="translate(-234.574 -355.189)" fill="#0182fc" fill-rule="evenodd"/>
        </g>
        <g id="Group_1228237" data-name="Group 1228237" transform="translate(23.956 53.423)">
          <path id="Path_1210612" data-name="Path 1210612" d="M214.779,440.656a5.319,5.319,0,0,0-3.126,4.834,8.218,8.218,0,0,0,10.606,0,5.319,5.319,0,0,0-3.126-4.834Z" transform="translate(-211.653 -440.656)" fill="#fd4755" fill-rule="evenodd"/>
        </g>
        <g id="Group_1228238" data-name="Group 1228238" transform="translate(25.789 47.249)">
          <path id="Path_1210613" data-name="Path 1210613" d="M227.854,389.578a3.471,3.471,0,1,0,3.471-3.47A3.46,3.46,0,0,0,227.854,389.578Z" transform="translate(-227.854 -386.108)" fill="#ffe5c1" fill-rule="evenodd"/>
        </g>
        <g id="Group_1228239" data-name="Group 1228239" transform="translate(28.387 47.249)">
          <path id="Path_1210614" data-name="Path 1210614" d="M250.806,386.218a3.473,3.473,0,0,1,0,6.722,3.526,3.526,0,0,0,.873.11,3.47,3.47,0,1,0-.87-6.831Z" transform="translate(-250.803 -386.108)" fill="#fed1a3" fill-rule="evenodd"/>
        </g>
        <g id="Group_1228240" data-name="Group 1228240" transform="translate(30.192 53.423)">
          <path id="Path_1210615" data-name="Path 1210615" d="M266.749,441.3a7.448,7.448,0,0,1,2.536,5.365,8.187,8.187,0,0,0,1.834-1.173,5.319,5.319,0,0,0-3.126-4.834A3.465,3.465,0,0,1,266.749,441.3Z" transform="translate(-266.749 -440.656)" fill="#e41e2b" fill-rule="evenodd"/>
        </g>
        <g id="Group_1228241" data-name="Group 1228241" transform="translate(40.656 43.746)">
          <path id="Path_1210616" data-name="Path 1210616" d="M367.422,371.6a8.222,8.222,0,1,0-8.221-8.22A8.238,8.238,0,0,0,367.422,371.6Z" transform="translate(-359.201 -355.161)" fill="#22a6fe" fill-rule="evenodd"/>
        </g>
        <g id="Group_1228242" data-name="Group 1228242" transform="translate(46.17 43.746)">
          <path id="Path_1210617" data-name="Path 1210617" d="M410.626,355.161a8.222,8.222,0,1,1-2.617,16.018,8.227,8.227,0,0,0-.09-15.564A8.27,8.27,0,0,1,410.626,355.161Z" transform="translate(-407.919 -355.161)" fill="#0182fc" fill-rule="evenodd"/>
        </g>
        <g id="Group_1228243" data-name="Group 1228243" transform="translate(43.576 53.419)">
          <path id="Path_1210618" data-name="Path 1210618" d="M388.124,440.628A5.319,5.319,0,0,0,385,445.462a8.229,8.229,0,0,0,10.606,0,5.319,5.319,0,0,0-3.126-4.833Z" transform="translate(-384.998 -440.628)" fill="#80d261" fill-rule="evenodd"/>
        </g>
        <g id="Group_1228244" data-name="Group 1228244" transform="translate(45.406 47.245)">
          <path id="Path_1210619" data-name="Path 1210619" d="M401.171,389.549a3.472,3.472,0,1,0,3.471-3.47A3.467,3.467,0,0,0,401.171,389.549Z" transform="translate(-401.171 -386.079)" fill="#ffe5c1" fill-rule="evenodd"/>
        </g>
        <g id="Group_1228245" data-name="Group 1228245" transform="translate(48.007 47.245)">
          <path id="Path_1210620" data-name="Path 1210620" d="M424.151,386.188a3.469,3.469,0,0,1,1.3,6.061v0a3.437,3.437,0,0,1-1.305.654,3.373,3.373,0,0,0,.87.113,3.47,3.47,0,1,0,0-6.941A3.348,3.348,0,0,0,424.151,386.188Z" transform="translate(-424.148 -386.078)" fill="#fed1a3" fill-rule="evenodd"/>
        </g>
        <g id="Group_1228246" data-name="Group 1228246" transform="translate(49.812 53.419)">
          <path id="Path_1210621" data-name="Path 1210621" d="M440.094,441.266a7.455,7.455,0,0,1,2.536,5.368,8.185,8.185,0,0,0,1.834-1.173,5.319,5.319,0,0,0-3.126-4.833,3.485,3.485,0,0,1-1.244.638Z" transform="translate(-440.094 -440.628)" fill="#4fc122" fill-rule="evenodd"/>
        </g>
        <path id="Path_1210622" data-name="Path 1210622" d="M49.726,42.938V39.154a1.369,1.369,0,0,0-1.368-1.368H30.109v-3.44A15.186,15.186,0,1,0,16.28,11.3a.849.849,0,0,0,1.45.883A13.488,13.488,0,1,1,38.574,28.933c-.34-2.8-2.542-3.68-4.451-4.222l-1.077-.293c-.135-.036-.253-.225-.346-.426a7.785,7.785,0,0,0,3.5-5.805V16.32a7.87,7.87,0,0,0-2.153-5.714,6.855,6.855,0,0,0-4.777-2h-.027a6.86,6.86,0,0,0-4.779,2,7.869,7.869,0,0,0-2.153,5.714v1.866a7.785,7.785,0,0,0,3.5,5.805c-.094.2-.212.39-.349.427L24.4,24.71c-1.909.542-4.112,1.423-4.453,4.22a13.506,13.506,0,0,1-3.709-13.271.849.849,0,1,0-1.639-.442A15.2,15.2,0,0,0,28.412,34.346v3.44H9.592a1.369,1.369,0,0,0-1.368,1.368v3.784a9.073,9.073,0,1,0,1.7,0V39.484H28.411v3.457a8.991,8.991,0,0,0-4.534,1.727.849.849,0,1,0,1.008,1.366A7.372,7.372,0,0,1,35.13,56.428a6.191,6.191,0,0,0-2.349-3.211,4.32,4.32,0,1,0-7.042,0,6.191,6.191,0,0,0-2.351,3.212,7.377,7.377,0,0,1-.747-7.717.849.849,0,0,0-1.522-.752,9.074,9.074,0,1,0,8.99-5.017V39.484H48.028v3.454a9.074,9.074,0,1,0,1.7,0ZM9.073,59.341a7.34,7.34,0,0,1-4.436-1.486,4.472,4.472,0,0,1,2.2-3.446,4.313,4.313,0,0,0,4.476,0,4.474,4.474,0,0,1,2.2,3.445,7.34,7.34,0,0,1-4.435,1.486ZM6.451,50.716a2.622,2.622,0,1,1,2.622,2.622A2.625,2.625,0,0,1,6.451,50.716Zm10,1.254a7.33,7.33,0,0,1-1.5,4.454,6.194,6.194,0,0,0-2.351-3.21,4.32,4.32,0,1,0-7.042,0,6.191,6.191,0,0,0-2.35,3.21,7.373,7.373,0,1,1,13.247-4.454ZM29.26,48.1a2.622,2.622,0,1,1-2.622,2.622A2.625,2.625,0,0,1,29.26,48.1Zm0,11.25a7.337,7.337,0,0,1-4.436-1.487,4.472,4.472,0,0,1,2.2-3.448,4.313,4.313,0,0,0,4.476,0,4.473,4.473,0,0,1,2.2,3.448A7.332,7.332,0,0,1,29.26,59.347Zm0-49.048a5.315,5.315,0,0,1,5.175,4.927,2.751,2.751,0,0,1-.685-.561,2.222,2.222,0,0,0-2.412-.784c-.305.079-.567.15-.794.211a5.894,5.894,0,0,1-1.284.274,5.825,5.825,0,0,1-1.276-.272c-.23-.062-.5-.133-.808-.214a2.221,2.221,0,0,0-2.41.784,2.747,2.747,0,0,1-.685.561A5.317,5.317,0,0,1,29.26,10.3Zm-5.249,7.887V17.049a3.821,3.821,0,0,0,1.968-1.2c.382-.389.413-.421.773-.329.305.079.566.149.792.21a6.617,6.617,0,0,0,1.716.33,6.659,6.659,0,0,0,1.724-.333c.224-.06.48-.129.778-.207.362-.093.393-.061.775.328a3.82,3.82,0,0,0,1.968,1.2v1.138c0,1.874-1.914,4.29-4.016,5.069a3.12,3.12,0,0,1-2.462,0c-2.1-.779-4.016-3.195-4.016-5.069ZM31.9,25.7l-2.24,1.315-.032.02c-.362.234-.368.234-.73,0l-.032-.02L26.622,25.7a2.65,2.65,0,0,0,.693-.9c.041.016.082.033.123.049a4.784,4.784,0,0,0,3.642,0L31.2,24.8a2.645,2.645,0,0,0,.692.9ZM21.595,29.7c0-2.034,1.1-2.7,2.94-3.263l3.452,2.027a2.058,2.058,0,0,0,2.543,0l3.452-2.027c1.844.56,2.94,1.229,2.94,3.263v.576a13.46,13.46,0,0,1-15.328,0V29.7ZM48.877,59.341a7.334,7.334,0,0,1-4.432-1.485,4.472,4.472,0,0,1,2.195-3.446,4.313,4.313,0,0,0,4.476,0,4.473,4.473,0,0,1,2.2,3.446,7.34,7.34,0,0,1-4.436,1.486Zm-2.622-8.625a2.622,2.622,0,1,1,2.622,2.622A2.625,2.625,0,0,1,46.255,50.716Zm8.494,5.708a6.19,6.19,0,0,0-2.35-3.21,4.32,4.32,0,1,0-7.042,0,6.191,6.191,0,0,0-2.348,3.21,7.374,7.374,0,1,1,11.741,0Z"/>
      </g>
    </g>
  </g>
</svg>
