<svg xmlns="http://www.w3.org/2000/svg" xmlns:xlink="http://www.w3.org/1999/xlink" width="103" height="103" viewBox="0 0 103 103">
  <defs>
    <filter id="Path_978624" x="0" y="0" width="103" height="103" filterUnits="userSpaceOnUse">
      <feOffset dy="3" input="SourceAlpha"/>
      <feGaussianBlur stdDeviation="3" result="blur"/>
      <feFlood flood-opacity="0.161"/>
      <feComposite operator="in" in2="blur"/>
      <feComposite in="SourceGraphic"/>
    </filter>
  </defs>
  <g id="Group_1228549" data-name="Group 1228549" transform="translate(-171 -863)">
    <g id="Group_1228199" data-name="Group 1228199">
      <g id="Group_1222589" data-name="Group 1222589" transform="translate(180 869)">
        <g id="Group_1203109" data-name="Group 1203109">
          <g id="Group_1176881" data-name="Group 1176881">
            <g id="Group_1175148" data-name="Group 1175148">
              <g id="Group_1173798" data-name="Group 1173798">
                <g id="Group_1171925" data-name="Group 1171925">
                  <g id="Group_1164524" data-name="Group 1164524">
                    <g id="Group_1144123" data-name="Group 1144123">
                      <g transform="matrix(1, 0, 0, 1, -9, -6)" filter="url(#Path_978624)">
                        <g id="Path_978624-2" data-name="Path 978624" transform="translate(9 6)" fill="#f6f3ef">
                          <path d="M 42.5 83.5 C 36.96437835693359 83.5 31.59512901306152 82.41617584228516 26.54141235351562 80.27863311767578 C 21.65934181213379 78.21369171142578 17.27447128295898 75.25723266601562 13.50862312316895 71.49137878417969 C 9.742764472961426 67.72553253173828 6.786305904388428 63.34066009521484 4.721364498138428 58.45858764648438 C 2.583823442459106 53.40486907958984 1.5 48.03562164306641 1.5 42.5 C 1.5 36.96437835693359 2.583823442459106 31.59512901306152 4.721364498138428 26.54141235351562 C 6.786305904388428 21.65934181213379 9.742764472961426 17.27447128295898 13.50862312316895 13.50862312316895 C 17.27447128295898 9.742764472961426 21.65934181213379 6.786305904388428 26.54141235351562 4.721364498138428 C 31.59512901306152 2.583823442459106 36.96437835693359 1.5 42.5 1.5 C 48.03562164306641 1.5 53.40486907958984 2.583823442459106 58.45858764648438 4.721364498138428 C 63.34066009521484 6.786305904388428 67.72553253173828 9.742764472961426 71.49137878417969 13.50862312316895 C 75.25723266601562 17.27447128295898 78.21369171142578 21.65934181213379 80.27863311767578 26.54141235351562 C 82.41617584228516 31.59512901306152 83.5 36.96437835693359 83.5 42.5 C 83.5 48.03562164306641 82.41617584228516 53.40486907958984 80.27863311767578 58.45858764648438 C 78.21369171142578 63.34066009521484 75.25723266601562 67.72553253173828 71.49137878417969 71.49137878417969 C 67.72553253173828 75.25723266601562 63.34066009521484 78.21369171142578 58.45858764648438 80.27863311767578 C 53.40486907958984 82.41617584228516 48.03562164306641 83.5 42.5 83.5 Z" stroke="none"/>
                          <path d="M 42.5 3 C 37.16621398925781 3 31.99356079101562 4.043960571289062 27.125732421875 6.102882385253906 C 22.42246627807617 8.092185974121094 18.19785308837891 10.94070434570312 14.56928253173828 14.56928253173828 C 10.94070434570312 18.19785308837891 8.092185974121094 22.42246627807617 6.102882385253906 27.125732421875 C 4.043960571289062 31.99356079101562 3 37.16621398925781 3 42.5 C 3 47.83378601074219 4.043960571289062 53.00643920898438 6.102882385253906 57.87425231933594 C 8.092185974121094 62.57753372192383 10.94070434570312 66.80213165283203 14.56928253173828 70.43071746826172 C 18.19786834716797 74.05929565429688 22.42246627807617 76.90781402587891 27.125732421875 78.89711761474609 C 31.99356079101562 80.95603942871094 37.16621398925781 82 42.5 82 C 47.83378601074219 82 53.00642395019531 80.95603942871094 57.87425231933594 78.89711761474609 C 62.57753372192383 76.90781402587891 66.80213165283203 74.05929565429688 70.43071746826172 70.43071746826172 C 74.05929565429688 66.80213165283203 76.90781402587891 62.57753372192383 78.89711761474609 57.87425231933594 C 80.95603942871094 53.00642395019531 82 47.83378601074219 82 42.5 C 82 37.16621398925781 80.95603942871094 31.99356079101562 78.89711761474609 27.125732421875 C 76.90781402587891 22.42246627807617 74.05929565429688 18.19786834716797 70.43071746826172 14.56928253173828 C 66.80213165283203 10.94070434570312 62.57753372192383 8.092185974121094 57.87425231933594 6.102882385253906 C 53.00643920898438 4.043960571289062 47.83378601074219 3 42.5 3 M 42.5 0 C 65.97209167480469 0 85 19.02789306640625 85 42.5 C 85 65.97209167480469 65.97209167480469 85 42.5 85 C 19.02789306640625 85 0 65.97209167480469 0 42.5 C 0 19.02789306640625 19.02789306640625 0 42.5 0 Z" stroke="none" fill="#7b776f"/>
                        </g>
                      </g>
                    </g>
                  </g>
                </g>
              </g>
            </g>
          </g>
        </g>
      </g>
      <g id="lider" transform="translate(194.201 883.035)">
        <g id="Group_1228196" data-name="Group 1228196" transform="translate(1.105 1.291)">
          <path id="Path_1210558" data-name="Path 1210558" d="M302.389,272.611v-5.2H288.184v20.134h14.205V272.611Z" transform="translate(-257.433 -238.975)" fill="#fff"/>
          <path id="Path_1210559" data-name="Path 1210559" d="M416.689,262.813v5.207l9.431-.089V245.459l-9.431,2.426v14.927Z" transform="translate(-371.732 -219.451)" fill="#5c90ae"/>
          <path id="Path_1210560" data-name="Path 1210560" d="M40.751,231.232H39.08c-3.062,0-4.038-2.395-5.254-3.926l-.849-1.069a6.41,6.41,0,0,0-5.019-2.423H20.745l.734,4.766H13.274a2.652,2.652,0,0,0,0,5.3h-.622a2.652,2.652,0,1,0,0,5.3H14.38a2.652,2.652,0,0,0,0,5.3h1a2.652,2.652,0,0,0,0,5.3H28.725a6.41,6.41,0,0,0,4.172-1.544l.867-.743a6.41,6.41,0,0,1,4.172-1.544h2.815Z" transform="translate(-10 -200.2)" fill="#ffc6ae"/>
          <path id="Path_1210561" data-name="Path 1210561" d="M42.807,38.566,38.743,12.216a2.4,2.4,0,1,0-4.735.738l4.043,25.611Z" transform="translate(-31.327 -10.185)" fill="#f9f5f3"/>
          <path id="Path_1210562" data-name="Path 1210562" d="M107.784,458.832l.29,2.172a2.279,2.279,0,1,1-4.522.58l-.346-2.753Z" transform="translate(-92.904 -409.237)" fill="#f9f5f3"/>
          <g id="Group_1228195" data-name="Group 1228195" transform="translate(7.459 2.337)">
            <path id="Path_1210563" data-name="Path 1210563" d="M77.472,31.329h13.35l-1.81,13.257H79.491Z" transform="translate(-77.472 -31.329)" fill="#ff7e96"/>
            <path id="Path_1210564" data-name="Path 1210564" d="M179.025,65.365h9.66l-2.829,6.849,4.848,6.407H177.215Z" transform="translate(-166.189 -61.603)" fill="#ff7e96"/>
          </g>
        </g>
        <g id="Group_1228198" data-name="Group 1228198" transform="translate(0 0.186)">
          <g id="Group_1228197" data-name="Group 1228197" transform="translate(0 0)">
            <path id="Path_1210565" data-name="Path 1210565" d="M408.838,349.176a1.1,1.1,0,1,0-.6,1.444A1.116,1.116,0,0,0,408.838,349.176Z" transform="translate(-361.756 -309.993)"/>
            <path id="Path_1210566" data-name="Path 1210566" d="M56.17,26.426a1.105,1.105,0,0,0-.953-.2l-9.3,2.392H31.857a1.105,1.105,0,0,0-1.105,1.105v1.493h-.566c-1.923,0-2.741-1.179-3.689-2.544-.224-.323-1.549-2.033-1.549-2.033A7.476,7.476,0,0,0,19.062,23.8H12.8l-.9-5.81h6.935L18.495,20.5a1.119,1.119,0,0,0,1.1,1.255H33.078a1.115,1.115,0,0,0,.882-1.772l-4.466-5.9,2.587-6.265a1.105,1.105,0,0,0-1.022-1.527H22.667l.342-2.507a1.119,1.119,0,0,0-1.1-1.255H9.457A3.48,3.48,0,0,0,6.153.186,3.534,3.534,0,0,0,2.694,4.233L6.536,28.567H4.38a3.755,3.755,0,0,0-2.934,6.1,3.755,3.755,0,0,0,.783,6.392,3.754,3.754,0,0,0,1.189,5.007,3.755,3.755,0,0,0,3.067,5.925h3.95l.224,1.783a3.385,3.385,0,1,0,6.714-.863l-.123-.921h2.582a7.519,7.519,0,0,0,4.892-1.81l.867-.743a5.308,5.308,0,0,1,3.453-1.278h1.709v1.7a1.105,1.105,0,0,0,1.105,1.105H46.073l9.431-.089a1.106,1.106,0,0,0,1.1-1.105V27.3a1.106,1.106,0,0,0-.428-.874ZM29.407,8.5l-2.2,5.322a1.105,1.105,0,0,0,.14,1.089l3.507,4.635h-10L22.365,8.5h7.042Zm-9.1-1.27,0,.015L19.139,15.78H11.561L9.857,4.734h10.79ZM4.878,3.889A1.3,1.3,0,0,1,6.153,2.4C7,2.4,7.36,3.063,7.471,3.8L11.3,28.567H8.774ZM15.18,53.2a1.174,1.174,0,1,1-2.329.3l-.19-1.509h2.357ZM29.042,45.95a7.519,7.519,0,0,0-4.892,1.81l-.867.743a5.308,5.308,0,0,1-3.453,1.277H6.484a1.546,1.546,0,0,1,0-3.093,1.105,1.105,0,0,0,0-2.211h-1a1.546,1.546,0,0,1,0-3.093,1.105,1.105,0,0,0,0-2.211H3.757a1.546,1.546,0,1,1,0-3.093h.622a1.105,1.105,0,0,0,0-2.211,1.546,1.546,0,0,1,0-3.093H17.656a1.105,1.105,0,1,0,0-2.211H13.533l-.394-2.555h5.923a5.277,5.277,0,0,1,4.154,2.005s1.251,1.611,1.464,1.918c1.024,1.475,2.425,3.494,5.505,3.494h.566V45.951h-1.71Zm25.345,2.726-7.22.068V44.653a1.105,1.105,0,1,0-2.211,0v4.1H32.962V30.831H44.957v4.1a1.105,1.105,0,0,0,2.211,0V30.583l7.22-1.858Z" transform="translate(0 -0.186)"/>
          </g>
        </g>
      </g>
    </g>
  </g>
</svg>
