<svg xmlns="http://www.w3.org/2000/svg" xmlns:xlink="http://www.w3.org/1999/xlink" width="106.16" height="106.16" viewBox="0 0 106.16 106.16">
  <defs>
    <filter id="Path_982547" x="0" y="0" width="106.16" height="106.16" filterUnits="userSpaceOnUse">
      <feOffset dy="3" input="SourceAlpha"/>
      <feGaussianBlur stdDeviation="3" result="blur"/>
      <feFlood flood-opacity="0.161"/>
      <feComposite operator="in" in2="blur"/>
      <feComposite in="SourceGraphic"/>
    </filter>
  </defs>
  <g id="Group_1228585" data-name="Group 1228585" transform="translate(-609.92 -4013.984)">
    <g id="Group_1228425" data-name="Group 1228425">
      <g id="Group_1228142" data-name="Group 1228142" transform="translate(-1 2290.916)">
        <g id="Group_1206131" data-name="Group 1206131" transform="translate(0 -58.931)">
          <g id="Group_1203663" data-name="Group 1203663" transform="translate(0 -4797.878)">
            <g id="Group_1203345" data-name="Group 1203345" transform="translate(338.92 5174.875)">
              <g id="Group_1177900" data-name="Group 1177900" transform="translate(281 1411.003)">
                <g id="Group_1172010" data-name="Group 1172010" transform="translate(0)">
                  <g id="Group_1171046" data-name="Group 1171046">
                    <g id="Group_1148525" data-name="Group 1148525">
                      <g transform="matrix(1, 0, 0, 1, -9, -6)" filter="url(#Path_982547)">
                        <g id="Path_982547-2" data-name="Path 982547" transform="translate(9 6)" fill="#e9f9fd">
                          <path d="M 44.0802001953125 86.660400390625 C 38.33124923706055 86.660400390625 32.75506210327148 85.53479766845703 27.50652503967285 83.31484985351562 C 22.43628692626953 81.17032623291016 17.88242530822754 78.09992218017578 13.97144985198975 74.18894958496094 C 10.06047534942627 70.27797698974609 6.99007511138916 65.72411346435547 4.845550060272217 60.65387344360352 C 2.625600099563599 55.40533828735352 1.500000238418579 49.82915115356445 1.500000238418579 44.0802001953125 C 1.500000238418579 38.33124923706055 2.625600099563599 32.75506210327148 4.845550060272217 27.50652503967285 C 6.99007511138916 22.43628692626953 10.06047534942627 17.88242530822754 13.97144985198975 13.97144985198975 C 17.88242530822754 10.06047534942627 22.43628692626953 6.99007511138916 27.50652503967285 4.845550060272217 C 32.75506210327148 2.625600099563599 38.33124923706055 1.500000238418579 44.0802001953125 1.500000238418579 C 49.82915115356445 1.500000238418579 55.40533828735352 2.625600099563599 60.65387344360352 4.845550060272217 C 65.72411346435547 6.99007511138916 70.27797698974609 10.06047534942627 74.18894958496094 13.97144985198975 C 78.09992218017578 17.88242530822754 81.17032623291016 22.43628692626953 83.31484985351562 27.50652503967285 C 85.53479766845703 32.75506210327148 86.660400390625 38.33124923706055 86.660400390625 44.0802001953125 C 86.660400390625 49.82915115356445 85.53479766845703 55.40533828735352 83.31484985351562 60.65387344360352 C 81.17032623291016 65.72411346435547 78.09992218017578 70.27797698974609 74.18894958496094 74.18894958496094 C 70.27797698974609 78.09992218017578 65.72411346435547 81.17032623291016 60.65387344360352 83.31484985351562 C 55.40533828735352 85.53479766845703 49.82915115356445 86.660400390625 44.0802001953125 86.660400390625 Z" stroke="none"/>
                          <path d="M 44.0802001953125 3 C 38.53308486938477 3 33.15349960327148 4.085746765136719 28.09085845947266 6.227058410644531 C 23.19941711425781 8.29595947265625 18.80581665039062 11.25841522216797 15.03211212158203 15.03211212158203 C 11.25841522216797 18.80581665039062 8.29595947265625 23.19941711425781 6.227058410644531 28.09085845947266 C 4.085746765136719 33.15349960327148 3 38.53308486938477 3 44.0802001953125 C 3 49.62731552124023 4.085746765136719 55.00691604614258 6.227058410644531 60.06954193115234 C 8.29595947265625 64.96098327636719 11.25841522216797 69.35458374023438 15.03211212158203 73.12828826904297 C 18.80581665039062 76.90198516845703 23.19941711425781 79.86444091796875 28.09085845947266 81.93334197998047 C 33.15349960327148 84.07466125488281 38.53308486938477 85.160400390625 44.0802001953125 85.160400390625 C 49.62731552124023 85.160400390625 55.00691604614258 84.07466125488281 60.06954193115234 81.93334197998047 C 64.96099853515625 79.86444091796875 69.35458374023438 76.90198516845703 73.12828826904297 73.12828826904297 C 76.90198516845703 69.35458374023438 79.86444091796875 64.96099853515625 81.93334197998047 60.06954193115234 C 84.07466125488281 55.00691604614258 85.160400390625 49.62731552124023 85.160400390625 44.0802001953125 C 85.160400390625 38.53308486938477 84.07466125488281 33.15349960327148 81.93334197998047 28.09085845947266 C 79.86444091796875 23.19941711425781 76.90198516845703 18.80581665039062 73.12828826904297 15.03211212158203 C 69.35458374023438 11.25841522216797 64.96098327636719 8.29595947265625 60.06954193115234 6.227058410644531 C 55.00691604614258 4.085746765136719 49.62731552124023 3 44.0802001953125 3 M 44.0802001953125 0 C 68.42502593994141 0 88.160400390625 19.73538970947266 88.160400390625 44.0802001953125 C 88.160400390625 68.42502593994141 68.42502593994141 88.160400390625 44.0802001953125 88.160400390625 C 19.73538970947266 88.160400390625 0 68.42502593994141 0 44.0802001953125 C 0 19.73538970947266 19.73538970947266 0 44.0802001953125 0 Z" stroke="none" fill="#1d7083"/>
                        </g>
                      </g>
                    </g>
                  </g>
                </g>
              </g>
            </g>
          </g>
        </g>
      </g>
      <g id="empleado-del-mes" transform="translate(633.331 4033.585)">
        <g id="Group_1228423" data-name="Group 1228423" transform="translate(0.971 0.926)">
          <g id="Group_1228420" data-name="Group 1228420">
            <circle id="Ellipse_13433" data-name="Ellipse 13433" cx="25.211" cy="25.211" r="25.211" fill="#98db7c"/>
          </g>
          <path id="Path_1210958" data-name="Path 1210958" d="M51.433,233.558A25.209,25.209,0,0,1,8.418,216.773a25.209,25.209,0,1,0,50.376,0A25.119,25.119,0,0,1,51.433,233.558Z" transform="translate(-8.396 -192.604)" fill="#82d361"/>
          <path id="Path_1210959" data-name="Path 1210959" d="M124.517,214.076v-3.484a2.951,2.951,0,0,0-.3-.015,2.9,2.9,0,1,0,.591,5.737A8.7,8.7,0,0,1,124.517,214.076Z" transform="translate(-108.245 -187.126)" fill="#f4b184"/>
          <path id="Path_1210960" data-name="Path 1210960" d="M297.2,210.577a2.916,2.916,0,0,0-.3.015v3.484a8.7,8.7,0,0,1-.291,2.237,2.9,2.9,0,1,0,.591-5.737Z" transform="translate(-263.246 -187.126)" fill="#f4b184"/>
          <path id="Path_1210961" data-name="Path 1210961" d="M124.218,228.472a2.9,2.9,0,0,1-2.7-1.857,2.9,2.9,0,0,0,3.3,3.88,8.7,8.7,0,0,1-.288-2.039A2.943,2.943,0,0,1,124.218,228.472Z" transform="translate(-108.245 -201.307)" fill="#eaa678"/>
          <path id="Path_1210962" data-name="Path 1210962" d="M297.2,228.472a2.944,2.944,0,0,1-.3-.016,8.7,8.7,0,0,1-.288,2.039,2.9,2.9,0,0,0,3.3-3.88A2.9,2.9,0,0,1,297.2,228.472Z" transform="translate(-263.247 -201.307)" fill="#eaa678"/>
          <path id="Path_1210963" data-name="Path 1210963" d="M148.946,133.615v12.409a8.693,8.693,0,1,0,17.386,0V133.615Z" transform="translate(-132.674 -119.073)" fill="#ffc89f"/>
          <path id="Path_1210964" data-name="Path 1210964" d="M157.639,231.5a8.693,8.693,0,0,1-8.693-8.693v2.084a8.693,8.693,0,0,0,17.386,0v-2.084A8.693,8.693,0,0,1,157.639,231.5Z" transform="translate(-132.674 -197.939)" fill="#f7bc94"/>
          <path id="Path_1210965" data-name="Path 1210965" d="M121.158,315.9H114.8A10.711,10.711,0,0,0,104.1,326.345a25.238,25.238,0,0,0,27.774.323v-.06A10.711,10.711,0,0,0,121.158,315.9Z" transform="translate(-93.015 -280.253)" fill="#8bcaff"/>
          <path id="Path_1210966" data-name="Path 1210966" d="M104.318,389.455a10.727,10.727,0,0,0-.223,1.933,25.238,25.238,0,0,0,27.774.323v-.06a10.774,10.774,0,0,0-.171-1.914,25.242,25.242,0,0,1-27.38-.281Z" transform="translate(-93.015 -345.296)" fill="#60b8ff"/>
          <path id="Path_1210967" data-name="Path 1210967" d="M131.148,93.652c-1.723-.961-3.32-3.758-3.32-3.758a7.164,7.164,0,0,1-5.27,3.418,4.072,4.072,0,0,0-.9-3.038A10.391,10.391,0,0,1,114,93.781a1.675,1.675,0,0,1-.438-.07c-2.275-.678-4.4-3.392-4.4-3.392,3.294.1,4.39-1.981,4.39-1.981a3.465,3.465,0,0,1-3.6-3.282c5.075.644,6.091-2.278,10.567-3.565a8.049,8.049,0,0,1,7.645,2.037s4.536-.426,4.925,4.076c.372,4.3-1.94,6.047-1.94,6.047" transform="translate(-97.491 -72.722)" fill="#7b7179"/>
          <g id="Group_1228421" data-name="Group 1228421" transform="translate(11.666 14.736)">
            <path id="Path_1210968" data-name="Path 1210968" d="M121.777,148.3a.579.579,0,0,0-.963-.491A10.384,10.384,0,0,1,114,150.467a1.676,1.676,0,0,1-.438-.07A7.523,7.523,0,0,1,111,148.889a6.313,6.313,0,0,1-1.844.2s2.126,2.714,4.4,3.392a1.675,1.675,0,0,0,.438.07,10.391,10.391,0,0,0,7.661-3.507A7.266,7.266,0,0,0,121.777,148.3Z" transform="translate(-109.157 -146.227)" fill="#726a71"/>
            <path id="Path_1210969" data-name="Path 1210969" d="M228.545,135.29a6.574,6.574,0,0,1-1.57,3.771.574.574,0,0,1-.758.081,11.357,11.357,0,0,1-2.455-2.763.578.578,0,0,0-.927-.045c-1.91,2.3-5.706,1.773-5.706,1.773a4.072,4.072,0,0,1,.9,3.038,7.164,7.164,0,0,0,5.27-3.418s1.6,2.8,3.32,3.758c0,0,2.364-1.782,1.926-6.194Z" transform="translate(-204.63 -135.29)" fill="#726a71"/>
          </g>
          <path id="Path_1210970" data-name="Path 1210970" d="M204.593,319.665h-3.9l-.851-3.768h5.6Z" transform="translate(-177.678 -280.253)" fill="#c61926"/>
          <path id="Path_1210971" data-name="Path 1210971" d="M191.89,359.141a25.357,25.357,0,0,0,7.454.072l-1.783-10.767h-3.9Z" transform="translate(-170.646 -309.034)" fill="#ff4755"/>
          <path id="Path_1210972" data-name="Path 1210972" d="M192.225,423.287l-.336,2.031a25.357,25.357,0,0,0,7.454.072l-.338-2.039A25.355,25.355,0,0,1,192.225,423.287Z" transform="translate(-170.645 -375.211)" fill="#fc2b3a"/>
          <circle id="Ellipse_13434" data-name="Ellipse 13434" cx="10.45" cy="10.45" r="10.45" transform="translate(32.094 46.97) rotate(-45)" fill="#ff4755"/>
          <path id="Path_1210973" data-name="Path 1210973" d="M333.527,414.139a10.451,10.451,0,0,1-10.4-9.408q-.051.514-.052,1.042a10.45,10.45,0,1,0,20.9,0q0-.527-.052-1.042A10.451,10.451,0,0,1,333.527,414.139Z" transform="translate(-286.646 -358.803)" fill="#fc2b3a"/>
          <path id="Path_1210974" data-name="Path 1210974" d="M372.931,364.717l.9,1.832a.99.99,0,0,0,.745.541l2.022.294a.99.99,0,0,1,.549,1.688l-1.463,1.426a.99.99,0,0,0-.285.876l.345,2.014a.99.99,0,0,1-1.436,1.043l-1.808-.951a.99.99,0,0,0-.921,0l-1.808.951a.99.99,0,0,1-1.436-1.043l.345-2.014a.99.99,0,0,0-.285-.876l-1.463-1.426a.99.99,0,0,1,.549-1.688l2.022-.294a.99.99,0,0,0,.745-.541l.9-1.832A.99.99,0,0,1,372.931,364.717Z" transform="translate(-325.163 -322.934)" fill="#fff5f5"/>
          <g id="Group_1228422" data-name="Group 1228422" transform="translate(43.161 48.35)">
            <path id="Path_1210975" data-name="Path 1210975" d="M388.583,427.445l-3.191-1.677a.99.99,0,0,0-.921,0l-3.191,1.677-.054.314a.99.99,0,0,0,1.436,1.043l1.808-.951a.99.99,0,0,1,.921,0l1.808.951a.99.99,0,0,0,1.436-1.043Z" transform="translate(-381.212 -425.654)" fill="#efe2dd"/>
          </g>
        </g>
        <g id="Group_1228424" data-name="Group 1228424" transform="translate(0 0)">
          <path id="Path_1210976" data-name="Path 1210976" d="M50.064,36.8A26.142,26.142,0,0,0,26.167,0,26.021,26.021,0,0,0,7.662,7.653a26.476,26.476,0,0,0-2.5,2.89.871.871,0,0,0,1.4,1.039,24.466,24.466,0,0,1,36.885-2.7,24.371,24.371,0,0,1,4.8,27.713c-.107,0-.215,0-.323,0a11.352,11.352,0,0,0-9.024,4.462A11.714,11.714,0,0,0,31.154,35.9a9.628,9.628,0,0,0,3.819-4.852,3.774,3.774,0,0,0,.543-7.5V22.22a8.011,8.011,0,0,0,1.942-6.512A5.113,5.113,0,0,0,35.7,12.06a5.99,5.99,0,0,0-3.722-1.242,8.824,8.824,0,0,0-8.249-2,16.653,16.653,0,0,0-4.263,2c-1.758,1.065-3.147,1.906-5.99,1.546a.871.871,0,0,0-.979.922,4.433,4.433,0,0,0,2.627,3.8,4.789,4.789,0,0,1-2.528.545.87.87,0,0,0-.712,1.406,12.646,12.646,0,0,0,4.437,3.552v.95a3.774,3.774,0,0,0,.543,7.5A9.628,9.628,0,0,0,20.686,35.9a11.592,11.592,0,0,0-5.768,2.833.871.871,0,1,0,1.172,1.287,9.857,9.857,0,0,1,6.325-2.555l.661,2.924-1.607,9.689A24.417,24.417,0,0,1,12.882,46.6,9.857,9.857,0,0,1,14.1,42.521a.871.871,0,0,0-1.522-.847,11.583,11.583,0,0,0-1.313,3.783,24.576,24.576,0,0,1-2.37-2.08A24.155,24.155,0,0,1,1.961,29.424,24.539,24.539,0,0,1,4.737,14.409a.871.871,0,0,0-1.528-.837A26.29,26.29,0,0,0,.235,29.658,26.157,26.157,0,0,0,22.144,51.951a26.592,26.592,0,0,0,4.062.313,26.014,26.014,0,0,0,10.546-2.232,11.368,11.368,0,0,0,17.04,7.606.87.87,0,1,0-.9-1.488,9.606,9.606,0,1,1,2.423-2.085.871.871,0,0,0,1.34,1.112A11.335,11.335,0,0,0,50.064,36.8ZM36.983,27.272a2.037,2.037,0,0,1-1.567,1.977,9.592,9.592,0,0,0,.1-1.376V25.32a2.037,2.037,0,0,1,1.467,1.952Zm-22.124,0a2.037,2.037,0,0,1,1.467-1.952v2.554a9.594,9.594,0,0,0,.1,1.376A2.037,2.037,0,0,1,14.859,27.272ZM17.452,21.1a.811.811,0,0,1-.212-.034A7.713,7.713,0,0,1,14.408,19.2a5.052,5.052,0,0,0,3.343-2.281.87.87,0,0,0-.8-1.275,2.388,2.388,0,0,1-2.446-1.459,9.8,9.8,0,0,0,5.867-1.881,14.988,14.988,0,0,1,3.841-1.815,7.143,7.143,0,0,1,6.8,1.805.879.879,0,0,0,.709.266,4.879,4.879,0,0,1,1.981.314,3.186,3.186,0,0,1,2.015,2.979,7.31,7.31,0,0,1-.684,4.069,4.89,4.89,0,0,1-.507.783,12.829,12.829,0,0,1-2.462-3.065.871.871,0,0,0-.757-.439H31.3a.872.872,0,0,0-.756.457,5.958,5.958,0,0,1-3.631,2.761A5.526,5.526,0,0,0,25.786,17.9a.872.872,0,0,0-.656-.311.854.854,0,0,0-.664.293A9.541,9.541,0,0,1,17.452,21.1Zm.616,6.773V22.821a11.494,11.494,0,0,0,6.887-2.958,2.426,2.426,0,0,1,.215,1.457.871.871,0,0,0,.932,1.047,8.329,8.329,0,0,0,5.189-2.717,11.446,11.446,0,0,0,2.481,2.668v5.556a7.852,7.852,0,0,1-15.7,0Zm9.573,9.58-.46,2.035H24.66l-.46-2.035Zm-1.47,13.077a24.458,24.458,0,0,1-2.981-.183L24.7,41.229h2.436L28.66,50.4A24.411,24.411,0,0,1,26.171,50.531Zm10.384-2.6q0,.138,0,.276a24.447,24.447,0,0,1-6.172,1.956l-1.622-9.779.661-2.925a9.937,9.937,0,0,1,8.413,5.24,11.256,11.256,0,0,0-1.283,5.232Z" transform="translate(0 0)"/>
          <path id="Path_1210977" data-name="Path 1210977" d="M371.515,363.274a1.861,1.861,0,0,0-1.033-3.175l-2.029-.294a.122.122,0,0,1-.092-.067l-.907-1.836a1.866,1.866,0,0,0-3.344,0l-.907,1.836a.122.122,0,0,1-.092.067l-2.029.294a1.861,1.861,0,0,0-1.033,3.175l1.468,1.429a.121.121,0,0,1,.035.108l-.347,2.018a1.866,1.866,0,0,0,1.836,2.178,1.867,1.867,0,0,0,.869-.216l1.815-.953a.122.122,0,0,1,.113,0l1.815.953a1.864,1.864,0,0,0,2.705-1.962l-.347-2.018a.121.121,0,0,1,.035-.108Zm-2.685.183a1.859,1.859,0,0,0-.536,1.648l.347,2.018a.122.122,0,0,1-.177.128l-1.815-.953a1.866,1.866,0,0,0-1.735,0l-1.815.953a.122.122,0,0,1-.177-.128l.347-2.018a1.86,1.86,0,0,0-.536-1.648l-1.468-1.429a.122.122,0,0,1,.068-.208l2.029-.294a1.864,1.864,0,0,0,1.4-1.018l.907-1.836a.122.122,0,0,1,.219,0l.907,1.836a1.863,1.863,0,0,0,1.4,1.018l2.029.294a.122.122,0,0,1,.068.208Z" transform="translate(-317.868 -315.551)"/>
          <path id="Path_1210978" data-name="Path 1210978" d="M199.287,249.777a3.573,3.573,0,0,0,3.351-1.807.872.872,0,1,0-1.557-.78c-.4.837-1.738.847-1.794.847s-1.393-.01-1.8-.849a.872.872,0,1,0-1.555.782A3.572,3.572,0,0,0,199.287,249.777Z" transform="translate(-173.153 -218.114)"/>
          <path id="Path_1210979" data-name="Path 1210979" d="M180.739,202.973a.871.871,0,0,0-.871.87V205.8a.871.871,0,0,0,1.743,0v-1.953A.871.871,0,0,0,180.739,202.973Z" transform="translate(-159.045 -179.476)"/>
          <path id="Path_1210980" data-name="Path 1210980" d="M253.769,206.665a.871.871,0,0,0,.871-.87v-1.953a.871.871,0,0,0-1.742,0v1.953A.871.871,0,0,0,253.769,206.665Z" transform="translate(-223.621 -179.475)"/>
        </g>
      </g>
    </g>
  </g>
</svg>
