<svg xmlns="http://www.w3.org/2000/svg" xmlns:xlink="http://www.w3.org/1999/xlink" width="113" height="113" viewBox="0 0 113 113">
  <defs>
    <filter id="Path_982547" x="0" y="0" width="113" height="113" filterUnits="userSpaceOnUse">
      <feOffset dy="3" input="SourceAlpha"/>
      <feGaussianBlur stdDeviation="3" result="blur"/>
      <feFlood flood-opacity="0.161"/>
      <feComposite operator="in" in2="blur"/>
      <feComposite in="SourceGraphic"/>
    </filter>
  </defs>
  <g id="Group_1228599" data-name="Group 1228599" transform="translate(-376 -4630.5)">
    <g id="Group_1228522" data-name="Group 1228522">
      <g id="Group_1228165" data-name="Group 1228165" transform="translate(0 2821)">
        <g id="Group_1223802" data-name="Group 1223802" transform="translate(385 1815.5)">
          <g id="Group_1208028" data-name="Group 1208028" transform="translate(0 0)">
            <g id="Group_1177675" data-name="Group 1177675" transform="translate(0 0)">
              <g id="Group_1176928" data-name="Group 1176928" transform="translate(0 0)">
                <g id="Group_1172322" data-name="Group 1172322" transform="translate(0 0)">
                  <g id="Group_1164700" data-name="Group 1164700">
                    <g id="Group_1160931" data-name="Group 1160931">
                      <g id="Group_1160749" data-name="Group 1160749">
                        <g id="Group_1158891" data-name="Group 1158891">
                          <g id="Group_1157406" data-name="Group 1157406">
                            <g id="Group_1155793" data-name="Group 1155793">
                              <g id="Group_1154704" data-name="Group 1154704">
                                <g id="Group_1150790" data-name="Group 1150790">
                                  <g id="Group_1154214" data-name="Group 1154214" transform="translate(0)">
                                    <g id="Group_1152583" data-name="Group 1152583">
                                      <g id="Group_1146973" data-name="Group 1146973">
                                        <g id="Group_1146954" data-name="Group 1146954">
                                          <g transform="matrix(1, 0, 0, 1, -9, -6)" filter="url(#Path_982547)">
                                            <g id="Path_982547-2" data-name="Path 982547" transform="translate(9 6)" fill="#ffe1b9">
                                              <path d="M 47.50000762939453 93.49986267089844 C 41.28937911987305 93.49986267089844 35.26534271240234 92.28383636474609 29.59519386291504 89.88558197021484 C 24.11772727966309 87.56880950927734 19.19814109802246 84.25183868408203 14.97310066223145 80.02679443359375 C 10.74804782867432 75.8017578125 7.431074142456055 70.88218688964844 5.114300727844238 65.40471649169922 C 2.716034412384033 59.73458480834961 1.500007629394531 53.71054458618164 1.500007629394531 47.49993133544922 C 1.500007629394531 41.2893180847168 2.716034412384033 35.26527786254883 5.114300727844238 29.59514427185059 C 7.431074142456055 24.11767768859863 10.74804782867432 19.19810485839844 14.97310066223145 14.97306442260742 C 19.19814109802246 10.74802494049072 24.11772727966309 7.431051254272461 29.59519386291504 5.114277839660645 C 35.26534271240234 2.71602463722229 41.28937911987305 1.499997973442078 47.50000762939453 1.499997973442078 C 53.71063613891602 1.499997973442078 59.73467254638672 2.71602463722229 65.40482330322266 5.114277839660645 C 70.88228607177734 7.431051254272461 75.80187225341797 10.74802494049072 80.02691650390625 14.97306442260742 C 84.25196838378906 19.19810485839844 87.56893920898438 24.11767768859863 89.88571166992188 29.59514427185059 C 92.28398132324219 35.26527786254883 93.50000762939453 41.2893180847168 93.50000762939453 47.49993133544922 C 93.50000762939453 53.71054458618164 92.28398132324219 59.73458480834961 89.88571166992188 65.40471649169922 C 87.56893920898438 70.88218688964844 84.25196838378906 75.8017578125 80.02691650390625 80.02679443359375 C 75.80187225341797 84.25183868408203 70.88228607177734 87.56880950927734 65.40482330322266 89.88558197021484 C 59.73467254638672 92.28383636474609 53.71063613891602 93.49986267089844 47.50000762939453 93.49986267089844 Z" stroke="none"/>
                                              <path d="M 47.50000762939453 2.999992370605469 C 41.4912223815918 2.999992370605469 35.66377639770508 4.1761474609375 30.17951202392578 6.495796203613281 C 24.88085174560547 8.736930847167969 20.12152862548828 11.94596099853516 16.03376007080078 16.03372955322266 C 11.94597625732422 20.12148284912109 8.736961364746094 24.88080596923828 6.495803833007812 30.17946624755859 C 4.176162719726562 35.66371536254883 3.000007629394531 41.49116134643555 3.000007629394531 47.49993133544922 C 3.000007629394531 53.50870132446289 4.176162719726562 59.33614730834961 6.495803833007812 64.82038879394531 C 8.736961364746094 70.11905670166016 11.94597625732422 74.87836456298828 16.03376007080078 78.96613311767578 C 20.12152862548828 83.05390167236328 24.88085174560547 86.26291656494141 30.17951202392578 88.50406646728516 C 35.66377639770508 90.82369995117188 41.4912223815918 91.99985504150391 47.50000762939453 91.99985504150391 C 53.50879287719727 91.99985504150391 59.33623886108398 90.82369995117188 64.82049560546875 88.50406646728516 C 70.11916351318359 86.26291656494141 74.87848663330078 83.05390167236328 78.96625518798828 78.96613311767578 C 83.05403900146484 74.87836456298828 86.26305389404297 70.11905670166016 88.50421142578125 64.82038879394531 C 90.8238525390625 59.33614730834961 92.00000762939453 53.50870132446289 92.00000762939453 47.49993133544922 C 92.00000762939453 41.49116134643555 90.8238525390625 35.66371536254883 88.50421142578125 30.17946624755859 C 86.26305389404297 24.88080596923828 83.05403900146484 20.12148284912109 78.96625518798828 16.03372955322266 C 74.87848663330078 11.94596099853516 70.11916351318359 8.736930847167969 64.82049560546875 6.495796203613281 C 59.33623886108398 4.1761474609375 53.50879287719727 2.999992370605469 47.50000762939453 2.999992370605469 M 47.50000762939453 -7.62939453125e-06 C 73.73352813720703 -7.62939453125e-06 95.00000762939453 21.26644134521484 95.00000762939453 47.49993133544922 C 95.00000762939453 73.73342132568359 73.73352813720703 94.99985504150391 47.50000762939453 94.99985504150391 C 21.26648712158203 94.99985504150391 7.62939453125e-06 73.73342132568359 7.62939453125e-06 47.49993133544922 C 7.62939453125e-06 21.26644134521484 21.26648712158203 -7.62939453125e-06 47.50000762939453 -7.62939453125e-06 Z" stroke="none" fill="#ff9d1c"/>
                                            </g>
                                          </g>
                                        </g>
                                      </g>
                                    </g>
                                  </g>
                                </g>
                              </g>
                            </g>
                          </g>
                        </g>
                      </g>
                    </g>
                  </g>
                </g>
              </g>
            </g>
          </g>
        </g>
      </g>
      <g id="logro_3_" data-name="logro (3)" transform="translate(406.787 4650.98)">
        <g id="Group_1228513" data-name="Group 1228513" transform="translate(0.994 2.039)">
          <path id="Path_1211131" data-name="Path 1211131" d="M4.5,9.229V58.6a4.105,4.105,0,0,0,4.091,4.1H45.964a4.105,4.105,0,0,0,4.091-4.1V9.229a4.105,4.105,0,0,0-4.091-4.1H8.591A4.105,4.105,0,0,0,4.5,9.229Z" transform="translate(-4.5 -5.134)" fill="#eaf6ff" fill-rule="evenodd"/>
        </g>
        <g id="Group_1228514" data-name="Group 1228514" transform="translate(5.712 42.876)">
          <path id="Path_1211132" data-name="Path 1211132" d="M42.7,335.816H53.088V346.2H42.7Z" transform="translate(-42.705 -335.816)" fill="#ffd301" fill-rule="evenodd"/>
        </g>
        <g id="Group_1228515" data-name="Group 1228515" transform="translate(5.712 26.822)">
          <path id="Path_1211133" data-name="Path 1211133" d="M42.7,205.815H53.088v10.379H42.7Z" transform="translate(-42.705 -205.815)" fill="#ffd301" fill-rule="evenodd"/>
        </g>
        <g id="Group_1228516" data-name="Group 1228516" transform="translate(5.712 10.768)">
          <path id="Path_1211134" data-name="Path 1211134" d="M42.7,75.814H53.088V86.2H42.7Z" transform="translate(-42.705 -75.814)" fill="#ffd301" fill-rule="evenodd"/>
        </g>
        <g id="Group_1228517" data-name="Group 1228517" transform="translate(26.425 38.43)">
          <path id="Path_1211135" data-name="Path 1211135" d="M223.219,325.385A12.785,12.785,0,1,0,210.434,312.6,12.808,12.808,0,0,0,223.219,325.385Z" transform="translate(-210.434 -299.816)" fill="#fd646f" fill-rule="evenodd"/>
        </g>
        <g id="Group_1228518" data-name="Group 1228518" transform="translate(30.896 42.654)">
          <path id="Path_1211136" data-name="Path 1211136" d="M254.949,350.645a8.314,8.314,0,1,0-8.314-8.314A8.329,8.329,0,0,0,254.949,350.645Z" transform="translate(-246.635 -334.017)" fill="#f5f5f5" fill-rule="evenodd"/>
        </g>
        <g id="Group_1228519" data-name="Group 1228519" transform="translate(35.413 47.171)">
          <path id="Path_1211137" data-name="Path 1211137" d="M287.006,378.187a3.8,3.8,0,1,0-3.8-3.8A3.8,3.8,0,0,0,287.006,378.187Z" transform="translate(-283.209 -370.592)" fill="#fd646f" fill-rule="evenodd"/>
        </g>
        <g id="Group_1228520" data-name="Group 1228520" transform="translate(29.459 47.509)">
          <path id="Path_1211138" data-name="Path 1211138" d="M256.919,376.113A13.066,13.066,0,0,1,235,385.727a12.788,12.788,0,0,0,21.619-12.391A13.035,13.035,0,0,1,256.919,376.113Z" transform="translate(-235.002 -373.336)" fill="#eb4954" fill-rule="evenodd"/>
        </g>
        <g id="Group_1228521" data-name="Group 1228521" transform="translate(53.619 36.868)">
          <path id="Path_1211139" data-name="Path 1211139" d="M430.633,292.979v-3.592l3.847-2.221v3.592l3.114,1.8-3.847,2.221Z" transform="translate(-430.633 -287.166)" fill="#fac149" fill-rule="evenodd"/>
        </g>
        <path id="Path_1211140" data-name="Path 1211140" d="M5.035,42.74a.863.863,0,0,1,.863-.863h7.151a.863.863,0,0,1,0,1.726H6.76v8.51h8.51V46.772a.863.863,0,1,1,1.726,0v6.2a.863.863,0,0,1-.863.863H5.9a.863.863,0,0,1-.863-.863ZM18.63,39.712a.863.863,0,0,0-1.213.134l-6.573,8.21L9.082,45.238a.863.863,0,1,0-1.463.915L10.026,50a.864.864,0,0,0,.682.4h.05a.863.863,0,0,0,.674-.324l7.333-9.16A.863.863,0,0,0,18.63,39.712ZM5.035,37.143a.863.863,0,0,0,.863.863H16.134A.863.863,0,0,0,17,37.143v-6.2a.863.863,0,1,0-1.726,0v5.342H6.76V27.77h6.289a.863.863,0,0,0,0-1.726H5.9a.863.863,0,0,0-.863.863Zm13.6-13.261a.863.863,0,0,0-1.213.134l-6.573,8.207L9.082,29.406a.863.863,0,1,0-1.463.915l2.407,3.85a.863.863,0,0,0,.681.4l.05,0a.863.863,0,0,0,.673-.324L18.764,25.1a.863.863,0,0,0-.134-1.213Zm7.943,34.488H5.4a3.179,3.179,0,0,1-3.176-3.176V6.5A3.179,3.179,0,0,1,5.4,3.329H42.256A3.179,3.179,0,0,1,45.431,6.5v31.17a.863.863,0,1,0,1.726,0V6.5a4.907,4.907,0,0,0-4.9-4.9H5.4A4.907,4.907,0,0,0,.5,6.5v48.69a4.907,4.907,0,0,0,4.9,4.9H26.573a.863.863,0,0,0,0-1.726ZM13.049,11.937a.863.863,0,0,0,0-1.726H5.9a.863.863,0,0,0-.863.863v10.24a.863.863,0,0,0,.863.863H16.134A.863.863,0,0,0,17,21.314V15.106a.863.863,0,1,0-1.726,0v5.345H6.76V11.937ZM18.63,8.05a.863.863,0,0,0-1.213.134l-6.573,8.208L9.082,13.576a.863.863,0,1,0-1.463.915l2.407,3.847a.863.863,0,0,0,.681.4h.05a.863.863,0,0,0,.673-.324l7.333-9.157A.863.863,0,0,0,18.63,8.05Zm21.075,2.162H22.255a.863.863,0,0,0,0,1.726h17.45a.863.863,0,0,0,0-1.726Zm0,4.618H22.255a.863.863,0,0,0,0,1.726h17.45a.863.863,0,0,0,0-1.726Zm0,11.215H22.255a.863.863,0,0,0,0,1.726h17.45a.863.863,0,0,0,0-1.726Zm.863,5.481a.863.863,0,0,0-.863-.863H22.255a.863.863,0,0,0,0,1.726h17.45A.863.863,0,0,0,40.568,31.526ZM27.408,42.74a.863.863,0,0,0-.863-.863h-4.29a.863.863,0,0,0,0,1.726h4.29A.863.863,0,0,0,27.408,42.74ZM22.255,46.5a.863.863,0,0,0,0,1.726H24.54a.863.863,0,0,0,0-1.726Zm40.918-8.388-3.9,2.251,1.777,1.027a.863.863,0,0,1,0,1.494l-3.794,2.19a.862.862,0,0,1-.863,0l-2.639-1.525-2.5,1.445a13.509,13.509,0,1,1-.865-1.493L52.89,42.05V39.006a.863.863,0,0,1,.431-.747l3.794-2.191a.863.863,0,0,1,1.294.747v2.048l3.9-2.251a.863.863,0,0,1,.863,1.495ZM49.752,45.854,47.419,47.2a9.092,9.092,0,1,1-.865-1.493l2.333-1.347a11.684,11.684,0,1,0,.866,1.493ZM38.285,50.482l2.841-1.64a2.882,2.882,0,1,0,.864,1.494l-2.842,1.641a.863.863,0,1,1-.863-1.495Zm4.378-2.528,2.39-1.38a7.318,7.318,0,1,0,.865,1.494l-2.389,1.379a4.622,4.622,0,1,1-.865-1.493Zm16.23-5.823-1.769-1.023,0,0,0,0-.021-.014c-.024-.015-.049-.03-.072-.048L57,41.019c-.02-.016-.039-.033-.058-.051s-.022-.025-.033-.038-.028-.03-.041-.047a.877.877,0,0,1-.063-.094h0a.875.875,0,0,1-.046-.092l-.01-.024c-.01-.025-.019-.05-.026-.076l-.007-.025a.86.86,0,0,1-.019-.1v-.006a.85.85,0,0,1-.007-.106s0,0,0-.007V38.31L54.616,39.5V42.05l2.208,1.276Z" transform="translate(0 0)"/>
      </g>
    </g>
  </g>
</svg>
