<svg xmlns="http://www.w3.org/2000/svg" xmlns:xlink="http://www.w3.org/1999/xlink" width="113" height="113" viewBox="0 0 113 113">
  <defs>
    <filter id="Path_982547" x="0" y="0" width="113" height="113" filterUnits="userSpaceOnUse">
      <feOffset dy="3" input="SourceAlpha"/>
      <feGaussianBlur stdDeviation="3" result="blur"/>
      <feFlood flood-opacity="0.161"/>
      <feComposite operator="in" in2="blur"/>
      <feComposite in="SourceGraphic"/>
    </filter>
  </defs>
  <g id="Group_1228600" data-name="Group 1228600" transform="translate(-691 -4630.5)">
    <g id="Group_1228524" data-name="Group 1228524">
      <g id="Group_1228166" data-name="Group 1228166" transform="translate(-1 2821)">
        <g id="Group_1223803" data-name="Group 1223803" transform="translate(701 1815.5)">
          <g id="Group_1208038" data-name="Group 1208038" transform="translate(0 0)">
            <g id="Group_1202104" data-name="Group 1202104">
              <g id="Group_1201923" data-name="Group 1201923" transform="translate(0 0)">
                <g id="Group_1176928" data-name="Group 1176928" transform="translate(0 0)">
                  <g id="Group_1172322" data-name="Group 1172322" transform="translate(0 0)">
                    <g id="Group_1164700" data-name="Group 1164700">
                      <g id="Group_1160931" data-name="Group 1160931">
                        <g id="Group_1160749" data-name="Group 1160749">
                          <g id="Group_1158891" data-name="Group 1158891">
                            <g id="Group_1157406" data-name="Group 1157406">
                              <g id="Group_1155793" data-name="Group 1155793">
                                <g id="Group_1154704" data-name="Group 1154704">
                                  <g id="Group_1150790" data-name="Group 1150790">
                                    <g id="Group_1154214" data-name="Group 1154214" transform="translate(0)">
                                      <g id="Group_1152583" data-name="Group 1152583">
                                        <g id="Group_1146973" data-name="Group 1146973">
                                          <g id="Group_1146954" data-name="Group 1146954">
                                            <g transform="matrix(1, 0, 0, 1, -9, -6)" filter="url(#Path_982547)">
                                              <g id="Path_982547-2" data-name="Path 982547" transform="translate(9 6)" fill="#ffe1b9">
                                                <path d="M 47.50000762939453 93.49986267089844 C 41.28937911987305 93.49986267089844 35.26534271240234 92.28383636474609 29.59519386291504 89.88558197021484 C 24.11772727966309 87.56880950927734 19.19814109802246 84.25183868408203 14.97310066223145 80.02679443359375 C 10.74804782867432 75.8017578125 7.431074142456055 70.88218688964844 5.114300727844238 65.40471649169922 C 2.716034412384033 59.73458480834961 1.500007629394531 53.71054458618164 1.500007629394531 47.49993133544922 C 1.500007629394531 41.2893180847168 2.716034412384033 35.26527786254883 5.114300727844238 29.59514427185059 C 7.431074142456055 24.11767768859863 10.74804782867432 19.19810485839844 14.97310066223145 14.97306442260742 C 19.19814109802246 10.74802494049072 24.11772727966309 7.431051254272461 29.59519386291504 5.114277839660645 C 35.26534271240234 2.71602463722229 41.28937911987305 1.499997973442078 47.50000762939453 1.499997973442078 C 53.71063613891602 1.499997973442078 59.73467254638672 2.71602463722229 65.40482330322266 5.114277839660645 C 70.88228607177734 7.431051254272461 75.80187225341797 10.74802494049072 80.02691650390625 14.97306442260742 C 84.25196838378906 19.19810485839844 87.56893920898438 24.11767768859863 89.88571166992188 29.59514427185059 C 92.28398132324219 35.26527786254883 93.50000762939453 41.2893180847168 93.50000762939453 47.49993133544922 C 93.50000762939453 53.71054458618164 92.28398132324219 59.73458480834961 89.88571166992188 65.40471649169922 C 87.56893920898438 70.88218688964844 84.25196838378906 75.8017578125 80.02691650390625 80.02679443359375 C 75.80187225341797 84.25183868408203 70.88228607177734 87.56880950927734 65.40482330322266 89.88558197021484 C 59.73467254638672 92.28383636474609 53.71063613891602 93.49986267089844 47.50000762939453 93.49986267089844 Z" stroke="none"/>
                                                <path d="M 47.50000762939453 2.999992370605469 C 41.4912223815918 2.999992370605469 35.66377639770508 4.1761474609375 30.17951202392578 6.495796203613281 C 24.88085174560547 8.736930847167969 20.12152862548828 11.94596099853516 16.03376007080078 16.03372955322266 C 11.94597625732422 20.12148284912109 8.736961364746094 24.88080596923828 6.495803833007812 30.17946624755859 C 4.176162719726562 35.66371536254883 3.000007629394531 41.49116134643555 3.000007629394531 47.49993133544922 C 3.000007629394531 53.50870132446289 4.176162719726562 59.33614730834961 6.495803833007812 64.82038879394531 C 8.736961364746094 70.11905670166016 11.94597625732422 74.87836456298828 16.03376007080078 78.96613311767578 C 20.12152862548828 83.05390167236328 24.88085174560547 86.26291656494141 30.17951202392578 88.50406646728516 C 35.66377639770508 90.82369995117188 41.4912223815918 91.99985504150391 47.50000762939453 91.99985504150391 C 53.50879287719727 91.99985504150391 59.33623886108398 90.82369995117188 64.82049560546875 88.50406646728516 C 70.11916351318359 86.26291656494141 74.87848663330078 83.05390167236328 78.96625518798828 78.96613311767578 C 83.05403900146484 74.87836456298828 86.26305389404297 70.11905670166016 88.50421142578125 64.82038879394531 C 90.8238525390625 59.33614730834961 92.00000762939453 53.50870132446289 92.00000762939453 47.49993133544922 C 92.00000762939453 41.49116134643555 90.8238525390625 35.66371536254883 88.50421142578125 30.17946624755859 C 86.26305389404297 24.88080596923828 83.05403900146484 20.12148284912109 78.96625518798828 16.03372955322266 C 74.87848663330078 11.94596099853516 70.11916351318359 8.736930847167969 64.82049560546875 6.495796203613281 C 59.33623886108398 4.1761474609375 53.50879287719727 2.999992370605469 47.50000762939453 2.999992370605469 M 47.50000762939453 -7.62939453125e-06 C 73.73352813720703 -7.62939453125e-06 95.00000762939453 21.26644134521484 95.00000762939453 47.49993133544922 C 95.00000762939453 73.73342132568359 73.73352813720703 94.99985504150391 47.50000762939453 94.99985504150391 C 21.26648712158203 94.99985504150391 7.62939453125e-06 73.73342132568359 7.62939453125e-06 47.49993133544922 C 7.62939453125e-06 21.26644134521484 21.26648712158203 -7.62939453125e-06 47.50000762939453 -7.62939453125e-06 Z" stroke="none" fill="#ff9d1c"/>
                                              </g>
                                            </g>
                                          </g>
                                        </g>
                                      </g>
                                    </g>
                                  </g>
                                </g>
                              </g>
                            </g>
                          </g>
                        </g>
                      </g>
                    </g>
                  </g>
                </g>
              </g>
            </g>
          </g>
        </g>
      </g>
      <g id="habilidades-de-liderazgo" transform="translate(690.569 4608.279)">
        <g id="Group_1228523" data-name="Group 1228523" transform="translate(24.812 47.818)">
          <path id="Path_1211141" data-name="Path 1211141" d="M162.965,172.23c6.341,0,12.541,5.441,11.477,11.958l-.645,3.962,3.584,2.49-3.85,2.675v1.89a2.711,2.711,0,0,1-2.7,2.7h-3.949v3.017h-9.611v-6.361a12.046,12.046,0,0,1-5.777-10.375,11.722,11.722,0,0,1,11.475-11.96Z" transform="translate(-133.991 -158.682)" fill="#f58667" fill-rule="evenodd"/>
          <path id="Path_1211142" data-name="Path 1211142" d="M192.473,172.23c6.341,0,12.541,5.441,11.477,11.958l-.645,3.962,3.584,2.49-3.707,2.576c-.112,0-.222,0-.333,0A16.847,16.847,0,0,1,186,176.373a16.679,16.679,0,0,1,.136-2.153A11.1,11.1,0,0,1,192.473,172.23Z" transform="translate(-163.499 -158.682)" fill="#f8a57d" fill-rule="evenodd"/>
          <path id="Path_1211143" data-name="Path 1211143" d="M179.682,370.17h10.951a1.2,1.2,0,0,1,1.192,1.192v1.628a1.2,1.2,0,0,1-1.192,1.192H179.682a1.2,1.2,0,0,1-1.192-1.192v-1.628A1.2,1.2,0,0,1,179.682,370.17Z" transform="translate(-157.077 -327.927)" fill="#34c6f4" fill-rule="evenodd"/>
          <path id="Path_1211144" data-name="Path 1211144" d="M191.834,384v.813A1.2,1.2,0,0,1,190.642,386H179.692a1.2,1.2,0,0,1-1.192-1.192V384Z" transform="translate(-157.086 -339.752)" fill="#243e90" fill-rule="evenodd"/>
          <path id="Path_1211145" data-name="Path 1211145" d="M46.642,93.613l-1,1a.647.647,0,0,1-.912,0l-.773-.773a7.373,7.373,0,0,1-2.82,1.167V96.1a.648.648,0,0,1-.645.645H39.085a.646.646,0,0,1-.645-.645V95.006a7.354,7.354,0,0,1-2.82-1.167l-.773.773a.652.652,0,0,1-.916,0l-.994-1a.639.639,0,0,1,0-.912l.773-.773a7.306,7.306,0,0,1-1.167-2.82H31.449a.649.649,0,0,1-.649-.645V87.055a.65.65,0,0,1,.649-.649h1.093a7.3,7.3,0,0,1,1.167-2.815l-.773-.777a.639.639,0,0,1,0-.912l.994-1a.652.652,0,0,1,.916,0l.773.777a7.361,7.361,0,0,1,2.82-1.171V79.415a.646.646,0,0,1,.645-.645h1.409a.648.648,0,0,1,.645.645v1.093a7.4,7.4,0,0,1,2.82,1.171l.773-.777a.647.647,0,0,1,.912,0l1,1a.647.647,0,0,1,0,.912l-.773.777a7.3,7.3,0,0,1,1.167,2.815h1.093a.647.647,0,0,1,.645.649v1.409a.646.646,0,0,1-.645.645H47.036a7.324,7.324,0,0,1-1.167,2.82l.773.773a.647.647,0,0,1,0,.912Z" transform="translate(-30.797 -78.77)" fill="#333" fill-rule="evenodd"/>
          <path id="Path_1211146" data-name="Path 1211146" d="M44.471,84.914a7.091,7.091,0,0,1,.723-1.324l-.773-.777a.639.639,0,0,1,0-.912l.994-1a.652.652,0,0,1,.916,0l.773.777a7.361,7.361,0,0,1,2.82-1.171V79.415a.646.646,0,0,1,.645-.645h1.409a.648.648,0,0,1,.645.645v1.093a7.4,7.4,0,0,1,2.82,1.171l.773-.777a.647.647,0,0,1,.912,0l1,1a.647.647,0,0,1,0,.912l-.773.777a7.3,7.3,0,0,1,1.167,2.815h1.093a.647.647,0,0,1,.645.649v1.409a.646.646,0,0,1-.645.645H58.521a7.278,7.278,0,0,1-.842,2.3,12.991,12.991,0,0,1-2.058.164A12.651,12.651,0,0,1,44.471,84.914Z" transform="translate(-42.28 -78.77)" fill="#474748" fill-rule="evenodd"/>
          <path id="Path_1211147" data-name="Path 1211147" d="M65.8,109.18a4.578,4.578,0,1,1-4.578,4.578A4.576,4.576,0,0,1,65.8,109.18Z" transform="translate(-56.807 -104.772)" fill="#b3b4b4" fill-rule="evenodd"/>
          <path id="Path_1211148" data-name="Path 1211148" d="M80.077,109.18a4.583,4.583,0,0,1,4.2,6.406,4.581,4.581,0,0,1-5.978-6.045A4.524,4.524,0,0,1,80.077,109.18Z" transform="translate(-71.087 -104.772)" fill="#c2c2c1" fill-rule="evenodd"/>
          <path id="Path_1211149" data-name="Path 1211149" d="M355.385,83.11a7.017,7.017,0,0,1,7.015,7.015c0,5.528-3.5,5.277-4.011,9.537h-6.007c-.509-4.262-4.011-4.011-4.011-9.537A7.016,7.016,0,0,1,355.385,83.11Z" transform="translate(-302.331 -82.481)" fill="#fbbd13" fill-rule="evenodd"/>
          <path id="Path_1211150" data-name="Path 1211150" d="M355.315,107.04h-2.934c-.509-4.262-4.011-4.011-4.011-9.537a7.008,7.008,0,0,1,2.959-5.725,6.9,6.9,0,0,1,.715-.038,7.021,7.021,0,0,1,7.019,7.019c0,4.916-2.778,5.261-3.747,8.28Z" transform="translate(-302.331 -89.86)" fill="#fcd800" fill-rule="evenodd"/>
          <path id="Path_1211151" data-name="Path 1211151" d="M382.7,226.74h4.076v1.068a1.072,1.072,0,0,1-1.068,1.068h-1.94a1.072,1.072,0,0,1-1.068-1.068Z" transform="translate(-331.684 -205.289)" fill="#464647" fill-rule="evenodd"/>
          <path id="Path_1211152" data-name="Path 1211152" d="M386.776,234.11a1.072,1.072,0,0,1-1.068,1.068h-1.94a1.072,1.072,0,0,1-1.068-1.068Z" transform="translate(-331.684 -211.591)" fill="#191919" fill-rule="evenodd"/>
          <path id="Path_1211153" data-name="Path 1211153" d="M375.948,214.137h4.208a1.068,1.068,0,0,0,0-2.137h-4.208a1.068,1.068,0,1,0,0,2.137Z" transform="translate(-324.998 -192.686)" fill="#848585" fill-rule="evenodd"/>
          <path id="Path_1211154" data-name="Path 1211154" d="M375.948,220.438h4.208a1.072,1.072,0,0,0,1.068-1.068H374.88A1.071,1.071,0,0,0,375.948,220.438Z" transform="translate(-324.998 -198.988)" fill="#686868" fill-rule="evenodd"/>
          <path id="Path_1211155" data-name="Path 1211155" d="M371.008,197.28h5.633a1.066,1.066,0,1,1,0,2.132h-5.633a1.066,1.066,0,1,1,0-2.132Z" transform="translate(-320.774 -180.1)" fill="#848585" fill-rule="evenodd"/>
          <path id="Path_1211156" data-name="Path 1211156" d="M377.72,204.65a1.068,1.068,0,0,1-1.068,1.064h-5.633a1.068,1.068,0,0,1-1.068-1.064Z" transform="translate(-320.782 -186.402)" fill="#686868" fill-rule="evenodd"/>
          <path id="Path_1211157" data-name="Path 1211157" d="M386.994,140.39a1.577,1.577,0,1,1-1.574,1.579A1.578,1.578,0,0,1,386.994,140.39Z" transform="translate(-334.01 -131.457)" fill="#ee2624" fill-rule="evenodd"/>
          <path id="Path_1211158" data-name="Path 1211158" d="M328.759,343.363h8.666a5.73,5.73,0,0,0,0-11.46h-8.666a5.8,5.8,0,0,0-1.035.094l-3.913-2.778,1.331,3.978a5.724,5.724,0,0,0,3.617,10.165Z" transform="translate(-280.664 -292.913)" fill="#d9e14b" fill-rule="evenodd"/>
          <path id="Path_1211159" data-name="Path 1211159" d="M328.759,393h8.666a5.745,5.745,0,0,0,5.728-5.728H323.03A5.746,5.746,0,0,0,328.759,393Z" transform="translate(-280.664 -342.548)" fill="#90c845" fill-rule="evenodd"/>
          <path id="Path_1211160" data-name="Path 1211160" d="M115.62,388.761l1.9-1.721,3.51,3.882-1.906,1.722Z" transform="translate(-103.321 -342.352)" fill="#b3b4b4" fill-rule="evenodd"/>
          <path id="Path_1211161" data-name="Path 1211161" d="M33.592,300.305a8.531,8.531,0,1,1-.609,12.048A8.531,8.531,0,0,1,33.592,300.305Z" transform="translate(-30.782 -266.31)" fill="#2a3382" fill-rule="evenodd"/>
          <path id="Path_1211162" data-name="Path 1211162" d="M51.167,318.073a5.855,5.855,0,1,1-.419,8.272A5.858,5.858,0,0,1,51.167,318.073Z" transform="translate(-46.561 -282.093)" fill="#34c6f4" fill-rule="evenodd"/>
          <path id="Path_1211163" data-name="Path 1211163" d="M52.418,318.073a5.853,5.853,0,0,1,9.405,2.289,5.794,5.794,0,0,1-1.713,2.773,5.856,5.856,0,0,1-9.41-2.289A5.868,5.868,0,0,1,52.418,318.073Z" transform="translate(-47.813 -282.093)" fill="#52c9f0" fill-rule="evenodd"/>
          <path id="Path_1211164" data-name="Path 1211164" d="M140.882,416.573l1.221-1.1a1.489,1.489,0,0,0,.107-2.1l-3.842-4.253a1.491,1.491,0,0,0-2.1-.107l-1.221,1.1a1.492,1.492,0,0,0-.107,2.1l3.842,4.253A1.488,1.488,0,0,0,140.882,416.573Z" transform="translate(-119.514 -360.81)" fill="#474748" fill-rule="evenodd"/>
          <path id="Path_1211165" data-name="Path 1211165" d="M140.882,422.081l.612-.551-5.835-6.46-.612.551a1.492,1.492,0,0,0-.107,2.1l3.842,4.253A1.489,1.489,0,0,0,140.882,422.081Z" transform="translate(-119.514 -366.318)" fill="#333" fill-rule="evenodd"/>
        </g>
        <path id="Path_1211166" data-name="Path 1211166" d="M44.018,53.5a1.012,1.012,0,1,1-.912-1.808,26.916,26.916,0,0,1,25.655.739,1.011,1.011,0,0,1-1.015,1.75A24.936,24.936,0,0,0,44.018,53.5ZM80.142,75.715a1.015,1.015,0,1,1,2.03,0A26.882,26.882,0,0,1,80.8,84.188a1.011,1.011,0,1,1-1.919-.633,24.669,24.669,0,0,0,1.258-7.84ZM66.623,97.86a1.012,1.012,0,0,1,.929,1.8,26.92,26.92,0,0,1-17.316,2.5,1.012,1.012,0,1,1,.371-1.989A24.917,24.917,0,0,0,66.623,97.86ZM30.434,77.552a1.013,1.013,0,1,1-2.021.141A26.93,26.93,0,0,1,29.58,67.629a1.014,1.014,0,0,1,1.935.6,24.867,24.867,0,0,0-1.081,9.318Zm15.142,25.215,1.109-1c.271-.271.262-.484.009-.777L42.95,96.841l0,0c-.271-.271-.481-.262-.773-.012l-1.151,1.039a.483.483,0,0,0-.033.67l3.805,4.216h0a.465.465,0,0,0,.358.193c.235.013.3-.094.419-.184Zm2.5.464L46.9,104.3l0,0a2.5,2.5,0,0,1-3.53-.1v0l-.033-.038L39.49,99.9a2.481,2.481,0,0,1-.591-2.182L37.85,96.557A9.539,9.539,0,0,1,26.3,94.576l0,0a.9.9,0,0,1-.1-.115,9.543,9.543,0,0,1,.71-13.367,1.529,1.529,0,0,1,.115-.1A9.541,9.541,0,0,1,41.25,93.48L42.3,94.639a2.522,2.522,0,0,1,2.083.773h0l.033.038,3.781,4.184.033.033h0a2.5,2.5,0,0,1-.1,3.534l0,0Zm-8-7.228.407-.365-.542-.6-.407.365ZM28.819,82.981A6.865,6.865,0,0,1,37.982,93.2l0,0a.932.932,0,0,1-.119.1,6.853,6.853,0,0,1-9.582-.522h-.006c-.036-.038-.07-.074-.1-.115a6.859,6.859,0,0,1,.526-9.582l0,0A1.363,1.363,0,0,1,28.819,82.981Zm4.774.329a4.846,4.846,0,0,0-3.436,1.183l-.025.025a4.845,4.845,0,0,0-.441,6.813l.02.02v0a4.845,4.845,0,0,0,6.813.441l.025-.025v0a4.849,4.849,0,0,0,.386-6.874A4.789,4.789,0,0,0,33.592,83.31Zm.136-2.676a7.5,7.5,0,0,0-5.362,1.874l-.025.025,0,0a7.531,7.531,0,0,0-.632,10.593l.025.025a7.52,7.52,0,1,0,6-12.512ZM72.236,91.77a1.015,1.015,0,1,1,0-2.03h5.346a1.015,1.015,0,1,1,0,2.03Zm0,3.563a1.013,1.013,0,1,1,0-2.025h8.986a1.013,1.013,0,1,1,0,2.025Zm.671,1.919h8.666a4.715,4.715,0,0,0,0-9.43H72.907c-.76,0-1.151.242-1.624-.094L69.9,86.75l.345,1.031a1.01,1.01,0,0,1-.316,1.106v0a4.713,4.713,0,0,0,2.975,8.362Zm8.666,2.03H72.907a6.753,6.753,0,0,1-6.094-9.629A6.984,6.984,0,0,1,68.119,87.8l-1.113-3.324A1.015,1.015,0,0,1,68.546,83.3l3.579,2.54c.054,0,.112-.012.168-.016.23-.02.435-.033.612-.033h8.666a6.745,6.745,0,0,1,0,13.49ZM78.881,46a1.015,1.015,0,1,1-2.03,0V43.585a1.015,1.015,0,0,1,2.03,0ZM87.63,56.779a1.015,1.015,0,1,1,0-2.03h2.417a1.015,1.015,0,0,1,0,2.03Zm-2.145-7.2a1.015,1.015,0,0,1-1.434-1.438l1.709-1.709a1.015,1.015,0,1,1,1.434,1.438ZM68.1,54.75a1.015,1.015,0,1,1,0,2.03H65.686a1.015,1.015,0,1,1,0-2.03Zm3.575-6.608a1.015,1.015,0,0,1-1.434,1.438l-1.709-1.709a1.015,1.015,0,1,1,1.434-1.438Zm6.119,7.6a2.593,2.593,0,0,1,1.832,4.421,2.673,2.673,0,0,1-.818.551v3.27h1.2c.88-3.792,3.85-3.776,3.85-8.518a6,6,0,1,0-12,0c0,4.742,2.97,4.726,3.846,8.518h1.068v-3.27A2.59,2.59,0,0,1,77.8,55.74Zm.4,2.195a.559.559,0,0,0-.793.789A.559.559,0,0,0,78.2,57.935Zm3.8,6.513a2.085,2.085,0,0,1,0,3.243,2.091,2.091,0,0,1-1.068,2.367,2.161,2.161,0,0,1-.612,1.751,2.078,2.078,0,0,1-1.471.612H76.9a2.088,2.088,0,0,1-2.083-2.083v-.28a2.085,2.085,0,0,1-1.068-2.367,2.084,2.084,0,0,1-.009-3.243c-.752-3.123-3.9-3.436-3.9-8.984a8.03,8.03,0,1,1,16.059,0c0,5.548-3.149,5.86-3.9,8.984Zm-2.022,3.7H75.761c-.036,0-.132.1.065.1h4.142a.051.051,0,0,0,0-.1Zm.712-2.137H75.048a.054.054,0,0,0,0,.107h5.633a.054.054,0,0,0,0-.107ZM78.89,70.283H76.843c0,.029-.009.107.054.107l1.976-.016ZM33.8,51.211A5.593,5.593,0,1,1,28.21,56.8,5.593,5.593,0,0,1,33.8,51.211Zm2.519,3.075a3.563,3.563,0,1,0,0,5.039,3.567,3.567,0,0,0,0-5.039Zm5.053,9.094-1,1a1.665,1.665,0,0,1-2.347,0l-.21-.21a8.573,8.573,0,0,1-1.653.683,1.8,1.8,0,0,1-.484,1.471,1.669,1.669,0,0,1-1.176.484H33.1a1.666,1.666,0,0,1-1.66-1.66v-.3l-.842-.3v0c-.28-.115-.547-.246-.809-.386a1.78,1.78,0,0,1-1.384.694,1.653,1.653,0,0,1-1.171-.489h0l-1-1a1.657,1.657,0,0,1,0-2.347l.21-.213a8.248,8.248,0,0,1-.683-1.648,1.78,1.78,0,0,1-1.471-.489A1.663,1.663,0,0,1,23.8,57.51V56.1a1.67,1.67,0,0,1,1.664-1.66h.3a8.481,8.481,0,0,1,.683-1.653,1.776,1.776,0,0,1-.694-1.384,1.653,1.653,0,0,1,.489-1.171h0l1-1a1.657,1.657,0,0,1,2.347,0v0l.21.21a8.285,8.285,0,0,1,1.653-.683,1.78,1.78,0,0,1,.489-1.471A1.655,1.655,0,0,1,33.1,46.8H34.51a1.673,1.673,0,0,1,1.66,1.664v.3a8.221,8.221,0,0,1,1.653.683,1.774,1.774,0,0,1,1.38-.694,1.663,1.663,0,0,1,1.176.489v0l1,1a1.665,1.665,0,0,1,0,2.347l-.213.21a8.066,8.066,0,0,1,.686,1.653,1.785,1.785,0,0,1,1.471.489,1.652,1.652,0,0,1,.486,1.171v1.409a1.661,1.661,0,0,1-1.66,1.66h-.3a8.482,8.482,0,0,1-.683,1.653,1.774,1.774,0,0,1,.694,1.38,1.663,1.663,0,0,1-.489,1.176Zm-2.173-.7.477-.477-.513-.509,0,0a1.007,1.007,0,0,1-.123-1.286,6.474,6.474,0,0,0,1-2.359,1.014,1.014,0,0,1,1.006-.9h.723v-.67h-.723v0a1.01,1.01,0,0,1-.994-.831,6.58,6.58,0,0,0-.954-2.35,1.016,1.016,0,0,1,.062-1.368l.513-.513-.477-.473-.513.509a1.013,1.013,0,0,1-1.286.119,6.49,6.49,0,0,0-2.359-.994,1.014,1.014,0,0,1-.9-1.006v-.728h-.671v.728h0a1.014,1.014,0,0,1-.831.994,6.5,6.5,0,0,0-2.35.95,1.009,1.009,0,0,1-1.368-.062l-.513-.509-.473.473.509.513v0a1.012,1.012,0,0,1,.119,1.286,6.41,6.41,0,0,0-.994,2.354,1.013,1.013,0,0,1-1.006.907H25.83v.67h.728v0a1.014,1.014,0,0,1,.994.831,6.526,6.526,0,0,0,.95,2.35,1.009,1.009,0,0,1-.062,1.368l-.509.509.473.477.513-.513v0a1.014,1.014,0,0,1,1.29-.123,6.256,6.256,0,0,0,1.167.636h0a6.464,6.464,0,0,0,1.192.361,1.014,1.014,0,0,1,.907,1.008v.723h.67v-.723h0a1.01,1.01,0,0,1,.831-.994,6.434,6.434,0,0,0,2.375-.974,1.011,1.011,0,0,1,1.339.083ZM49.1,89.05h7.582v-.99c-1.25,0-2.256.144-3.225-.826a2.809,2.809,0,0,1-.826-1.989,1.015,1.015,0,0,1,2.03,0,.787.787,0,0,0,.784.784h6.2a1.7,1.7,0,0,0,1.689-1.689V82.45a1.01,1.01,0,0,1,.435-.831l2.654-1.845-2.388-1.656a1.016,1.016,0,0,1-.419-.994l.645-3.965c.961-5.893-4.766-10.774-10.478-10.774A10.7,10.7,0,0,0,43.321,73.324a11.28,11.28,0,0,0,1.409,5.494,10.792,10.792,0,0,0,3.805,3.974,1.009,1.009,0,0,1,.562.907V89.05Zm9.613.025a2.213,2.213,0,0,1,1.861,2.182V92.88a2.212,2.212,0,0,1-2.206,2.206H47.418a2.209,2.209,0,0,1-2.206-2.206V91.257a2.213,2.213,0,0,1,1.861-2.182v-4.82A13.265,13.265,0,0,1,44.94,64.168,12.187,12.187,0,0,1,55.792,60.52c6.135,1,11.531,6.476,10.471,12.964l-.542,3.333,3.062,2.128a1.017,1.017,0,0,1-.016,1.677l-3.4,2.359v1.36a3.728,3.728,0,0,1-3.718,3.718H58.716v1.016Zm-.345,2H47.418a.182.182,0,0,0-.177.181V92.88a.181.181,0,0,0,.177.177H58.368a.181.181,0,0,0,.177-.177V91.257A.183.183,0,0,0,58.368,91.075Z" transform="translate(0 0)"/>
      </g>
    </g>
  </g>
</svg>
