<svg xmlns="http://www.w3.org/2000/svg" xmlns:xlink="http://www.w3.org/1999/xlink" width="108" height="108" viewBox="0 0 108 108">
  <defs>
    <filter id="Path_904820" x="0" y="0" width="108" height="108" filterUnits="userSpaceOnUse">
      <feOffset dy="3" input="SourceAlpha"/>
      <feGaussianBlur stdDeviation="3" result="blur"/>
      <feFlood flood-opacity="0.161"/>
      <feComposite operator="in" in2="blur"/>
      <feComposite in="SourceGraphic"/>
    </filter>
  </defs>
  <g id="Group_1228592" data-name="Group 1228592" transform="translate(-618.97 -1464)">
    <g id="Group_1228466" data-name="Group 1228466">
      <g id="Group_1228154" data-name="Group 1228154" transform="translate(627.97 1470)">
        <g id="Group_1203794" data-name="Group 1203794">
          <g id="Group_1203639" data-name="Group 1203639">
            <g id="Group_1202437" data-name="Group 1202437">
              <g id="Group_1177315" data-name="Group 1177315">
                <g id="Group_1173585" data-name="Group 1173585">
                  <g id="Group_1173428" data-name="Group 1173428" transform="translate(0 0)">
                    <g id="Group_1171958" data-name="Group 1171958">
                      <g id="Group_1167341" data-name="Group 1167341">
                        <g id="Group_1166792" data-name="Group 1166792">
                          <g transform="matrix(1, 0, 0, 1, -9, -6)" filter="url(#Path_904820)">
                            <g id="Path_904820-2" data-name="Path 904820" transform="translate(9 6)" fill="#f2f7e5">
                              <path d="M 44.99999618530273 88.49999237060547 C 39.12687301635742 88.49999237060547 33.43022155761719 87.35006713867188 28.06829643249512 85.08216857910156 C 22.88852119445801 82.89130401611328 18.23629570007324 79.75457763671875 14.24084663391113 75.75914001464844 C 10.24540901184082 71.76369476318359 7.108683586120605 67.11146545410156 4.917821407318115 61.93169403076172 C 2.649921178817749 56.56976699829102 1.499996185302734 50.87311553955078 1.499996185302734 44.99999237060547 C 1.499996185302734 39.12686920166016 2.649921178817749 33.43021774291992 4.917821407318115 28.06829261779785 C 7.108683586120605 22.88851737976074 10.24540901184082 18.23630523681641 14.24084663391113 14.24085521697998 C 18.23629570007324 10.24540519714355 22.88852119445801 7.108692169189453 28.06829643249512 4.917829990386963 C 33.43022155761719 2.649929761886597 39.12687301635742 1.500004887580872 44.99999618530273 1.500004887580872 C 50.87311935424805 1.500004887580872 56.56977081298828 2.649929761886597 61.93169784545898 4.917829990386963 C 67.11147308349609 7.108692169189453 71.76369476318359 10.24540519714355 75.75914764404297 14.24085521697998 C 79.75458526611328 18.23630523681641 82.89131164550781 22.88851737976074 85.08216857910156 28.06829261779785 C 87.35007476806641 33.43021774291992 88.5 39.12686920166016 88.5 44.99999237060547 C 88.5 50.87311553955078 87.35007476806641 56.56976699829102 85.08216857910156 61.93169403076172 C 82.89131164550781 67.11146545410156 79.75458526611328 71.76369476318359 75.75914764404297 75.75914001464844 C 71.76369476318359 79.75457763671875 67.11147308349609 82.89130401611328 61.93169784545898 85.08216857910156 C 56.56977081298828 87.35006713867188 50.87311935424805 88.49999237060547 44.99999618530273 88.49999237060547 Z" stroke="none"/>
                              <path d="M 44.99999618530273 2.999992370605469 C 39.32870864868164 2.999992370605469 33.82865142822266 4.11004638671875 28.65262603759766 6.299331665039062 C 23.65165710449219 8.414566040039062 19.15968322753906 11.44333648681641 15.301513671875 15.30150604248047 C 11.44333648681641 19.15967559814453 8.414566040039062 23.65164947509766 6.299339294433594 28.65262222290039 C 4.110054016113281 33.82864761352539 2.999992370605469 39.32870483398438 2.999992370605469 44.99999237060547 C 2.999992370605469 50.67127990722656 4.110054016113281 56.17132186889648 6.299339294433594 61.34736633300781 C 8.414566040039062 66.34833526611328 11.44333648681641 70.84029388427734 15.301513671875 74.69846343994141 C 19.15968322753906 78.55663299560547 23.65165710449219 81.58540344238281 28.65262603759766 83.70063781738281 C 33.82865142822266 85.88992309570312 39.32870864868164 86.99997711181641 44.99999618530273 86.99997711181641 C 50.67128372192383 86.99997711181641 56.17134094238281 85.88992309570312 61.34736633300781 83.70063781738281 C 66.34834289550781 81.58540344238281 70.84030914306641 78.55663299560547 74.69847869873047 74.69846343994141 C 78.55665588378906 70.84029388427734 81.58542633056641 66.34833526611328 83.70065307617188 61.34736633300781 C 85.88993835449219 56.17132186889648 87 50.67127990722656 87 44.99999237060547 C 87 39.32870483398438 85.88993835449219 33.82864761352539 83.70065307617188 28.65262222290039 C 81.58542633056641 23.65164947509766 78.55665588378906 19.15967559814453 74.69847869873047 15.30150604248047 C 70.84030914306641 11.44333648681641 66.34834289550781 8.414566040039062 61.34736633300781 6.299331665039062 C 56.17134094238281 4.11004638671875 50.67128372192383 2.999992370605469 44.99999618530273 2.999992370605469 M 44.99999618530273 -7.62939453125e-06 C 69.85281372070312 -7.62939453125e-06 90 20.14717864990234 90 44.99999237060547 C 90 69.85279083251953 69.85281372070312 89.99997711181641 44.99999618530273 89.99997711181641 C 20.14717864990234 89.99997711181641 -7.62939453125e-06 69.85279083251953 -7.62939453125e-06 44.99999237060547 C -7.62939453125e-06 20.14717864990234 20.14717864990234 -7.62939453125e-06 44.99999618530273 -7.62939453125e-06 Z" stroke="none" fill="#86b60c"/>
                            </g>
                          </g>
                        </g>
                      </g>
                    </g>
                  </g>
                </g>
              </g>
            </g>
          </g>
        </g>
      </g>
      <g id="gestion-de-equipos" transform="translate(641.236 1483.266)">
        <g id="Group_1228448" data-name="Group 1228448" transform="translate(0.93 0.93)">
          <path id="Path_1211016" data-name="Path 1211016" d="M69.108,41.179v-5.75L62.584,34.07a24.474,24.474,0,0,0-1.132-4.241l4.968-4.437-2.875-4.98L57.21,22.5a24.8,24.8,0,0,0-3.1-3.1L56.2,13.064l-4.98-2.875L46.78,15.157a24.467,24.467,0,0,0-4.241-1.133L41.179,7.5h-5.75L34.07,14.025a24.48,24.48,0,0,0-4.241,1.133l-4.437-4.968-4.98,2.875L22.5,19.4a24.787,24.787,0,0,0-3.1,3.1l-6.334-2.086-2.875,4.98,4.968,4.437a24.456,24.456,0,0,0-1.133,4.241L7.5,35.429v5.75l6.525,1.359a24.473,24.473,0,0,0,1.133,4.241l-4.968,4.437,2.875,4.98L19.4,54.11a24.787,24.787,0,0,0,3.1,3.1l-2.086,6.334,4.98,2.875,4.437-4.968a24.469,24.469,0,0,0,4.241,1.132l1.359,6.525h5.75l1.359-6.525a24.485,24.485,0,0,0,4.241-1.132l4.437,4.968,4.98-2.875L54.11,57.21a24.787,24.787,0,0,0,3.1-3.1L63.544,56.2l2.875-4.98L61.451,46.78a24.456,24.456,0,0,0,1.132-4.241ZM38.3,58.966A20.661,20.661,0,1,1,58.966,38.3,20.661,20.661,0,0,1,38.3,58.966Z" transform="translate(-7.5 -7.5)" fill="#d3effd"/>
        </g>
        <g id="Group_1228450" data-name="Group 1228450" transform="translate(13.842 13.842)">
          <g id="Group_1228449" data-name="Group 1228449">
            <path id="Path_1211017" data-name="Path 1211017" d="M160.36,132.43v-5.75l-6.525-1.359a24.474,24.474,0,0,0-1.133-4.241l4.968-4.437-2.875-4.98-5.869,1.933a27.853,27.853,0,0,1,1.166,13.691,20.875,20.875,0,0,1,.124,2.267,20.661,20.661,0,0,1-20.661,20.661,20.873,20.873,0,0,1-2.267-.124,27.855,27.855,0,0,1-13.691-1.166l-1.933,5.869,4.98,2.875,4.437-4.968a24.469,24.469,0,0,0,4.241,1.132l1.359,6.525h5.75l1.359-6.525a24.485,24.485,0,0,0,4.241-1.132l4.437,4.968,4.98-2.875-2.086-6.334a24.786,24.786,0,0,0,3.1-3.1l6.334,2.086,2.875-4.98-4.968-4.437a24.455,24.455,0,0,0,1.133-4.241Z" transform="translate(-111.664 -111.663)" fill="#b2e5fb"/>
          </g>
        </g>
        <g id="Group_1228464" data-name="Group 1228464" transform="translate(13.165 20.749)">
          <g id="Group_1228454" data-name="Group 1228454" transform="translate(20.923 2.877)">
            <g id="Group_1228451" data-name="Group 1228451" transform="translate(0 10.462)">
              <path id="Path_1211018" data-name="Path 1211018" d="M291.2,281.689V279.7a4.708,4.708,0,0,0-4.708-4.708h-6.8a4.708,4.708,0,0,0-4.708,4.708v13.465A20.709,20.709,0,0,0,291.2,281.689Z" transform="translate(-274.988 -274.989)" fill="#88f2a9"/>
            </g>
            <g id="Group_1228452" data-name="Group 1228452" transform="translate(2.877)">
              <circle id="Ellipse_13435" data-name="Ellipse 13435" cx="5.231" cy="5.231" r="5.231" fill="#fed2a4"/>
            </g>
            <g id="Group_1228453" data-name="Group 1228453" transform="translate(3.491 0.614)">
              <path id="Path_1211019" data-name="Path 1211019" d="M310.225,195.547a5.231,5.231,0,0,1-7.076,7.076,5.231,5.231,0,1,0,7.076-7.076Z" transform="translate(-303.149 -195.547)" fill="#ffbd86"/>
            </g>
          </g>
          <g id="Group_1228458" data-name="Group 1228458" transform="translate(0 2.877)">
            <g id="Group_1228455" data-name="Group 1228455" transform="translate(0 10.462)">
              <path id="Path_1211020" data-name="Path 1211020" d="M106.2,281.689V279.7a4.708,4.708,0,0,1,4.708-4.708h6.8a4.708,4.708,0,0,1,4.708,4.708v13.465A20.709,20.709,0,0,1,106.2,281.689Z" transform="translate(-106.202 -274.989)" fill="#88f2a9"/>
            </g>
            <g id="Group_1228456" data-name="Group 1228456" transform="translate(2.877)">
              <circle id="Ellipse_13436" data-name="Ellipse 13436" cx="5.231" cy="5.231" r="5.231" fill="#fed2a4"/>
            </g>
            <g id="Group_1228457" data-name="Group 1228457" transform="translate(3.491 0.614)">
              <path id="Path_1211021" data-name="Path 1211021" d="M134.362,202.623a5.231,5.231,0,0,0,7.076-7.076,5.231,5.231,0,1,1-7.076,7.076Z" transform="translate(-134.362 -195.547)" fill="#ffbd86"/>
            </g>
          </g>
          <g id="Group_1228463" data-name="Group 1228463" transform="translate(10.461)">
            <g id="Group_1228459" data-name="Group 1228459" transform="translate(0 10.461)">
              <path id="Path_1211022" data-name="Path 1211022" d="M206.81,256.488a4.708,4.708,0,0,0-4.708-4.708h-6.8a4.708,4.708,0,0,0-4.708,4.708v14.819a20.65,20.65,0,0,0,16.215,0Z" transform="translate(-190.595 -251.78)" fill="#62a4fb"/>
            </g>
            <g id="Group_1228460" data-name="Group 1228460" transform="translate(8.108 10.461)">
              <path id="Path_1211023" data-name="Path 1211023" d="M259.4,251.78H256a4.708,4.708,0,0,1,4.708,4.708v15.935a20.5,20.5,0,0,0,3.4-1.117V256.488A4.708,4.708,0,0,0,259.4,251.78Z" transform="translate(-256 -251.78)" fill="#5392f9"/>
            </g>
            <g id="Group_1228461" data-name="Group 1228461" transform="translate(2.877)">
              <circle id="Ellipse_13437" data-name="Ellipse 13437" cx="5.231" cy="5.231" r="5.231" fill="#fed2a4"/>
            </g>
            <g id="Group_1228462" data-name="Group 1228462" transform="translate(3.491 0.614)">
              <path id="Path_1211024" data-name="Path 1211024" d="M225.831,172.339a5.231,5.231,0,0,1-7.076,7.076,5.231,5.231,0,1,0,7.076-7.076Z" transform="translate(-218.755 -172.339)" fill="#ffbd86"/>
            </g>
          </g>
        </g>
        <g id="Group_1228465" data-name="Group 1228465" transform="translate(0 0)">
          <path id="Path_1211025" data-name="Path 1211025" d="M62.728,27.949l-5.914-1.232a25.449,25.449,0,0,0-.849-3.179l4.5-4.022a.93.93,0,0,0,.186-1.158l-2.875-4.98a.929.929,0,0,0-1.1-.418L50.94,14.851a25.8,25.8,0,0,0-2.323-2.323l1.892-5.743a.93.93,0,0,0-.418-1.1l-4.98-2.875A.93.93,0,0,0,43.953,3L39.931,7.5a25.507,25.507,0,0,0-3.179-.849L35.519.74a.93.93,0,0,0-.91-.74h-5.75a.93.93,0,0,0-.91.74L26.716,6.654a25.464,25.464,0,0,0-3.179.849L19.515,3a.93.93,0,0,0-1.158-.186l-4.98,2.875a.93.93,0,0,0-.418,1.1l1.892,5.743a25.8,25.8,0,0,0-2.323,2.323L6.785,12.959a.929.929,0,0,0-1.1.418l-2.875,4.98A.93.93,0,0,0,3,19.515l4.5,4.022a25.493,25.493,0,0,0-.849,3.179L.74,27.948a.93.93,0,0,0-.74.91v5.75a.93.93,0,0,0,.74.91l5.914,1.232A25.449,25.449,0,0,0,7.5,39.931L3,43.953a.93.93,0,0,0-.186,1.158l2.875,4.98a.929.929,0,0,0,1.1.418l5.743-1.892A25.8,25.8,0,0,0,14.85,50.94l-1.892,5.743a.93.93,0,0,0,.418,1.1l4.98,2.875a.93.93,0,0,0,1.158-.186l4.022-4.5a25.506,25.506,0,0,0,3.179.849l1.232,5.914a.93.93,0,0,0,.91.74h5.75a.93.93,0,0,0,.91-.74l1.232-5.914a25.464,25.464,0,0,0,3.179-.849l4.022,4.5a.93.93,0,0,0,1.158.186l4.98-2.875a.93.93,0,0,0,.418-1.1L48.617,50.94a25.8,25.8,0,0,0,2.323-2.323l5.743,1.892a.929.929,0,0,0,1.1-.418l2.875-4.98a.93.93,0,0,0-.186-1.158l-4.5-4.022a25.493,25.493,0,0,0,.849-3.179l5.914-1.232a.93.93,0,0,0,.74-.91v-5.75a.93.93,0,0,0-.74-.91Zm-1.119,5.9-5.784,1.205a.929.929,0,0,0-.726.751,23.6,23.6,0,0,1-1.09,4.08.93.93,0,0,0,.254,1.013l4.4,3.933-2.119,3.67-5.616-1.85a.929.929,0,0,0-1,.286,23.942,23.942,0,0,1-2.984,2.984.93.93,0,0,0-.286,1l1.85,5.616-3.67,2.119-3.933-4.4a.93.93,0,0,0-1.013-.254,23.6,23.6,0,0,1-4.08,1.09.93.93,0,0,0-.751.726l-1.205,5.784H29.615L28.41,55.824a.93.93,0,0,0-.751-.726,23.6,23.6,0,0,1-4.08-1.09.93.93,0,0,0-1.013.254l-3.933,4.4-3.67-2.119,1.85-5.616a.929.929,0,0,0-.286-1,23.943,23.943,0,0,1-2.984-2.984.93.93,0,0,0-1-.286l-5.616,1.85L4.8,44.836l4.4-3.933A.93.93,0,0,0,9.46,39.89a23.6,23.6,0,0,1-1.09-4.08.929.929,0,0,0-.726-.751l-5.784-1.2V29.615L7.644,28.41a.929.929,0,0,0,.726-.751,23.6,23.6,0,0,1,1.09-4.08.93.93,0,0,0-.254-1.013L4.8,18.632l2.119-3.67,5.616,1.85a.928.928,0,0,0,1-.286,23.943,23.943,0,0,1,2.984-2.984.93.93,0,0,0,.286-1l-1.85-5.616L18.632,4.8l3.933,4.4a.93.93,0,0,0,1.013.254,23.6,23.6,0,0,1,4.08-1.09.93.93,0,0,0,.751-.726l1.205-5.784h4.238l1.205,5.784a.93.93,0,0,0,.751.726,23.6,23.6,0,0,1,4.08,1.09A.93.93,0,0,0,40.9,9.206l3.933-4.4,3.67,2.119-1.85,5.616a.929.929,0,0,0,.286,1,23.942,23.942,0,0,1,2.984,2.984.93.93,0,0,0,1,.286l5.616-1.85,2.119,3.67-4.4,3.933a.93.93,0,0,0-.254,1.013,23.6,23.6,0,0,1,1.09,4.08.929.929,0,0,0,.726.751l5.784,1.2Z" transform="translate(0 0)"/>
          <path id="Path_1211026" data-name="Path 1211026" d="M125,103.411A21.631,21.631,0,0,0,120.2,89.829.93.93,0,1,0,118.751,91a19.745,19.745,0,0,1,3.757,17.386,5.654,5.654,0,0,0-4.307-3.472,6.156,6.156,0,1,0-8.785-8.625,6.159,6.159,0,0,0-12.01,0,6.156,6.156,0,1,0-8.785,8.625,5.654,5.654,0,0,0-4.307,3.472,19.733,19.733,0,0,1,31.509-20.314.93.93,0,1,0,1.171-1.445,21.588,21.588,0,0,0-32.98,26.26l.013.026a21.586,21.586,0,0,0,38.769,0l.013-.026A21.46,21.46,0,0,0,125,103.411Zm-11.13-7.178a4.3,4.3,0,1,1-4.3,4.3A4.306,4.306,0,0,1,113.873,96.234Zm-10.462-2.877a4.3,4.3,0,1,1-4.3,4.3A4.306,4.306,0,0,1,103.411,93.357ZM92.95,96.234a4.3,4.3,0,1,1-4.3,4.3A4.306,4.306,0,0,1,92.95,96.234Zm7.468,26.683V110.081a.93.93,0,1,0-1.859,0v12.458a19.564,19.564,0,0,1-2.325-.747v-7.156a.93.93,0,0,0-1.859,0v6.313a19.826,19.826,0,0,1-4.418-3.119V112.7a.93.93,0,1,0-1.859,0v3.143a19.791,19.791,0,0,1-2.325-3.592v-1.775a3.782,3.782,0,0,1,3.778-3.778h4.9a5.656,5.656,0,0,0-.073.9v2.7a.93.93,0,1,0,1.859,0v-2.7a3.782,3.782,0,0,1,3.777-3.778h6.8a3.782,3.782,0,0,1,3.777,3.778v6.691a.93.93,0,1,0,1.859,0V107.6a5.656,5.656,0,0,0-.073-.9h4.9a3.782,3.782,0,0,1,3.778,3.778v1.775a19.791,19.791,0,0,1-2.325,3.592V112.7a.93.93,0,1,0-1.859,0v5.134a19.825,19.825,0,0,1-4.418,3.119v-2.323a.93.93,0,1,0-1.859,0v3.165a19.567,19.567,0,0,1-2.325.747V110.081a.93.93,0,1,0-1.859,0v12.836a19.873,19.873,0,0,1-5.987,0Z" transform="translate(-71.678 -71.678)"/>
        </g>
      </g>
    </g>
  </g>
</svg>
