<svg xmlns="http://www.w3.org/2000/svg" xmlns:xlink="http://www.w3.org/1999/xlink" width="106.16" height="106.16" viewBox="0 0 106.16 106.16">
  <defs>
    <filter id="Path_982547" x="0" y="0" width="106.16" height="106.16" filterUnits="userSpaceOnUse">
      <feOffset dy="3" input="SourceAlpha"/>
      <feGaussianBlur stdDeviation="3" result="blur"/>
      <feFlood flood-opacity="0.161"/>
      <feComposite operator="in" in2="blur"/>
      <feComposite in="SourceGraphic"/>
    </filter>
  </defs>
  <g id="Group_1228587" data-name="Group 1228587" transform="translate(-189.92 -4183.121)">
    <g id="Group_1228446" data-name="Group 1228446">
      <g id="Group_1228143" data-name="Group 1228143" transform="translate(-1 2302.052)">
        <g id="Group_1206129" data-name="Group 1206129" transform="translate(0 -58.931)">
          <g id="Group_1203795" data-name="Group 1203795" transform="translate(0 -4639.878)">
            <g id="Group_1203344" data-name="Group 1203344" transform="translate(-81.08 5174.875)">
              <g id="Group_1177900" data-name="Group 1177900" transform="translate(281 1411.003)">
                <g id="Group_1172010" data-name="Group 1172010" transform="translate(0)">
                  <g id="Group_1171046" data-name="Group 1171046">
                    <g id="Group_1148525" data-name="Group 1148525">
                      <g transform="matrix(1, 0, 0, 1, -9, -6)" filter="url(#Path_982547)">
                        <g id="Path_982547-2" data-name="Path 982547" transform="translate(9 6)" fill="#e9f9fd">
                          <path d="M 44.0802001953125 86.660400390625 C 38.33124923706055 86.660400390625 32.75506210327148 85.53479766845703 27.50652503967285 83.31484985351562 C 22.43628692626953 81.17032623291016 17.88242530822754 78.09992218017578 13.97144985198975 74.18894958496094 C 10.06047534942627 70.27797698974609 6.99007511138916 65.72411346435547 4.845550060272217 60.65387344360352 C 2.625600099563599 55.40533828735352 1.500000238418579 49.82915115356445 1.500000238418579 44.0802001953125 C 1.500000238418579 38.33124923706055 2.625600099563599 32.75506210327148 4.845550060272217 27.50652503967285 C 6.99007511138916 22.43628692626953 10.06047534942627 17.88242530822754 13.97144985198975 13.97144985198975 C 17.88242530822754 10.06047534942627 22.43628692626953 6.99007511138916 27.50652503967285 4.845550060272217 C 32.75506210327148 2.625600099563599 38.33124923706055 1.500000238418579 44.0802001953125 1.500000238418579 C 49.82915115356445 1.500000238418579 55.40533828735352 2.625600099563599 60.65387344360352 4.845550060272217 C 65.72411346435547 6.99007511138916 70.27797698974609 10.06047534942627 74.18894958496094 13.97144985198975 C 78.09992218017578 17.88242530822754 81.17032623291016 22.43628692626953 83.31484985351562 27.50652503967285 C 85.53479766845703 32.75506210327148 86.660400390625 38.33124923706055 86.660400390625 44.0802001953125 C 86.660400390625 49.82915115356445 85.53479766845703 55.40533828735352 83.31484985351562 60.65387344360352 C 81.17032623291016 65.72411346435547 78.09992218017578 70.27797698974609 74.18894958496094 74.18894958496094 C 70.27797698974609 78.09992218017578 65.72411346435547 81.17032623291016 60.65387344360352 83.31484985351562 C 55.40533828735352 85.53479766845703 49.82915115356445 86.660400390625 44.0802001953125 86.660400390625 Z" stroke="none"/>
                          <path d="M 44.0802001953125 3 C 38.53308486938477 3 33.15349960327148 4.085746765136719 28.09085845947266 6.227058410644531 C 23.19941711425781 8.29595947265625 18.80581665039062 11.25841522216797 15.03211212158203 15.03211212158203 C 11.25841522216797 18.80581665039062 8.29595947265625 23.19941711425781 6.227058410644531 28.09085845947266 C 4.085746765136719 33.15349960327148 3 38.53308486938477 3 44.0802001953125 C 3 49.62731552124023 4.085746765136719 55.00691604614258 6.227058410644531 60.06954193115234 C 8.29595947265625 64.96098327636719 11.25841522216797 69.35458374023438 15.03211212158203 73.12828826904297 C 18.80581665039062 76.90198516845703 23.19941711425781 79.86444091796875 28.09085845947266 81.93334197998047 C 33.15349960327148 84.07466125488281 38.53308486938477 85.160400390625 44.0802001953125 85.160400390625 C 49.62731552124023 85.160400390625 55.00691604614258 84.07466125488281 60.06954193115234 81.93334197998047 C 64.96099853515625 79.86444091796875 69.35458374023438 76.90198516845703 73.12828826904297 73.12828826904297 C 76.90198516845703 69.35458374023438 79.86444091796875 64.96099853515625 81.93334197998047 60.06954193115234 C 84.07466125488281 55.00691604614258 85.160400390625 49.62731552124023 85.160400390625 44.0802001953125 C 85.160400390625 38.53308486938477 84.07466125488281 33.15349960327148 81.93334197998047 28.09085845947266 C 79.86444091796875 23.19941711425781 76.90198516845703 18.80581665039062 73.12828826904297 15.03211212158203 C 69.35458374023438 11.25841522216797 64.96098327636719 8.29595947265625 60.06954193115234 6.227058410644531 C 55.00691604614258 4.085746765136719 49.62731552124023 3 44.0802001953125 3 M 44.0802001953125 0 C 68.42502593994141 0 88.160400390625 19.73538970947266 88.160400390625 44.0802001953125 C 88.160400390625 68.42502593994141 68.42502593994141 88.160400390625 44.0802001953125 88.160400390625 C 19.73538970947266 88.160400390625 0 68.42502593994141 0 44.0802001953125 C 0 19.73538970947266 19.73538970947266 0 44.0802001953125 0 Z" stroke="none" fill="#1d7083"/>
                        </g>
                      </g>
                    </g>
                  </g>
                </g>
              </g>
            </g>
          </g>
        </g>
      </g>
      <g id="cognitivo" transform="translate(181.396 4191.3)">
        <g id="Group_1228445" data-name="Group 1228445" transform="translate(38.779 20.029)">
          <g id="Group_1228442" data-name="Group 1228442" transform="translate(23.939 0)">
            <path id="Path_1210992" data-name="Path 1210992" d="M263.558,96h2.96l1.4,3.625a18.667,18.667,0,0,1,5.466,2.266l3.552-1.578,4.186,4.186-1.577,3.551a18.664,18.664,0,0,1,2.267,5.467l3.624,1.395v5.92l-3.625,1.4a18.669,18.669,0,0,1-2.266,5.466l1.578,3.552-4.186,4.186-3.551-1.577a18.663,18.663,0,0,1-5.467,2.266l-1.395,3.624h-2.96V128.2a10.325,10.325,0,1,0,0-20.649Z" transform="translate(-263.558 -96)" fill="#ffe177" fill-rule="evenodd"/>
            <path id="Path_1210993" data-name="Path 1210993" d="M279.539,127.693l1.578,3.552-.566.566-1.475-3.321Q279.317,128.1,279.539,127.693Zm0-19.643a18.664,18.664,0,0,1,2.267,5.467l3.624,1.395v1.842l-3.624-1.395a24.848,24.848,0,0,0-2.73-6.264ZM263.557,96h2.96l1.4,3.625a18.666,18.666,0,0,1,5.466,2.266l3.552-1.578,4.186,4.186-.566,1.275-3.62-3.62-3.552,1.578a18.666,18.666,0,0,0-5.466-2.266l-1.4-3.625h-2.96V96Z" transform="translate(-263.557 -96)" fill="#ffd064" fill-rule="evenodd"/>
          </g>
          <g id="Group_1228443" data-name="Group 1228443" transform="translate(0 0)">
            <path id="Path_1210994" data-name="Path 1210994" d="M102.793,99.418A4.926,4.926,0,0,0,98.3,103.2a4.919,4.919,0,0,0-6.069,4.639,4.928,4.928,0,0,0-3.791,4.779,5.245,5.245,0,0,0,5.236,5.253h13.8a4.908,4.908,0,0,0,4.908-4.908V100.907a4.909,4.909,0,0,0-9.587-1.49Z" transform="translate(-88.441 -95.999)" fill="#fe646f" fill-rule="evenodd"/>
            <path id="Path_1210995" data-name="Path 1210995" d="M147.583,103.063a4.832,4.832,0,0,0-.513.046c.159.023.319.053.478.092C147.559,103.154,147.571,103.109,147.583,103.063Zm9.136,14.809h1.367a4.908,4.908,0,0,0,4.908-4.908V100.907a4.911,4.911,0,0,0-5.595-4.861,4.926,4.926,0,0,1,4.228,4.861v12.056A4.908,4.908,0,0,1,156.719,117.871Z" transform="translate(-139.055 -95.999)" fill="#fd4755" fill-rule="evenodd"/>
          </g>
          <g id="Group_1228444" data-name="Group 1228444" transform="translate(0 21.872)">
            <path id="Path_1210996" data-name="Path 1210996" d="M102.793,274.452a4.926,4.926,0,0,1-4.493-3.783,4.919,4.919,0,0,1-6.069-4.639,4.928,4.928,0,0,1-3.791-4.779A5.245,5.245,0,0,1,93.677,256h13.8a4.908,4.908,0,0,1,4.908,4.908v12.056a4.909,4.909,0,0,1-9.587,1.49Z" transform="translate(-88.441 -255.998)" fill="#fe646f" fill-rule="evenodd"/>
            <path id="Path_1210997" data-name="Path 1210997" d="M147.583,270.808a4.818,4.818,0,0,1-.513-.046c.159-.023.319-.053.478-.092C147.559,270.717,147.571,270.763,147.583,270.808ZM156.719,256h1.367a4.908,4.908,0,0,1,4.908,4.908v12.056a4.911,4.911,0,0,1-5.595,4.861,4.926,4.926,0,0,0,4.228-4.861V260.908A4.908,4.908,0,0,0,156.719,256Z" transform="translate(-139.055 -256)" fill="#fd4755" fill-rule="evenodd"/>
          </g>
        </g>
        <path id="Path_1210998" data-name="Path 1210998" d="M57.766,49.365a1.093,1.093,0,0,0-1.546-.042,3.789,3.789,0,0,1-3.614.917,3.835,3.835,0,0,1-2.767-3.006,1.094,1.094,0,0,0-2.153.391,6.021,6.021,0,0,0,5.925,4.936,5.965,5.965,0,0,0,4.114-1.65A1.093,1.093,0,0,0,57.766,49.365Zm.044,13.315a3.814,3.814,0,0,1-2.866-6.334A1.093,1.093,0,1,0,53.3,54.9a6.03,6.03,0,0,0-1.49,4.007A3.843,3.843,0,0,1,49.7,56.322a1.094,1.094,0,0,0-1.324-.812,3.666,3.666,0,0,1-3.344-6.371,1.094,1.094,0,0,0-1.4-1.677,6.023,6.023,0,0,0-1.921,2.946,3.853,3.853,0,0,1-1.838-3.253,4.156,4.156,0,0,1,4.142-4.159h9.161a6.041,6.041,0,0,0-.667,1,1.093,1.093,0,1,0,1.93,1.027,3.816,3.816,0,0,1,7.186,1.788V58.87A3.82,3.82,0,0,1,57.809,62.68ZM44.015,40.808h9.161a6.035,6.035,0,0,1-.667-1,1.093,1.093,0,1,1,1.93-1.027,3.816,3.816,0,0,0,7.186-1.789V24.931a3.816,3.816,0,1,0-6.681,2.525A1.093,1.093,0,1,1,53.3,28.9a6.026,6.026,0,0,1-1.49-4.007A3.846,3.846,0,0,0,49.7,27.481a1.094,1.094,0,0,1-1.324.812,3.74,3.74,0,0,0-.9-.11,3.639,3.639,0,0,0-2.444,6.481,1.094,1.094,0,0,1-1.4,1.677A6.029,6.029,0,0,1,41.71,33.4a3.849,3.849,0,0,0-1.838,3.252,4.156,4.156,0,0,0,4.142,4.16Zm19.8-19.685v9.414a11.417,11.417,0,0,1,0,22.73V62.68h1.116l1.125-2.923a1.089,1.089,0,0,1,.767-.671,17.56,17.56,0,0,0,5.147-2.134,1.09,1.09,0,0,1,1.018-.068l2.864,1.272,3.124-3.125L77.7,52.167a1.1,1.1,0,0,1,.068-1.017A17.563,17.563,0,0,0,79.9,46a1.1,1.1,0,0,1,.672-.767L83.5,44.111V39.692l-2.924-1.125a1.092,1.092,0,0,1-.67-.768,17.546,17.546,0,0,0-2.134-5.147,1.092,1.092,0,0,1-.068-1.017l1.271-2.865-3.124-3.124-2.865,1.273a1.093,1.093,0,0,1-1.017-.068,17.591,17.591,0,0,0-5.147-2.134,1.093,1.093,0,0,1-.767-.67l-1.125-2.924ZM61.257,41.9a6,6,0,0,1,2.554,4.908v4.255a9.229,9.229,0,0,0,0-18.328v4.256A6,6,0,0,1,61.257,41.9ZM57.809,64.867a5.978,5.978,0,0,1-5.462-3.508,6.058,6.058,0,0,1-4.456-3.568A6.023,6.023,0,0,1,41.55,52.76a6.067,6.067,0,0,1-3.864-5.606A6.349,6.349,0,0,1,40.466,41.9a6.349,6.349,0,0,1-2.781-5.253,6.067,6.067,0,0,1,3.864-5.606,6.026,6.026,0,0,1,6.342-5.032,6.062,6.062,0,0,1,4.456-3.568,6,6,0,0,1,9.276-2.135v-.277a1.094,1.094,0,0,1,1.094-1.094h2.959a1.092,1.092,0,0,1,1.02.7l1.192,3.1a19.687,19.687,0,0,1,4.723,1.959l3.034-1.348a1.094,1.094,0,0,1,1.218.226l4.186,4.186a1.1,1.1,0,0,1,.227,1.218l-1.348,3.033a19.691,19.691,0,0,1,1.957,4.723l3.1,1.192a1.092,1.092,0,0,1,.7,1.02v5.92a1.1,1.1,0,0,1-.7,1.021l-3.1,1.192A19.76,19.76,0,0,1,79.929,51.8l1.348,3.035a1.094,1.094,0,0,1-.227,1.217l-4.186,4.186a1.1,1.1,0,0,1-1.218.227l-3.034-1.348a19.726,19.726,0,0,1-4.723,1.959L66.7,64.166a1.1,1.1,0,0,1-1.022.7H62.718a1.094,1.094,0,0,1-1.094-1.094v-.279a5.973,5.973,0,0,1-3.815,1.372ZM47.462,66.7a1.094,1.094,0,0,1-.547,2.042,1.077,1.077,0,0,1-.544-.147A30.762,30.762,0,0,1,30.915,41.9a30.771,30.771,0,0,1,30.77-30.77c1,0,2.012.052,3.013.149l-1.448-1.4a1.093,1.093,0,1,1,1.52-1.571L68.7,12.114a1.094,1.094,0,0,1-.18,1.713l-4.639,2.9a1.082,1.082,0,0,1-.58.167,1.094,1.094,0,0,1-.582-2.021l2.2-1.376a28.586,28.586,0,0,0-17.46,53.2ZM88.188,26.261a30.773,30.773,0,0,1-26.5,46.409c-1.005,0-2.013-.051-3.013-.149l1.448,1.4A1.093,1.093,0,1,1,58.6,75.494l-3.933-3.807a1.092,1.092,0,0,1,.181-1.712l4.639-2.906a1.093,1.093,0,0,1,1.161,1.853l-2.2,1.377A28.586,28.586,0,0,0,75.908,17.1,1.093,1.093,0,1,1,77,15.206,30.95,30.95,0,0,1,88.188,26.261Zm-35.583,7.3a3.834,3.834,0,0,0-2.767,3.006,1.094,1.094,0,0,1-1.076.9,1,1,0,0,1-.195-.018,1.093,1.093,0,0,1-.882-1.271,6.035,6.035,0,0,1,4.354-4.727,5.966,5.966,0,0,1,5.684,1.443,1.093,1.093,0,1,1-1.5,1.587A3.8,3.8,0,0,0,52.605,33.561Z" transform="translate(0)" fill-rule="evenodd"/>
      </g>
    </g>
  </g>
</svg>
