<svg xmlns="http://www.w3.org/2000/svg" xmlns:xlink="http://www.w3.org/1999/xlink" width="113" height="113" viewBox="0 0 113 113">
  <defs>
    <filter id="Path_982547" x="0" y="0" width="113" height="113" filterUnits="userSpaceOnUse">
      <feOffset dy="3" input="SourceAlpha"/>
      <feGaussianBlur stdDeviation="3" result="blur"/>
      <feFlood flood-opacity="0.161"/>
      <feComposite operator="in" in2="blur"/>
      <feComposite in="SourceGraphic"/>
    </filter>
  </defs>
  <g id="Group_1228603" data-name="Group 1228603" transform="translate(-7001 -5113.5)">
    <g id="Group_1228543" data-name="Group 1228543">
      <g id="Group_1228182" data-name="Group 1228182" transform="translate(6625 3304)">
        <g id="Group_1223802" data-name="Group 1223802" transform="translate(385 1815.5)">
          <g id="Group_1208028" data-name="Group 1208028" transform="translate(0 0)">
            <g id="Group_1177675" data-name="Group 1177675" transform="translate(0 0)">
              <g id="Group_1176928" data-name="Group 1176928" transform="translate(0 0)">
                <g id="Group_1172322" data-name="Group 1172322" transform="translate(0 0)">
                  <g id="Group_1164700" data-name="Group 1164700">
                    <g id="Group_1160931" data-name="Group 1160931">
                      <g id="Group_1160749" data-name="Group 1160749">
                        <g id="Group_1158891" data-name="Group 1158891">
                          <g id="Group_1157406" data-name="Group 1157406">
                            <g id="Group_1155793" data-name="Group 1155793">
                              <g id="Group_1154704" data-name="Group 1154704">
                                <g id="Group_1150790" data-name="Group 1150790">
                                  <g id="Group_1154214" data-name="Group 1154214" transform="translate(0)">
                                    <g id="Group_1152583" data-name="Group 1152583">
                                      <g id="Group_1146973" data-name="Group 1146973">
                                        <g id="Group_1146954" data-name="Group 1146954">
                                          <g transform="matrix(1, 0, 0, 1, -9, -6)" filter="url(#Path_982547)">
                                            <g id="Path_982547-2" data-name="Path 982547" transform="translate(9 6)" fill="#ffe1b9">
                                              <path d="M 47.50000762939453 93.49986267089844 C 41.28937911987305 93.49986267089844 35.26534271240234 92.28383636474609 29.59519386291504 89.88558197021484 C 24.11772727966309 87.56880950927734 19.19814109802246 84.25183868408203 14.97310066223145 80.02679443359375 C 10.74804782867432 75.8017578125 7.431074142456055 70.88218688964844 5.114300727844238 65.40471649169922 C 2.716034412384033 59.73458480834961 1.500007629394531 53.71054458618164 1.500007629394531 47.49993133544922 C 1.500007629394531 41.2893180847168 2.716034412384033 35.26527786254883 5.114300727844238 29.59514427185059 C 7.431074142456055 24.11767768859863 10.74804782867432 19.19810485839844 14.97310066223145 14.97306442260742 C 19.19814109802246 10.74802494049072 24.11772727966309 7.431051254272461 29.59519386291504 5.114277839660645 C 35.26534271240234 2.71602463722229 41.28937911987305 1.499997973442078 47.50000762939453 1.499997973442078 C 53.71063613891602 1.499997973442078 59.73467254638672 2.71602463722229 65.40482330322266 5.114277839660645 C 70.88228607177734 7.431051254272461 75.80187225341797 10.74802494049072 80.02691650390625 14.97306442260742 C 84.25196838378906 19.19810485839844 87.56893920898438 24.11767768859863 89.88571166992188 29.59514427185059 C 92.28398132324219 35.26527786254883 93.50000762939453 41.2893180847168 93.50000762939453 47.49993133544922 C 93.50000762939453 53.71054458618164 92.28398132324219 59.73458480834961 89.88571166992188 65.40471649169922 C 87.56893920898438 70.88218688964844 84.25196838378906 75.8017578125 80.02691650390625 80.02679443359375 C 75.80187225341797 84.25183868408203 70.88228607177734 87.56880950927734 65.40482330322266 89.88558197021484 C 59.73467254638672 92.28383636474609 53.71063613891602 93.49986267089844 47.50000762939453 93.49986267089844 Z" stroke="none"/>
                                              <path d="M 47.50000762939453 2.999992370605469 C 41.4912223815918 2.999992370605469 35.66377639770508 4.1761474609375 30.17951202392578 6.495796203613281 C 24.88085174560547 8.736930847167969 20.12152862548828 11.94596099853516 16.03376007080078 16.03372955322266 C 11.94597625732422 20.12148284912109 8.736961364746094 24.88080596923828 6.495803833007812 30.17946624755859 C 4.176162719726562 35.66371536254883 3.000007629394531 41.49116134643555 3.000007629394531 47.49993133544922 C 3.000007629394531 53.50870132446289 4.176162719726562 59.33614730834961 6.495803833007812 64.82038879394531 C 8.736961364746094 70.11905670166016 11.94597625732422 74.87836456298828 16.03376007080078 78.96613311767578 C 20.12152862548828 83.05390167236328 24.88085174560547 86.26291656494141 30.17951202392578 88.50406646728516 C 35.66377639770508 90.82369995117188 41.4912223815918 91.99985504150391 47.50000762939453 91.99985504150391 C 53.50879287719727 91.99985504150391 59.33623886108398 90.82369995117188 64.82049560546875 88.50406646728516 C 70.11916351318359 86.26291656494141 74.87848663330078 83.05390167236328 78.96625518798828 78.96613311767578 C 83.05403900146484 74.87836456298828 86.26305389404297 70.11905670166016 88.50421142578125 64.82038879394531 C 90.8238525390625 59.33614730834961 92.00000762939453 53.50870132446289 92.00000762939453 47.49993133544922 C 92.00000762939453 41.49116134643555 90.8238525390625 35.66371536254883 88.50421142578125 30.17946624755859 C 86.26305389404297 24.88080596923828 83.05403900146484 20.12148284912109 78.96625518798828 16.03372955322266 C 74.87848663330078 11.94596099853516 70.11916351318359 8.736930847167969 64.82049560546875 6.495796203613281 C 59.33623886108398 4.1761474609375 53.50879287719727 2.999992370605469 47.50000762939453 2.999992370605469 M 47.50000762939453 -7.62939453125e-06 C 73.73352813720703 -7.62939453125e-06 95.00000762939453 21.26644134521484 95.00000762939453 47.49993133544922 C 95.00000762939453 73.73342132568359 73.73352813720703 94.99985504150391 47.50000762939453 94.99985504150391 C 21.26648712158203 94.99985504150391 7.62939453125e-06 73.73342132568359 7.62939453125e-06 47.49993133544922 C 7.62939453125e-06 21.26644134521484 21.26648712158203 -7.62939453125e-06 47.50000762939453 -7.62939453125e-06 Z" stroke="none" fill="#ff9d1c"/>
                                            </g>
                                          </g>
                                        </g>
                                      </g>
                                    </g>
                                  </g>
                                </g>
                              </g>
                            </g>
                          </g>
                        </g>
                      </g>
                    </g>
                  </g>
                </g>
              </g>
            </g>
          </g>
        </g>
      </g>
      <g id="resolucion-de-problemas" transform="translate(6999.104 5132.572)">
        <path id="Path_1211199" data-name="Path 1211199" d="M343.42,132h-6.49A11.022,11.022,0,0,1,332,136.29v7.131a.816.816,0,0,0,.816.816H343.42a.816.816,0,0,0,.816-.816V132.815a.816.816,0,0,0-.816-.816Z" transform="translate(-262.881 -114.247)" fill="#cb97e7"/>
        <g id="Group_1228530" data-name="Group 1228530" transform="translate(69.117 18.663)">
          <path id="Path_1211200" data-name="Path 1211200" d="M336.3,149.283V138.772a11.014,11.014,0,0,1-4.3,3.38v7.131a.816.816,0,0,0,.816.816h4.3A.816.816,0,0,1,336.3,149.283Z" transform="translate(-331.999 -138.772)" fill="#bd80e1"/>
        </g>
        <g id="Group_1228541" data-name="Group 1228541" transform="translate(29.278 1.009)">
          <path id="Path_1211201" data-name="Path 1211201" d="M109.722,274.286l2.305-6.272a15.75,15.75,0,0,1-14.97,0l2.305,6.272Z" transform="translate(-88.815 -232.979)" fill="#fff0ad"/>
          <path id="Path_1211202" data-name="Path 1211202" d="M105.028,274.286l-1.625-4.421a15.629,15.629,0,0,1-6.345-1.851l2.305,6.272Z" transform="translate(-88.816 -232.979)" fill="#ffe177"/>
          <path id="Path_1211203" data-name="Path 1211203" d="M126,393.588v2.1a2.017,2.017,0,0,0,2.017,2.017h3.151a2.017,2.017,0,0,0,2.017-2.017v-2.1Z" transform="translate(-113.865 -341.665)" fill="#02c7dd"/>
          <path id="Path_1211204" data-name="Path 1211204" d="M129.362,395.687v-2.1H126v2.1a2.017,2.017,0,0,0,2.017,2.017h3.151c.036,0,.07,0,.106-.005A2.015,2.015,0,0,1,129.362,395.687Z" transform="translate(-113.865 -341.665)" fill="#07b2cd"/>
          <path id="Path_1211205" data-name="Path 1211205" d="M113.43,362.995v3.576a.673.673,0,0,0,.672.672h9.221a.672.672,0,0,0,.672-.672v-3.576Z" transform="translate(-102.986 -315.187)" fill="#a6e7f0"/>
          <path id="Path_1211206" data-name="Path 1211206" d="M116.792,366.571v-3.576H113.43v3.576a.672.672,0,0,0,.672.672h3.362A.672.672,0,0,1,116.792,366.571Z" transform="translate(-102.986 -315.187)" fill="#6bd9e7"/>
          <path id="Path_1211207" data-name="Path 1211207" d="M60.215,53.7a11,11,0,0,1,.324-2.65,15.728,15.728,0,1,0,6.686,12.887A10.981,10.981,0,0,1,60.215,53.7Z" transform="translate(-35.77 -42.72)" fill="#ffe177"/>
          <g id="Group_1228531" data-name="Group 1228531" transform="translate(0 5.473)">
            <path id="Path_1211208" data-name="Path 1211208" d="M42.539,63.921A15.732,15.732,0,0,1,54.881,48.56a15.727,15.727,0,1,0,0,30.722A15.732,15.732,0,0,1,42.539,63.921Z" transform="translate(-35.769 -48.194)" fill="#ffd15b"/>
          </g>
          <g id="Group_1228532" data-name="Group 1228532" transform="translate(8.427 41.307)">
            <path id="Path_1211209" data-name="Path 1211209" d="M111.685,321.287H99.774a1.345,1.345,0,0,1-1.345-1.345V316a1.345,1.345,0,0,1,1.345-1.345h11.911A1.345,1.345,0,0,1,113.03,316v3.946A1.345,1.345,0,0,1,111.685,321.287Z" transform="translate(-98.429 -314.651)" fill="#eaf9fa"/>
          </g>
          <path id="Path_1211210" data-name="Path 1211210" d="M102.945,319.942V316a1.345,1.345,0,0,1,1.345-1.345H99.775A1.345,1.345,0,0,0,98.43,316v3.946a1.345,1.345,0,0,0,1.345,1.345h4.515A1.345,1.345,0,0,1,102.945,319.942Z" transform="translate(-90.003 -273.344)" fill="#d4f2f6"/>
          <g id="Group_1228533" data-name="Group 1228533" transform="translate(28.423 36.026)">
            <path id="Path_1211211" data-name="Path 1211211" d="M273.521,291.492a4.723,4.723,0,0,1-3.009-.819.4.4,0,0,0-.639.328v6.467a.673.673,0,0,1-.672.672h-6.467a.4.4,0,0,0-.328.639,4.74,4.74,0,1,1-7.812-.012.4.4,0,0,0-.336-.627h-6.467a.673.673,0,0,1-.672-.672v-5.079a.668.668,0,0,1,.724-.67,4.839,4.839,0,0,0,.755.013,4.74,4.74,0,0,0-.294-9.472q-.224,0-.442.02a.675.675,0,0,1-.743-.668v-5.553a.672.672,0,0,1,.672-.672h5.295a.67.67,0,0,1,.671.688c0,.047,0,.094,0,.142a4.74,4.74,0,1,0,9.481,0q0-.071,0-.142a.67.67,0,0,1,.671-.688H269.2a.673.673,0,0,1,.672.672v6.467a.4.4,0,0,0,.627.336,4.74,4.74,0,1,1,3.021,8.631Z" transform="translate(-247.12 -275.386)" fill="#fe9738"/>
          </g>
          <g id="Group_1228534" data-name="Group 1228534" transform="translate(28.423 36.026)">
            <path id="Path_1211212" data-name="Path 1211212" d="M273.521,291.492a4.723,4.723,0,0,1-3.009-.819.4.4,0,0,0-.639.328v6.467a.673.673,0,0,1-.672.672h-6.467a.4.4,0,0,0-.328.639,4.74,4.74,0,1,1-7.812-.012.4.4,0,0,0-.336-.627h-6.467a.673.673,0,0,1-.672-.672v-5.079a.668.668,0,0,1,.724-.67,4.839,4.839,0,0,0,.755.013,4.74,4.74,0,0,0-.294-9.472q-.224,0-.442.02a.675.675,0,0,1-.743-.668v-5.553a.672.672,0,0,1,.672-.672h5.295a.67.67,0,0,1,.671.688c0,.047,0,.094,0,.142a4.74,4.74,0,1,0,9.481,0q0-.071,0-.142a.67.67,0,0,1,.671-.688H269.2a.673.673,0,0,1,.672.672v6.467a.4.4,0,0,0,.627.336,4.74,4.74,0,1,1,3.021,8.631Z" transform="translate(-247.12 -275.386)" fill="#fe9738"/>
          </g>
          <g id="Group_1228537" data-name="Group 1228537" transform="translate(28.423 36.027)">
            <g id="Group_1228535" data-name="Group 1228535" transform="translate(0)">
              <path id="Path_1211213" data-name="Path 1211213" d="M247.861,282.282q.218-.02.442-.02a4.73,4.73,0,0,1,3.625,1.687V276.06a.672.672,0,0,1,.672-.672h-4.81a.672.672,0,0,0-.672.672v5.553A.675.675,0,0,0,247.861,282.282Z" transform="translate(-247.118 -275.388)" fill="#fe860a"/>
            </g>
            <g id="Group_1228536" data-name="Group 1228536" transform="translate(0 14.66)">
              <path id="Path_1211214" data-name="Path 1211214" d="M251.928,391.819V384.4a4.737,4.737,0,0,1-3.332,1.685,4.825,4.825,0,0,1-.755-.013.668.668,0,0,0-.724.67v5.079a.672.672,0,0,0,.672.672H252.6A.672.672,0,0,1,251.928,391.819Z" transform="translate(-247.118 -384.398)" fill="#fe860a"/>
            </g>
          </g>
          <g id="Group_1228540" data-name="Group 1228540" transform="translate(24.445)">
            <g id="Group_1228538" data-name="Group 1228538">
              <circle id="Ellipse_13446" data-name="Ellipse 13446" cx="10.98" cy="10.98" r="10.98" fill="#05e39c"/>
            </g>
            <g id="Group_1228539" data-name="Group 1228539" transform="translate(0 0)">
              <path id="Path_1211215" data-name="Path 1211215" d="M223.207,18.48a10.984,10.984,0,0,1,8.144-10.609,10.98,10.98,0,1,0,0,21.217,10.983,10.983,0,0,1-8.144-10.608Z" transform="translate(-217.536 -7.5)" fill="#0ed290"/>
            </g>
          </g>
        </g>
        <g id="Group_1228542" data-name="Group 1228542" transform="translate(28.27 0)">
          <path id="Path_1211216" data-name="Path 1211216" d="M270.9,276.35a5.753,5.753,0,0,0-6.513-1.343v-5.438a1.683,1.683,0,0,0-1.681-1.681h-5.295a1.691,1.691,0,0,0-1.208.511,1.659,1.659,0,0,0-.471,1.216c0,.037,0,.074,0,.111a3.732,3.732,0,1,1-7.463,0c0-.037,0-.074,0-.111a1.66,1.66,0,0,0-.472-1.216,1.691,1.691,0,0,0-1.208-.511H241.3a1.683,1.683,0,0,0-1.681,1.681v5.553a1.68,1.68,0,0,0,.547,1.239,1.7,1.7,0,0,0,1.3.434c.115-.011.232-.016.349-.016a3.732,3.732,0,0,1,.233,7.456,3.841,3.841,0,0,1-.6-.01,1.665,1.665,0,0,0-1.277.425,1.69,1.69,0,0,0-.553,1.249v5.079a1.683,1.683,0,0,0,1.681,1.681h5.438a5.75,5.75,0,0,0,5.26,8.059c.136,0,.273,0,.411-.014a5.753,5.753,0,0,0,4.862-8.045h5.437a1.683,1.683,0,0,0,1.681-1.681v-5.437a5.75,5.75,0,0,0,6.512-9.189Zm-.48,4.189A3.735,3.735,0,0,1,266.96,284h0a3.7,3.7,0,0,1-2.37-.644,1.413,1.413,0,0,0-2.218,1.159v6.13h-6.131a1.413,1.413,0,0,0-1.159,2.218,3.732,3.732,0,1,1-6.151-.009,1.411,1.411,0,0,0-1.165-2.209h-6.131v-4.385c.176.005.354,0,.531-.008a5.749,5.749,0,0,0-.531-11.484V269.9h4.622a5.749,5.749,0,0,0,11.492,0h4.622v6.131a1.411,1.411,0,0,0,2.209,1.165,3.732,3.732,0,0,1,5.84,3.339Z" transform="translate(-211.196 -231.86)"/>
          <path id="Path_1211217" data-name="Path 1211217" d="M51.6,41.4l1.709-4.65a16.783,16.783,0,0,0,4.764-4.08A1.009,1.009,0,0,0,56.5,31.4,14.663,14.663,0,0,1,48.4,36.533V28.194h1.977A3.995,3.995,0,1,0,46.386,24.2v1.978H43.625V24.2a3.995,3.995,0,1,0-3.995,3.995h1.977v8.336A14.718,14.718,0,1,1,52.915,9.8a11.991,11.991,0,0,0,6.794,13.085,14.617,14.617,0,0,1-1,4.7,1.009,1.009,0,0,0,1.878.737,16.6,16.6,0,0,0,1.095-4.728,12,12,0,0,0,6.424-.108v5.69A1.827,1.827,0,0,0,69.932,31H80.539a1.827,1.827,0,0,0,1.824-1.824V25.955a1.009,1.009,0,1,0-2.017,0v3.026H70.125v-6.3a12.075,12.075,0,0,0,4.466-3.918h5.755v2.488a1.009,1.009,0,1,0,2.017,0V18.567a1.827,1.827,0,0,0-1.824-1.824H75.708A11.988,11.988,0,1,0,53.477,7.782,16.731,16.731,0,1,0,36.7,36.734L38.414,41.4A2.356,2.356,0,0,0,36.7,43.661v3.946a2.355,2.355,0,0,0,2.017,2.327v2.46A1.683,1.683,0,0,0,40.4,54.075H40.4v.956a3.029,3.029,0,0,0,3.026,3.026h3.151a3.029,3.029,0,0,0,3.026-3.026v-.956h.009A1.683,1.683,0,0,0,51.3,52.394v-2.46a2.355,2.355,0,0,0,2.017-2.327V43.661A2.356,2.356,0,0,0,51.6,41.4ZM48.4,24.2a1.978,1.978,0,1,1,1.977,1.978H48.4ZM64.7,2.017a9.971,9.971,0,1,1-9.971,9.971A9.983,9.983,0,0,1,64.7,2.017ZM48.4,38.6a16.642,16.642,0,0,0,2.314-.653l-1.236,3.361H48.4Zm-4.778-10.4h2.761v8.668c-.456.042-.917.065-1.38.065s-.926-.023-1.38-.065V28.194Zm0,10.693c.455.037.915.057,1.38.057s.924-.019,1.38-.057v2.419H43.625Zm-3.995-12.71A1.978,1.978,0,1,1,41.608,24.2v1.978ZM41.608,38.6v2.709H40.53L39.292,37.94A16.589,16.589,0,0,0,41.608,38.6ZM47.59,55.03a1.01,1.01,0,0,1-1.009,1.009H43.43a1.01,1.01,0,0,1-1.009-1.009v-.956H47.59ZM51.3,47.607a.337.337,0,0,1-.336.336H47.868a1.009,1.009,0,1,0,0,2.017H49.28v2.1H40.731v-2.1h2.43a1.009,1.009,0,0,0,0-2.017H39.05a.337.337,0,0,1-.336-.336V43.66a.337.337,0,0,1,.336-.336H50.961a.337.337,0,0,1,.336.336Z" transform="translate(-28.27 0)"/>
          <path id="Path_1211218" data-name="Path 1211218" d="M255.087,67.989a1.008,1.008,0,0,0,.759.359h.013a1.008,1.008,0,0,0,.755-.34l6.608-7.454a1.009,1.009,0,0,0-1.51-1.338L255.878,65.8l-3.761-4.466a1.009,1.009,0,1,0-1.543,1.3Z" transform="translate(-220.472 -50.958)"/>
        </g>
      </g>
    </g>
  </g>
</svg>
