<svg xmlns="http://www.w3.org/2000/svg" xmlns:xlink="http://www.w3.org/1999/xlink" width="108" height="108" viewBox="0 0 108 108">
  <defs>
    <filter id="Path_904820" x="0" y="0" width="108" height="108" filterUnits="userSpaceOnUse">
      <feOffset dy="3" input="SourceAlpha"/>
      <feGaussianBlur stdDeviation="3" result="blur"/>
      <feFlood flood-opacity="0.161"/>
      <feComposite operator="in" in2="blur"/>
      <feComposite in="SourceGraphic"/>
    </filter>
  </defs>
  <g id="Group_1228550" data-name="Group 1228550" transform="translate(-200.087 -457)">
    <g id="Group_1228200" data-name="Group 1228200">
      <g id="Group_1224989" data-name="Group 1224989" transform="translate(209.087 463)">
        <g id="Group_1203794" data-name="Group 1203794" transform="translate(0 0)">
          <g id="Group_1203639" data-name="Group 1203639">
            <g id="Group_1202437" data-name="Group 1202437">
              <g id="Group_1177315" data-name="Group 1177315">
                <g id="Group_1173585" data-name="Group 1173585" transform="translate(0)">
                  <g id="Group_1173428" data-name="Group 1173428">
                    <g id="Group_1171958" data-name="Group 1171958">
                      <g id="Group_1167341" data-name="Group 1167341">
                        <g id="Group_1166792" data-name="Group 1166792">
                          <g transform="matrix(1, 0, 0, 1, -9, -6)" filter="url(#Path_904820)">
                            <g id="Path_904820-2" data-name="Path 904820" transform="translate(9 6)" fill="#fff4e6">
                              <path d="M 44.99999618530273 88.49999237060547 C 39.12687301635742 88.49999237060547 33.43022155761719 87.35006713867188 28.06829643249512 85.08216857910156 C 22.88852119445801 82.89130401611328 18.23629570007324 79.75457763671875 14.24084663391113 75.75914001464844 C 10.24540901184082 71.76369476318359 7.108683586120605 67.11146545410156 4.917821407318115 61.93169403076172 C 2.649921178817749 56.56976699829102 1.499996185302734 50.87311553955078 1.499996185302734 44.99999237060547 C 1.499996185302734 39.12686920166016 2.649921178817749 33.43021774291992 4.917821407318115 28.06829261779785 C 7.108683586120605 22.88851737976074 10.24540901184082 18.23630523681641 14.24084663391113 14.24085521697998 C 18.23629570007324 10.24540519714355 22.88852119445801 7.108692169189453 28.06829643249512 4.917829990386963 C 33.43022155761719 2.649929761886597 39.12687301635742 1.500004887580872 44.99999618530273 1.500004887580872 C 50.87311935424805 1.500004887580872 56.56977081298828 2.649929761886597 61.93169784545898 4.917829990386963 C 67.11147308349609 7.108692169189453 71.76369476318359 10.24540519714355 75.75914764404297 14.24085521697998 C 79.75458526611328 18.23630523681641 82.89131164550781 22.88851737976074 85.08216857910156 28.06829261779785 C 87.35007476806641 33.43021774291992 88.5 39.12686920166016 88.5 44.99999237060547 C 88.5 50.87311553955078 87.35007476806641 56.56976699829102 85.08216857910156 61.93169403076172 C 82.89131164550781 67.11146545410156 79.75458526611328 71.76369476318359 75.75914764404297 75.75914001464844 C 71.76369476318359 79.75457763671875 67.11147308349609 82.89130401611328 61.93169784545898 85.08216857910156 C 56.56977081298828 87.35006713867188 50.87311935424805 88.49999237060547 44.99999618530273 88.49999237060547 Z" stroke="none"/>
                              <path d="M 44.99999618530273 2.999992370605469 C 39.32870864868164 2.999992370605469 33.82865142822266 4.11004638671875 28.65262603759766 6.299331665039062 C 23.65165710449219 8.414566040039062 19.15968322753906 11.44333648681641 15.301513671875 15.30150604248047 C 11.44333648681641 19.15967559814453 8.414566040039062 23.65164947509766 6.299339294433594 28.65262222290039 C 4.110054016113281 33.82864761352539 2.999992370605469 39.32870483398438 2.999992370605469 44.99999237060547 C 2.999992370605469 50.67127990722656 4.110054016113281 56.17132186889648 6.299339294433594 61.34736633300781 C 8.414566040039062 66.34833526611328 11.44333648681641 70.84029388427734 15.301513671875 74.69846343994141 C 19.15968322753906 78.55663299560547 23.65165710449219 81.58540344238281 28.65262603759766 83.70063781738281 C 33.82865142822266 85.88992309570312 39.32870864868164 86.99997711181641 44.99999618530273 86.99997711181641 C 50.67128372192383 86.99997711181641 56.17134094238281 85.88992309570312 61.34736633300781 83.70063781738281 C 66.34834289550781 81.58540344238281 70.84030914306641 78.55663299560547 74.69847869873047 74.69846343994141 C 78.55665588378906 70.84029388427734 81.58542633056641 66.34833526611328 83.70065307617188 61.34736633300781 C 85.88993835449219 56.17132186889648 87 50.67127990722656 87 44.99999237060547 C 87 39.32870483398438 85.88993835449219 33.82864761352539 83.70065307617188 28.65262222290039 C 81.58542633056641 23.65164947509766 78.55665588378906 19.15967559814453 74.69847869873047 15.30150604248047 C 70.84030914306641 11.44333648681641 66.34834289550781 8.414566040039062 61.34736633300781 6.299331665039062 C 56.17134094238281 4.11004638671875 50.67128372192383 2.999992370605469 44.99999618530273 2.999992370605469 M 44.99999618530273 -7.62939453125e-06 C 69.85281372070312 -7.62939453125e-06 90 20.14717864990234 90 44.99999237060547 C 90 69.85279083251953 69.85281372070312 89.99997711181641 44.99999618530273 89.99997711181641 C 20.14717864990234 89.99997711181641 -7.62939453125e-06 69.85279083251953 -7.62939453125e-06 44.99999237060547 C -7.62939453125e-06 20.14717864990234 20.14717864990234 -7.62939453125e-06 44.99999618530273 -7.62939453125e-06 Z" stroke="none" fill="#8b550e"/>
                            </g>
                          </g>
                        </g>
                      </g>
                    </g>
                  </g>
                </g>
              </g>
            </g>
          </g>
        </g>
      </g>
      <g id="inteligencia-emocional" transform="translate(221.246 473.215)">
        <path id="Path_1210567" data-name="Path 1210567" d="M29.835,71.609H52.326c-.245-9.579.184-15.231,5.267-24.191,4.813-8.485,7-17.729.92-26.419-4.374-6.249-12.086-9.345-19.739-9.488C27.1,11.294,14.03,19.416,15.791,32.475c.276,2.049,1.411,3.626,1.366,5.363-.029,1.139-1.664,3.276-3.934,6.75-1.932,2.994-1.411,4.026.267,4.7,1.318.53,3.71.67,3.764,2.508.055,1.889-.414,6.355-.414,8.531,0,4.185,3.539,4.229,7.67,3.872,1.416-.188,2.648-.389,3.754-.612.86.414,1.43,1.4,1.569,3.133.01.149.01,3.545,0,4.889Z" transform="translate(-7.864 -7.12)" fill="#f0e3df" fill-rule="evenodd"/>
        <path id="Path_1210568" data-name="Path 1210568" d="M128.234,71.774l1.895-1.271a.766.766,0,0,1,.976.1l2.933,2.933a.767.767,0,0,1,.1.976L132.863,76.4l1.613,3.893,2.238.441a.767.767,0,0,1,.623.757v4.148a.766.766,0,0,1-.623.757l-2.238.441-1.613,3.893,1.271,1.895a.766.766,0,0,1-.1.976L131.1,96.538a.767.767,0,0,1-.976.1l-1.895-1.271-3.893,1.613-.441,2.238a.767.767,0,0,1-.757.623h-4.148a.766.766,0,0,1-.757-.623l-.441-2.238L113.9,95.363l-1.895,1.271a.766.766,0,0,1-.976-.1L108.1,93.6a.767.767,0,0,1-.1-.976l1.271-1.895-1.613-3.893-2.238-.441a.767.767,0,0,1-.623-.757V81.494a.766.766,0,0,1,.623-.757l2.238-.441,1.613-3.893L108,74.508a.766.766,0,0,1,.1-.976l2.933-2.933a.767.767,0,0,1,.976-.1l1.895,1.271,3.893-1.613.441-2.238a.767.767,0,0,1,.757-.623h4.148a.766.766,0,0,1,.757.623l.441,2.238Z" transform="translate(-89.137 -55.976)" fill="#b2b2bd" fill-rule="evenodd"/>
        <path id="Path_1210569" data-name="Path 1210569" d="M256.588,111.588c12.289-7.128,16.859-14.3,16.206-20.379-.834-7.764-9.656-12.133-16.206-3.608-6.55-8.525-15.372-4.155-16.206,3.608C239.728,97.293,244.3,104.459,256.588,111.588Z" transform="translate(-207.808 -69.677)" fill="#ff5471" fill-rule="evenodd"/>
        <path id="Path_1210570" data-name="Path 1210570" d="M321.125,130.035a2.721,2.721,0,1,1,3.848,3.848l-8.4,8.4a2.72,2.72,0,0,1-3.848,0c-.055-.055-.107-.112-.155-.169l-3.877-3.969a2.713,2.713,0,1,1,3.891-3.784l2.084,2.134,6.459-6.459Z" transform="translate(-267.004 -110.213)" fill="#fff" fill-rule="evenodd"/>
        <path id="Path_1210571" data-name="Path 1210571" d="M54.7,20.526a1.726,1.726,0,0,1,2.441,2.441l-8.4,8.4a1.722,1.722,0,0,1-2.441,0c-.858-.858-1.725-1.756-2.565-2.624q-.729-.757-1.46-1.5a1.718,1.718,0,0,1,1.233-2.917,1.749,1.749,0,0,1,1.235.52l2.081,2.134a1,1,0,0,0,.706.3,1.019,1.019,0,0,0,.71-.291Zm-8.535,2.929a3.708,3.708,0,1,0-5.314,5.172q.726.746,1.451,1.5c.845.874,1.718,1.778,2.589,2.65a3.716,3.716,0,0,0,5.255,0l8.4-8.4a3.716,3.716,0,0,0-5.256-5.256l-5.748,5.748-1.379-1.411ZM43.411,64.207c-.3-10.3-.1-14.15,3.975-21.892q-1.945-1.158-3.6-2.294l-1.241,1.24a1.77,1.77,0,0,1-2.233.219L38.862,40.5l-2.908,1.2-.338,1.716a1.768,1.768,0,0,1-1.733,1.425H29.734A1.77,1.77,0,0,1,28,43.424l-.337-1.716-2.909-1.2-1.452.975a1.77,1.77,0,0,1-2.233-.219l-2.933-2.932a1.773,1.773,0,0,1-.218-2.234l.974-1.452-1.2-2.908L15.974,31.4a1.769,1.769,0,0,1-1.425-1.733V25.514a1.768,1.768,0,0,1,1.425-1.732l1.715-.339,1.2-2.908-.974-1.454a1.771,1.771,0,0,1,.218-2.233l2.933-2.932A1.77,1.77,0,0,1,23.3,13.7l1.452.975,2.909-1.2L28,11.753a1.769,1.769,0,0,1,1.733-1.425h4.148a1.768,1.768,0,0,1,1.733,1.425l.338,1.715.22.092a8.648,8.648,0,0,1,2.214-.972c3.564-1,7.253.369,10.268,3.774a15.2,15.2,0,0,1,1.422-1.411q-.172-.259-.349-.515c-3.869-5.529-10.953-8.919-18.95-9.067-6.9-.126-14.027,2.794-18.164,7.439A15.126,15.126,0,0,0,8.788,25.215a11.464,11.464,0,0,0,.666,2.352,8.61,8.61,0,0,1,.71,3.171c-.03,1.18-.986,2.607-2.721,5.2-.415.619-.885,1.322-1.378,2.074-1.139,1.764-1.114,2.423-1.049,2.625s.353.408.858.611a9.286,9.286,0,0,0,.923.29c1.354.384,3.4.964,3.464,3.112.03,1.044-.085,2.732-.206,4.517-.1,1.5-.208,3.05-.208,4.046a2.887,2.887,0,0,0,.735,2.2c1.09,1,3.581.879,5.836.685a35.046,35.046,0,0,0,8.406-1.958,1,1,0,0,1,.725,1.854,27.848,27.848,0,0,1-3.345,1.066,6.367,6.367,0,0,1,.638,2.473c.02.283.01,3.064-.014,4.679H43.409ZM20.936,34.373a1,1,0,0,1-.093.935L19.674,37.05l2.673,2.674,1.743-1.169a1,1,0,0,1,.935-.093l3.892,1.613a.994.994,0,0,1,.6.725l.407,2.06H33.7l.405-2.06a1,1,0,0,1,.6-.725L38.6,38.463a.982.982,0,0,1,.933.093l1.743,1.169.874-.874C32.7,31.859,31.01,25.656,31.464,21.425a10.838,10.838,0,0,1,2.975-6.485.994.994,0,0,1-.333-.564L33.7,12.317H29.919l-.407,2.058a1,1,0,0,1-.6.727l-3.892,1.613a.993.993,0,0,1-.935-.093l-1.743-1.169-2.673,2.673,1.169,1.743a1,1,0,0,1,.093.934L19.323,24.7a.994.994,0,0,1-.727.594l-2.057.407v3.781l2.057.407a1,1,0,0,1,.727.6l1.613,3.893ZM58.389,14.5c-3.056-.858-6.315.608-8.942,4.027a.994.994,0,0,1-1.578,0c-2.134-2.778-4.685-4.267-7.207-4.267a6.415,6.415,0,0,0-1.735.24,6.83,6.83,0,0,0-2,.936.936.936,0,0,1-.148.1,8.558,8.558,0,0,0-3.341,6.094c-.316,2.928.714,5.988,3.054,9.093,2.57,3.408,6.66,6.78,12.161,10.028,5.5-3.248,9.593-6.62,12.163-10.028,2.341-3.1,3.37-6.163,3.055-9.093A8.028,8.028,0,0,0,58.388,14.5Zm7.465,6.923a10,10,0,0,0-6.927-8.837,8.888,8.888,0,0,0-7.246,1.176c-.106-.158-.211-.315-.32-.469C47.129,7.248,39.449,3.54,30.818,3.38A27.811,27.811,0,0,0,20.049,5.388a23.824,23.824,0,0,0-8.919,6.1,17.057,17.057,0,0,0-4.311,14,13.175,13.175,0,0,0,.767,2.767,6.938,6.938,0,0,1,.592,2.441c-.015.6-1.166,2.32-2.385,4.139-.418.624-.891,1.332-1.391,2.1-1.227,1.9-1.621,3.23-1.278,4.312a3.158,3.158,0,0,0,2.011,1.854,11.19,11.19,0,0,0,1.125.359c1.406.4,2,.66,2.017,1.256.027.947-.09,2.663-.2,4.324-.1,1.532-.213,3.117-.213,4.18a4.753,4.753,0,0,0,1.379,3.665c1.689,1.549,4.568,1.442,7.376,1.2a.274.274,0,0,0,.045,0c1.257-.167,2.39-.346,3.429-.547a3.319,3.319,0,0,1,.773,2.15c.016.4,0,4.755-.04,5.473a.993.993,0,0,0,.992,1.047H44.44a.994.994,0,0,0,.993-1.026c-.348-11.21-.261-14.557,4.076-22.6,14.46-8.489,16.88-16.174,16.348-21.142Z" transform="translate(0 0)" fill-rule="evenodd"/>
      </g>
    </g>
  </g>
</svg>
