<svg xmlns="http://www.w3.org/2000/svg" xmlns:xlink="http://www.w3.org/1999/xlink" width="113" height="113" viewBox="0 0 113 113">
  <defs>
    <filter id="Path_982547" x="0" y="0" width="113" height="113" filterUnits="userSpaceOnUse">
      <feOffset dy="3" input="SourceAlpha"/>
      <feGaussianBlur stdDeviation="3" result="blur"/>
      <feFlood flood-opacity="0.161"/>
      <feComposite operator="in" in2="blur"/>
      <feComposite in="SourceGraphic"/>
    </filter>
  </defs>
  <g id="Group_1228602" data-name="Group 1228602" transform="translate(-7316 -4687.5)">
    <g id="Group_1228529" data-name="Group 1228529">
      <g id="Group_1228181" data-name="Group 1228181" transform="translate(6624 2878)">
        <g id="Group_1223803" data-name="Group 1223803" transform="translate(701 1815.5)">
          <g id="Group_1208038" data-name="Group 1208038" transform="translate(0 0)">
            <g id="Group_1202104" data-name="Group 1202104">
              <g id="Group_1201923" data-name="Group 1201923" transform="translate(0 0)">
                <g id="Group_1176928" data-name="Group 1176928" transform="translate(0 0)">
                  <g id="Group_1172322" data-name="Group 1172322" transform="translate(0 0)">
                    <g id="Group_1164700" data-name="Group 1164700">
                      <g id="Group_1160931" data-name="Group 1160931">
                        <g id="Group_1160749" data-name="Group 1160749">
                          <g id="Group_1158891" data-name="Group 1158891">
                            <g id="Group_1157406" data-name="Group 1157406">
                              <g id="Group_1155793" data-name="Group 1155793">
                                <g id="Group_1154704" data-name="Group 1154704">
                                  <g id="Group_1150790" data-name="Group 1150790">
                                    <g id="Group_1154214" data-name="Group 1154214" transform="translate(0)">
                                      <g id="Group_1152583" data-name="Group 1152583">
                                        <g id="Group_1146973" data-name="Group 1146973">
                                          <g id="Group_1146954" data-name="Group 1146954">
                                            <g transform="matrix(1, 0, 0, 1, -9, -6)" filter="url(#Path_982547)">
                                              <g id="Path_982547-2" data-name="Path 982547" transform="translate(9 6)" fill="#ffe1b9">
                                                <path d="M 47.50000762939453 93.49986267089844 C 41.28937911987305 93.49986267089844 35.26534271240234 92.28383636474609 29.59519386291504 89.88558197021484 C 24.11772727966309 87.56880950927734 19.19814109802246 84.25183868408203 14.97310066223145 80.02679443359375 C 10.74804782867432 75.8017578125 7.431074142456055 70.88218688964844 5.114300727844238 65.40471649169922 C 2.716034412384033 59.73458480834961 1.500007629394531 53.71054458618164 1.500007629394531 47.49993133544922 C 1.500007629394531 41.2893180847168 2.716034412384033 35.26527786254883 5.114300727844238 29.59514427185059 C 7.431074142456055 24.11767768859863 10.74804782867432 19.19810485839844 14.97310066223145 14.97306442260742 C 19.19814109802246 10.74802494049072 24.11772727966309 7.431051254272461 29.59519386291504 5.114277839660645 C 35.26534271240234 2.71602463722229 41.28937911987305 1.499997973442078 47.50000762939453 1.499997973442078 C 53.71063613891602 1.499997973442078 59.73467254638672 2.71602463722229 65.40482330322266 5.114277839660645 C 70.88228607177734 7.431051254272461 75.80187225341797 10.74802494049072 80.02691650390625 14.97306442260742 C 84.25196838378906 19.19810485839844 87.56893920898438 24.11767768859863 89.88571166992188 29.59514427185059 C 92.28398132324219 35.26527786254883 93.50000762939453 41.2893180847168 93.50000762939453 47.49993133544922 C 93.50000762939453 53.71054458618164 92.28398132324219 59.73458480834961 89.88571166992188 65.40471649169922 C 87.56893920898438 70.88218688964844 84.25196838378906 75.8017578125 80.02691650390625 80.02679443359375 C 75.80187225341797 84.25183868408203 70.88228607177734 87.56880950927734 65.40482330322266 89.88558197021484 C 59.73467254638672 92.28383636474609 53.71063613891602 93.49986267089844 47.50000762939453 93.49986267089844 Z" stroke="none"/>
                                                <path d="M 47.50000762939453 2.999992370605469 C 41.4912223815918 2.999992370605469 35.66377639770508 4.1761474609375 30.17951202392578 6.495796203613281 C 24.88085174560547 8.736930847167969 20.12152862548828 11.94596099853516 16.03376007080078 16.03372955322266 C 11.94597625732422 20.12148284912109 8.736961364746094 24.88080596923828 6.495803833007812 30.17946624755859 C 4.176162719726562 35.66371536254883 3.000007629394531 41.49116134643555 3.000007629394531 47.49993133544922 C 3.000007629394531 53.50870132446289 4.176162719726562 59.33614730834961 6.495803833007812 64.82038879394531 C 8.736961364746094 70.11905670166016 11.94597625732422 74.87836456298828 16.03376007080078 78.96613311767578 C 20.12152862548828 83.05390167236328 24.88085174560547 86.26291656494141 30.17951202392578 88.50406646728516 C 35.66377639770508 90.82369995117188 41.4912223815918 91.99985504150391 47.50000762939453 91.99985504150391 C 53.50879287719727 91.99985504150391 59.33623886108398 90.82369995117188 64.82049560546875 88.50406646728516 C 70.11916351318359 86.26291656494141 74.87848663330078 83.05390167236328 78.96625518798828 78.96613311767578 C 83.05403900146484 74.87836456298828 86.26305389404297 70.11905670166016 88.50421142578125 64.82038879394531 C 90.8238525390625 59.33614730834961 92.00000762939453 53.50870132446289 92.00000762939453 47.49993133544922 C 92.00000762939453 41.49116134643555 90.8238525390625 35.66371536254883 88.50421142578125 30.17946624755859 C 86.26305389404297 24.88080596923828 83.05403900146484 20.12148284912109 78.96625518798828 16.03372955322266 C 74.87848663330078 11.94596099853516 70.11916351318359 8.736930847167969 64.82049560546875 6.495796203613281 C 59.33623886108398 4.1761474609375 53.50879287719727 2.999992370605469 47.50000762939453 2.999992370605469 M 47.50000762939453 -7.62939453125e-06 C 73.73352813720703 -7.62939453125e-06 95.00000762939453 21.26644134521484 95.00000762939453 47.49993133544922 C 95.00000762939453 73.73342132568359 73.73352813720703 94.99985504150391 47.50000762939453 94.99985504150391 C 21.26648712158203 94.99985504150391 7.62939453125e-06 73.73342132568359 7.62939453125e-06 47.49993133544922 C 7.62939453125e-06 21.26644134521484 21.26648712158203 -7.62939453125e-06 47.50000762939453 -7.62939453125e-06 Z" stroke="none" fill="#ff9d1c"/>
                                              </g>
                                            </g>
                                          </g>
                                        </g>
                                      </g>
                                    </g>
                                  </g>
                                </g>
                              </g>
                            </g>
                          </g>
                        </g>
                      </g>
                    </g>
                  </g>
                </g>
              </g>
            </g>
          </g>
        </g>
      </g>
      <g id="_9-productivity" data-name="9-productivity" transform="translate(7343.19 4711.69)">
        <path id="Path_1211186" data-name="Path 1211186" d="M5,33H15.991V61.394H5Z" transform="translate(-0.42 -2.774)" fill="#6ee1ef"/>
        <path id="Path_1211187" data-name="Path 1211187" d="M26,21H36.991V60.385H26Z" transform="translate(-2.186 -1.765)" fill="#5fb1d7"/>
        <path id="Path_1211188" data-name="Path 1211188" d="M47,1H57.991V58.7H47Z" transform="translate(-3.951 -0.084)" fill="#2b7fc9"/>
        <path id="Path_1211189" data-name="Path 1211189" d="M6.412,60.469l14.655-17.56,8.4,8.4a3.665,3.665,0,0,0,5.182,0L51.367,34.591l3.093,3.093L57.7,22,43.093,26.316l3.093,3.093L32.058,43.538l-8.4-8.4a3.665,3.665,0,0,0-5.182,0L0,54.058v6.412Z" transform="translate(0 -1.849)" fill="#ef4136"/>
        <path id="Path_1211190" data-name="Path 1211190" d="M58.324,21.242a.913.913,0,0,0-.88-.2L42.833,25.354a.916.916,0,0,0-.388,1.526l2.445,2.445L32.058,42.159,24.3,34.4a4.592,4.592,0,0,0-6.5.025L.245,53.35A.916.916,0,1,0,1.587,54.6L19.123,35.7a2.752,2.752,0,0,1,3.886,0l8.4,8.4a.943.943,0,0,0,1.3,0L46.833,29.973a.916.916,0,0,0,0-1.3l-2-2L56.5,23.227l-2.59,12.524-1.892-1.892a.916.916,0,0,0-1.3,0L34,50.578a2.752,2.752,0,0,1-3.886,0l-8.4-8.4a.915.915,0,0,0-1.335.042L5.724,58.864A.916.916,0,1,0,7.1,60.074l14.01-15.912,7.71,7.711a4.587,4.587,0,0,0,6.477,0L51.367,35.8l2.445,2.445a.916.916,0,0,0,1.545-.462L58.6,22.1a.917.917,0,0,0-.277-.86Z" transform="translate(0 -1.765)"/>
        <path id="Path_1211191" data-name="Path 1211191" d="M16.916,56a.916.916,0,0,0-.916.916v5.5a.916.916,0,0,0,1.832,0v-5.5A.916.916,0,0,0,16.916,56Z" transform="translate(-1.345 -4.708)"/>
        <path id="Path_1211192" data-name="Path 1211192" d="M4.916,47.571a.916.916,0,0,0,.916-.916V33.832h9.159v.916a.916.916,0,0,0,1.832,0V32.916A.916.916,0,0,0,15.907,32H4.916A.916.916,0,0,0,4,32.916V46.655A.916.916,0,0,0,4.916,47.571Z" transform="translate(-0.336 -2.69)"/>
        <path id="Path_1211193" data-name="Path 1211193" d="M46.916,48a.916.916,0,0,0-.916.916V61.739a.916.916,0,0,0,1.832,0V48.916A.916.916,0,0,0,46.916,48Z" transform="translate(-3.867 -4.035)"/>
        <path id="Path_1211194" data-name="Path 1211194" d="M46.916,21.982a.916.916,0,0,0,.916-.916V1.832h9.159V17.4a.916.916,0,0,0,1.832,0V.916A.916.916,0,0,0,57.907,0H46.916A.916.916,0,0,0,46,.916v20.15A.916.916,0,0,0,46.916,21.982Z" transform="translate(-3.867)"/>
        <path id="Path_1211195" data-name="Path 1211195" d="M58.916,42a.916.916,0,0,0-.916.916V61.235a.916.916,0,0,0,1.832,0V42.916A.916.916,0,0,0,58.916,42Z" transform="translate(-4.876 -3.531)"/>
        <path id="Path_1211196" data-name="Path 1211196" d="M37.916,57a.916.916,0,0,0-.916.916V62.5a.916.916,0,1,0,1.832,0v-4.58A.916.916,0,0,0,37.916,57Z" transform="translate(-3.111 -4.792)"/>
        <path id="Path_1211197" data-name="Path 1211197" d="M25.916,31.907a.916.916,0,0,0,.916-.916V21.832h9.159V36.487a.916.916,0,1,0,1.832,0V20.916A.916.916,0,0,0,36.907,20H25.916a.916.916,0,0,0-.916.916V30.991A.916.916,0,0,0,25.916,31.907Z" transform="translate(-2.102 -1.681)"/>
        <path id="Path_1211198" data-name="Path 1211198" d="M25.916,51a.916.916,0,0,0-.916.916V61.991a.916.916,0,0,0,1.832,0V51.916A.916.916,0,0,0,25.916,51Z" transform="translate(-2.102 -4.287)"/>
      </g>
    </g>
  </g>
</svg>
