<svg xmlns="http://www.w3.org/2000/svg" xmlns:xlink="http://www.w3.org/1999/xlink" width="102.648" height="102.648" viewBox="0 0 102.648 102.648">
  <defs>
    <filter id="Path_904820" x="0" y="0" width="102.648" height="102.648" filterUnits="userSpaceOnUse">
      <feOffset dy="3" input="SourceAlpha"/>
      <feGaussianBlur stdDeviation="3" result="blur"/>
      <feFlood flood-opacity="0.161"/>
      <feComposite operator="in" in2="blur"/>
      <feComposite in="SourceGraphic"/>
    </filter>
  </defs>
  <g id="Group_1228558" data-name="Group 1228558" transform="translate(-171 -2926.676)">
    <g id="Group_1228306" data-name="Group 1228306">
      <g id="Group_1228099" data-name="Group 1228099" transform="translate(0 -1634.539)">
        <g id="Group_1222530" data-name="Group 1222530" transform="translate(-30 4260.214)">
          <g id="Group_1203724" data-name="Group 1203724" transform="translate(210 307)">
            <g id="Group_1173585" data-name="Group 1173585" transform="translate(0 0)">
              <g id="Group_1173428" data-name="Group 1173428">
                <g id="Group_1171958" data-name="Group 1171958">
                  <g id="Group_1167341" data-name="Group 1167341">
                    <g id="Group_1166792" data-name="Group 1166792">
                      <g transform="matrix(1, 0, 0, 1, -9, -6)" filter="url(#Path_904820)">
                        <g id="Path_904820-2" data-name="Path 904820" transform="translate(9 6)" fill="#fff4e6">
                          <path d="M 42.32421493530273 83.14847564697266 C 36.81232070922852 83.14847564697266 31.46609687805176 82.06929779052734 26.43404960632324 79.94092559814453 C 21.57290840148926 77.88482666015625 17.20685005187988 74.9410400390625 13.45714473724365 71.19132232666016 C 9.707427024841309 67.44161987304688 6.763650417327881 63.07554626464844 4.707556247711182 58.21440505981445 C 2.579179525375366 53.18235778808594 1.500003218650818 47.83613586425781 1.500003218650818 42.32424163818359 C 1.500003218650818 36.81234741210938 2.579179525375366 31.46611213684082 4.707556247711182 26.4340648651123 C 6.763650417327881 21.57292366027832 9.707427024841309 17.20685386657715 13.45714473724365 13.4571475982666 C 17.20685005187988 9.707429885864258 21.57290840148926 6.76365327835083 26.43404960632324 4.707559108734131 C 31.46609687805176 2.579182863235474 36.81232070922852 1.500006318092346 42.32421493530273 1.500006318092346 C 47.83610916137695 1.500006318092346 53.18233108520508 2.579182863235474 58.21437835693359 4.707559108734131 C 63.07551956176758 6.76365327835083 67.44158935546875 9.707429885864258 71.19129943847656 13.4571475982666 C 74.94100189208984 17.20685386657715 77.88478851318359 21.57292366027832 79.94087219238281 26.4340648651123 C 82.06925201416016 31.46611213684082 83.14842987060547 36.81234741210938 83.14842987060547 42.32424163818359 C 83.14842987060547 47.83613586425781 82.06925201416016 53.18235778808594 79.94087219238281 58.21440505981445 C 77.88478851318359 63.07554626464844 74.94100189208984 67.44161987304688 71.19129943847656 71.19132232666016 C 67.44158172607422 74.9410400390625 63.07551956176758 77.88482666015625 58.21437835693359 79.94092559814453 C 53.18233108520508 82.06929779052734 47.83610916137695 83.14847564697266 42.32421493530273 83.14847564697266 Z" stroke="none"/>
                          <path d="M 42.32421493530273 3 C 37.01416015625 3 31.86453628540039 4.039306640625 27.01837539672852 6.089065551757812 C 22.33604049682617 8.069534301757812 18.13024139404297 10.90536499023438 14.51779937744141 14.51779937744141 C 10.90536499023438 18.13024139404297 8.06951904296875 22.33605575561523 6.089065551757812 27.01840209960938 C 4.039306640625 31.86454772949219 3 37.01418685913086 3 42.32424163818359 C 3 47.63429641723633 4.039306640625 52.78392028808594 6.089065551757812 57.63008117675781 C 8.06951904296875 62.31242752075195 10.90536499023438 66.51822662353516 14.51779937744141 70.13066864013672 C 18.13024139404297 73.74311065673828 22.33604049682617 76.57893371582031 27.01837539672852 78.55940246582031 C 31.86453628540039 80.60916137695312 37.01416015625 81.64846801757812 42.32421493530273 81.64846801757812 C 47.63426971435547 81.64846801757812 52.78389739990234 80.60916137695312 57.63005447387695 78.55940246582031 C 62.31238555908203 76.57893371582031 66.5181884765625 73.74311065673828 70.13063049316406 70.13066864013672 C 73.74307250976562 66.51822662353516 76.57891082763672 62.31242752075195 78.55936431884766 57.63008117675781 C 80.60912322998047 52.78392028808594 81.64842987060547 47.63429641723633 81.64842987060547 42.32424163818359 C 81.64842987060547 37.01418685913086 80.60912322998047 31.86454772949219 78.55936431884766 27.01840209960938 C 76.57891082763672 22.33605575561523 73.74307250976562 18.13024139404297 70.13063049316406 14.51779937744141 C 66.5181884765625 10.90536499023438 62.31238555908203 8.069534301757812 57.63005447387695 6.089065551757812 C 52.78389739990234 4.039306640625 47.63426971435547 3 42.32421493530273 3 M 42.32421493530273 0 C 65.69922637939453 0 84.64842987060547 18.94921875 84.64842987060547 42.32424163818359 C 84.64842987060547 65.69925689697266 65.69922637939453 84.64846801757812 42.32421493530273 84.64846801757812 C 18.94920349121094 84.64846801757812 0 65.69925689697266 0 42.32424163818359 C 0 18.94921875 18.94920349121094 0 42.32421493530273 0 Z" stroke="none" fill="#ff9d1c"/>
                        </g>
                      </g>
                    </g>
                  </g>
                </g>
              </g>
            </g>
          </g>
        </g>
      </g>
      <g id="sistema-operacional" transform="translate(192.174 2944.881)">
        <g id="Group_1228295" data-name="Group 1228295" transform="translate(2.843 2.933)">
          <g id="Group_1228291" data-name="Group 1228291">
            <path id="Path_1210667" data-name="Path 1210667" d="M25.21,15.743a9.938,9.938,0,0,0-.437-2.913l2.612-1.684-2.949-4.6L21.815,8.234a10.11,10.11,0,0,0-3.887-2.112V3H12.466V6.113A10.009,10.009,0,0,0,8.58,8.234L5.958,6.55,3,11.147l2.612,1.684a10.246,10.246,0,0,0-.428,2.913,9.938,9.938,0,0,0,.437,2.913L3,20.34l2.958,4.6L8.58,23.253a10.009,10.009,0,0,0,3.887,2.121v3.113h5.461V25.374a10.009,10.009,0,0,0,3.887-2.121l2.621,1.684,2.958-4.6-2.612-1.684a10.246,10.246,0,0,0,.428-2.913ZM15.2,21.2a5.461,5.461,0,1,1,5.461-5.461A5.466,5.466,0,0,1,15.2,21.2Z" transform="translate(-3 -3)" fill="#8aba55"/>
          </g>
          <g id="Group_1228292" data-name="Group 1228292" transform="translate(30.22 29.128)">
            <path id="Path_1210668" data-name="Path 1210668" d="M58.41,47.743a9.938,9.938,0,0,0-.437-2.913l2.621-1.684-2.958-4.6-2.621,1.684a10.009,10.009,0,0,0-3.887-2.121V35H45.666v3.113a10.009,10.009,0,0,0-3.887,2.121L39.158,38.55l-2.958,4.6,2.612,1.684a9.928,9.928,0,0,0,0,5.826L36.2,52.34l2.958,4.6,2.621-1.684a10.009,10.009,0,0,0,3.887,2.121v3.113h5.461V57.374a10.009,10.009,0,0,0,3.887-2.121l2.621,1.684,2.958-4.6-2.612-1.684a10.246,10.246,0,0,0,.428-2.913ZM48.4,53.2a5.461,5.461,0,1,1,5.461-5.461A5.466,5.466,0,0,1,48.4,53.2Z" transform="translate(-36.2 -35)" fill="#7cb5e8"/>
          </g>
          <g id="Group_1228293" data-name="Group 1228293" transform="translate(10.013 10.013)">
            <path id="Path_1210669" data-name="Path 1210669" d="M17.659,34.289a13.848,13.848,0,0,0,1.875,4.533l-2.2,2.976,3.459,3.459,2.976-2.2A13.848,13.848,0,0,0,28.3,44.93l.546,3.659h4.888l.546-3.659a13.848,13.848,0,0,0,4.533-1.875l2.976,2.2L45.249,41.8l-2.2-2.976a13.848,13.848,0,0,0,1.875-4.533l3.659-.546V28.855l-3.659-.546a13.848,13.848,0,0,0-1.875-4.533l2.2-2.976L41.79,17.341l-2.976,2.2a13.848,13.848,0,0,0-4.533-1.875L33.743,14H28.855l-.546,3.659a13.848,13.848,0,0,0-4.533,1.875l-2.976-2.2L17.341,20.79l2.2,2.976A13.848,13.848,0,0,0,17.668,28.3L14,28.846v4.888ZM24.7,31.295a6.6,6.6,0,1,1,6.6,6.6A6.6,6.6,0,0,1,24.7,31.295Z" transform="translate(-14 -14)" fill="#ffab03"/>
          </g>
          <g id="Group_1228294" data-name="Group 1228294" transform="translate(18.951 10.013)" opacity="0.3">
            <path id="Path_1210670" data-name="Path 1210670" d="M43.936,23.767l2.2-2.976L42.68,17.331l-2.976,2.2a13.848,13.848,0,0,0-4.533-1.875L34.625,14H29.737l-.546,3.659a13.848,13.848,0,0,0-4.533,1.875l-.537-.391a16.036,16.036,0,0,0-.3,3.049,15.769,15.769,0,0,0,1.939,7.6,6.6,6.6,0,1,1,9.13,7.519,15.74,15.74,0,0,0,4.8.737,16,16,0,0,0,5.143-.865,13.66,13.66,0,0,0,.992-2.9l3.659-.546V28.846L45.82,28.3a14.15,14.15,0,0,0-1.884-4.533Z" transform="translate(-23.82 -14)" fill="#fff"/>
          </g>
        </g>
        <g id="Group_1228305" data-name="Group 1228305" transform="translate(1.253 2.25)">
          <g id="Group_1228296" data-name="Group 1228296" transform="translate(10.911 10.004)">
            <path id="Path_1210671" data-name="Path 1210671" d="M33.675,49.2H28.787a.677.677,0,0,1-.674-.583l-.482-3.2a14.564,14.564,0,0,1-3.9-1.611l-2.6,1.921a.691.691,0,0,1-.892-.064L16.781,42.2a.69.69,0,0,1-.064-.892l1.921-2.6a14.442,14.442,0,0,1-1.611-3.9l-3.2-.473a.677.677,0,0,1-.583-.674V28.778a.677.677,0,0,1,.583-.674l3.2-.473a14.74,14.74,0,0,1,1.611-3.9l-1.921-2.6a.691.691,0,0,1,.064-.892l3.459-3.459a.69.69,0,0,1,.892-.064l2.6,1.921a14.442,14.442,0,0,1,3.9-1.611l.482-3.2a.684.684,0,0,1,.674-.583h4.888a.677.677,0,0,1,.674.583l.482,3.2a14.564,14.564,0,0,1,3.9,1.611l2.6-1.921a.691.691,0,0,1,.892.064l3.459,3.459a.69.69,0,0,1,.064.892l-1.921,2.6a14.442,14.442,0,0,1,1.611,3.9l3.2.473a.677.677,0,0,1,.583.674v4.888a.677.677,0,0,1-.583.674l-3.2.473a14.564,14.564,0,0,1-1.611,3.9l1.921,2.6a.691.691,0,0,1-.064.892l-3.459,3.459a.69.69,0,0,1-.892.064l-2.6-1.921a14.442,14.442,0,0,1-3.9,1.611l-.482,3.2A.684.684,0,0,1,33.675,49.2Zm-4.305-1.365h3.714l.455-3.077a.679.679,0,0,1,.528-.564,13.372,13.372,0,0,0,4.315-1.784.671.671,0,0,1,.774.027l2.5,1.848,2.621-2.631-1.848-2.5a.671.671,0,0,1-.027-.774,12.98,12.98,0,0,0,1.784-4.315.678.678,0,0,1,.564-.528l3.077-.455V29.369l-3.077-.455a.679.679,0,0,1-.564-.528A13.289,13.289,0,0,0,42.4,24.072a.671.671,0,0,1,.027-.774l1.848-2.5-2.621-2.621-2.5,1.848a.687.687,0,0,1-.774.027,13.289,13.289,0,0,0-4.315-1.784.678.678,0,0,1-.528-.564l-.455-3.077H29.369L28.914,17.7a.679.679,0,0,1-.528.564,13.372,13.372,0,0,0-4.315,1.784.671.671,0,0,1-.774-.027l-2.5-1.848-2.631,2.621,1.848,2.5a.671.671,0,0,1,.027.774,13.289,13.289,0,0,0-1.784,4.315.678.678,0,0,1-.564.528l-3.077.455v3.714l3.077.455a.679.679,0,0,1,.564.528,13.372,13.372,0,0,0,1.784,4.315.671.671,0,0,1-.027.774l-1.848,2.5,2.631,2.631,2.5-1.848a.671.671,0,0,1,.774-.027A13.289,13.289,0,0,0,28.386,44.2a.678.678,0,0,1,.528.564Zm1.857-9.33a7.282,7.282,0,1,1,7.282-7.282A7.292,7.292,0,0,1,31.226,38.508Zm0-13.2a5.917,5.917,0,1,0,5.917,5.917A5.922,5.922,0,0,0,31.226,25.31Z" transform="translate(-13.24 -13.24)"/>
          </g>
          <g id="Group_1228297" data-name="Group 1228297" transform="translate(2.728 27.307)">
            <path id="Path_1210672" data-name="Path 1210672" d="M30.419,59.1A26.2,26.2,0,0,1,4.25,32.933a.683.683,0,1,1,1.365,0,24.827,24.827,0,0,0,24.8,24.8.683.683,0,0,1,0,1.365Z" transform="translate(-4.25 -32.25)"/>
          </g>
          <g id="Group_1228298" data-name="Group 1228298" transform="translate(28.215 1.82)">
            <path id="Path_1210673" data-name="Path 1210673" d="M58.419,31.1a.688.688,0,0,1-.683-.683,24.827,24.827,0,0,0-24.8-24.8.683.683,0,1,1,0-1.365A26.2,26.2,0,0,1,59.1,30.419.688.688,0,0,1,58.419,31.1Z" transform="translate(-32.25 -4.25)"/>
          </g>
          <g id="Group_1228299" data-name="Group 1228299" transform="translate(50.973 25.489)">
            <path id="Path_1210674" data-name="Path 1210674" d="M60.664,34.346a.675.675,0,0,1-.482-.2L57.45,31.415a.682.682,0,1,1,.965-.965L60.664,32.7l2.248-2.248a.682.682,0,0,1,.965.965l-2.731,2.731a.675.675,0,0,1-.482.2Z" transform="translate(-57.253 -30.252)"/>
          </g>
          <g id="Group_1228300" data-name="Group 1228300" transform="translate(0 26.399)">
            <path id="Path_1210675" data-name="Path 1210675" d="M7.394,35.346a.675.675,0,0,1-.482-.2L4.664,32.9,2.415,35.146a.682.682,0,0,1-.965-.965L4.181,31.45a.687.687,0,0,1,.965,0l2.731,2.731a.687.687,0,0,1,0,.965.675.675,0,0,1-.482.2Z" transform="translate(-1.253 -31.252)"/>
          </g>
          <g id="Group_1228301" data-name="Group 1228301" transform="translate(0.902)">
            <path id="Path_1210676" data-name="Path 1210676" d="M12.016,25.853a.534.534,0,0,1-.209-.036,10.706,10.706,0,0,1-3.35-1.793l-2.2,1.42a.69.69,0,0,1-.947-.209l-2.958-4.6a.675.675,0,0,1-.091-.51.683.683,0,0,1,.3-.428l2.194-1.411a10.537,10.537,0,0,1-.328-2.612,10.984,10.984,0,0,1,.328-2.612L2.559,11.653a.683.683,0,0,1-.3-.428.711.711,0,0,1,.091-.51l2.967-4.6a.678.678,0,0,1,.938-.209l2.2,1.42a10.942,10.942,0,0,1,3.259-1.784V2.933A.688.688,0,0,1,12.4,2.25H17.86a.688.688,0,0,1,.683.683V5.545A10.743,10.743,0,0,1,21.8,7.329L24,5.909a.69.69,0,0,1,.947.209l2.4,3.732a.682.682,0,1,1-1.147.737l-2.03-3.159-2.048,1.32a.685.685,0,0,1-.819-.064A9.285,9.285,0,0,0,17.687,6.71a.691.691,0,0,1-.5-.655V3.615h-4.1v2.43a.672.672,0,0,1-.5.655A9.285,9.285,0,0,0,8.967,8.676a.685.685,0,0,1-.819.064L6.091,7.429,3.879,10.87l2.039,1.311a.682.682,0,0,1,.282.774,9.564,9.564,0,0,0-.4,2.722,9.159,9.159,0,0,0,.41,2.713.682.682,0,0,1-.282.774L3.888,20.473,6.1,23.914l2.048-1.32a.685.685,0,0,1,.819.064,9.224,9.224,0,0,0,3.268,1.857.686.686,0,0,1-.218,1.338Z" transform="translate(-2.243 -2.25)"/>
          </g>
          <g id="Group_1228302" data-name="Group 1228302" transform="translate(7.644 7.282)">
            <path id="Path_1210677" data-name="Path 1210677" d="M14.456,22.365a1,1,0,0,1-.164-.018,6.142,6.142,0,1,1,6.845-8.984.681.681,0,0,1-1.183.674,4.774,4.774,0,1,0-5.316,6.982.675.675,0,0,1,.492.828A.7.7,0,0,1,14.456,22.365Z" transform="translate(-9.65 -10.25)"/>
          </g>
          <g id="Group_1228303" data-name="Group 1228303" transform="translate(31.677 32.389)">
            <path id="Path_1210678" data-name="Path 1210678" d="M51.115,61.424H45.653a.688.688,0,0,1-.683-.683V58.129a10.551,10.551,0,0,1-3.259-1.784l-2.2,1.42a.652.652,0,0,1-.519.091.683.683,0,0,1-.428-.3l-2.4-3.732a.682.682,0,1,1,1.147-.737l2.03,3.159,2.048-1.32a.685.685,0,0,1,.819.064,9.17,9.17,0,0,0,3.623,1.975.691.691,0,0,1,.5.655v2.43h4.1v-2.43a.672.672,0,0,1,.5-.655,9.35,9.35,0,0,0,3.623-1.975.685.685,0,0,1,.819-.064l2.048,1.32L59.625,52.8l-2.039-1.311a.682.682,0,0,1-.282-.774,9.186,9.186,0,0,0,0-5.425.682.682,0,0,1,.282-.774l2.039-1.311-2.212-3.441-2.048,1.32a.685.685,0,0,1-.819-.064,9.224,9.224,0,0,0-3.268-1.857.685.685,0,1,1,.428-1.3,10.706,10.706,0,0,1,3.35,1.793l2.2-1.42a.675.675,0,0,1,.51-.091.683.683,0,0,1,.428.3l2.958,4.6a.69.69,0,0,1-.209.947l-2.185,1.393a10.577,10.577,0,0,1,0,5.225l2.194,1.411a.678.678,0,0,1,.2.947l-2.958,4.6a.683.683,0,0,1-.428.3.711.711,0,0,1-.51-.091l-2.2-1.42A10.743,10.743,0,0,1,51.8,58.138v2.6a.682.682,0,0,1-.683.683Z" transform="translate(-36.053 -37.833)"/>
          </g>
          <g id="Group_1228304" data-name="Group 1228304" transform="translate(38.577 36.589)">
            <path id="Path_1210679" data-name="Path 1210679" d="M49.064,54.556a6.161,6.161,0,0,1-5.343-3.113.682.682,0,0,1,.255-.928.674.674,0,0,1,.928.255,4.774,4.774,0,1,0,5.316-6.982.675.675,0,0,1-.492-.828.682.682,0,0,1,.828-.492,6.136,6.136,0,0,1-1.493,12.088Z" transform="translate(-43.634 -42.447)"/>
          </g>
        </g>
      </g>
    </g>
  </g>
</svg>
